<?xml version="1.0" encoding="UTF-8"?>
<svg width="75px" height="80px" viewBox="0 0 75 80" version="1.1" xmlns="http://www.w3.org/2000/svg" xmlns:xlink="http://www.w3.org/1999/xlink">
    <title>D7945DCD-37C7-405D-9D43-0D66DA4CC9C9@0,5x</title>
    <g id="Learning-Role-Guru" stroke="none" stroke-width="1" fill="none" fill-rule="evenodd">
        <g id="Icon-widget" transform="translate(-1219.000000, -330.000000)" fill="#0091FF" fill-rule="nonzero">
            <g id="Meeting-on" transform="translate(1219.000000, 330.000000)">
                <path d="M4,41.3333336 L70.6666664,41.3333336 C71.0203511,41.3333336 71.3596082,41.193127 71.609701,40.9430343 C71.8597937,40.6929416 72.0000002,40.3536845 72.0000002,39.9999998 L72.0000002,34.6666667 C72.0000002,34.3129822 71.8597937,33.9737251 71.609701,33.7236324 C71.3596082,33.4735396 71.0203511,33.3331293 70.6666664,33.3333333 L68,33.3333333 L68,1.33333333 C68.000204,0.979648851 67.8597937,0.640391768 67.609701,0.39029903 C67.3596082,0.140206293 67.0203511,-2.21952519e-07 66.6666664,-2.21952519e-07 L8,-2.21952519e-07 C7.64631552,-2.21952519e-07 7.30705843,0.140206293 7.0569657,0.39029903 C6.80687296,0.640391768 6.66646268,0.979648851 6.66666644,1.33333333 L6.66666644,33.3333333 L4,33.3333333 C3.64631552,33.3331293 3.30705843,33.4735396 3.0569657,33.7236324 C2.80687296,33.9737251 2.66666644,34.3129822 2.66666644,34.6666667 L2.66666644,39.9999998 C2.66666644,40.3536845 2.80687296,40.6929416 3.0569657,40.9430343 C3.30705843,41.193127 3.64631552,41.3333336 4,41.3333336 Z M9.33333333,2.66666667 L65.3333333,2.66666667 L65.3333333,33.3333333 L30.6666667,33.3333333 L30.6666667,28 C30.6668707,27.6463155 30.5264604,27.3070584 30.2763676,27.0569657 C30.0262749,26.806873 29.6870178,26.6664627 29.3333333,26.6666667 L18.6666667,26.6666667 C18.3129822,26.6664627 17.9737251,26.806873 17.7236324,27.0569657 C17.4735396,27.3070584 17.3331293,27.6463155 17.3333333,28 L17.3333333,33.3333333 L9.33333333,33.3333333 L9.33333333,2.66666667 Z M28,33.3333333 L20,33.3333333 L20,29.3333333 L28,29.3333333 L28,33.3333333 Z M5.33333333,36 L69.3333333,36 L69.3333333,38.6666667 L5.33333333,38.6666667 L5.33333333,36 Z" id="Shape"></path>
                <rect id="Rectangle" x="21.3333333" y="49.3333333" width="5.33333333" height="2.66666667"></rect>
                <rect id="Rectangle" x="48" y="49.3333333" width="5.33333333" height="2.66666667"></rect>
                <path d="M73.3333333,46.6666667 L59.1254883,46.6666667 L58.6106767,44.95052 C58.441258,44.3865505 57.9222002,44 57.3333333,44 L43.9999998,44 C43.4111331,44 42.8920754,44.3865505 42.7226567,44.95052 L42.207845,46.6666667 L32.4588217,46.6666667 L31.94401,44.95052 C31.7745913,44.3865505 31.2555335,44 30.6666667,44 L17.3333333,44 C16.7444665,44 16.2254087,44.3865505 16.05599,44.95052 L15.5411783,46.6666667 L1.33333333,46.6666667 C0.979648851,46.6664627 0.640391768,46.806873 0.39029903,47.0569657 C0.140206293,47.3070584 -2.21952519e-07,47.6463155 -2.21952519e-07,48 L-2.21952519e-07,53.3333333 C-2.21952519e-07,53.6870178 0.140206293,54.0262749 0.39029903,54.2763676 C0.640391768,54.5264604 0.979648851,54.6668707 1.33333333,54.6666667 L2.66666667,54.6666667 L2.66666667,78.6666667 C2.66646268,79.0203511 2.80687296,79.3596082 3.0569657,79.609701 C3.30705843,79.8597937 3.64631552,80 3.99999978,80 L6.66666667,80 C7.34906416,80 7.92127184,79.4846928 7.99218667,78.80599 L10.5332033,54.6666667 L13.1411133,54.6666667 L12.05599,58.2838533 C12.0191092,58.4081222 12.0002536,58.5370408 11.9999998,58.6666667 L11.9999998,62.6666667 C12.0059786,64.3962079 13.1250794,65.9251517 14.7718917,66.453695 L16.00651,78.79948 C16.0748401,79.4810177 16.6483789,80 17.3333333,80 L19.9999998,80 C20.6849544,80 21.2584933,79.4810177 21.3268233,78.79948 L22.54012,66.6666667 L25.45988,66.6666667 L26.6731767,78.79948 C26.7415067,79.4810177 27.3150456,80 27.9999998,80 L30.6666667,80 C31.3516211,80 31.9251599,79.4810177 31.99349,78.79948 L33.2280267,66.453695 C34.8748922,65.9252095 35.9940441,64.396241 35.9999998,62.6666667 L35.9999998,58.6666667 C35.9997464,58.5370408 35.9808908,58.4081222 35.94401,58.2838533 L34.8588867,54.6666667 L39.80778,54.6666667 L38.7226567,58.2838533 C38.6857759,58.4081222 38.6669203,58.5370408 38.6666667,58.6666667 L38.6666667,62.6666667 C38.6726452,64.3962079 39.7917461,65.9251517 41.4385583,66.453695 L42.6731767,78.79948 C42.7415067,79.4810177 43.3150456,80 43.9999998,80 L46.6666667,80 C47.3516211,80 47.9251599,79.4810177 47.99349,78.79948 L49.2067867,66.6666667 L52.1265467,66.6666667 L53.3398433,78.79948 C53.4081734,79.4810177 53.9817122,80 54.6666667,80 L57.3333333,80 C58.0182878,80 58.5918266,79.4810177 58.6601567,78.79948 L59.8946933,66.453695 C61.5415589,65.9252095 62.6607107,64.396241 62.6666667,62.6666667 L62.6666667,58.6666667 C62.666413,58.5370408 62.6475575,58.4081222 62.6106767,58.2838533 L61.5255533,54.6666667 L64.1334633,54.6666667 L66.67448,78.80599 C66.7453948,79.4846928 67.3176025,80 67.9999998,80 L70.6666667,80 C71.0203511,80 71.3596082,79.8597937 71.609701,79.609701 C71.8597937,79.3596082 72.000204,79.0203511 71.9999998,78.6666667 L71.9999998,54.6666667 L73.3333333,54.6666667 C73.6870178,54.6668707 74.0262749,54.5264604 74.2763676,54.2763676 C74.5264604,54.0262749 74.6666669,53.6870178 74.6666669,53.3333333 L74.6666669,48 C74.6666669,47.6463155 74.5264604,47.3070584 74.2763676,47.0569657 C74.0262749,46.806873 73.6870178,46.6664627 73.3333333,46.6666667 L73.3333333,46.6666667 Z M5.46614667,77.3333333 L5.33333333,77.3333333 L5.33333333,54.6666667 L7.85278333,54.6666667 L5.46614667,77.3333333 Z M2.66666667,52 L2.66666667,49.3333333 L14.74113,49.3333333 L13.9411667,52 L2.66666667,52 Z M18.7929683,77.3333333 L18.540365,77.3333333 L17.47347,66.6666667 L19.8598633,66.6666667 L18.7929683,77.3333333 Z M29.2070317,77.3333333 L28.1401367,66.6666667 L30.52653,66.6666667 L29.459635,77.3333333 L29.2070317,77.3333333 Z M33.3333333,62.6666667 C33.332836,63.4028402 32.7361736,63.9995027 32,64 L16,64 C15.2638264,63.9995027 14.667164,63.4028402 14.6666667,62.6666667 L14.6666667,58.86198 L18.32552,46.6666667 L29.67448,46.6666667 L33.3333333,58.86198 L33.3333333,62.6666667 Z M34.0588333,52 L33.258865,49.3333333 L41.4077917,49.3333333 L40.6078333,52 L34.0588333,52 Z M45.45963,77.3333333 L45.2070267,77.3333333 L44.1401317,66.6666667 L46.526525,66.6666667 L45.45963,77.3333333 Z M55.8736933,77.3333333 L54.8067983,66.6666667 L57.1931917,66.6666667 L56.1262967,77.3333333 L55.8736933,77.3333333 Z M60,62.6666667 C59.9995027,63.4028402 59.4028402,63.9995027 58.6666667,64 L42.6666667,64 C41.9304931,63.9995027 41.3338307,63.4028402 41.3333333,62.6666667 L41.3333333,58.86198 L44.9921867,46.6666667 L56.3411467,46.6666667 L60,58.86198 L60,62.6666667 Z M69.3333333,77.3333333 L69.20052,77.3333333 L66.8138833,54.6666667 L69.3333333,54.6666667 L69.3333333,77.3333333 Z M72,52 L60.7255,52 L59.9255317,49.3333333 L72,49.3333333 L72,52 Z" id="Shape"></path>
            </g>
        </g>
    </g>
</svg>