<?xml version="1.0" encoding="UTF-8"?>
<svg width="80px" height="95px" viewBox="0 0 80 95" version="1.1" xmlns="http://www.w3.org/2000/svg" xmlns:xlink="http://www.w3.org/1999/xlink">
    <title>A277D362-6824-4064-84C1-7B9DFB47A6B6@0,5x</title>
    <g id="Learning-Role-Guru" stroke="none" stroke-width="1" fill="none" fill-rule="evenodd">
        <g id="Icon-widget" transform="translate(-378.000000, -75.000000)" fill-rule="nonzero">
            <g id="Pertemuan-off" transform="translate(378.000000, 75.000000)">
                <path d="M79.9401596,81.3031915 L77.293883,62.7792553 L77.293883,22.9787234 C77.2873109,20.7781878 75.5050569,18.9959338 73.3045213,18.9893617 L58.6768617,18.9893617 L58.6768617,21.6489362 L73.3045213,21.6489362 C74.0389425,21.6489362 74.6343085,22.2443022 74.6343085,22.9787234 L74.6343085,61.5425532 L73.3045213,61.5425532 L73.3045213,24.3085106 C73.3045213,23.5740894 72.7091553,22.9787234 71.974734,22.9787234 L67.9853723,22.9787234 L67.9853723,25.6382979 L70.6449468,25.6382979 L70.6449468,61.5425532 L9.47473404,61.5425532 L9.47473404,25.6382979 L12.1343085,25.6382979 L12.1343085,22.9787234 L8.14494681,22.9787234 C7.4105256,22.9787234 6.81515957,23.5740894 6.81515957,24.3085106 L6.81515957,61.5425532 L5.48537234,61.5425532 L5.48537234,22.9787234 C5.48537234,22.2443022 6.08073836,21.6489362 6.81515957,21.6489362 L21.4428191,21.6489362 L21.4428191,18.9893617 L6.81515957,18.9893617 C4.61462394,18.9959338 2.83236995,20.7781878 2.82579787,22.9787234 L2.82579787,62.7792553 L0.179521277,81.3031915 C0.168483951,81.3645992 0.164026126,81.4270087 0.165678967,81.4893617 L0.165678967,86.8085106 C0.170604789,88.2755344 1.35877411,89.4637037 2.82579787,89.4680851 L16.1236702,89.4680851 L16.1236702,94.787234 L18.7832447,94.787234 L18.7832447,88.1382979 C18.783888,87.8772069 18.7050385,87.6221056 18.5571809,87.4069149 L16.1236702,83.75 L16.1236702,74.1755319 C16.1236702,73.8083213 16.4213532,73.5106383 16.7885638,73.5106383 C17.1557744,73.5106383 17.4534574,73.8083213 17.4534574,74.1755319 L17.4534574,77.5 L20.1130319,77.5 L20.1130319,71.5159574 C20.1130319,71.1487468 20.4107149,70.8510638 20.7779255,70.8510638 C21.1451361,70.8510638 21.4428191,71.1487468 21.4428191,71.5159574 L21.4428191,76.1702128 L24.1023936,76.1702128 L24.1023936,68.856383 C24.1023936,68.4891724 24.4000766,68.1914894 24.7672872,68.1914894 C25.1344978,68.1914894 25.4321809,68.4891724 25.4321809,68.856383 L25.4321809,76.1702128 L28.0917553,76.1702128 L28.0917553,70.1861702 C28.0917553,69.8189596 28.3894383,69.5212766 28.7566489,69.5212766 C29.1238595,69.5212766 29.4215426,69.8189596 29.4215426,70.1861702 L29.4215426,80.1595745 L32.081117,80.1595745 L32.081117,76.8351064 C32.081117,76.4678958 32.3788,76.1702128 32.7460106,76.1702128 C33.1132212,76.1702128 33.4109043,76.4678958 33.4109043,76.8351064 L33.4109043,84.7606383 L30.0199468,87.0345745 C29.6484239,87.2792334 29.4238439,87.6934586 29.4215426,88.1382979 L29.4215426,94.787234 L32.081117,94.787234 L32.081117,89.4680851 L48.0385638,89.4680851 L48.0385638,94.787234 L50.6981383,94.787234 L50.6981383,88.1382979 C50.6958369,87.6934586 50.4712569,87.2792334 50.099734,87.0345745 L46.7087766,84.7606383 L46.7087766,76.8351064 C46.7087766,76.4678958 47.0064596,76.1702128 47.3736702,76.1702128 C47.7408808,76.1702128 48.0385638,76.4678958 48.0385638,76.8351064 L48.0385638,80.1595745 L50.6981383,80.1595745 L50.6981383,70.1861702 C50.6981383,69.8189596 50.9958213,69.5212766 51.3630319,69.5212766 C51.7302425,69.5212766 52.0279255,69.8189596 52.0279255,70.1861702 L52.0279255,76.1702128 L54.6875,76.1702128 L54.6875,68.856383 C54.6875,68.4891724 54.985183,68.1914894 55.3523936,68.1914894 C55.7196042,68.1914894 56.0172872,68.4891724 56.0172872,68.856383 L56.0172872,76.1702128 L58.6768617,76.1702128 L58.6768617,71.5159574 C58.6768617,71.1487468 58.9745447,70.8510638 59.3417553,70.8510638 C59.7089659,70.8510638 60.0066489,71.1487468 60.0066489,71.5159574 L60.0066489,77.5 L62.6662234,77.5 L62.6662234,74.1755319 C62.6662234,73.8083213 62.9639064,73.5106383 63.331117,73.5106383 C63.6983276,73.5106383 63.9960106,73.8083213 63.9960106,74.1755319 L63.9960106,83.75 L61.5625,87.4069149 C61.4146423,87.6221056 61.3357928,87.8772069 61.3364362,88.1382979 L61.3364362,94.787234 L63.9960106,94.787234 L63.9960106,89.4680851 L77.293883,89.4680851 C78.7609067,89.4637037 79.9490761,88.2755344 79.9540019,86.8085106 L79.9540019,81.4893617 C79.9556547,81.4270087 79.9511969,81.3645992 79.9401596,81.3031915 L79.9401596,81.3031915 Z M2.82579787,86.8085106 L2.82579787,82.8191489 L13.4640957,82.8191489 L13.4640957,84.1489362 C13.4634524,84.4100272 13.5423019,84.6651285 13.6901596,84.8803191 L14.9667553,86.8085106 L2.82579787,86.8085106 Z M35.1396277,86.8085106 L35.4720745,86.5824468 C35.8435974,86.3377879 36.0681773,85.9235626 36.0704787,85.4787234 L36.0704787,82.8191489 L44.0492021,82.8191489 L44.0492021,85.4787234 C44.0515035,85.9235626 44.2760835,86.3377879 44.6476064,86.5824468 L44.9800532,86.8085106 L35.1396277,86.8085106 Z M63.331117,70.8510638 C63.0894768,70.8498306 62.8485077,70.8766049 62.6130319,70.9308511 C62.3296972,69.3461237 60.9516121,68.1921175 59.3417553,68.1914894 C59.1001151,68.1902561 58.859146,68.2170305 58.6236702,68.2712766 C58.385182,66.9196635 57.3387859,65.8545895 55.9916033,65.5922279 C54.6444208,65.3298663 53.2748134,65.9244276 52.5465426,67.087766 C52.1697102,66.9388462 51.7682226,66.8621575 51.3630319,66.8617021 C49.5269789,66.8617021 48.0385638,68.3501172 48.0385638,70.1861702 L48.0385638,73.5771277 C47.8194436,73.5346011 47.5968726,73.512344 47.3736702,73.5106383 C45.5376172,73.5106383 44.0492021,74.9990534 44.0492021,76.8351064 L44.0492021,80.1595745 L36.0704787,80.1595745 L36.0704787,76.8351064 C36.0704787,74.9990534 34.5820637,73.5106383 32.7460106,73.5106383 C32.5228083,73.512344 32.3002373,73.5346011 32.081117,73.5771277 L32.081117,70.1861702 C32.081117,69.3044665 31.7308616,68.458875 31.1074029,67.8354163 C30.4839442,67.2119576 29.6383527,66.8617021 28.7566489,66.8617021 C28.3514582,66.8621575 27.9499707,66.9388462 27.5731383,67.087766 C26.8448674,65.9244276 25.4752601,65.3298663 24.1280775,65.5922279 C22.7808949,65.8545895 21.7344988,66.9196635 21.4960106,68.2712766 C21.2605348,68.2170305 21.0195657,68.1902561 20.7779255,68.1914894 C19.1680687,68.1921175 17.7899836,69.3461237 17.5066489,70.9308511 C17.2711731,70.8766049 17.030204,70.8498306 16.7885638,70.8510638 C14.9525108,70.8510638 13.4640957,72.3394789 13.4640957,74.1755319 L13.4640957,80.1595745 L3.02526596,80.1595745 L5.3125,64.2021277 L74.8071809,64.2021277 L77.0944149,80.1595745 L66.6555851,80.1595745 L66.6555851,74.1755319 C66.6555851,72.3394789 65.16717,70.8510638 63.331117,70.8510638 Z M77.293883,86.8085106 L65.1529255,86.8085106 L66.4295213,84.8803191 C66.577379,84.6651285 66.6562284,84.4100272 66.6555851,84.1489362 L66.6555851,82.8191489 L77.293883,82.8191489 L77.293883,86.8085106 Z" id="Shape" fill="#424242"></path>
                <g id="exam" transform="translate(20.000000, 0.000000)" fill="#000000">
                    <path d="M25.0457031,14.1668945 L16.7124023,14.1668945 C16.2524414,14.1668945 15.8791016,14.5402344 15.8791016,15.0001953 C15.8791016,15.4601562 16.2524414,15.8334961 16.7124023,15.8334961 L25.0457031,15.8334961 C25.5056641,15.8334961 25.8790039,15.4601562 25.8790039,15.0001953 C25.8790039,14.5402344 25.5056641,14.1668945 25.0457031,14.1668945 Z" id="Path"></path>
                    <path d="M30.0457031,14.1668945 L28.3790039,14.1668945 C27.919043,14.1668945 27.5457031,14.5402344 27.5457031,15.0001953 C27.5457031,15.4601562 27.919043,15.8334961 28.3790039,15.8334961 L30.0457031,15.8334961 C30.5056641,15.8334961 30.8790039,15.4601562 30.8790039,15.0001953 C30.8790039,14.5402344 30.5056641,14.1668945 30.0457031,14.1668945 Z" id="Path"></path>
                    <path d="M19.2123047,17.5001953 L16.7123047,17.5001953 C16.2523438,17.5001953 15.8790039,17.8735352 15.8790039,18.3334961 C15.8790039,18.793457 16.2523438,19.1667969 16.7123047,19.1667969 L19.2123047,19.1667969 C19.6722656,19.1667969 20.0456055,18.793457 20.0456055,18.3334961 C20.0456055,17.8735352 19.6723633,17.5001953 19.2123047,17.5001953 Z" id="Path"></path>
                    <path d="M30.0457031,17.5001953 L22.5457031,17.5001953 C22.0857422,17.5001953 21.7124023,17.8735352 21.7124023,18.3334961 C21.7124023,18.793457 22.0857422,19.1667969 22.5457031,19.1667969 L30.0457031,19.1667969 C30.5056641,19.1667969 30.8790039,18.793457 30.8790039,18.3334961 C30.8790039,17.8735352 30.5056641,17.5001953 30.0457031,17.5001953 Z" id="Path"></path>
                    <path d="M25.0457031,25.8334961 L16.7124023,25.8334961 C16.2524414,25.8334961 15.8791016,26.2068359 15.8791016,26.6667969 C15.8791016,27.1267578 16.2524414,27.5000977 16.7124023,27.5000977 L25.0457031,27.5000977 C25.5056641,27.5000977 25.8790039,27.1267578 25.8790039,26.6667969 C25.8790039,26.2068359 25.5056641,25.8334961 25.0457031,25.8334961 Z" id="Path"></path>
                    <path d="M30.0457031,25.8334961 L28.3790039,25.8334961 C27.919043,25.8334961 27.5457031,26.2068359 27.5457031,26.6667969 C27.5457031,27.1267578 27.919043,27.5000977 28.3790039,27.5000977 L30.0457031,27.5000977 C30.5056641,27.5000977 30.8790039,27.1267578 30.8790039,26.6667969 C30.8790039,26.2068359 30.5056641,25.8334961 30.0457031,25.8334961 Z" id="Path"></path>
                    <path d="M19.2123047,29.1668945 L16.7123047,29.1668945 C16.2523438,29.1668945 15.8790039,29.5402344 15.8790039,30.0001953 C15.8790039,30.4601563 16.2523438,30.8334961 16.7123047,30.8334961 L19.2123047,30.8334961 C19.6722656,30.8334961 20.0456055,30.4601563 20.0456055,30.0001953 C20.0456055,29.5402344 19.6723633,29.1668945 19.2123047,29.1668945 Z" id="Path"></path>
                    <path d="M30.0457031,29.1668945 L22.5457031,29.1668945 C22.0857422,29.1668945 21.7124023,29.5402344 21.7124023,30.0001953 C21.7124023,30.4601563 22.0857422,30.8334961 22.5457031,30.8334961 L30.0457031,30.8334961 C30.5056641,30.8334961 30.8790039,30.4601563 30.8790039,30.0001953 C30.8790039,29.5402344 30.5056641,29.1668945 30.0457031,29.1668945 Z" id="Path"></path>
                    <path d="M9.80146484,17.7443359 L7.30146484,15.2443359 C6.97646484,14.918457 6.44814453,14.918457 6.12314453,15.2443359 C5.79726562,15.5702148 5.79726562,16.096875 6.12314453,16.4226562 L8.62314453,18.9226562 C8.78564453,19.0851562 8.99902344,19.1667969 9.21230469,19.1667969 C9.42568359,19.1667969 9.63896484,19.0851562 9.80146484,18.9226562 C10.1273438,18.596875 10.1273438,18.0702148 9.80146484,17.7443359 Z" id="Path"></path>
                    <path d="M13.8631836,11.821875 C13.4881836,11.5551758 12.9681641,11.6410156 12.7006836,12.0160156 L8.53398438,17.8493164 C8.26650391,18.2234375 8.353125,18.7443359 8.72734375,19.0118164 C8.87480469,19.1160156 9.04404297,19.1667969 9.21152344,19.1667969 C9.47148438,19.1667969 9.72822266,19.0451172 9.88984375,18.8176758 L14.056543,12.984375 C14.3240234,12.6101562 14.2373047,12.0893555 13.8631836,11.821875 Z" id="Path"></path>
                    <path d="M12.7548828,18.3601562 C12.309082,18.2459961 11.8548828,18.5126953 11.7390625,18.9584961 C11.4624023,20.0268555 10.3756836,20.8334961 9.21240234,20.8334961 C8.04912109,20.8334961 6.96240234,20.0268555 6.68574219,18.9576172 C6.56992188,18.5118164 6.1140625,18.2442383 5.66992188,18.3592773 C5.22490234,18.4750977 4.95742188,18.9300781 5.07246094,19.3750977 C5.54160156,21.1859375 7.28242188,22.5000977 9.2125,22.5000977 C11.1424805,22.5000977 12.8833008,21.1859375 13.3525391,19.3759766 C13.4681641,18.9310547 13.2006836,18.4760742 12.7548828,18.3601562 Z" id="Path"></path>
                    <path d="M10.2556641,11.7994141 C9.21484375,11.5286133 8.05986328,11.684375 7.12480469,12.2310547 C6.728125,12.4635742 6.59394531,12.9735352 6.82646484,13.3710938 C6.98144531,13.6361328 7.25976563,13.7835938 7.54648437,13.7835938 C7.68896484,13.7835938 7.83398437,13.7469727 7.96650391,13.6694336 C8.52402344,13.3427734 9.21738281,13.2519531 9.83652344,13.4119141 C10.281543,13.5277344 10.7365234,13.2611328 10.8523437,12.8152344 C10.9681641,12.3702148 10.7014648,11.9152344 10.2556641,11.7994141 Z" id="Path"></path>
                    <path d="M9.21230469,25.0001953 C7.37392578,25.0001953 5.87900391,26.4952148 5.87900391,28.3334961 C5.87900391,30.171875 7.37402344,31.6667969 9.21230469,31.6667969 C11.0506836,31.6667969 12.5456055,30.1717773 12.5456055,28.3334961 C12.5456055,26.4952148 11.0506836,25.0001953 9.21230469,25.0001953 Z M9.21230469,30.0001953 C8.29316406,30.0001953 7.54560547,29.2527344 7.54560547,28.3334961 C7.54560547,27.4143555 8.29306641,26.6667969 9.21230469,26.6667969 C10.1314453,26.6667969 10.8790039,27.4142578 10.8790039,28.3334961 C10.8790039,29.2527344 10.131543,30.0001953 9.21230469,30.0001953 Z" id="Shape"></path>
                    <path d="M25.0457031,35.8334961 L16.7124023,35.8334961 C16.2524414,35.8334961 15.8791016,36.2068359 15.8791016,36.6667969 C15.8791016,37.1267578 16.2524414,37.5000977 16.7124023,37.5000977 L25.0457031,37.5000977 C25.5056641,37.5000977 25.8790039,37.1267578 25.8790039,36.6667969 C25.8790039,36.2068359 25.5056641,35.8334961 25.0457031,35.8334961 Z" id="Path"></path>
                    <path d="M30.0457031,35.8334961 L28.3790039,35.8334961 C27.919043,35.8334961 27.5457031,36.2068359 27.5457031,36.6667969 C27.5457031,37.1267578 27.919043,37.5000977 28.3790039,37.5000977 L30.0457031,37.5000977 C30.5056641,37.5000977 30.8790039,37.1267578 30.8790039,36.6667969 C30.8790039,36.2068359 30.5056641,35.8334961 30.0457031,35.8334961 Z" id="Path"></path>
                    <path d="M19.2123047,39.1668945 L16.7123047,39.1668945 C16.2523438,39.1668945 15.8790039,39.5402344 15.8790039,40.0001953 C15.8790039,40.4601563 16.2523438,40.8334961 16.7123047,40.8334961 L19.2123047,40.8334961 C19.6722656,40.8334961 20.0456055,40.4601563 20.0456055,40.0001953 C20.0456055,39.5402344 19.6723633,39.1668945 19.2123047,39.1668945 Z" id="Path"></path>
                    <path d="M30.0457031,39.1668945 L22.5457031,39.1668945 C22.0857422,39.1668945 21.7124023,39.5402344 21.7124023,40.0001953 C21.7124023,40.4601563 22.0857422,40.8334961 22.5457031,40.8334961 L30.0457031,40.8334961 C30.5056641,40.8334961 30.8790039,40.4601563 30.8790039,40.0001953 C30.8790039,39.5402344 30.5056641,39.1668945 30.0457031,39.1668945 Z" id="Path"></path>
                    <path d="M9.21230469,35.0001953 C7.37392578,35.0001953 5.87900391,36.4952148 5.87900391,38.3334961 C5.87900391,40.171875 7.37402344,41.6667969 9.21230469,41.6667969 C11.0506836,41.6667969 12.5456055,40.1717773 12.5456055,38.3334961 C12.5457031,36.4952148 11.0506836,35.0001953 9.21230469,35.0001953 Z M9.21230469,40.0001953 C8.29316406,40.0001953 7.54560547,39.2527344 7.54560547,38.3334961 C7.54560547,37.4143555 8.29306641,36.6667969 9.21230469,36.6667969 C10.1314453,36.6667969 10.8790039,37.4142578 10.8790039,38.3334961 C10.8790039,39.2527344 10.131543,40.0001953 9.21230469,40.0001953 Z" id="Shape"></path>
                    <path d="M35.603125,7.71435547 L27.2698242,0.214355469 C27.1165039,0.0759765625 26.9181641,0.0001953125 26.7123047,0.0001953125 L0.879003906,0.0001953125 C0.419042969,0.0001953125 0.045703125,0.373535156 0.045703125,0.833496094 L0.045703125,45.8334961 C0.045703125,46.293457 0.419042969,46.6667969 0.879003906,46.6667969 L35.0457031,46.6667969 C35.5056641,46.6667969 35.8790039,46.293457 35.8790039,45.8334961 L35.8790039,8.33349609 C35.8790039,8.09765625 35.7790039,7.87265625 35.603125,7.71435547 Z M34.2123047,45.0001953 L1.71230469,45.0001953 L1.71230469,1.66689453 L26.3922852,1.66689453 L34.2123047,8.70527344 L34.2123047,45.0001953 Z" id="Shape"></path>
                    <path d="M35.603125,7.71357422 L27.2698242,0.213574219 C27.0256836,-0.0064453125 26.6740234,-0.0614257813 26.3731445,0.071875 C26.0722656,0.206054687 25.8790039,0.504394531 25.8790039,0.833496094 L25.8790039,8.33349609 C25.8790039,8.79345703 26.2523437,9.16679687 26.7123047,9.16679687 L35.0456055,9.16679687 C35.390625,9.16679687 35.6998047,8.95429687 35.8239258,8.63183594 C35.9473633,8.309375 35.8598633,7.94433594 35.603125,7.71357422 Z M27.5457031,7.50019531 L27.5457031,2.70439453 L32.8740234,7.50019531 L27.5457031,7.50019531 Z" id="Shape"></path>
                    <path d="M38.3790039,3.33349609 L30.4157227,3.33349609 C30.0707031,3.33349609 29.7615234,3.54599609 29.6374023,3.86767578 C29.5140625,4.19013672 29.6015625,4.55517578 29.8582031,4.78603516 L34.2124023,8.70439453 L34.2124023,45.0001953 L4.21240234,45.0001953 C3.75244141,45.0001953 3.37910156,45.3735352 3.37910156,45.8334961 L3.37910156,49.1667969 C3.37910156,49.6267578 3.75244141,50.0000977 4.21240234,50.0000977 L38.3791016,50.0000977 C38.8390625,50.0000977 39.2124023,49.6267578 39.2124023,49.1667969 L39.2124023,4.16679687 C39.2124023,3.70683594 38.8389648,3.33349609 38.3790039,3.33349609 Z M37.5457031,48.3334961 L5.04570313,48.3334961 L5.04570313,46.6667969 L35.0457031,46.6667969 C35.5056641,46.6667969 35.8790039,46.293457 35.8790039,45.8334961 L35.8790039,8.33349609 C35.8790039,8.096875 35.7790039,7.871875 35.603125,7.71435547 L32.5873047,5.00019531 L37.5457031,5.00019531 L37.5457031,48.3334961 L37.5457031,48.3334961 Z" id="Shape"></path>
                </g>
            </g>
        </g>
    </g>
</svg>