<?xml version="1.0" encoding="UTF-8"?>
<svg width="25px" height="24px" viewBox="0 0 25 24" version="1.1" xmlns="http://www.w3.org/2000/svg" xmlns:xlink="http://www.w3.org/1999/xlink">
    <title>86EB27D9-BBBC-45B3-8D16-E57733C2A0AA@2x</title>
    <g id="FLOW-MEETING" stroke="none" stroke-width="1" fill="none" fill-rule="evenodd">
        <g id="Landing-Page-3" transform="translate(-101.000000, -1025.000000)" fill="#FFFFFF" fill-rule="nonzero" stroke="#263866" stroke-width="3">
            <g id="Group-4" transform="translate(103.000000, 1027.000000)">
                <path d="M14.3164251,4.40338164 L10.089372,0.176328502 C9.97584541,0.0640096618 9.82246377,0 9.66183575,0 L1.8115942,0 C0.812801932,0 0,0.812801932 0,1.8115942 L0,15.0966184 C0,16.0954106 0.812801932,16.9082126 1.8115942,16.9082126 L12.6811594,16.9082126 C13.6799517,16.9082126 14.4927536,16.0954106 14.4927536,15.0966184 L14.4927536,4.83091787 C14.4927536,4.67028986 14.428744,4.51690821 14.3164251,4.40338164 Z" id="Path"></path>
                <path d="M21.2729469,7.49516908 L17.0458937,3.26811594 C16.9323671,3.1557971 16.7789855,3.09178744 16.6183575,3.09178744 L8.76811594,3.09178744 C7.76932367,3.09178744 6.95652174,3.90458937 6.95652174,4.90338164 L6.95652174,18.1884058 C6.95652174,19.1871981 7.76932367,20 8.76811594,20 L19.6376812,20 C20.6364734,20 21.4492754,19.1871981 21.4492754,18.1884058 L21.4492754,7.92270531 C21.4492754,7.76207729 21.3852657,7.60869565 21.2729469,7.49516908 Z" id="Path"></path>
            </g>
        </g>
    </g>
</svg>