<?xml version="1.0" encoding="UTF-8"?>
<svg width="27px" height="25px" viewBox="0 0 27 25" version="1.1" xmlns="http://www.w3.org/2000/svg" xmlns:xlink="http://www.w3.org/1999/xlink">
    <title>7A44BD3E-5712-4B8B-BC79-1BCE493BBC04@2x</title>
    <g id="FLOW-MEETING" stroke="none" stroke-width="1" fill="none" fill-rule="evenodd">
        <g id="Create-Webinar-6" transform="translate(-16.000000, -324.000000)" fill-rule="nonzero" stroke="#80C0F0" stroke-width="2">
            <g id="Files" transform="translate(16.000000, 324.000000)">
                <path d="M11.9770908,1 L17.115942,6.13885124 L17.115942,18.8707729 C17.115942,19.2193514 16.9736599,19.5352093 16.7447727,19.7640964 C16.5158856,19.9929836 16.2000278,20.1352657 15.8514493,20.1352657 L15.8514493,20.1352657 L2.26449275,20.1352657 C1.91591425,20.1352657 1.60005643,19.9929836 1.37116928,19.7640964 C1.14228213,19.5352093 1,19.2193514 1,18.8707729 L1,18.8707729 L1,2.26449275 C1,1.91591425 1.14228213,1.60005643 1.37116928,1.37116928 C1.60005643,1.14228213 1.91591425,1 2.26449275,1 L2.26449275,1 L11.9770908,1 Z" id="Path"></path>
                <path d="M20.672743,4.8647343 L25.8115942,10.0035855 L25.8115942,22.7355072 C25.8115942,23.0840857 25.6693121,23.3999436 25.4404249,23.6288307 C25.2115378,23.8577179 24.89568,24 24.5471014,24 L24.5471014,24 L10.9601449,24 C10.6115664,24 10.2957086,23.8577179 10.0668215,23.6288307 C9.83793431,23.3999436 9.69565217,23.0840857 9.69565217,22.7355072 L9.69565217,22.7355072 L9.69565217,6.12922705 C9.69565217,5.78064855 9.83793431,5.46479073 10.0668215,5.23590358 C10.2957086,5.00701643 10.6115664,4.8647343 10.9601449,4.8647343 L10.9601449,4.8647343 L20.672743,4.8647343 Z" id="Path" fill="#0078DB"></path>
            </g>
        </g>
    </g>
</svg>