<?xml version="1.0" encoding="UTF-8"?>
<svg width="25px" height="25px" viewBox="0 0 25 25" version="1.1" xmlns="http://www.w3.org/2000/svg" xmlns:xlink="http://www.w3.org/1999/xlink">
    <title>A2CB9820-495A-4AB8-8DA8-ABDA47617C90@2x</title>
    <g id="FLOW-MEETING" stroke="none" stroke-width="1" fill="none" fill-rule="evenodd">
        <g id="Create-Webinar-6" transform="translate(-17.000000, -540.000000)" fill="#80C0F0" fill-rule="nonzero">
            <g id="News" transform="translate(17.000000, 540.000000)">
                <path d="M22.0703125,7.421875 L9.765625,7.421875 L9.765625,6.640625 C9.765625,6.57944336 9.76313477,6.51889648 9.75942383,6.45864258 L20.8839355,1.81679687 L20.1317383,0 L8.99399414,4.66166992 C8.45805664,4.07773438 7.68911133,3.7109375 6.8359375,3.7109375 C5.22050781,3.7109375 3.90625,5.02519531 3.90625,6.640625 L3.90625,7.421875 L2.9296875,7.421875 C1.31425781,7.421875 0,8.73613281 0,10.3515625 L0,22.0703125 C0,23.6857422 1.31425781,25 2.9296875,25 L22.0703125,25 C23.6857422,25 25,23.6857422 25,22.0703125 L25,10.3515625 C25,8.73613281 23.6857422,7.421875 22.0703125,7.421875 Z M5.859375,6.640625 C5.859375,6.10214844 6.29746094,5.6640625 6.8359375,5.6640625 C7.37441406,5.6640625 7.8125,6.10214844 7.8125,6.640625 L7.8125,7.421875 L5.859375,7.421875 L5.859375,6.640625 Z M23.046875,22.0703125 C23.046875,22.6087891 22.6087891,23.046875 22.0703125,23.046875 L2.9296875,23.046875 C2.39121094,23.046875 1.953125,22.6087891 1.953125,22.0703125 L1.953125,10.3515625 C1.953125,9.81308594 2.39121094,9.375 2.9296875,9.375 L22.0703125,9.375 C22.6087891,9.375 23.046875,9.81308594 23.046875,10.3515625 L23.046875,22.0703125 Z" id="Shape"></path>
                <polygon id="Path" points="3.90625 13.28125 5.859375 13.28125 5.859375 15.234375 7.8125 15.234375 7.8125 13.28125 21.2890625 13.28125 21.2890625 11.328125 3.90625 11.328125"></polygon>
                <path d="M18.359375,15.234375 C16.7439453,15.234375 15.4296875,16.5486328 15.4296875,18.1640625 C15.4296875,19.7794922 16.7439453,21.09375 18.359375,21.09375 C19.9748047,21.09375 21.2890625,19.7794922 21.2890625,18.1640625 C21.2890625,16.5486328 19.9748047,15.234375 18.359375,15.234375 Z M18.359375,19.140625 C17.8208984,19.140625 17.3828125,18.7025391 17.3828125,18.1640625 C17.3828125,17.6255859 17.8208984,17.1875 18.359375,17.1875 C18.8978516,17.1875 19.3359375,17.6255859 19.3359375,18.1640625 C19.3359375,18.7025391 18.8978516,19.140625 18.359375,19.140625 Z" id="Shape"></path>
                <polygon id="Path" points="11.5234375 17.1875 13.4765625 17.1875 13.4765625 21.09375 11.5234375 21.09375"></polygon>
                <polygon id="Path" points="7.6171875 17.1875 9.5703125 17.1875 9.5703125 21.09375 7.6171875 21.09375"></polygon>
                <polygon id="Path" points="3.7109375 17.1875 5.6640625 17.1875 5.6640625 21.09375 3.7109375 21.09375"></polygon>
            </g>
        </g>
    </g>
</svg>