<?xml version="1.0" encoding="UTF-8"?>
<svg width="18px" height="25px" viewBox="0 0 18 25" version="1.1" xmlns="http://www.w3.org/2000/svg" xmlns:xlink="http://www.w3.org/1999/xlink">
    <title>EE1716D7-7B53-4F77-B5F1-0651EF05FA47@0,5x</title>
    <g id="FLOW-MEETING" stroke="none" stroke-width="1" fill="none" fill-rule="evenodd">
        <g id="Create-Webinar-6" transform="translate(-21.000000, -180.000000)" fill="#80C0F0" fill-rule="nonzero">
            <g id="notification" transform="translate(21.000000, 180.000000)">
                <path d="M14.7913322,17.9052969 L2.33547351,17.9052969 C1.9055031,17.9052969 1.55698234,17.5567275 1.55698234,17.1268057 L1.55698234,10.1203852 C1.55698234,6.25702546 4.70004312,3.11396468 8.56340286,3.11396468 C12.4267626,3.11396468 15.5698234,6.25702546 15.5698234,10.1203852 L15.5698234,17.1268057 C15.5698234,17.5567275 15.2213026,17.9052969 14.7913322,17.9052969 Z M3.11396468,16.3483145 L14.012841,16.3483145 L14.012841,10.1203852 C14.012841,7.11555525 11.5682328,4.67094701 8.56340286,4.67094701 C5.55857291,4.67094701 3.11396468,7.11555525 3.11396468,10.1203852 L3.11396468,16.3483145 Z" id="Shape"></path>
                <path d="M14.7913322,21.0192616 L2.33547351,21.0192616 C1.04770315,21.0192616 0,19.9715584 0,18.6837881 C0,17.3960177 1.04770315,16.3483145 2.33547351,16.3483145 L14.7913322,16.3483145 C16.0791026,16.3483145 17.1268057,17.3960177 17.1268057,18.6837881 C17.1268057,19.9715584 16.0791026,21.0192616 14.7913322,21.0192616 Z M2.33547351,17.9052969 C1.90623294,17.9052969 1.55698234,18.2545475 1.55698234,18.6837881 C1.55698234,19.1130286 1.90623294,19.4622792 2.33547351,19.4622792 L14.7913322,19.4622792 C15.2205728,19.4622792 15.5698234,19.1130286 15.5698234,18.6837881 C15.5698234,18.2545475 15.2205728,17.9052969 14.7913322,17.9052969 L2.33547351,17.9052969 Z" id="Shape"></path>
                <path d="M8.56340286,4.67094701 C8.13343246,4.67094701 7.78491169,4.32237759 7.78491169,3.89245585 L7.78491169,1.94622792 C7.78491169,0.873077846 8.65798954,0 9.73113961,0 C10.8042897,0 11.6773675,0.873077846 11.6773675,1.94622792 C11.6773675,2.37614967 11.3288468,2.72471909 10.8988764,2.72471909 C10.468906,2.72471909 10.1203852,2.37614967 10.1203852,1.94622792 C10.1203852,1.73160764 9.9457599,1.55698234 9.73113961,1.55698234 C9.51651933,1.55698234 9.34189403,1.73160764 9.34189403,1.94622792 L9.34189403,3.89245585 C9.34189403,4.32237759 8.99337326,4.67094701 8.56340286,4.67094701 Z" id="Path"></path>
                <path d="M8.56340286,24.9117174 C6.84634327,24.9117174 5.44943818,23.5148123 5.44943818,21.7977527 C5.44943818,21.0297712 5.73139795,20.2922968 6.24330455,19.7211275 C6.3909746,19.5563793 6.60175108,19.4622792 6.82298854,19.4622792 L10.3037685,19.4622792 C10.525006,19.4622792 10.7357825,19.556428 10.8834525,19.7211275 C11.3954078,20.2922968 11.6773675,21.0297712 11.6773675,21.7977527 C11.6773675,23.5148123 10.2804624,24.9117174 8.56340286,24.9117174 Z M7.21486153,21.0192616 C7.07911213,21.2539767 7.00642052,21.5218749 7.00642052,21.7977527 C7.00642052,22.6562825 7.70487307,23.3547351 8.56340286,23.3547351 C9.42193265,23.3547351 10.1203852,22.6562825 10.1203852,21.7977527 C10.1203852,21.5218749 10.0476936,21.2539767 9.91194419,21.0192616 L7.21486153,21.0192616 Z" id="Shape"></path>
            </g>
        </g>
    </g>
</svg>