<?xml version="1.0" encoding="UTF-8"?>
<svg width="24px" height="24px" viewBox="0 0 24 24" version="1.1" xmlns="http://www.w3.org/2000/svg" xmlns:xlink="http://www.w3.org/1999/xlink">
    <title>FCBAF451-0802-45DC-977F-7DC998C97627@0,5x</title>
    <defs>
        <path d="M17.1594942,10.975 C17.1969942,10.6625 17.2219942,10.3375 17.2219942,10 C17.2219942,9.6625 17.1969942,9.3375 17.1469942,9.025 L19.2594942,7.375 C19.4469942,7.225 19.4969942,6.95 19.3844942,6.7375 L17.3844942,3.275 C17.2594942,3.05 16.9969942,2.975 16.7719942,3.05 L14.2844942,4.05 C13.7594942,3.65 13.2094942,3.325 12.5969942,3.075 L12.2219942,0.425 C12.1844942,0.175 11.9719942,0 11.7219942,0 L7.72199416,0 C7.47199416,0 7.27199416,0.175 7.23449416,0.425 L6.85949416,3.075 C6.24699416,3.325 5.68449416,3.6625 5.17199416,4.05 L2.68449416,3.05 C2.45949416,2.9625 2.19699416,3.05 2.07199416,3.275 L0.0719941553,6.7375 C-0.0530058447,6.9625 -0.00300584472,7.225 0.196994155,7.375 L2.30949416,9.025 C2.25949416,9.3375 2.22199416,9.675 2.22199416,10 C2.22199416,10.325 2.24699416,10.6625 2.29699416,10.975 L0.184494155,12.625 C-0.00300584472,12.775 -0.0530058447,13.05 0.0594941553,13.2625 L2.05949416,16.725 C2.18449416,16.95 2.44699416,17.025 2.67199416,16.95 L5.15949416,15.95 C5.68449416,16.35 6.23449416,16.675 6.84699416,16.925 L7.22199416,19.575 C7.27199416,19.825 7.47199416,20 7.72199416,20 L11.7219942,20 C11.9719942,20 12.1844942,19.825 12.2094942,19.575 L12.5844942,16.925 C13.1969942,16.675 13.7594942,16.3375 14.2719942,15.95 L16.7594942,16.95 C16.9844942,17.0375 17.2469942,16.95 17.3719942,16.725 L19.3719942,13.2625 C19.4969942,13.0375 19.4469942,12.775 19.2469942,12.625 L17.1594942,10.975 L17.1594942,10.975 Z M9.72199416,13.75 C7.65949416,13.75 5.97199416,12.0625 5.97199416,10 C5.97199416,7.9375 7.65949416,6.25 9.72199416,6.25 C11.7844942,6.25 13.4719942,7.9375 13.4719942,10 C13.4719942,12.0625 11.7844942,13.75 9.72199416,13.75 Z" id="path-1"></path>
    </defs>
    <g id="FLOW-MEETING" stroke="none" stroke-width="1" fill="none" fill-rule="evenodd">
        <g id="Create-Webinar-6" transform="translate(-17.000000, -794.000000)">
            <g id="Group-15" transform="translate(13.500000, 796.000000)">
                <g id="Pengaturan" transform="translate(5.500000, 0.000000)">
                    <mask id="mask-2" fill="white">
                        <use xlink:href="#path-1"></use>
                    </mask>
                    <path stroke="#80C0F0" stroke-width="2" d="M11.7048206,-0.999905056 C12.0838965,-1.00409499 12.4332372,-0.869375114 12.7010715,-0.64171599 C12.9287739,-0.448168936 13.0994202,-0.187021151 13.1796839,0.12481984 L13.2121296,0.284886493 L13.5101375,2.39080925 C13.7201831,2.49509094 13.9242305,2.60792126 14.1236064,2.72936907 L14.4193325,2.91801252 L16.4197912,2.11380805 C16.7627324,1.98992462 17.1385974,1.99293008 17.470932,2.11501219 C17.7430056,2.21495761 17.988056,2.39202969 18.1687455,2.64654217 L18.2535539,2.78025323 L20.2571462,6.2489724 C20.4311784,6.56554557 20.4825299,6.93184352 20.4153914,7.27424952 C20.3578659,7.56762977 20.2147694,7.84092485 19.9926578,8.05888779 L19.8750477,8.16309507 L18.2034269,9.46873969 C18.2157788,9.64275658 18.2219942,9.8198412 18.2219942,10 L18.2175669,10.2656876 L18.2175669,10.2656876 L18.2049678,10.5267007 L19.8596268,11.8345749 C20.1607873,12.0652541 20.3456158,12.3811651 20.4125403,12.7224802 C20.4687007,13.0088983 20.4417297,13.3178394 20.3136538,13.6116717 L20.2411072,13.7571546 L18.2410518,17.2197505 C18.0559738,17.5477085 17.7713607,17.7746157 17.4522478,17.8918409 C17.163268,17.9979967 16.8447232,18.0136737 16.5408587,17.9297106 L16.3903546,17.8793833 L14.405068,17.0812781 C14.2119565,17.2095599 14.0131485,17.3309886 13.8086977,17.4443148 L13.497796,17.6080712 L13.2017522,19.7001137 C13.1573833,20.0791122 12.9751767,20.4014715 12.7102592,20.6324252 C12.4855268,20.8283458 12.1982186,20.9584575 11.8822247,20.9916339 L11.7219942,21 L7.72199416,21 C7.34819092,21 7.01294456,20.8672539 6.75091072,20.6445251 C6.52874951,20.4556881 6.35726701,20.1988357 6.27086405,19.8933781 L6.2349118,19.7366887 L5.93385077,17.6091907 C5.72380517,17.5049091 5.51975782,17.3920787 5.3203819,17.2706309 L5.02465576,17.0819875 L3.02419713,17.886192 C2.68125595,18.0100754 2.30539093,18.0070699 1.9730563,17.8849878 C1.70098266,17.7850424 1.45593234,17.6079703 1.27524286,17.3534578 L1.19043437,17.2197468 L-0.813157927,13.7510276 C-0.987190073,13.4344544 -1.03854155,13.0681565 -0.971403121,12.7257505 C-0.913877582,12.4323702 -0.770781093,12.1590751 -0.548669453,11.9411122 L-0.431059388,11.8369049 L1.24095396,10.5309537 C1.22834118,10.3537499 1.22199416,10.1753147 1.22199416,10 L1.228573,9.73272424 L1.228573,9.73272424 L1.24698123,9.46399069 L-0.412766179,8.16761994 C-0.715623994,7.93675184 -0.901414944,7.61991872 -0.96855198,7.27751984 C-1.02471241,6.99110166 -0.997741436,6.68216062 -0.869665485,6.3883283 L-0.797118884,6.24284543 L1.20293655,2.78024947 C1.3880145,2.45229149 1.67262765,2.22538426 1.99174047,2.10815914 C2.28072033,2.00200327 2.59926509,1.98632633 2.90312965,2.07028943 L3.05363374,2.12061673 L5.03892027,2.91872187 C5.23203342,2.79043906 5.43084299,2.66900948 5.63529557,2.55568244 L5.94620002,2.39192495 L6.2455578,0.276659547 C6.3182156,-0.207725754 6.60419572,-0.591094586 6.98507511,-0.807980055 L7.11538725,-0.874019357 L11.7048206,-0.999905056 Z M9.72199416,7.25 C8.96574416,7.25 8.27888105,7.56045166 7.78066344,8.05866928 C7.28244582,8.5568869 6.97199416,9.24375 6.97199416,10 C6.97199416,10.75625 7.28244582,11.4431131 7.78066344,11.9413307 C8.27888105,12.4395483 8.96574416,12.75 9.72199416,12.75 C10.4782442,12.75 11.1651073,12.4395483 11.6633249,11.9413307 C12.1615425,11.4431131 12.4719942,10.75625 12.4719942,10 C12.4719942,9.24375 12.1615425,8.5568869 11.6633249,8.05866928 C11.1651073,7.56045166 10.4782442,7.25 9.72199416,7.25 Z"></path>
                </g>
            </g>
        </g>
    </g>
</svg>