<?xml version="1.0" encoding="UTF-8"?>
<svg width="39px" height="39px" viewBox="0 0 39 39" version="1.1" xmlns="http://www.w3.org/2000/svg" xmlns:xlink="http://www.w3.org/1999/xlink">
    <title>96311AB9-C126-4FAA-9094-2EA473CA8F82@0,5x</title>
    <g id="Web-User--" stroke="none" stroke-width="1" fill="none" fill-rule="evenodd">
        <g id="Icon-Webinar" transform="translate(-218.000000, -68.000000)">
            <g id="Group-14" transform="translate(218.000000, 68.000000)">
                <circle id="Oval" fill="#D8D8D8" opacity="0.5" cx="19.5" cy="19.5" r="19.5"></circle>
                <g id="document-2" transform="translate(12.000000, 9.000000)" fill="#000000" fill-rule="nonzero">
                    <path d="M15.8215385,3.93125 L12.1292308,0.18125 C12.0131154,0.0642578125 11.8558846,-0.000937500001 11.6923077,-9.9726248e-06 L1.84615385,-9.9726248e-06 C0.826538462,-9.9726248e-06 0,0.839453125 0,1.875 L0,18.125 C0,19.1605469 0.826538462,19.99999 1.84615385,19.99999 L14.1538462,19.99999 C15.1734615,19.99999 16.0000106,19.1605469 16.0000106,18.125 L16.0000106,4.375 C16.0009615,4.20886719 15.9367308,4.04921875 15.8215385,3.93125 Z M14.7692308,18.125 C14.7692308,18.4701953 14.4937308,18.75 14.1538462,18.75 L1.84615385,18.75 C1.50626923,18.75 1.23076923,18.4701953 1.23076923,18.125 L1.23076923,1.875 C1.23076923,1.52980469 1.50626923,1.25 1.84615385,1.25 L11.0769231,1.25 L11.0769231,3.75 C11.0769231,4.44035156 11.6279615,5 12.3076923,5 L14.7692308,5 L14.7692308,18.125 Z" id="Shape"></path>
                    <path d="M4.92307692,6.875 C3.90346154,6.875 3.07692308,7.71445313 3.07692308,8.75 C3.07692308,9.78554687 3.90346154,10.625 4.92307692,10.625 C5.94269231,10.625 6.76923077,9.78554687 6.76923077,8.75 C6.76923077,7.71449219 5.94269231,6.875 4.92307692,6.875 Z M4.92307692,9.375 C4.58319231,9.375 4.30769231,9.09519531 4.30769231,8.75 C4.30769231,8.40480469 4.58319231,8.125 4.92307692,8.125 C5.26296154,8.125 5.53846154,8.40480469 5.53846154,8.75 C5.53846154,9.09519531 5.26296154,9.375 4.92307692,9.375 Z" id="Shape"></path>
                    <path d="M4.92307692,13.125 C3.90346154,13.125 3.07692308,13.9644531 3.07692308,15 C3.07692308,16.0355469 3.90346154,16.875 4.92307692,16.875 C5.94269231,16.875 6.76923077,16.0355469 6.76923077,15 C6.76923077,13.9644922 5.94269231,13.125 4.92307692,13.125 Z M4.92307692,15.625 C4.58319231,15.625 4.30769231,15.3451953 4.30769231,15 C4.30769231,14.6548047 4.58319231,14.375 4.92307692,14.375 C5.26296154,14.375 5.53846154,14.6548047 5.53846154,15 C5.53846154,15.3451953 5.26296154,15.625 4.92307692,15.625 Z" id="Shape"></path>
                    <rect id="Rectangle" x="8" y="6.875" width="4.92307692" height="1.25"></rect>
                    <rect id="Rectangle" x="8" y="9.375" width="2.46153846" height="1.25"></rect>
                    <rect id="Rectangle" x="8" y="13.125" width="4.92307692" height="1.25"></rect>
                    <rect id="Rectangle" x="8" y="15.625" width="2.46153846" height="1.25"></rect>
                </g>
            </g>
        </g>
    </g>
</svg>