<?xml version="1.0" encoding="UTF-8"?>
<svg width="39px" height="39px" viewBox="0 0 39 39" version="1.1" xmlns="http://www.w3.org/2000/svg" xmlns:xlink="http://www.w3.org/1999/xlink">
    <title>40BBCF7F-A889-469A-BD73-D1CAC67688E9@0,5x</title>
    <g id="Web-User--" stroke="none" stroke-width="1" fill="none" fill-rule="evenodd">
        <g id="Icon-Webinar" transform="translate(-277.000000, -68.000000)">
            <g id="Group-16" transform="translate(277.000000, 68.000000)">
                <circle id="Oval" fill="#D8D8D8" opacity="0.5" cx="19.5" cy="19.5" r="19.5"></circle>
                <g id="timeline" transform="translate(9.000000, 9.000000)" fill="#000000" fill-rule="nonzero">
                    <path d="M18.9690398,16.8181641 L18.9690398,12.7272656 L10.1606096,12.7272656 L10.1606096,11.3636328 L16.326488,11.3636328 L16.326488,7.27273437 L10.1606096,7.27273437 L10.1606096,5.96421875 L11.9223108,4.14605469 L11.9223108,0 L7.07768924,0 L7.07768924,4.14605469 L8.83935259,5.96421875 L8.83935259,7.27273437 L0.0309601594,7.27273437 L0.0309601594,11.3636328 L8.83935259,11.3636328 L8.83935259,12.7272656 L0.0309601594,12.7272656 L0.0309601594,16.8181641 L8.83935259,16.8181641 L8.83935259,18.4915625 C8.70271912,18.6517578 8.6191494,18.8612109 8.6191494,19.0908984 C8.6191494,19.5921875 9.01428884,20 9.5,20 C9.98571116,20 10.3808506,19.5921875 10.3808506,19.0908984 C10.3808506,18.8612109 10.297243,18.6517969 10.1606474,18.4915625 L10.1606474,16.8181641 L18.9690398,16.8181641 Z M8.83935259,15.4545313 L1.35221713,15.4545313 L1.35221713,14.0908984 L8.83935259,14.0908984 L8.83935259,15.4545313 Z M8.83935259,10 L1.35221713,10 L1.35221713,8.63636719 L8.83935259,8.63636719 L8.83935259,10 Z M17.6477829,14.0908984 L17.6477829,15.4545313 L10.1606096,15.4545313 L10.1606096,14.0908984 L17.6477829,14.0908984 Z M15.0052311,8.63636719 L15.0052311,10 L10.1606096,10 L10.1606096,8.63636719 L15.0052311,8.63636719 Z M9.5,4.71757813 L8.39894622,3.58121094 L8.39894622,1.36363281 L10.6010538,1.36363281 L10.6010538,3.58121094 L9.5,4.71757813 Z" id="Shape"></path>
                </g>
            </g>
        </g>
    </g>
</svg>