<svg xmlns="http://www.w3.org/2000/svg" width="22" height="22" viewBox="0 0 22 22">
  <path fill="#6D7278" stroke="#6D7278" stroke-width=".5" d="M3.77842176,20 L1.25947392,20 C0.562565018,20 -4.156675e-13,19.437435 -4.156675e-13,18.7405261 L-4.156675e-13,1.25902805 C-4.156675e-13,0.889582365 0.159533363,0.536929667 0.445014119,0.301827869 C0.730494874,0.0583295772 1.09994056,-0.0424283365 1.46938624,0.0163471131 L10.6971318,1.41856141 C11.3100758,1.51931933 11.7550899,2.03990188 11.7550899,2.66124235 L11.7550899,7.48082922 L19.1524001,8.95021546 C19.7485511,9.07616285 20.1515827,9.57995242 20.1515827,10.1761034 L20.1515827,18.7405261 C20.1515827,19.437435 19.5890177,20 18.8921088,20 L3.77842176,20 L3.70210467,19.9933427 L3.70210467,19.9933427 L3.77842176,20 L3.77842176,20 Z M11.7550899,8.33727149 L11.7550899,19.1603507 L18.8921088,19.1603507 C19.1188141,19.1603507 19.3119335,18.9756279 19.3119335,18.7405261 L19.3119335,10.1761034 C19.3119335,9.98298408 19.1775896,9.80665773 18.9844702,9.76467527 L11.7550899,8.33727149 Z M16.373161,16.6414029 C16.6082628,16.6414029 16.7929856,16.8261257 16.7929856,17.0612275 C16.7929856,17.2963293 16.6082628,17.4810522 16.373161,17.4810522 L14.6938624,17.4810522 C14.4587606,17.4810522 14.2740378,17.2963293 14.2740378,17.0612275 C14.2740378,16.8261257 14.4587606,16.6414029 14.6938624,16.6414029 L16.373161,16.6414029 Z M16.373161,14.122455 C16.6082628,14.122455 16.7929856,14.3071779 16.7929856,14.5422797 C16.7929856,14.7773815 16.6082628,14.9621043 16.373161,14.9621043 L14.6938624,14.9621043 C14.4587606,14.9621043 14.2740378,14.7773815 14.2740378,14.5422797 C14.2740378,14.3071779 14.4587606,14.122455 14.6938624,14.122455 L16.373161,14.122455 Z M16.373161,11.6035072 C16.6082628,11.6035072 16.7929856,11.78823 16.7929856,12.0233318 C16.7929856,12.2584336 16.6082628,12.4431565 16.373161,12.4431565 L14.6938624,12.4431565 C14.4587606,12.4431565 14.2740378,12.2584336 14.2740378,12.0233318 C14.2740378,11.78823 14.4587606,11.6035072 14.6938624,11.6035072 L16.373161,11.6035072 Z M8.81631745,11.6035072 C9.05141925,11.6035072 9.23614209,11.78823 9.23614209,12.0233318 C9.23614209,12.2584336 9.05141925,12.4431565 8.81631745,12.4431565 L7.13701889,12.4431565 C6.90191709,12.4431565 6.71719425,12.2584336 6.71719425,12.0233318 C6.71719425,11.78823 6.90191709,11.6035072 7.13701889,11.6035072 L8.81631745,11.6035072 Z M4.61807105,11.6035072 C4.85317284,11.6035072 5.03789569,11.78823 5.03789569,12.0233318 C5.03789569,12.2584336 4.85317284,12.4431565 4.61807105,12.4431565 L2.93877248,12.4431565 C2.70367068,12.4431565 2.51894784,12.2584336 2.51894784,12.0233318 C2.51894784,11.78823 2.70367068,11.6035072 2.93877248,11.6035072 L4.61807105,11.6035072 Z M8.81631745,9.08455935 C9.05141925,9.08455935 9.23614209,9.26928219 9.23614209,9.50438399 C9.23614209,9.73948579 9.05141925,9.92420863 8.81631745,9.92420863 L7.13701889,9.92420863 C6.90191709,9.92420863 6.71719425,9.73948579 6.71719425,9.50438399 C6.71719425,9.26928219 6.90191709,9.08455935 7.13701889,9.08455935 L8.81631745,9.08455935 Z M4.61807105,9.08455935 C4.85317284,9.08455935 5.03789569,9.26928219 5.03789569,9.50438399 C5.03789569,9.73948579 4.85317284,9.92420863 4.61807105,9.92420863 L2.93877248,9.92420863 C2.70367068,9.92420863 2.51894784,9.73948579 2.51894784,9.50438399 C2.51894784,9.26928219 2.70367068,9.08455935 2.93877248,9.08455935 L4.61807105,9.08455935 Z M8.81631745,6.5656115 C9.05141925,6.5656115 9.23614209,6.75033435 9.23614209,6.98543615 C9.23614209,7.22053794 9.05141925,7.40526079 8.81631745,7.40526079 L7.13701889,7.40526079 C6.90191709,7.40526079 6.71719425,7.22053794 6.71719425,6.98543615 C6.71719425,6.75033435 6.90191709,6.5656115 7.13701889,6.5656115 L8.81631745,6.5656115 Z M4.61807105,6.5656115 C4.85317284,6.5656115 5.03789569,6.75033435 5.03789569,6.98543615 C5.03789569,7.22053794 4.85317284,7.40526079 4.61807105,7.40526079 L2.93877248,7.40526079 C2.70367068,7.40526079 2.51894784,7.22053794 2.51894784,6.98543615 C2.51894784,6.75033435 2.70367068,6.5656115 2.93877248,6.5656115 L4.61807105,6.5656115 Z M8.81631745,4.04666366 C9.05141925,4.04666366 9.23614209,4.2313865 9.23614209,4.4664883 C9.23614209,4.7015901 9.05141925,4.88631294 8.81631745,4.88631294 L7.13701889,4.88631294 C6.90191709,4.88631294 6.71719425,4.7015901 6.71719425,4.4664883 C6.71719425,4.2313865 6.90191709,4.04666366 7.13701889,4.04666366 L8.81631745,4.04666366 Z M4.61807105,4.04666366 C4.85317284,4.04666366 5.03789569,4.2313865 5.03789569,4.4664883 C5.03789569,4.7015901 4.85317284,4.88631294 4.61807105,4.88631294 L2.93877248,4.88631294 C2.70367068,4.88631294 2.51894784,4.7015901 2.51894784,4.4664883 C2.51894784,4.2313865 2.70367068,4.04666366 2.93877248,4.04666366 L4.61807105,4.04666366 Z M7.55684353,19.1603507 L7.55684353,15.381929 C7.55684353,15.1468272 7.36372419,14.9621043 7.13701889,14.9621043 L4.61807105,14.9621043 C4.38296925,14.9621043 4.1982464,15.1468272 4.1982464,15.381929 L4.1982464,19.1603507 L7.55684353,19.1603507 Z M10.9154407,2.66124235 C10.9154407,2.45133003 10.7643038,2.27500368 10.562788,2.24141771 L1.33504236,0.847599901 C1.30985288,0.839203408 1.2846634,0.839203408 1.25947392,0.839203408 C1.15871601,0.839203408 1.06635459,0.87278938 0.990786152,0.939961322 C0.890028238,1.02392625 0.839649281,1.13308066 0.839649281,1.25902805 L0.839649281,18.7405261 C0.839649281,18.9756279 1.03276862,19.1603507 1.25947392,19.1603507 L3.35859712,19.1603507 L3.35859712,15.381929 C3.35859712,14.6850201 3.92116214,14.122455 4.61807105,14.122455 L7.13701889,14.122455 C7.83392779,14.122455 8.39649281,14.6850201 8.39649281,15.381929 L8.39649281,19.1603507 L10.9154407,19.1603507 L10.9154407,2.66124235 Z" transform="translate(1 1)"/>
</svg>
