<?xml version="1.0" encoding="UTF-8"?>
<svg width="17px" height="16px" viewBox="0 0 17 16" version="1.1" xmlns="http://www.w3.org/2000/svg" xmlns:xlink="http://www.w3.org/1999/xlink">
    <title>4C83B526-014A-43C7-9809-F850000C8822@0,5x</title>
    <g id="Role-Guru" stroke="none" stroke-width="1" fill="none" fill-rule="evenodd" opacity="0.5">
        <g id="Side-Bar" transform="translate(-86.000000, -254.000000)" fill="#000000" fill-rule="nonzero" stroke="#000000" stroke-width="0.5">
            <g id="video-conference" transform="translate(87.000000, 255.000000)">
                <path d="M6.87495117,1.58203125 C6.87495117,1.75453125 7.01496094,1.89454102 7.18746094,1.89454102 C7.35996094,1.89454102 7.49994141,1.75453125 7.49994141,1.58203125 C7.49994141,1.40953125 7.35993164,1.26952148 7.18743164,1.26952148 C7.01493164,1.26952148 6.87495117,1.40953125 6.87495117,1.58203125 Z" id="Path"></path>
                <path d="M4.14125977,11.5819922 L4.14120117,11.5820508 C4.14120117,11.4095508 4.00119141,11.269541 3.82869141,11.269541 L1.56246094,11.269541 C1.04560547,11.269541 0.624960938,10.8489258 0.624960938,10.332041 L0.624960938,10.0195312 L6.08182617,10.0195312 C6.2549707,10.0195312 6.39433594,9.87952148 6.3955957,9.70640625 C6.3955957,9.53390625 6.25558594,9.39389648 6.08308594,9.39389648 L1.28748047,9.39328125 C1.40124023,8.90827148 1.7775,8.51513672 2.27871094,8.38951172 L3.6224707,8.05327148 C3.73432617,8.02514648 3.82245117,7.93766602 3.84999023,7.82575195 L4.00998047,7.18637695 C4.03746094,7.07636719 4.003125,6.96011719 3.920625,6.88262695 C3.61810547,6.59827148 3.41748047,6.18202148 3.384375,5.76826172 C3.37125,5.60575195 3.23560547,5.48077148 3.07248047,5.48077148 L3.00624023,5.46887695 L2.9718457,4.80137695 C3.0618457,4.80137695 3.14686523,4.76323242 3.2062207,4.69573242 C3.26557617,4.62887695 3.29311523,4.53887695 3.28183594,4.45010742 C3.25245117,4.22135742 3.20683594,3.80824219 3.20683594,3.67385742 C3.20683594,3.27199219 3.20683594,2.85697266 4.3649707,2.84510742 C4.4287207,2.84449219 4.49185547,2.82448242 4.54374023,2.78698242 C4.9180957,2.51953125 5.3418457,2.51953125 5.54560547,2.51953125 C5.95558594,2.51953125 6.22936523,2.63329102 6.38308594,2.86766602 C6.45307617,2.97515625 6.48931641,3.07078125 6.4874707,3.14516602 C6.4837207,3.31766602 6.6205957,3.46078125 6.7930957,3.46453125 C6.9918457,3.46330078 7.10871094,3.33079102 7.11246094,3.15890625 C7.11682617,2.95453125 7.04745117,2.74142578 6.90556641,2.52515625 C6.71742188,2.23763672 6.32871094,1.89451172 5.54554688,1.89451172 C5.31055664,1.89451172 4.77618164,1.89451172 4.26181641,2.22199219 C2.77432617,2.26760742 2.58058594,3.01886719 2.58058594,3.67385742 C2.58058594,3.80323242 2.60619141,4.05761719 2.62807617,4.25636719 C2.5649707,4.29137695 2.50746094,4.33760742 2.4580957,4.39324219 C2.33686523,4.53076172 2.2799707,4.71325195 2.30311523,4.89509766 L2.38435547,5.54698242 C2.41374023,5.77948242 2.56623047,5.97008789 2.7918457,6.05633789 C2.8724707,6.47695312 3.07435547,6.88508789 3.3599707,7.20383789 L3.28810547,7.49258789 L2.1262207,7.78321289 C1.34557617,7.97885742 0.774345703,8.61946289 0.651240234,9.39445312 L0.624990234,9.39445312 L0.624990234,1.58200195 C0.624990234,1.06511719 1.04560547,0.644501953 1.56249023,0.644501953 L12.8124902,0.644501953 C13.3293457,0.644501953 13.7499902,1.06511719 13.7499902,1.58200195 L13.7499902,10.3319824 C13.7499902,10.465752 13.7193457,10.5982324 13.6587305,10.7276074 C13.5856055,10.8838477 13.6531055,11.0700879 13.8093457,11.1432422 C13.9668457,11.2163672 14.1524707,11.1488672 14.2249805,10.9925977 C14.3243555,10.7794922 14.3749805,10.5575977 14.3749805,10.3319824 L14.3749805,1.58197266 C14.3749805,0.720732422 13.6737305,0.0194824219 12.8124902,0.0194824219 L1.56249023,0.0194824219 C0.70125,0.0194824219 2.18491891e-13,0.720732422 2.18491891e-13,1.58197266 L2.18491891e-13,10.3319824 C2.18491891e-13,11.193252 0.70125,11.8944727 1.56251953,11.8944727 L3.82875,11.8944727 C4.00189453,11.8944727 4.14125977,11.7544922 4.14125977,11.5819922 Z" id="Path"></path>
                <path d="M12.1999512,10.0195312 L12.1936816,10.0195312 C12.0211816,10.0195312 11.8843066,10.159541 11.8843066,10.332041 C11.8843066,10.504541 12.0274219,10.6445508 12.1999219,10.6445508 C12.3724219,10.6445508 12.5124316,10.504541 12.5124316,10.332041 C12.5124316,10.159541 12.3724512,10.0195312 12.1999512,10.0195312 Z" id="Path"></path>
                <path d="M12.9711621,11.4832617 L12.9711914,11.483291 L11.2493262,11.0532715 L11.1218262,10.542627 C11.5780664,10.0763965 11.8930664,9.45137695 11.9980664,8.80637695 C12.2661914,8.71010742 12.4693359,8.46952148 12.5068066,8.17262695 L12.6224414,7.24889648 C12.6499219,7.03016602 12.5824219,6.81014648 12.4380469,6.64449219 C12.3667969,6.56264648 12.2799023,6.49763672 12.1836914,6.45263672 L12.2224512,5.67137695 L12.3743262,5.51885742 C12.6549316,5.22073242 12.8880762,4.71134766 12.4080762,3.97886719 C12.0455566,3.42512695 11.4343066,3.14449219 10.5899414,3.14449219 C10.2643066,3.14449219 9.51744141,3.14449219 8.81367187,3.60823242 C6.78492187,3.65885742 6.52180664,4.66198242 6.52180664,5.53573242 C6.52180664,5.73448242 6.56557617,6.15073242 6.59868164,6.43760742 C6.49119141,6.48260742 6.39430664,6.55075195 6.31555664,6.64010742 C6.16807617,6.80633789 6.09993164,7.02823242 6.12741211,7.24883789 L6.24304687,8.17259766 C6.28242187,8.49011719 6.51178711,8.74324219 6.80742187,8.82383789 C6.91180664,9.44197266 7.21054687,10.0451074 7.63866211,10.5007324 L7.50055664,11.0532129 L5.77869141,11.4832031 C4.58370117,11.7813281 3.74994141,12.8500781 3.74994141,14.0819531 C3.74994141,14.1650684 3.78243164,14.2450781 3.84120117,14.3032031 C3.89994141,14.3613281 3.97995117,14.3944629 4.06245117,14.3944629 L14.6874609,14.3932031 C14.8599609,14.3932031 14.9999707,14.2531934 14.9999707,14.0806934 C14.9999707,12.8501367 14.1655371,11.782002 12.9711621,11.4832617 Z M4.3987207,13.7683008 L4.3987207,13.7683008 C4.52185547,12.960791 5.1168457,12.2926758 5.9305957,12.0895312 L7.83436523,11.6139258 C7.9462207,11.5858008 8.0343457,11.498291 8.06188477,11.3864062 L8.28811523,10.4801367 C8.31624023,10.3701562 8.28125977,10.2539062 8.19875977,10.1763867 C7.74688477,9.75263672 7.4475,9.13078125 7.39813477,8.51387695 C7.38500977,8.35139648 7.24936523,8.22638672 7.08624023,8.22638672 L7.01124023,8.22638672 C6.93624023,8.22638672 6.87249023,8.17013672 6.86311523,8.09578125 L6.74750977,7.17202148 C6.74000977,7.11389648 6.766875,7.07329102 6.78375,7.05454102 C6.800625,7.03579102 6.83750977,7.00391602 6.94374023,7.00391602 C7.03374023,7.00391602 7.11875977,6.96577148 7.17811523,6.89827148 C7.2375,6.83141602 7.26500977,6.74141602 7.25375977,6.65264648 C7.224375,6.41762695 7.14688477,5.75827148 7.14688477,5.53702148 C7.14688477,4.96327148 7.14688477,4.25015625 8.91624023,4.23263672 C8.97999023,4.23202148 9.043125,4.21201172 9.09500977,4.17451172 C9.5925293,3.81887695 10.1300098,3.77074219 10.5906445,3.77074219 C11.210625,3.77074219 11.6462695,3.95636719 11.885625,4.32263672 C12.159375,4.74076172 12.05625,4.94639648 11.9256445,5.08511719 L11.6950195,5.31635742 C11.64,5.37137695 11.6075098,5.44450195 11.6037598,5.52196289 L11.5475098,6.67822266 C11.5437598,6.76321289 11.574375,6.84571289 11.6325,6.90758789 C11.6899805,6.96946289 11.77125,7.00508789 11.8562695,7.00570312 C11.9150098,7.00634766 11.95125,7.03819336 11.9675098,7.05697266 C11.9837695,7.07575195 12.0100195,7.11509766 12.0031348,7.17260742 L11.8875,8.09633789 C11.878125,8.17072266 11.814375,8.22694336 11.716875,8.22694336 C11.55375,8.22694336 11.4181055,8.35195312 11.4049805,8.51446289 C11.3543555,9.15070312 11.0412305,9.78445312 10.5662109,10.2101074 C10.4799609,10.2869824 10.4437207,10.4057227 10.4718457,10.5182227 L10.6887305,11.3863477 C10.7168555,11.4982031 10.8043359,11.5863281 10.91625,11.6138672 L12.8200195,12.0894727 C13.6325098,12.2925879 14.2275,12.9613477 14.35125,13.7694727 L4.3987207,13.7683008 Z" id="Shape"></path>
            </g>
        </g>
    </g>
</svg>