<?xml version="1.0" encoding="UTF-8"?>
<svg width="20px" height="20px" viewBox="0 0 20 20" version="1.1" xmlns="http://www.w3.org/2000/svg" xmlns:xlink="http://www.w3.org/1999/xlink">
    <title>2DDF38A2-5F1E-4C00-B352-639051BDB71B@0,5x</title>
    <g id="Role-Guru" stroke="none" stroke-width="1" fill="none" fill-rule="evenodd" opacity="0.5">
        <g id="Kalender" transform="translate(-20.000000, -906.000000)" fill-rule="nonzero" stroke="#FFFFFF" stroke-width="2">
            <g id="Icon-dashboard-on" transform="translate(20.000000, 906.000000)">
                <path d="M7.70828246,1 C7.83469797,1 7.94908726,1.05178987 8.0320224,1.13471634 C8.11492458,1.21760984 8.16671754,1.33193523 8.16671754,1.45828246 L8.16671754,1.45828246 L8.16671754,5.20828246 C8.16671754,5.33469025 8.11493131,5.44907321 8.03200226,5.53200226 C7.94907321,5.61493131 7.83469025,5.66671754 7.70828246,5.66671754 L7.70828246,5.66671754 L1.45828246,5.66671754 C1.33193523,5.66671754 1.21760984,5.61492458 1.13471634,5.5320224 C1.05178987,5.44908726 1,5.33469797 1,5.20828246 L1,5.20828246 L1,1.45828246 C1,1.33192751 1.05179661,1.21759579 1.1346962,1.1346962 L1.1346962,1.1346962 Z" id="Path"></path>
                <path d="M7.70828246,9.33328246 C7.83469025,9.33328246 7.94907321,9.38506869 8.03200226,9.46799774 C8.11493131,9.55092679 8.16671754,9.66530975 8.16671754,9.79171754 L8.16671754,9.79171754 L8.16671754,18.5417175 C8.16671754,18.6680648 8.11492458,18.7823902 8.0320224,18.8652837 C7.94908726,18.9482101 7.83469797,19 7.70828246,19 L7.70828246,19 L1.45828246,19 C1.33192751,19 1.21759579,18.9482034 1.1346962,18.8653038 C1.05179661,18.7824042 1,18.6680725 1,18.5417175 L1,18.5417175 L1,9.79171754 C1,9.66530203 1.05178987,9.55091274 1.13471634,9.4679776 L1.13471634,9.4679776 Z" id="Path"></path>
                <path d="M18.5417175,14.3332825 C18.6680648,14.3332825 18.7823902,14.3850754 18.8652837,14.4679776 C18.9482101,14.5509127 19,14.665302 19,14.7917175 L19,14.7917175 L19,18.5417175 C19,18.6680725 18.9482034,18.7824042 18.8653038,18.8653038 C18.7824042,18.9482034 18.6680725,19 18.5417175,19 L18.5417175,19 L12.2917175,19 C12.165302,19 12.0509127,18.9482101 11.9679776,18.8652837 C11.8850754,18.7823902 11.8332825,18.6680648 11.8332825,18.5417175 L11.8332825,18.5417175 L11.8332825,14.7917175 C11.8332825,14.6653098 11.8850687,14.5509268 11.9679977,14.4679977 L11.9679977,14.4679977 Z" id="Path"></path>
                <path d="M18.5417175,1 C18.6680725,1 18.7824042,1.05179661 18.8653038,1.1346962 C18.9482034,1.21759579 19,1.33192751 19,1.45828246 L19,1.45828246 L19,10.2082825 C19,10.334698 18.9482101,10.4490873 18.8652837,10.5320224 C18.7823902,10.6149246 18.6680648,10.6667175 18.5417175,10.6667175 L18.5417175,10.6667175 L12.2917175,10.6667175 C12.1653098,10.6667175 12.0509268,10.6149313 11.9679977,10.5320023 C11.8850687,10.4490732 11.8332825,10.3346902 11.8332825,10.2082825 L11.8332825,10.2082825 L11.8332825,1.45828246 C11.8332825,1.33193523 11.8850754,1.21760984 11.9679776,1.13471634 L11.9679776,1.13471634 Z" id="Path"></path>
            </g>
        </g>
    </g>
</svg>