<?xml version="1.0" encoding="UTF-8"?>
<svg width="20px" height="20px" viewBox="0 0 20 20" version="1.1" xmlns="http://www.w3.org/2000/svg" xmlns:xlink="http://www.w3.org/1999/xlink">
    <title>EDF7F6E9-624F-4A74-BADD-5300DDEAEE01@0,5x</title>
    <g id="Role-Guru" stroke="none" stroke-width="1" fill="none" fill-rule="evenodd">
        <g id="Side-Bar" transform="translate(-20.000000, -1093.000000)" fill="#FFFFFF" fill-rule="nonzero">
            <g id="Icon-dashboard-on" transform="translate(20.000000, 1093.000000)">
                <path d="M7.70828246,3.73034936e-14 L1.45828246,3.73034936e-14 C0.654144297,3.73034936e-14 2.64677169e-13,0.654144297 2.64677169e-13,1.45828246 L2.64677169e-13,5.20828246 C2.64677169e-13,6.01257324 0.654144297,6.66671754 1.45828246,6.66671754 L7.70828246,6.66671754 C8.51257324,6.66671754 9.16671754,6.01257324 9.16671754,5.20828246 L9.16671754,1.45828246 C9.16671754,0.654144297 8.51257324,3.73034936e-14 7.70828246,3.73034936e-14 Z" id="Path"></path>
                <path d="M7.70828246,8.33328246 L1.45828246,8.33328246 C0.654144297,8.33328246 2.64677169e-13,8.98742676 2.64677169e-13,9.79171754 L2.64677169e-13,18.5417175 C2.64677169e-13,19.3458557 0.654144297,20 1.45828246,20 L7.70828246,20 C8.51257324,20 9.16671754,19.3458557 9.16671754,18.5417175 L9.16671754,9.79171754 C9.16671754,8.98742676 8.51257324,8.33328246 7.70828246,8.33328246 Z" id="Path"></path>
                <path d="M18.5417175,13.3332825 L12.2917175,13.3332825 C11.4874268,13.3332825 10.8332825,13.9874268 10.8332825,14.7917175 L10.8332825,18.5417175 C10.8332825,19.3458557 11.4874268,20 12.2917175,20 L18.5417175,20 C19.3458557,20 20,19.3458557 20,18.5417175 L20,14.7917175 C20,13.9874268 19.3458557,13.3332825 18.5417175,13.3332825 L18.5417175,13.3332825 Z" id="Path"></path>
                <path d="M18.5417175,3.73034936e-14 L12.2917175,3.73034936e-14 C11.4874268,3.73034936e-14 10.8332825,0.654144297 10.8332825,1.45828246 L10.8332825,10.2082825 C10.8332825,11.0125732 11.4874268,11.6667175 12.2917175,11.6667175 L18.5417175,11.6667175 C19.3458557,11.6667175 20,11.0125732 20,10.2082825 L20,1.45828246 C20,0.654144297 19.3458557,3.73034936e-14 18.5417175,3.73034936e-14 L18.5417175,3.73034936e-14 Z" id="Path"></path>
            </g>
        </g>
    </g>
</svg>