<?xml version="1.0" encoding="UTF-8"?>
<svg width="16px" height="20px" viewBox="0 0 16 20" version="1.1" xmlns="http://www.w3.org/2000/svg" xmlns:xlink="http://www.w3.org/1999/xlink">
    <title>9F06F9AE-28D1-4437-B1D6-18E24A0B8CF7@0,5x</title>
    <g id="Web-Admin" stroke="none" stroke-width="1" fill="none" fill-rule="evenodd">
        <g id="Exam-1" transform="translate(-1111.000000, -140.000000)" fill="#0091FF">
            <g id="ion-clipboard---Ionicons-2" transform="translate(1111.000000, 140.000000)">
                <path d="M3.57142857,5.71428571 C3.66071473,4.73213795 4.07737723,4.1369058 4.82142857,3.92857143 L4.86607143,3.88392857 C5.49107455,3.7351183 5.80357143,3.43750223 5.80357143,2.99107143 L5.80357143,2.05357143 C5.80357143,1.48809241 6.00446228,1.00446629 6.40625,0.602678571 C6.80803772,0.200890848 7.29166384,0 7.85714286,0 C8.42262187,0 8.90624799,0.200890848 9.30803571,0.602678571 C9.70982344,1.00446629 9.91071429,1.48809241 9.91071429,2.05357143 L9.91071429,2.99107143 C9.91071429,3.46726429 10.2232112,3.77976116 10.8482143,3.92857143 L10.9375,3.92857143 C11.6517893,4.1369058 12.053571,4.73213795 12.1428571,5.71428571 L3.57142857,5.71428571 Z M7.85714286,1.42857143 C7.47023616,1.42857143 7.27678571,1.63690268 7.27678571,2.05357143 C7.27678571,2.47024018 7.47023616,2.67857143 7.85714286,2.67857143 C8.27381161,2.67857143 8.48214286,2.47024018 8.48214286,2.05357143 C8.48214286,1.63690268 8.27381161,1.42857143 7.85714286,1.42857143 Z M14.5089286,1.42857143 C14.8363112,1.42857143 15.1190464,1.54761786 15.3571429,1.78571429 C15.5952393,2.02381071 15.7142857,2.32142679 15.7142857,2.67857143 L15.7142857,18.75 C15.7142857,19.1071446 15.5952393,19.4047607 15.3571429,19.6428571 C15.1190464,19.8809536 14.8363112,20 14.5089286,20 L1.25,20 C0.922617411,20 0.632441741,19.8809536 0.379464286,19.6428571 C0.12648683,19.4047607 -1.98063788e-13,19.1071446 -1.98063788e-13,18.75 L-1.98063788e-13,2.67857143 C-1.98063788e-13,2.32142679 0.12648683,2.02381071 0.379464286,1.78571429 C0.632441741,1.54761786 0.922617411,1.42857143 1.25,1.42857143 L4.50892857,1.42857143 L4.50892857,2.00892857 C4.50892857,2.247025 4.42708415,2.44791585 4.26339286,2.61160714 C4.09970156,2.77529844 3.89881071,2.85714286 3.66071429,2.85714286 L2.00892857,2.85714286 C1.65178393,2.85714286 1.47321429,3.0505933 1.47321429,3.4375 L1.47321429,18.0357143 C1.47321429,18.3928589 1.63690312,18.5714286 1.96428571,18.5714286 L13.7946429,18.5714286 C14.1220254,18.5714286 14.2857143,18.3928589 14.2857143,18.0357143 L14.2857143,3.4375 C14.2857143,3.0505933 14.1071446,2.85714286 13.75,2.85714286 L12.0982143,2.85714286 C11.8601179,2.85714286 11.6517866,2.77529844 11.4732143,2.61160714 C11.294642,2.44791585 11.2053571,2.247025 11.2053571,2.00892857 L11.2053571,1.42857143 L14.5089286,1.42857143 Z M2.85714286,8.57142857 L2.85714286,7.14285714 L7.85714286,7.14285714 L7.85714286,8.57142857 L2.85714286,8.57142857 Z M2.85714286,17.1428571 L2.85714286,15.7142857 L10,15.7142857 L10,17.1428571 L2.85714286,17.1428571 Z M2.85714286,14.2857143 L2.85714286,12.8571429 L8.61607143,12.8571429 L8.61607143,14.2857143 L2.85714286,14.2857143 Z M2.85714286,11.4285714 L2.85714286,10 L12.1428571,10 L12.1428571,11.4285714 L2.85714286,11.4285714 Z" id="ion-clipboard---Ionicons"></path>
            </g>
        </g>
    </g>
</svg>