<svg width="40" height="52" viewBox="0 0 40 52" fill="none" xmlns="http://www.w3.org/2000/svg">
<path d="M20 3.75C13.0965 3.75 7.5 10.25 7.5 18.75V21.25C7.5 22.5 8.43275 23.75 9.58325 23.75C10.734 23.75 11.6668 22.5 11.6668 21.25V18.75C11.6668 12.75 15.3975 7.99988 20 7.99988C24.6025 7.99988 28.3325 12.75 28.3325 18.75V21.25C28.3325 22.5 29.265 23.75 30.4175 23.75C31.5675 23.75 32.5 22.5 32.5 21.25V18.75C32.5 10.25 26.9025 3.75 20 3.75Z" fill="#7F8C8D"/>
<path d="M5 18.75C2.2385 18.75 0 21 0 23.75V41.25C0 44 2.2385 46.25 5 46.25H35C37.7625 46.25 40 44 40 41.25V23.75C40 21 37.7625 18.75 35 18.75H5Z" fill="#F1C40F"/>
<path d="M20 0C11.7158 0 5 6.75 5 15V17.5C5 19 6.11925 20 7.5 20C8.88075 20 10 19 10 17.5V15C10 9.25 14.4773 4.49982 20 4.49982C25.5225 4.49982 30 9.25 30 15V17.5C30 19 31.12 20 32.5 20C33.88 20 35 19 35 17.5V15C35 6.75 28.285 0 20 0Z" fill="#BDC3C7"/>
<path d="M5 23.75C2.2385 23.75 0 26 0 28.75V46.25C0 49 2.2385 51.25 5 51.25H35C37.7625 51.25 40 49 40 46.25V28.75C40 26 37.7625 23.75 35 23.75H5Z" fill="#F39C12"/>
<path d="M5.81787 18.75C4.96712 18.75 4.17562 18.9999 3.47412 19.2499C4.02912 21.4999 5.98812 22.9999 8.31787 22.9999C10.8661 22.9999 12.9304 21 13.2399 18.75H5.81787Z" fill="#7F8C8D"/>
<path d="M34.4806 18.5C35.3306 18.5 36.1231 18.7498 36.8231 19.2498C36.2681 21.2498 34.3106 22.9998 31.9806 22.9998C29.4306 22.9998 27.3681 21 27.0581 18.5H34.4806Z" fill="#7F8C8D"/>
<path d="M20 1.25C11.7158 1.25 5 7.75 5 16.25V18.75C5 20 6.11925 21.25 7.5 21.25C8.88075 21.25 10 20 10 18.75V16.25C10 10.25 14.4773 5.49988 20 5.49988C25.5225 5.49988 30 10.25 30 16.25V18.75C30 20 31.12 21.25 32.5 21.25C33.88 21.25 35 20 35 18.75V16.25C35 7.75 28.285 1.25 20 1.25Z" fill="#95A5A6"/>
<path d="M35 28.75H5V31.25H35V28.75Z" fill="#E67E22"/>
<path d="M35 33.75H5V36.25H35V33.75Z" fill="#E67E22"/>
<path d="M35 38.75H5V41.25H35V38.75Z" fill="#E67E22"/>
<path d="M35 43.75H5V46.25H35V43.75Z" fill="#E67E22"/>
</svg>
