<?xml version="1.0" encoding="UTF-8"?>
<svg width="15px" height="15px" viewBox="0 0 15 15" version="1.1" xmlns="http://www.w3.org/2000/svg" xmlns:xlink="http://www.w3.org/1999/xlink">
    <title>11B453E9-5ECB-4631-86C1-B97BFBDEE459@0,5x</title>
    <g id="Role-Guru" stroke="none" stroke-width="1" fill="none" fill-rule="evenodd" opacity="0.5">
        <g id="Side-Bar" transform="translate(-88.000000, -368.000000)" fill="#000000" fill-rule="nonzero">
            <g id="book-2" transform="translate(88.000000, 368.000000)">
                <path d="M14.75,0.999998973 L11.75,0.999998973 L11.75,0.25 C11.75,0.16325 11.705,0.083 11.6315,0.03725 C11.55775,-0.00825 11.4655,-0.01225 11.38825,0.02625 L10.5,0.4705 L9.61175,0.0265 C9.53425,-0.012 9.44225,-0.008 9.3685,0.0375 C9.295,0.083 9.25,0.16325 9.25,0.25 L9.25,0.999998973 L0.25,0.999998973 C0.112,0.999998973 3.55271368e-15,1.112 3.55271368e-15,1.25 L3.55271368e-15,14.75 C3.55271368e-15,14.888 0.112,14.999999 0.25,14.999999 L14.75,14.999999 C14.888,14.999999 15,14.888 15,14.75 L15,1.25 C15,1.112 14.888,0.999998973 14.75,0.999998973 L14.75,0.999998973 Z M1.75,11.5 L5.25,11.5 C6.268,11.5 7.109,12.265 7.23275,13.25 L1.75,13.25 L1.75,11.5 Z M1.75,11 L1.75,2.75 L7.25,2.75 L7.25,12.00625 C6.79375,11.397 6.06825,11 5.25,11 L1.75,11 Z M13.25,11 L9.75,11 C8.93175,11 8.20625,11.397 7.75,12.00625 L7.75,2.75 L13.25,2.75 L13.25,11 Z M13.25,11.5 L13.25,13.25 L7.76725,13.25 C7.891,12.265 8.732,11.5 9.75,11.5 L13.25,11.5 Z M9.75,0.6545 L10.38825,0.9735 C10.4585,1.00875 10.5415,1.00875 10.612,0.9735 L11.25,0.6545 L11.25,2.25 L9.75,2.25 L9.75,0.6545 Z M14.5,14.5 L0.5,14.5 L0.5,1.5 L9.25,1.5 L9.25,2.25 L1.5,2.25 C1.362,2.25 1.25,2.362 1.25,2.5 L1.25,13.5 C1.25,13.638 1.362,13.75 1.5,13.75 L13.5,13.75 C13.638,13.75 13.75,13.638 13.75,13.5 L13.75,2.5 C13.75,2.362 13.638,2.25 13.5,2.25 L11.75,2.25 L11.75,1.5 L14.5,1.5 L14.5,14.5 Z" id="Shape"></path>
                <polygon id="Path" points="8.5 3.5 12.5 3.5 12.5 4 8.5 4"></polygon>
                <polygon id="Path" points="8.5 4.75 12.5 4.75 12.5 5.25 8.5 5.25"></polygon>
                <polygon id="Path" points="8.5 6 12.5 6 12.5 6.5 8.5 6.5"></polygon>
                <polygon id="Path" points="8.5 7.25 12.5 7.25 12.5 7.75 8.5 7.75"></polygon>
                <polygon id="Path" points="8.5 8.5 12.5 8.5 12.5 9 8.5 9"></polygon>
                <polygon id="Path" points="8.5 9.75 12.5 9.75 12.5 10.25 8.5 10.25"></polygon>
                <polygon id="Path" points="2.5 3.5 6.5 3.5 6.5 4 2.5 4"></polygon>
                <polygon id="Path" points="2.5 4.75 6.5 4.75 6.5 5.25 2.5 5.25"></polygon>
                <polygon id="Path" points="2.5 6 6.5 6 6.5 6.5 2.5 6.5"></polygon>
                <polygon id="Path" points="2.5 7.25 6.5 7.25 6.5 7.75 2.5 7.75"></polygon>
                <polygon id="Path" points="2.5 8.5 6.5 8.5 6.5 9 2.5 9"></polygon>
                <polygon id="Path" points="2.5 9.75 6.5 9.75 6.5 10.25 2.5 10.25"></polygon>
            </g>
        </g>
    </g>
</svg>