<svg xmlns="http://www.w3.org/2000/svg" width="22" height="22" viewBox="0 0 22 22">
  <g fill="#B9B9B9" stroke="#B9B9B9" stroke-width=".3" transform="translate(1 1)">
    <path d="M2.93033575,11.2835745 C1.31811194,11.2835745 0.00592668607,12.5925957 0.000770444885,14.2037257 C-0.00583110633,14.4481784 -0.0244248246,17.287783 2.51603958,19.8283646 C2.74478919,20.0571923 3.11584325,20.0572313 3.34463192,19.8283646 C5.88513539,17.287783 5.86650261,14.4482175 5.85990106,14.2037257 C5.85474482,12.5925957 4.54255956,11.2835745 2.93033575,11.2835745 Z M4.44345816,15.7829027 C4.14994304,16.7987213 3.64189703,17.7284853 2.93033575,18.5538745 C2.21877447,17.7284853 1.71076752,16.7987213 1.41721334,15.7829027 C1.1558466,14.8782168 1.17205751,14.2398585 1.17217469,14.2357569 C1.17244813,14.2282569 1.17260438,14.2207569 1.17260438,14.2132179 C1.17260438,13.2439617 1.96111866,12.4554084 2.93033575,12.4554084 C3.89955284,12.4554084 4.68806712,13.2439617 4.68806712,14.2132179 C4.68806712,14.2207179 4.68814525,14.2259913 4.68841868,14.2334913 C4.688614,14.2398585 4.70482491,14.8782168 4.44345816,15.7829027 L4.44345816,15.7829027 Z"/>
    <circle cx="2.93" cy="14.213" r="1"/>
    <path d="M18.9724177,2.21019154 L19.8899552,0.926717166 C20.1666344,0.53972564 19.8894865,0 19.4133545,0 L14.7246906,0 C14.4010974,0 14.1387932,0.262343302 14.1387932,0.585936499 L14.1387932,6.95147249 L13.6914111,6.95147249 C13.3678179,6.95147249 13.1055137,7.2138158 13.1055137,7.53740899 C13.1055137,7.86100219 13.367857,8.12334549 13.6914111,8.12334549 L15.757931,8.12334549 C16.0815242,8.12334549 16.3438285,7.86100219 16.3438285,7.53740899 C16.3438285,7.2138158 16.0814852,6.95147249 15.757931,6.95147249 L15.310588,6.95147249 L15.310588,4.31651606 L19.4133154,4.31651606 C19.9001505,4.31651606 20.1746422,3.75475921 19.8756584,3.37069736 L18.9724177,2.21019154 Z M17.7791776,2.58495652 L18.2148409,3.14468213 L15.3106271,3.14468213 L15.3106271,1.171873 L18.2742158,1.171873 L17.7648807,1.88429365 C17.6140607,2.09526986 17.619881,2.38030843 17.7791776,2.58495652 Z"/>
    <path d="M17.0087492,11.5714646 C16.5421875,10.1624436 15.2119944,9.17928119 13.694458,9.17928119 L9.07009088,9.17928119 C8.83243504,8.48959487 8.17743616,7.99256447 7.40810154,7.99256447 C6.63958722,7.99256447 5.98517428,8.48854018 5.74689344,9.17701557 C4.50900493,9.12986721 3.51635037,8.10861895 3.51635037,6.85936328 L3.51635037,5.61014666 C3.51635037,4.3309301 4.55705172,3.29022875 5.83619016,3.29022875 L8.34274838,3.29022875 C8.58462296,3.97221977 9.23587185,4.46210175 9.99969867,4.46210175 C10.7635255,4.46210175 11.4147744,3.97221977 11.656649,3.29022875 L12.5039131,3.29022875 C12.8275063,3.29022875 13.0898106,3.02788545 13.0898106,2.70429225 C13.0898106,2.38069906 12.8274673,2.11835575 12.5039131,2.11835575 L11.656649,2.11835575 C11.4147744,1.43636473 10.7635255,0.946482757 9.99969867,0.946482757 C9.23587185,0.946482757 8.58462296,1.43636473 8.34274838,2.11835575 L5.83619016,2.11835575 C3.91088095,2.11835575 2.34451644,3.68475933 2.34451644,5.61014666 L2.34451644,6.85936328 C2.34451644,8.75787566 3.86752165,10.3072871 5.7558778,10.3501386 C6.0015805,11.0249421 6.64943096,11.5081835 7.4081406,11.5081835 C8.16645961,11.5081835 8.8140757,11.0254499 9.06005184,10.3511542 L13.694458,10.3511542 C14.6191439,10.3511542 15.43883,10.9002157 15.8074622,11.7127144 C15.2355491,12.0030654 14.8424638,12.5966972 14.8424638,13.2808367 C14.8424638,13.9649371 15.2355491,14.5586079 15.8074622,14.848959 C15.4387909,15.6614576 14.6191048,16.2105192 13.6944189,16.2105192 L11.6566099,16.2105192 C11.4147353,15.5285672 10.7634864,15.0387243 9.99965961,15.0387243 C9.23587185,15.0387243 8.58462296,15.5285672 8.34270931,16.2105192 L6.89079773,16.2105192 C6.56720454,16.2105192 6.3049003,16.4728625 6.3049003,16.7964557 C6.3049003,17.1200489 6.5672436,17.3823922 6.89079773,17.3823922 L8.34267025,17.3823922 C8.58450578,18.0644223 9.23579372,18.5543433 9.99965961,18.5543433 C10.7635255,18.5543433 11.4148134,18.0644223 11.656649,17.3823922 L13.6944189,17.3823922 C15.2119944,17.3823922 16.5421484,16.3992298 17.0087101,14.9902088 C17.7814822,14.8054825 18.3579266,14.109429 18.3579266,13.2808367 C18.3579266,12.4522443 17.7815213,11.7561908 17.0087492,11.5714646 Z M9.99965961,2.11835575 C10.322745,2.11835575 10.585557,2.38120687 10.585557,2.70429225 C10.585557,3.02737764 10.322745,3.29022875 9.99965961,3.29022875 C9.67657422,3.29022875 9.41376217,3.02737764 9.41376217,2.70429225 C9.41376217,2.38120687 9.67657422,2.11835575 9.99965961,2.11835575 L9.99965961,2.11835575 Z M7.40810154,10.3363105 C7.08501615,10.3363105 6.8222041,10.0734593 6.8222041,9.75037396 C6.8222041,9.42728858 7.08501615,9.16443746 7.40810154,9.16443746 C7.73118692,9.16443746 7.99399897,9.42728858 7.99399897,9.75037396 C7.99399897,10.0734593 7.73118692,10.3363105 7.40810154,10.3363105 Z M9.99965961,17.3824703 C9.67657422,17.3824703 9.41376217,17.1196192 9.41376217,16.7965338 C9.41376217,16.4734484 9.67657422,16.2105973 9.99965961,16.2105973 C10.322745,16.2105973 10.585557,16.4734484 10.585557,16.7965338 C10.585557,17.1196192 10.322745,17.3824703 9.99965961,17.3824703 L9.99965961,17.3824703 Z M16.6001952,13.8667732 C16.2771098,13.8667732 16.0142978,13.6039221 16.0142978,13.2808367 C16.0142978,12.9577513 16.2771098,12.6949002 16.6001952,12.6949002 C16.9232806,12.6949002 17.1860926,12.9577513 17.1860926,13.2808367 C17.1860926,13.6039221 16.9232806,13.8667732 16.6001952,13.8667732 Z"/>
  </g>
</svg>
