<?xml version="1.0" encoding="UTF-8"?>
<svg width="45px" height="50px" viewBox="0 0 45 50" version="1.1" xmlns="http://www.w3.org/2000/svg" xmlns:xlink="http://www.w3.org/1999/xlink">
    <title>9D1B0353-BAEB-497D-BC45-536935C1EAF8@0,5x</title>
    <g id="Web-Admin" stroke="none" stroke-width="1" fill="none" fill-rule="evenodd">
        <g id="Dasbor" transform="translate(-550.000000, -226.000000)" fill="#EC9B73" fill-rule="nonzero">
            <g id="book" transform="translate(550.000000, 226.000000)">
                <path d="M1.86335404,43.5841333 C0.834200311,43.5841333 1.95399252e-12,42.8994036 1.95399252e-12,42.0548654 L1.95399252e-12,6.30822981 C1.95399252e-12,2.82981455 3.44802019,-4.4408921e-15 7.6863354,-4.4408921e-15 L40.9937888,-4.4408921e-15 C42.0229425,-4.4408921e-15 42.8571429,0.684729673 42.8571429,1.52926783 L42.8571429,36.702428 C42.8571429,37.5469662 42.0229425,38.2316958 40.9937888,38.2316958 C39.9646351,38.2316958 39.1304348,37.5469662 39.1304348,36.702428 L39.1304348,3.05853567 L7.6863354,3.05853567 C5.50295031,3.05853567 3.72670807,4.51631023 3.72670807,6.30822981 L3.72670807,42.0548654 C3.72670807,42.8994036 2.89250776,43.5841333 1.86335404,43.5841333 Z" id="Path"></path>
                <path d="M40.9937888,48.9365707 L8.38509317,48.9365707 C3.7615295,48.9365707 1.95399252e-12,45.8494568 1.95399252e-12,42.0548654 C1.95399252e-12,38.260274 3.7615295,35.1731602 8.38509317,35.1731602 L40.9937888,35.1731602 C42.0229425,35.1731602 42.8571429,35.8578898 42.8571429,36.702428 C42.8571429,37.5469662 42.0229425,38.2316958 40.9937888,38.2316958 L8.38509317,38.2316958 C5.81645963,38.2316958 3.72670807,39.9467697 3.72670807,42.0548654 C3.72670807,44.1629611 5.81645963,45.878035 8.38509317,45.878035 L40.9937888,45.878035 C42.0229425,45.878035 42.8571429,46.5627647 42.8571429,47.4073028 C42.8571429,48.251841 42.0229425,48.9365707 40.9937888,48.9365707 Z" id="Path"></path>
                <path d="M38.7667888,43.5841333 L8.85225885,43.5841333 C7.90813492,43.5841333 7.14285714,42.8994036 7.14285714,42.0548654 C7.14285714,41.2103273 7.90813492,40.5255976 8.85225885,40.5255976 L38.7667888,40.5255976 C39.7109127,40.5255976 40.4761905,41.2103273 40.4761905,42.0548654 C40.4761905,42.8994036 39.7109127,43.5841333 38.7667888,43.5841333 Z" id="Path"></path>
                <path d="M11.9047619,38.2316958 C10.5897321,38.2316958 9.52380952,37.5469662 9.52380952,36.702428 L9.52380952,1.52926783 C9.52380952,0.684729673 10.5897321,1.11022302e-14 11.9047619,1.11022302e-14 C13.2197917,1.11022302e-14 14.2857143,0.684729673 14.2857143,1.52926783 L14.2857143,36.702428 C14.2857143,37.5469662 13.2197917,38.2316958 11.9047619,38.2316958 Z" id="Path"></path>
            </g>
        </g>
    </g>
</svg>