<?xml version="1.0" encoding="UTF-8"?>
<svg width="22px" height="22px" viewBox="0 0 22 22" version="1.1" xmlns="http://www.w3.org/2000/svg" xmlns:xlink="http://www.w3.org/1999/xlink">
    <title>3CBC3345-142C-418D-BB64-F394412B72E6@0,5x</title>
    <g id="Learning-Role-Admin" stroke="none" stroke-width="1" fill="none" fill-rule="evenodd">
        <g id="Icon-Learning" transform="translate(-41.000000, -130.000000)" fill="#424242" fill-rule="nonzero" stroke="#424242" stroke-width="0.5">
            <g id="add" transform="translate(42.000000, 131.000000)">
                <path d="M7.91666667,17.5 L2.08333333,17.5 C0.935,17.5 0,16.5658333 0,15.4166667 L0,4.58333333 C0,3.43416667 0.935,2.5 2.08333333,2.5 L3.75,2.5 C3.98,2.5 4.16666667,2.68666667 4.16666667,2.91666667 C4.16666667,3.14666667 3.98,3.33333333 3.75,3.33333333 L2.08333333,3.33333333 C1.39416667,3.33333333 0.833333333,3.89416667 0.833333333,4.58333333 L0.833333333,15.4166667 C0.833333333,16.1058333 1.39416667,16.6666667 2.08333333,16.6666667 L7.91666667,16.6666667 C8.14666667,16.6666667 8.33333333,16.8533333 8.33333333,17.0833333 C8.33333333,17.3133333 8.14666667,17.5 7.91666667,17.5 Z" id="Path"></path>
                <path d="M13.75,7.5 C13.52,7.5 13.3333333,7.31333333 13.3333333,7.08333333 L13.3333333,4.58333333 C13.3333333,3.89416667 12.7725,3.33333333 12.0833333,3.33333333 L10.4166667,3.33333333 C10.1866667,3.33333333 10,3.14666667 10,2.91666667 C10,2.68666667 10.1866667,2.5 10.4166667,2.5 L12.0833333,2.5 C13.2316667,2.5 14.1666667,3.43416667 14.1666667,4.58333333 L14.1666667,7.08333333 C14.1666667,7.31333333 13.98,7.5 13.75,7.5 Z" id="Path"></path>
                <path d="M9.58333333,5 L4.58333333,5 C3.89416667,5 3.33333333,4.43916667 3.33333333,3.75 L3.33333333,2.08333333 C3.33333333,1.85333333 3.52,1.66666667 3.75,1.66666667 L5.04166667,1.66666667 C5.23583333,0.716666667 6.07666667,0 7.08333333,0 C8.09,0 8.93083333,0.716666667 9.125,1.66666667 L10.4166667,1.66666667 C10.6466667,1.66666667 10.8333333,1.85333333 10.8333333,2.08333333 L10.8333333,3.75 C10.8333333,4.43916667 10.2725,5 9.58333333,5 Z M4.16666667,2.5 L4.16666667,3.75 C4.16666667,3.97916667 4.35333333,4.16666667 4.58333333,4.16666667 L9.58333333,4.16666667 C9.81333333,4.16666667 10,3.97916667 10,3.75 L10,2.5 L8.75,2.5 C8.52,2.5 8.33333333,2.31333333 8.33333333,2.08333333 C8.33333333,1.39416667 7.7725,0.833333333 7.08333333,0.833333333 C6.39416667,0.833333333 5.83333333,1.39416667 5.83333333,2.08333333 C5.83333333,2.31333333 5.64666667,2.5 5.41666667,2.5 L4.16666667,2.5 Z" id="Shape"></path>
                <path d="M14.5833333,20 C11.5966667,20 9.16666667,17.57 9.16666667,14.5833333 C9.16666667,11.5966667 11.5966667,9.16666667 14.5833333,9.16666667 C17.57,9.16666667 20,11.5966667 20,14.5833333 C20,17.57 17.57,20 14.5833333,20 Z M14.5833333,10 C12.0558333,10 10,12.0566667 10,14.5833333 C10,17.11 12.0558333,19.1666667 14.5833333,19.1666667 C17.1108333,19.1666667 19.1666667,17.11 19.1666667,14.5833333 C19.1666667,12.0566667 17.1108333,10 14.5833333,10 Z" id="Shape"></path>
                <path d="M14.5833333,17.5 C14.3533333,17.5 14.1666667,17.3133333 14.1666667,17.0833333 L14.1666667,12.0833333 C14.1666667,11.8533333 14.3533333,11.6666667 14.5833333,11.6666667 C14.8133333,11.6666667 15,11.8533333 15,12.0833333 L15,17.0833333 C15,17.3133333 14.8133333,17.5 14.5833333,17.5 Z" id="Path"></path>
                <path d="M17.0833333,15 L12.0833333,15 C11.8533333,15 11.6666667,14.8133333 11.6666667,14.5833333 C11.6666667,14.3533333 11.8533333,14.1666667 12.0833333,14.1666667 L17.0833333,14.1666667 C17.3133333,14.1666667 17.5,14.3533333 17.5,14.5833333 C17.5,14.8133333 17.3133333,15 17.0833333,15 Z" id="Path"></path>
                <path d="M11.25,7.5 L2.91666667,7.5 C2.68666667,7.5 2.5,7.31333333 2.5,7.08333333 C2.5,6.85333333 2.68666667,6.66666667 2.91666667,6.66666667 L11.25,6.66666667 C11.48,6.66666667 11.6666667,6.85333333 11.6666667,7.08333333 C11.6666667,7.31333333 11.48,7.5 11.25,7.5 Z" id="Path"></path>
                <path d="M8.75,10 L2.91666667,10 C2.68666667,10 2.5,9.81333333 2.5,9.58333333 C2.5,9.35333333 2.68666667,9.16666667 2.91666667,9.16666667 L8.75,9.16666667 C8.98,9.16666667 9.16666667,9.35333333 9.16666667,9.58333333 C9.16666667,9.81333333 8.98,10 8.75,10 Z" id="Path"></path>
                <path d="M7.08333333,12.5 L2.91666667,12.5 C2.68666667,12.5 2.5,12.3133333 2.5,12.0833333 C2.5,11.8533333 2.68666667,11.6666667 2.91666667,11.6666667 L7.08333333,11.6666667 C7.31333333,11.6666667 7.5,11.8533333 7.5,12.0833333 C7.5,12.3133333 7.31333333,12.5 7.08333333,12.5 Z" id="Path"></path>
            </g>
        </g>
    </g>
</svg>