<?xml version="1.0" encoding="UTF-8"?>
<svg width="20px" height="20px" viewBox="0 0 20 20" version="1.1" xmlns="http://www.w3.org/2000/svg" xmlns:xlink="http://www.w3.org/1999/xlink">
    <title>9AB0E95F-5657-425F-971E-52DC4C70AC20@0,5x</title>
    <g id="Learning-Role-Murid" stroke="none" stroke-width="1" fill="none" fill-rule="evenodd" opacity="0.7">
        <g id="Desktop-HD" transform="translate(-83.000000, -195.000000)" fill="#0091FF" fill-rule="nonzero">
            <g id="graduate" transform="translate(83.000000, 195.000000)">
                <path d="M19.9850399,16.5757979 L19.3234707,11.9448138 L19.3234707,1.99468085 C19.3218277,1.44454694 18.8762642,0.998983445 18.3261303,0.997340426 L14.6692154,0.997340426 L14.6692154,1.66223404 L18.3261303,1.66223404 C18.5097356,1.66223404 18.6585771,1.81107555 18.6585771,1.99468085 L18.6585771,11.6356383 L18.3261303,11.6356383 L18.3261303,2.32712766 C18.3261303,2.14352236 18.1772888,1.99468085 17.9936835,1.99468085 L16.9963431,1.99468085 L16.9963431,2.65957447 L17.6612367,2.65957447 L17.6612367,11.6356383 L2.36868351,11.6356383 L2.36868351,2.65957447 L3.03357713,2.65957447 L3.03357713,1.99468085 L2.0362367,1.99468085 C1.8526314,1.99468085 1.70378989,2.14352236 1.70378989,2.32712766 L1.70378989,11.6356383 L1.37134309,11.6356383 L1.37134309,1.99468085 C1.37134309,1.81107555 1.52018459,1.66223404 1.70378989,1.66223404 L5.36070479,1.66223404 L5.36070479,0.997340426 L1.70378989,0.997340426 C1.15365598,0.998983445 0.708092487,1.44454694 0.706449468,1.99468085 L0.706449468,11.9448138 L0.0448803191,16.5757979 C0.0421209879,16.5911498 0.0410065316,16.6067522 0.0414197416,16.6223404 L0.0414197416,17.9521277 C0.0426511972,18.3188836 0.339693529,18.6159259 0.706449468,18.6170213 L4.03091755,18.6170213 L4.03091755,19.9468085 L4.69581117,19.9468085 L4.69581117,18.2845745 C4.69597201,18.2193017 4.67625963,18.1555264 4.63929521,18.1017287 L4.03091755,17.1875 L4.03091755,14.793883 C4.03091755,14.7020803 4.10533831,14.6276596 4.19714096,14.6276596 C4.28894361,14.6276596 4.36336436,14.7020803 4.36336436,14.793883 L4.36336436,15.625 L5.02825798,15.625 L5.02825798,14.1289894 C5.02825798,14.0371867 5.10267873,13.962766 5.19448138,13.962766 C5.28628403,13.962766 5.36070479,14.0371867 5.36070479,14.1289894 L5.36070479,15.2925532 L6.0255984,15.2925532 L6.0255984,13.4640957 C6.0255984,13.3722931 6.10001916,13.2978723 6.19182181,13.2978723 C6.28362446,13.2978723 6.35804521,13.3722931 6.35804521,13.4640957 L6.35804521,15.2925532 L7.02293883,15.2925532 L7.02293883,13.7965426 C7.02293883,13.7047399 7.09735958,13.6303191 7.18916223,13.6303191 C7.28096489,13.6303191 7.35538564,13.7047399 7.35538564,13.7965426 L7.35538564,16.2898936 L8.02027926,16.2898936 L8.02027926,15.4587766 C8.02027926,15.3669739 8.09470001,15.2925532 8.18650266,15.2925532 C8.27830531,15.2925532 8.35272606,15.3669739 8.35272606,15.4587766 L8.35272606,17.4401596 L7.5049867,18.0086436 C7.41210598,18.0698083 7.35596099,18.1733647 7.35538564,18.2845745 L7.35538564,19.9468085 L8.02027926,19.9468085 L8.02027926,18.6170213 L12.009641,18.6170213 L12.009641,19.9468085 L12.6745346,19.9468085 L12.6745346,18.2845745 C12.6739592,18.1733647 12.6178142,18.0698083 12.5249335,18.0086436 L11.6771941,17.4401596 L11.6771941,15.4587766 C11.6771941,15.3669739 11.7516149,15.2925532 11.8434176,15.2925532 C11.9352202,15.2925532 12.009641,15.3669739 12.009641,15.4587766 L12.009641,16.2898936 L12.6745346,16.2898936 L12.6745346,13.7965426 C12.6745346,13.7047399 12.7489553,13.6303191 12.840758,13.6303191 C12.9325606,13.6303191 13.0069814,13.7047399 13.0069814,13.7965426 L13.0069814,15.2925532 L13.671875,15.2925532 L13.671875,13.4640957 C13.671875,13.3722931 13.7462958,13.2978723 13.8380984,13.2978723 C13.9299011,13.2978723 14.0043218,13.3722931 14.0043218,13.4640957 L14.0043218,15.2925532 L14.6692154,15.2925532 L14.6692154,14.1289894 C14.6692154,14.0371867 14.7436362,13.962766 14.8354388,13.962766 C14.9272415,13.962766 15.0016622,14.0371867 15.0016622,14.1289894 L15.0016622,15.625 L15.6665559,15.625 L15.6665559,14.793883 C15.6665559,14.7020803 15.7409766,14.6276596 15.8327793,14.6276596 C15.9245819,14.6276596 15.9990027,14.7020803 15.9990027,14.793883 L15.9990027,17.1875 L15.390625,18.1017287 C15.3536606,18.1555264 15.3339482,18.2193017 15.334109,18.2845745 L15.334109,19.9468085 L15.9990027,19.9468085 L15.9990027,18.6170213 L19.3234707,18.6170213 C19.6902267,18.6159259 19.987269,18.3188836 19.9885005,17.9521277 L19.9885005,16.6223404 C19.9889137,16.6067522 19.9877992,16.5911498 19.9850399,16.5757979 L19.9850399,16.5757979 Z M0.706449468,17.9521277 L0.706449468,16.9547872 L3.36602394,16.9547872 L3.36602394,17.287234 C3.3658631,17.3525068 3.38557547,17.4162821 3.42253989,17.4700798 L3.74168883,17.9521277 L0.706449468,17.9521277 Z M8.78490691,17.9521277 L8.86801862,17.8956117 C8.96089934,17.834447 9.01704433,17.7308907 9.01761968,17.6196809 L9.01761968,16.9547872 L11.0123005,16.9547872 L11.0123005,17.6196809 C11.0128759,17.7308907 11.0690209,17.834447 11.1619016,17.8956117 L11.2450133,17.9521277 L8.78490691,17.9521277 Z M15.8327793,13.962766 C15.7723692,13.9624577 15.7121269,13.9691512 15.653258,13.9827128 C15.5824243,13.5865309 15.237903,13.2980294 14.8354388,13.2978723 C14.7750288,13.297564 14.7147865,13.3042576 14.6559176,13.3178191 C14.5962955,12.9799159 14.3346965,12.7136474 13.9979008,12.648057 C13.6611052,12.5824666 13.3187034,12.7311069 13.1366356,13.0219415 C13.0424275,12.9847115 12.9420557,12.9655394 12.840758,12.9654255 C12.3817447,12.9654255 12.009641,13.3375293 12.009641,13.7965426 L12.009641,14.6442819 C11.9548609,14.6336503 11.8992181,14.628086 11.8434176,14.6276596 C11.3844043,14.6276596 11.0123005,14.9997633 11.0123005,15.4587766 L11.0123005,16.2898936 L9.01761968,16.2898936 L9.01761968,15.4587766 C9.01761968,14.9997633 8.64551592,14.6276596 8.18650266,14.6276596 C8.13070207,14.628086 8.07505932,14.6336503 8.02027926,14.6442819 L8.02027926,13.7965426 C8.02027926,13.5761166 7.93271539,13.3647187 7.77685072,13.2088541 C7.62098604,13.0529894 7.40958817,12.9654255 7.18916223,12.9654255 C7.08786455,12.9655394 6.98749267,12.9847115 6.89328457,13.0219415 C6.71121686,12.7311069 6.36881502,12.5824666 6.03201938,12.648057 C5.69522373,12.7136474 5.43362471,12.9799159 5.37400266,13.3178191 C5.3151337,13.3042576 5.25489143,13.297564 5.19448138,13.2978723 C4.79201718,13.2980294 4.44749591,13.5865309 4.37666223,13.9827128 C4.31779328,13.9691512 4.25755101,13.9624577 4.19714096,13.962766 C3.7381277,13.962766 3.36602394,14.3348697 3.36602394,14.793883 L3.36602394,16.2898936 L0.756316489,16.2898936 L1.328125,12.3005319 L18.7017952,12.3005319 L19.2736037,16.2898936 L16.6638963,16.2898936 L16.6638963,14.793883 C16.6638963,14.3348697 16.2917925,13.962766 15.8327793,13.962766 Z M19.3234707,17.9521277 L16.2882314,17.9521277 L16.6073803,17.4700798 C16.6443447,17.4162821 16.6640571,17.3525068 16.6638963,17.287234 L16.6638963,16.9547872 L19.3234707,16.9547872 L19.3234707,17.9521277 Z" id="Shape"></path>
                <path d="M3.36594223,2.98470745 C3.36312419,3.11585253 3.43761323,3.23644143 3.55618351,3.29255319 L5.90192819,4.40359043 L5.36236702,9.60771277 C5.35297148,9.70119727 5.38357199,9.79429225 5.44659967,9.86397109 C5.50962735,9.93364993 5.59919613,9.97340844 5.6931516,9.97340844 L14.3367686,9.97340844 C14.4310132,9.97387679 14.5210296,9.93432579 14.5844262,9.86458955 C14.6478227,9.79485331 14.6786412,9.70148603 14.6692154,9.60771277 L14.127992,4.40359043 L15.334109,3.83244681 L15.334109,4.71542553 C14.9370509,4.85580271 14.6709612,5.23045697 14.6692154,5.65159574 L14.6692154,6.64893617 C14.6692154,6.83254147 14.8180569,6.98138298 15.0016622,6.98138298 L16.3314495,6.98138298 C16.5150548,6.98138298 16.6638963,6.83254147 16.6638963,6.64893617 L16.6638963,5.65159574 C16.6621505,5.23045697 16.3960608,4.85580271 15.9990027,4.71542553 L15.9990027,3.51861702 L16.4737367,3.29388298 C16.5923548,3.2378103 16.666899,3.11721716 16.6641058,2.98604496 C16.6611521,2.85487277 16.5813986,2.73765964 16.4604388,2.68683511 L10.1439495,0.0272606383 C10.0614622,-0.00746481689 9.96845796,-0.00746481689 9.88597074,0.0272606383 L3.56948138,2.68683511 C3.44900672,2.7375013 3.3693958,2.85405585 3.36594223,2.98470745 Z M15.9990027,6.31648936 L15.334109,6.31648936 L15.334109,5.65159574 C15.334109,5.46799044 15.4829505,5.31914894 15.6665559,5.31914894 C15.8501612,5.31914894 15.9990027,5.46799044 15.9990027,5.65159574 L15.9990027,6.31648936 Z M13.9680851,9.30851064 L6.06183511,9.30851064 L6.53922872,4.70545213 L9.87267287,6.28324468 C9.96273668,6.32589595 10.0671835,6.32589595 10.1572473,6.28324468 L13.4906915,4.70412234 L13.9680851,9.30851064 Z M10.0149601,0.693151596 L14.6851729,2.65957447 L10.9511303,2.65957447 C10.7892167,2.20161347 10.3209221,1.92690423 9.84217651,2.00904399 C9.36343089,2.09118375 9.01348832,2.50628028 9.01348832,2.99202128 C9.01348832,3.47776227 9.36343089,3.8928588 9.84217651,3.97499856 C10.3209221,4.05713833 10.7892167,3.78242908 10.9511303,3.32446809 L14.8530585,3.32446809 L10.0149601,5.61635638 L4.51263298,3.0099734 L10.0149601,0.693151596 Z M10.3474069,2.99202128 C10.3474069,3.17562658 10.1985654,3.32446809 10.0149601,3.32446809 C9.8313548,3.32446809 9.6825133,3.17562658 9.6825133,2.99202128 C9.6825133,2.80841597 9.8313548,2.65957447 10.0149601,2.65957447 C10.1985654,2.65957447 10.3474069,2.80841597 10.3474069,2.99202128 Z" id="Shape"></path>
            </g>
        </g>
    </g>
</svg>