<?xml version="1.0" encoding="UTF-8"?>
<svg width="13px" height="15px" viewBox="0 0 13 15" version="1.1" xmlns="http://www.w3.org/2000/svg" xmlns:xlink="http://www.w3.org/1999/xlink">
    <title>8A22909C-2D5A-4B64-A76D-FC2F3DDA5E0E@0,5x</title>
    <g id="Role-Guru" stroke="none" stroke-width="1" fill="none" fill-rule="evenodd">
        <g id="Side-Bar" transform="translate(-87.000000, -140.000000)" fill="#797979" fill-rule="nonzero">
            <g id="book" transform="translate(87.000000, 140.000000)">
                <path d="M0.548045305,12.8188627 C0.245353033,12.8188627 5.74703683e-13,12.6174716 5.74703683e-13,12.3690781 L5.74703683e-13,1.85536171 C5.74703683e-13,0.832298396 1.01412358,-1.30614473e-15 2.26068688,-1.30614473e-15 L12.0569967,-1.30614473e-15 C12.359689,-1.30614473e-15 12.605042,0.20139108 12.605042,0.449784657 L12.605042,10.7948318 C12.605042,11.0432253 12.359689,11.2446164 12.0569967,11.2446164 C11.7543044,11.2446164 11.5089514,11.0432253 11.5089514,10.7948318 L11.5089514,0.899569314 L2.26068688,0.899569314 C1.6185148,0.899569314 1.09609061,1.32832654 1.09609061,1.85536171 L1.09609061,12.3690781 C1.09609061,12.6174716 0.850737578,12.8188627 0.548045305,12.8188627 Z" id="Path"></path>
                <path d="M12.0569967,14.393109 L2.46620387,14.393109 C1.10633221,14.393109 5.74703683e-13,13.4851344 5.74703683e-13,12.3690781 C5.74703683e-13,11.2530218 1.10633221,10.3450471 2.46620387,10.3450471 L12.0569967,10.3450471 C12.359689,10.3450471 12.605042,10.5464382 12.605042,10.7948318 C12.605042,11.0432253 12.359689,11.2446164 12.0569967,11.2446164 L2.46620387,11.2446164 C1.71072342,11.2446164 1.09609061,11.7490499 1.09609061,12.3690781 C1.09609061,12.9891062 1.71072342,13.4935397 2.46620387,13.4935397 L12.0569967,13.4935397 C12.359689,13.4935397 12.605042,13.6949308 12.605042,13.9433244 C12.605042,14.1917179 12.359689,14.393109 12.0569967,14.393109 Z" id="Path"></path>
                <path d="M11.4019967,12.8188627 L2.60360554,12.8188627 C2.32592204,12.8188627 2.10084034,12.6174716 2.10084034,12.3690781 C2.10084034,12.1206845 2.32592204,11.9192934 2.60360554,11.9192934 L11.4019967,11.9192934 C11.6796802,11.9192934 11.9047619,12.1206845 11.9047619,12.3690781 C11.9047619,12.6174716 11.6796802,12.8188627 11.4019967,12.8188627 Z" id="Path"></path>
                <path d="M3.50140056,11.2446164 C3.1146271,11.2446164 2.80112045,11.0432253 2.80112045,10.7948318 L2.80112045,0.449784657 C2.80112045,0.20139108 3.1146271,3.26536184e-15 3.50140056,3.26536184e-15 C3.88817402,3.26536184e-15 4.20168067,0.20139108 4.20168067,0.449784657 L4.20168067,10.7948318 C4.20168067,11.0432253 3.88817402,11.2446164 3.50140056,11.2446164 Z" id="Path"></path>
            </g>
        </g>
    </g>
</svg>