<?xml version="1.0" encoding="UTF-8"?>
<svg width="27px" height="20px" viewBox="0 0 27 20" version="1.1" xmlns="http://www.w3.org/2000/svg" xmlns:xlink="http://www.w3.org/1999/xlink">
    <title>7C97E537-EEAC-4A88-B216-E99D77F990BA@0,5x</title>
    <g id="Web-Admin" stroke="none" stroke-width="1" fill="none" fill-rule="evenodd">
        <g id="Membership" transform="translate(-1208.000000, -142.000000)" fill="#0091FF" fill-rule="nonzero">
            <g id="Group-9" transform="translate(1208.000000, 140.000000)">
                <g id="driving-license" transform="translate(0.000000, 2.000000)">
                    <path d="M23.817527,0.0256102441 L2.30492197,0.0256102441 C1.033988,0.0256102441 0,1.05959824 0,2.33053221 L0,17.6454582 C0,18.9163922 1.033988,19.9503802 2.30492197,19.9503802 L23.817527,19.9503802 C25.088461,19.9503802 26.122449,18.9163922 26.122449,17.6454582 L26.122449,2.33053221 C26.122449,1.05959824 25.088461,0.0256102441 23.817527,0.0256102441 Z M2.30492197,1.56222489 L23.817527,1.56222489 C24.2411717,1.56222489 24.5858343,1.90688756 24.5858343,2.33053221 L24.5858343,6.17206883 C23.6186379,6.17206883 2.14465306,6.17206883 1.53661465,6.17206883 L1.53661465,2.33053221 C1.53661465,1.90688756 1.88127731,1.56222489 2.30492197,1.56222489 Z M4.60984394,7.70868347 L10.7563025,7.70868347 L10.7563025,13.8578055 C10.4443185,13.4424074 10.0497159,13.0928788 9.59779752,12.8318591 C10.6150876,11.3170132 9.53187675,9.24529812 7.68307323,9.24529812 C6.41213926,9.24529812 5.37815126,10.2792861 5.37815126,11.5502201 C5.37815126,12.0242145 5.52208083,12.4651204 5.76834894,12.8318591 C5.31643057,13.0928788 4.92182793,13.4424074 4.60984394,13.8578055 L4.60984394,7.70868347 Z M6.91476591,11.5502201 C6.91476591,11.1265754 7.25942857,10.7819128 7.68307323,10.7819128 C8.10671789,10.7819128 8.45138055,11.1265754 8.45138055,11.5502201 C8.45138055,11.9738647 8.10671789,12.3185274 7.68307323,12.3185274 C7.25942857,12.3185274 6.91476591,11.9738647 6.91476591,11.5502201 Z M9.85635854,15.3917567 L5.50978792,15.3917567 C6.23409684,13.3488275 9.13143497,13.3470348 9.85635854,15.3917567 Z M23.817527,18.4137655 L2.30492197,18.4137655 C1.88127731,18.4137655 1.53661465,18.0691028 1.53661465,17.6454582 L1.53661465,7.70868347 L3.07322929,7.70868347 L3.07322929,16.160064 C3.07322929,16.5843745 3.41722609,16.9283713 3.84153661,16.9283713 L11.5246098,16.9283713 C11.9489204,16.9283713 12.2929172,16.5843745 12.2929172,16.160064 L12.2929172,7.70868347 L24.5858343,7.70868347 L24.5858343,17.6454582 C24.5858343,18.0691028 24.2411717,18.4137655 23.817527,18.4137655 Z" id="Shape"></path>
                    <path d="M14.5978391,10.7819128 L22.2809124,10.7819128 C22.7052229,10.7819128 23.0492197,10.437916 23.0492197,10.0136054 C23.0492197,9.58929492 22.7052229,9.24529812 22.2809124,9.24529812 L14.5978391,9.24529812 C14.1735286,9.24529812 13.8295318,9.58929492 13.8295318,10.0136054 C13.8295318,10.437916 14.1735286,10.7819128 14.5978391,10.7819128 Z" id="Path"></path>
                    <path d="M22.2809124,15.3661465 L14.5978391,15.3661465 C14.1735286,15.3661465 13.8295318,15.7101433 13.8295318,16.1344538 C13.8295318,16.5587643 14.1735286,16.9027611 14.5978391,16.9027611 L22.2809124,16.9027611 C22.7052229,16.9027611 23.0492197,16.5587643 23.0492197,16.1344538 C23.0492197,15.7101433 22.7052229,15.3661465 22.2809124,15.3661465 Z" id="Path"></path>
                    <path d="M22.2834734,12.3185274 L14.5978391,12.3185274 C14.1735286,12.3185274 13.8295318,12.6625242 13.8295318,13.0868347 C13.8295318,13.5111453 14.1735286,13.8551421 14.5978391,13.8551421 L22.2834734,13.8551421 C22.7077839,13.8551421 23.0517807,13.5111453 23.0517807,13.0868347 C23.0517807,12.6625242 22.7077839,12.3185274 22.2834734,12.3185274 Z" id="Path"></path>
                    <path d="M6.91476591,4.63545418 L19.2076831,4.63545418 C19.6319936,4.63545418 19.9759904,4.29145738 19.9759904,3.86714686 C19.9759904,3.44283633 19.6319936,3.09883954 19.2076831,3.09883954 L6.91476591,3.09883954 C6.49045538,3.09883954 6.14645858,3.44283633 6.14645858,3.86714686 C6.14645858,4.29145738 6.49045538,4.63545418 6.91476591,4.63545418 Z" id="Path"></path>
                </g>
            </g>
        </g>
    </g>
</svg>