<svg xmlns="http://www.w3.org/2000/svg" width="25" height="20" viewBox="0 0 25 20">
  <g fill="#6D7278">
    <path d="M5.41930391,0 L5.41930391,9.16374162 L2.03339019,9.16374162 C0.912192165,9.16369463 0,10.0758868 0,11.1970848 L0,20 L18.3086408,20 L18.3086408,17.1499457 L21.5660403,17.1499457 C22.9402726,17.1499457 24.0582754,16.0319429 24.0582754,14.6577106 L24.0582754,0 L5.41930391,0 Z M5.41563879,15.0658547 C5.41563879,15.4377705 5.11307837,15.7403309 4.7411626,15.7403309 C4.36929381,15.7403309 4.06673339,15.4377705 4.06673339,15.0658547 C4.06673339,15.0658547 4.03990283,10.7700513 3.97632708,10.5734034 L5.4155918,10.5734034 L5.4155918,15.0658547 L5.41563879,15.0658547 Z M16.8989789,18.5903382 L1.40966182,18.5903382 L1.40966182,11.1970848 C1.40966182,10.8531743 1.68947969,10.5733565 2.03339019,10.5733565 C2.37730069,10.5733565 2.65711856,10.8531743 2.65711856,11.1970848 L2.65711856,15.0658077 C2.65711856,16.215011 3.59200628,17.1499457 4.74120958,17.1499457 L16.8989789,17.1499457 L16.8989789,18.5903382 Z M22.6485666,14.6577576 C22.6485666,15.2547024 22.1629381,15.7403309 21.5659933,15.7403309 L6.71266863,15.7403309 C6.7853132,15.5286467 6.82530061,15.3018791 6.82530061,15.0658547 L6.82891874,1.40966182 L22.6485666,1.40966182 L22.6485666,14.6577576 Z"/>
    <path d="M20.7380989,3.33619965 L8.81405151,3.33619965 L8.81405151,8.33002063 L20.7380989,8.33002063 L20.7380989,3.33619965 Z M19.3284371,6.92035881 L10.2237133,6.92035881 L10.2237133,4.74586147 L19.3284371,4.74586147 L19.3284371,6.92035881 Z"/>
    <polygon points="8.769 9.912 20.783 9.912 20.783 11.322 8.769 11.322"/>
    <polygon points="15.704 12.731 20.783 12.731 20.783 14.141 15.704 14.141"/>
    <polygon points="8.769 12.731 13.693 12.731 13.693 14.141 8.769 14.141"/>
  </g>
</svg>
