<?xml version="1.0" encoding="UTF-8"?>
<svg width="20px" height="29px" viewBox="0 0 20 29" version="1.1" xmlns="http://www.w3.org/2000/svg" xmlns:xlink="http://www.w3.org/1999/xlink">
    <title>299AE8CB-6A45-4268-8A9F-F907B70F8870@0,5x</title>
    <g id="Role-Guru" stroke="none" stroke-width="1" fill="none" fill-rule="evenodd" opacity="0.5">
        <g id="Pesan" transform="translate(-20.000000, -161.000000)" fill="#FFFFFF" fill-rule="nonzero">
            <g id="notification" transform="translate(20.000000, 161.000000)">
                <path d="M17.1579454,20.7701444 L2.70914927,20.7701444 C2.2103836,20.7701444 1.80609951,20.3658039 1.80609951,19.8670946 L1.80609951,11.7396468 C1.80609951,7.25814953 5.45205002,3.61219902 9.93354732,3.61219902 C14.4150446,3.61219902 18.0609951,7.25814953 18.0609951,11.7396468 L18.0609951,19.8670946 C18.0609951,20.3658039 17.656711,20.7701444 17.1579454,20.7701444 Z M3.61219902,18.9640449 L16.2548956,18.9640449 L16.2548956,11.7396468 C16.2548956,8.25404409 13.4191501,5.41829854 9.93354732,5.41829854 C6.44794458,5.41829854 3.61219902,8.25404409 3.61219902,11.7396468 L3.61219902,18.9640449 Z" id="Shape"></path>
                <path d="M17.1579454,24.3823434 L2.70914927,24.3823434 C1.21533565,24.3823434 0,23.1670078 0,21.6731941 C0,20.1793805 1.21533565,18.9640449 2.70914927,18.9640449 L17.1579454,18.9640449 C18.651759,18.9640449 19.8670946,20.1793805 19.8670946,21.6731941 C19.8670946,23.1670078 18.651759,24.3823434 17.1579454,24.3823434 Z M2.70914927,20.7701444 C2.21123021,20.7701444 1.80609951,21.1752751 1.80609951,21.6731941 C1.80609951,22.1711132 2.21123021,22.5762439 2.70914927,22.5762439 L17.1579454,22.5762439 C17.6558644,22.5762439 18.0609951,22.1711132 18.0609951,21.6731941 C18.0609951,21.1752751 17.6558644,20.7701444 17.1579454,20.7701444 L2.70914927,20.7701444 Z" id="Shape"></path>
                <path d="M9.93354732,5.41829854 C9.43478165,5.41829854 9.03049756,5.01395801 9.03049756,4.51524878 L9.03049756,2.25762439 C9.03049756,1.0127703 10.0432679,0 11.288122,0 C12.532976,0 13.5457463,1.0127703 13.5457463,2.25762439 C13.5457463,2.75633362 13.1414623,3.16067415 12.6426966,3.16067415 C12.1439309,3.16067415 11.7396468,2.75633362 11.7396468,2.25762439 C11.7396468,2.00866486 11.5370815,1.80609951 11.288122,1.80609951 C11.0391624,1.80609951 10.8365971,2.00866486 10.8365971,2.25762439 L10.8365971,4.51524878 C10.8365971,5.01395801 10.432313,5.41829854 9.93354732,5.41829854 Z" id="Path"></path>
                <path d="M9.93354732,28.8975922 C7.9417582,28.8975922 6.32134829,27.2771823 6.32134829,25.2853932 C6.32134829,24.3945346 6.64842163,23.5390643 7.24223328,22.8765079 C7.41353053,22.6854 7.65803125,22.5762439 7.91466671,22.5762439 L11.9523715,22.5762439 C12.2090069,22.5762439 12.4535077,22.6854565 12.6248049,22.8765079 C13.218673,23.5390643 13.5457463,24.3945346 13.5457463,25.2853932 C13.5457463,27.2771823 11.9253364,28.8975922 9.93354732,28.8975922 Z M8.36923938,24.3823434 C8.21177008,24.6546129 8.1274478,24.9653749 8.1274478,25.2853932 C8.1274478,26.2812877 8.93765276,27.0914927 9.93354732,27.0914927 C10.9294419,27.0914927 11.7396468,26.2812877 11.7396468,25.2853932 C11.7396468,24.9653749 11.6553246,24.6546129 11.4978553,24.3823434 L8.36923938,24.3823434 Z" id="Shape"></path>
            </g>
        </g>
    </g>
</svg>