<?xml version="1.0" encoding="UTF-8"?>
<svg width="20px" height="23px" viewBox="0 0 20 23" version="1.1" xmlns="http://www.w3.org/2000/svg" xmlns:xlink="http://www.w3.org/1999/xlink">
    <title>CF1F1279-A683-45CF-9185-911E8F2ECF89@0,5x</title>
    <g id="Learning-Role-Admin" stroke="none" stroke-width="1" fill="none" fill-rule="evenodd">
        <g id="Dashboard-Admin-_PTC-1" transform="translate(-19.000000, -826.000000)" fill-rule="nonzero">
            <g id="clipboard-2" transform="translate(19.000000, 826.000000)">
                <path d="M16.8421027,2.8 L15.7358024,2.8 C15.477891,1.2208 13.9557845,-2.89901436e-12 12.1052567,-2.89901436e-12 L7.89474333,-2.89901436e-12 C6.0442155,-2.89901436e-12 4.52210898,1.2208 4.26419759,2.8 L3.15789733,2.8 C1.41685972,2.8 0,4.05628125 0,5.6 L0,19.6 C0,21.1437187 1.41685972,22.4 3.15789733,22.4 L16.8421027,22.4 C18.5831403,22.4 20,21.1437187 20,19.6 L20,5.6 C20,4.05628125 18.5831403,2.8 16.8421027,2.8 Z M7.89469399,1.86668125 L12.1052073,1.86668125 C12.9757508,1.86668125 13.684156,2.4948 13.684156,3.26668125 C13.684156,4.0385625 12.9757508,4.66668125 12.1052073,4.66668125 L7.89469399,4.66668125 C7.02415051,4.66668125 6.31574533,4.0385625 6.31574533,3.26668125 C6.31574533,2.4948 7.02419986,1.86668125 7.89469399,1.86668125 Z" id="Combined-Shape" fill="#FFFFFF"></path>
                <path d="M14.9818312,14.4 C15.5438692,14.4 16,14.7576056 16,15.2 C16,15.6423944 15.5438692,16 14.9818312,16 L14.9818312,16 L5.8181688,16 C5.25613084,16 4.8,15.6423944 4.8,15.2 C4.8,14.7576056 5.25613084,14.4 5.8181688,14.4 L5.8181688,14.4 Z M14.9818312,9.6 C15.5438692,9.6 16,9.95760559 16,10.4 C16,10.8423944 15.5438692,11.2 14.9818312,11.2 L14.9818312,11.2 L5.8181688,11.2 C5.25613084,11.2 4.8,10.8423944 4.8,10.4 C4.8,9.95760559 5.25613084,9.6 5.8181688,9.6 L5.8181688,9.6 Z" id="Path-5" fill="#005ECC"></path>
            </g>
        </g>
    </g>
</svg>