<?xml version="1.0" encoding="UTF-8"?>
<svg width="22px" height="22px" viewBox="0 0 22 22" version="1.1" xmlns="http://www.w3.org/2000/svg" xmlns:xlink="http://www.w3.org/1999/xlink">
    <title>3CC465DA-1EF8-48F9-A53A-8C917B12D5F0@0,5x</title>
    <g id="Web-Superadmin" stroke="none" stroke-width="1" fill="none" fill-rule="evenodd">
        <g id="Icon2" transform="translate(-1175.000000, -60.000000)" fill="#0091FF" fill-rule="nonzero" stroke="#0091FF" stroke-width="0.3">
            <g id="Questions-on" transform="translate(1176.000000, 61.000000)">
                <path d="M18.8019531,16.1032031 C19.5873828,15.0338281 20.0000651,13.7911719 20.0000651,12.4814453 C20.0000651,10.3848828 18.9127344,8.43839844 17.0784375,7.22371094 C16.9092578,5.35578125 16.0370703,3.62347656 14.5787891,2.28875 C12.96625,0.812851562 10.8268359,0 8.5546875,0 C6.28253906,0 4.14316406,0.812851562 2.53058594,2.28878906 C0.898710938,3.78234375 -2.60460005e-05,5.77367187 -2.60460005e-05,7.8959375 C-2.60460005e-05,9.52828125 0.526210938,11.0758594 1.52652344,12.4 L0.056953125,16.0353125 C-0.0622265625,16.3301172 0.009140625,16.6677344 0.237460938,16.8890234 C0.386289063,17.0332812 0.582304688,17.1094141 0.781445313,17.1094141 C0.8878125,17.109375 0.995078125,17.0876562 1.09640625,17.0430078 L5.28785156,15.1953516 C5.8140625,15.3964844 6.35617188,15.5469531 6.91078125,15.6465625 C7.47886719,16.5808594 8.28917969,17.3720703 9.27425781,17.9480078 C10.3740234,18.5909375 11.6438281,18.9344922 12.9499609,18.944375 C12.9691406,18.9457812 12.9882812,18.9473047 13.0078516,18.9473047 C13.9108594,18.9473047 14.7857812,18.7913281 15.6134375,18.4832422 L18.9036328,19.9336328 C19.0049609,19.9783203 19.1122266,20.0000391 19.2185938,20.0000391 C19.4176953,20.0000391 19.6137891,19.9239453 19.7625781,19.7796484 C19.9908984,19.5583203 20.0622656,19.2207031 19.9430859,18.9259375 L18.8019531,16.1032031 Z M17.1831641,16.2678516 L17.7733594,17.7278125 L15.9437891,16.9213281 C15.7460156,16.8341406 15.5209375,16.8327734 15.3220703,16.9176172 C14.605,17.2235547 13.8371484,17.3803516 13.0394531,17.3844141 C13.0289063,17.3839844 13.0185156,17.3828125 13.0078125,17.3828125 C11.4682031,17.3828125 10.0136719,16.7811719 8.9975,15.7803516 C10.2858984,15.7186328 11.5487891,15.3896094 12.6747266,14.8178125 C13.0594531,14.6224219 13.2128906,14.1521875 13.0175,13.7674609 C12.8221484,13.3827734 12.351875,13.229375 11.9671484,13.4246875 C10.9306641,13.9511328 9.750625,14.229375 8.5546875,14.229375 C7.51546875,14.229375 6.51496094,14.0273437 5.58109375,13.6288672 C5.38230469,13.5440234 5.15714844,13.5453125 4.959375,13.6325781 L2.22664063,14.8372266 L3.14671875,12.5612109 C3.25582031,12.2913281 3.20585938,11.983125 3.01699219,11.7616016 C2.06546875,10.6452734 1.5625,9.30855469 1.5625,7.8959375 C1.5625,4.40363281 4.69917969,1.5625 8.5546875,1.5625 C12.4101953,1.5625 15.546875,4.40363281 15.546875,7.8959375 C15.546875,9.02390625 15.2152734,10.13125 14.5878125,11.0982422 C14.3529687,11.4601953 14.4560156,11.9439844 14.8180078,12.1788281 C15.1798828,12.41375 15.6637109,12.310625 15.8986328,11.9486719 C16.4554297,11.0905078 16.8274219,10.1430078 16.9994531,9.15894531 C17.9146484,10.0551953 18.4375,11.2357031 18.4375,12.4814453 C18.4375,13.5723047 18.0486328,14.6051172 17.3128906,15.4682031 C17.1240234,15.6897656 17.0740625,15.9979688 17.1831641,16.2678516 Z M9.296875,11.9140625 C9.296875,12.3455469 8.94710938,12.6953125 8.515625,12.6953125 L8.515625,12.6953125 C8.08414062,12.6953125 7.734375,12.3455469 7.734375,11.9140625 C7.734375,11.4825781 8.08414062,11.1328125 8.515625,11.1328125 L8.515625,11.1328125 C8.94710938,11.1328125 9.296875,11.4825781 9.296875,11.9140625 Z M11.4837109,6.060625 C11.4841797,6.07148437 11.4844141,6.08234375 11.4844141,6.09332031 C11.4846875,7.269375 10.7858984,8.32773438 9.70421875,8.78949219 C9.48039063,8.88507812 9.33570312,9.11050781 9.33570312,9.36375 L9.33570312,9.4140625 C9.33570312,9.84554688 8.9859375,10.1953125 8.55445312,10.1953125 C8.12296875,10.1953125 7.77320312,9.84554688 7.77320312,9.4140625 L7.77320312,9.36378906 C7.77320312,8.48367188 8.29035156,7.69421875 9.09074219,7.35253906 C9.58890625,7.13984375 9.913125,6.65621094 9.92171875,6.11609375 C9.92152344,6.10859375 9.92140625,6.10105469 9.92140625,6.09351563 C9.92140625,5.33980469 9.30820312,4.72660156 8.55445312,4.72660156 C7.80074219,4.7265625 7.1875,5.33976563 7.1875,6.09347656 C7.1875,6.52496094 6.83773438,6.87472656 6.40625,6.87472656 C5.97476563,6.87472656 5.625,6.52496094 5.625,6.09347656 C5.625,4.47820313 6.93914063,3.1640625 8.55445313,3.1640625 C10.1587891,3.1640625 11.4660937,4.46042969 11.4837109,6.060625 Z" id="Shape"></path>
            </g>
        </g>
    </g>
</svg>