<?xml version="1.0" encoding="UTF-8"?>
<svg width="15px" height="15px" viewBox="0 0 15 15" version="1.1" xmlns="http://www.w3.org/2000/svg" xmlns:xlink="http://www.w3.org/1999/xlink">
    <title>497EAA40-EFE9-4795-B1B8-EF641F18FAE8@0,5x</title>
    <g id="Role-Guru" stroke="none" stroke-width="1" fill="none" fill-rule="evenodd" opacity="0.5">
        <g id="Side-Bar" transform="translate(-88.000000, -483.000000)" fill="#000000" fill-rule="nonzero">
            <g id="report-3" transform="translate(88.000000, 483.000000)">
                <path d="M14.517286,0 L0.466371595,0 C0.224620623,0 0.0286284047,0.195992218 0.0286284047,0.437743191 L0.0286284047,14.5459144 C0.0286284047,14.7876654 0.224620623,14.9836576 0.466371595,14.9836576 L14.5173152,14.9836576 C14.7590661,14.9836576 14.9550584,14.7876654 14.9550584,14.5459144 L14.9550584,0.437743191 C14.9550584,0.195992218 14.7590661,0 14.517286,0 Z M11.3596401,0.875486381 L12.2716342,0.875486381 L12.2716342,14.1081712 L11.3596401,14.1081712 L11.3596401,0.875486381 Z M0.904114786,0.875486381 L10.4841537,0.875486381 L10.4841537,14.1081712 L0.904114786,14.1081712 L0.904114786,0.875486381 Z M14.0795428,14.1081712 L13.1471206,14.1081712 L13.1471206,0.875486381 L14.0795428,0.875486381 L14.0795428,14.1081712 Z" id="Shape"></path>
                <path d="M2.49070039,5.35631323 L4.63202335,5.35631323 C4.87377432,5.35631323 5.06976654,5.16032101 5.06976654,4.91857004 L5.06976654,2.77724708 C5.06976654,2.53549611 4.87377432,2.33950389 4.63202335,2.33950389 L2.49070039,2.33950389 C2.24894942,2.33950389 2.0529572,2.53549611 2.0529572,2.77724708 L2.0529572,4.91857004 C2.0529572,5.16032101 2.24894942,5.35631323 2.49070039,5.35631323 Z M2.92844358,3.21499027 L4.19428016,3.21499027 L4.19428016,4.48082685 L2.92844358,4.48082685 L2.92844358,3.21499027 Z" id="Shape"></path>
                <path d="M2.45746109,9.43359922 L4.59878405,9.43359922 C4.84053502,9.43359922 5.03652724,9.237607 5.03652724,8.99585603 L5.03652724,6.85456226 C5.03652724,6.61281128 4.84053502,6.41681907 4.59878405,6.41681907 L2.45746109,6.41681907 C2.21571012,6.41681907 2.0197179,6.61281128 2.0197179,6.85456226 L2.0197179,8.99585603 C2.0197179,9.237607 2.21571012,9.43359922 2.45746109,9.43359922 Z M2.89520428,7.29230545 L4.16104086,7.29230545 L4.16104086,8.55811284 L2.89520428,8.55811284 L2.89520428,7.29230545 Z" id="Shape"></path>
                <path d="M6.28173152,3.21499027 L9.10575875,3.21499027 C9.34750973,3.21499027 9.54350195,3.01899805 9.54350195,2.77724708 C9.54350195,2.53549611 9.34750973,2.33950389 9.10575875,2.33950389 L6.28173152,2.33950389 C6.03998054,2.33950389 5.84398833,2.53549611 5.84398833,2.77724708 C5.84398833,3.01899805 6.03998054,3.21499027 6.28173152,3.21499027 L6.28173152,3.21499027 Z" id="Path"></path>
                <path d="M9.10575875,4.42660506 L6.28173152,4.42660506 C6.03998054,4.42660506 5.84398833,4.62259728 5.84398833,4.86434825 C5.84398833,5.10609922 6.03998054,5.30209144 6.28173152,5.30209144 L9.10575875,5.30209144 C9.34750973,5.30209144 9.54350195,5.10609922 9.54350195,4.86434825 C9.54350195,4.62259728 9.34750973,4.42660506 9.10575875,4.42660506 Z" id="Path"></path>
                <path d="M9.10575875,6.51367704 L6.28173152,6.51367704 C6.03998054,6.51367704 5.84398833,6.70966926 5.84398833,6.95142023 C5.84398833,7.19317121 6.03998054,7.38916342 6.28173152,7.38916342 L9.10575875,7.38916342 C9.34750973,7.38916342 9.54350195,7.19317121 9.54350195,6.95142023 C9.54350195,6.70966926 9.34750973,6.51367704 9.10575875,6.51367704 Z" id="Path"></path>
                <path d="M9.10575875,8.55811284 L6.28173152,8.55811284 C6.03998054,8.55811284 5.84398833,8.75410506 5.84398833,8.99585603 C5.84398833,9.237607 6.03998054,9.43359922 6.28173152,9.43359922 L9.10575875,9.43359922 C9.34750973,9.43359922 9.54350195,9.237607 9.54350195,8.99585603 C9.54350195,8.75410506 9.34750973,8.55811284 9.10575875,8.55811284 Z" id="Path"></path>
                <path d="M4.73988327,10.680963 L3.19832685,11.9547957 L2.76700389,11.5235019 C2.59607977,11.3525778 2.31890078,11.3525778 2.14794747,11.5235019 C1.97699416,11.6944261 1.97699416,11.9716051 2.14794747,12.1425584 L2.86076848,12.8553794 C2.94583658,12.9404475 3.05789883,12.9836089 3.17039883,12.9836089 C3.2689786,12.9836089 3.36787938,12.9504572 3.44912451,12.8833074 L5.29756809,11.3558755 C5.48395914,11.2018774 5.51016537,10.9259533 5.3561965,10.7395914 C5.20216926,10.5532296 4.92621595,10.5269358 4.73988327,10.680963 L4.73988327,10.680963 Z" id="Path"></path>
            </g>
        </g>
    </g>
</svg>