<?xml version="1.0" encoding="UTF-8"?>
<svg width="17px" height="15px" viewBox="0 0 17 15" version="1.1" xmlns="http://www.w3.org/2000/svg" xmlns:xlink="http://www.w3.org/1999/xlink">
    <title>ED9EBC4A-AD9F-4705-AA0A-15B700301230@0,5x</title>
    <g id="Role-Guru" stroke="none" stroke-width="1" fill="none" fill-rule="evenodd" opacity="0.5">
        <g id="Side-Bar" transform="translate(-87.000000, -427.000000)" fill="#000000" fill-rule="nonzero">
            <g id="certification" transform="translate(87.000000, 427.000000)">
                <path d="M12.7601832,11.1083728 C13.563653,11.1083728 14.2173168,10.4547091 14.2173168,9.65127155 C14.2173168,8.84780172 13.563653,8.19413793 12.7601832,8.19413793 C11.9567134,8.19413793 11.3030819,8.84780172 11.3030819,9.65127155 C11.3030819,10.4547091 11.9567134,11.1083728 12.7601832,11.1083728 Z M12.7601832,8.6790194 C13.2962716,8.6790194 13.732403,9.11515086 13.732403,9.65123922 C13.732403,10.1872953 13.2962716,10.6234267 12.7601832,10.6234267 C12.2241272,10.6234267 11.7879957,10.1872953 11.7879957,9.65123922 C11.7879957,9.11515086 12.2241272,8.6790194 12.7601832,8.6790194 Z" id="Shape"></path>
                <path d="M10.3490625,3.72219828 C10.4829957,3.72219828 10.5915194,3.61364224 10.5915194,3.47974138 C10.5915194,3.34584052 10.4829957,3.23728448 10.3490625,3.23728448 L6.20272629,3.23728448 C6.0687931,3.23728448 5.9602694,3.34584052 5.9602694,3.47974138 C5.9602694,3.61364224 6.0687931,3.72219828 6.20272629,3.72219828 L10.3490625,3.72219828 Z" id="Path"></path>
                <path d="M9.55490302,8.50887931 C9.55490302,8.37494612 9.44637931,8.26642241 9.31244612,8.26642241 L7.23927802,8.26642241 C7.10534483,8.26642241 6.99682112,8.37494612 6.99682112,8.50887931 C6.99682112,8.6428125 7.10534483,8.75133621 7.23927802,8.75133621 L9.31244612,8.75133621 C9.44637931,8.75133621 9.55490302,8.6428125 9.55490302,8.50887931 Z" id="Path"></path>
                <path d="M3.88710129,4.48364224 C3.88710129,4.6175431 3.995625,4.72609914 4.12955819,4.72609914 L12.4222306,4.72609914 C12.5561638,4.72609914 12.6646875,4.6175431 12.6646875,4.48364224 C12.6646875,4.34974138 12.5561638,4.24118534 12.4222306,4.24118534 L4.12955819,4.24118534 C3.99565733,4.24118534 3.88710129,4.34974138 3.88710129,4.48364224 Z" id="Path"></path>
                <path d="M4.12955819,5.72996767 L12.4222306,5.72996767 C12.5561638,5.72996767 12.6646875,5.62144397 12.6646875,5.48751078 C12.6646875,5.35360991 12.5561638,5.24505388 12.4222306,5.24505388 L4.12955819,5.24505388 C3.995625,5.24505388 3.88710129,5.35360991 3.88710129,5.48751078 C3.88710129,5.62141164 3.99565733,5.72996767 4.12955819,5.72996767 Z" id="Path"></path>
                <path d="M4.12955819,6.73383621 L12.4222306,6.73383621 C12.5561638,6.73383621 12.6646875,6.6253125 12.6646875,6.49137931 C12.6646875,6.35744612 12.5561638,6.24892241 12.4222306,6.24892241 L4.12955819,6.24892241 C3.995625,6.24892241 3.88710129,6.35744612 3.88710129,6.49137931 C3.88710129,6.6253125 3.99565733,6.73383621 4.12955819,6.73383621 Z" id="Path"></path>
                <path d="M0,1.26850216 L0,10.0590194 C0,10.754903 0.566185345,11.3210884 1.26206897,11.3210884 L11.006347,11.3210884 C11.0229634,11.3283297 11.0396767,11.3350216 11.0563901,11.3413578 L11.0563901,14.5328987 C11.0563901,14.7058836 11.1518534,14.8626401 11.3055711,14.9420366 C11.3724569,14.9765948 11.4449677,14.9936638 11.5171228,14.9936638 C11.6107435,14.9936638 11.70375,14.9649569 11.7834052,14.9084159 L12.2903017,14.5486746 L12.2903341,14.5486746 L12.7601832,14.2152478 L13.7369612,14.9084159 C13.8780388,15.0085991 14.0612069,15.0213362 14.2148276,14.9420366 C14.3685129,14.8626401 14.4639763,14.7058513 14.4639763,14.5328987 L14.4639763,11.3413901 C14.480722,11.3350539 14.4974353,11.3283297 14.5140841,11.3210884 L15.2897198,11.3210884 C15.9856034,11.3210884 16.5517888,10.754903 16.5517888,10.0590194 L16.5517888,6.22949353 C16.5517888,6.09556034 16.4432651,5.98703664 16.3093319,5.98703664 C16.1753987,5.98703664 16.066875,6.09556034 16.066875,6.22949353 L16.066875,10.0590194 C16.066875,10.4875539 15.7182543,10.8361746 15.2897198,10.8361746 L14.8862716,10.8361746 C14.9105819,10.6512931 14.8737931,10.4472737 14.9058944,10.3484159 C14.9527047,10.2041056 15.2572306,9.98110991 15.2572306,9.65127155 C15.2572306,9.43480603 15.1283728,9.26851293 15.0248599,9.13493534 C14.9206034,9.00038793 14.9067996,8.97174569 14.8985884,8.92154095 C14.9641487,8.90764009 15.0310991,8.90039871 15.0990194,8.90039871 C15.3824677,8.90243534 15.5819612,8.68137931 15.5819612,8.42899784 L15.5819612,2.89852371 C15.5819612,2.63398707 15.3661422,2.42424569 15.1078448,2.42709052 C14.5545259,2.4290625 14.1273491,1.98559267 14.1311638,1.45044181 C14.1334591,1.18858836 13.9213901,0.976293103 13.6596983,0.976293103 L2.89209052,0.976293103 C2.64536638,0.976293103 2.41962284,1.16864224 2.42065733,1.45920259 C2.42072198,1.98759698 1.99603448,2.4290625 1.44397629,2.42709052 C1.18419181,2.42431034 0.969827586,2.63521552 0.969827586,2.89852371 L0.969827586,8.42899784 C0.969827586,8.67837284 1.16615302,8.90237069 1.45293103,8.90039871 C1.97864224,8.90046336 2.42262931,9.32544181 2.420625,9.87704741 C2.41832974,10.1389655 2.63039871,10.3512284 2.89209052,10.3512284 L7.71016164,10.3512284 C7.84409483,10.3512284 7.95261853,10.2427047 7.95261853,10.1087716 C7.95261853,9.97483836 7.84409483,9.86631466 7.71016164,9.86631466 L2.90557112,9.86631466 C2.90453664,9.06678879 2.25429957,8.41655172 1.45474138,8.41548491 L1.45474138,2.91200431 C2.2562069,2.91096983 2.90453664,2.26289871 2.90557112,1.46117457 L13.6461853,1.46117457 C13.6467026,1.84858836 13.7977694,2.21269397 14.071681,2.4866056 C14.345625,2.76048491 14.7096659,2.9115194 15.0970474,2.91200431 L15.0970474,8.41548491 C15.024278,8.4155819 14.9521552,8.42104526 14.8810022,8.43181034 C14.8197091,8.08128233 14.557694,7.98375 14.296778,7.90706897 C14.0750431,7.84196121 14.0734267,7.83885776 13.9471875,7.65345905 C13.8526293,7.51457974 13.7349569,7.34175647 13.5319397,7.27584052 C13.3356142,7.21221983 13.1424246,7.280625 12.9871552,7.33574353 C12.7643211,7.4146875 12.7560129,7.4146875 12.5332112,7.33574353 C12.4076832,7.29119612 12.2573276,7.23792026 12.1005711,7.2528556 L4.12955819,7.2528556 C3.995625,7.2528556 3.88710129,7.36137931 3.88710129,7.4953125 C3.88710129,7.62924569 3.995625,7.7377694 4.12955819,7.7377694 L11.5142134,7.7377694 C11.4862177,7.77578664 11.4589332,7.80846983 11.4342996,7.82641164 C11.2871121,7.93354526 10.8143211,7.92045259 10.6698168,8.31594828 C10.5839224,8.55096983 10.6560776,8.82610991 10.6145043,8.95412716 C10.5585453,9.12669181 10.1271336,9.41838362 10.3060345,9.86634698 L8.84162716,9.86634698 C8.70769397,9.86634698 8.59917026,9.97487069 8.59917026,10.1088039 C8.59917026,10.2427371 8.70769397,10.3512608 8.84162716,10.3512608 L10.6152155,10.3512608 C10.6459914,10.4519289 10.6098491,10.6519397 10.6341272,10.8362069 L1.26206897,10.8362069 C0.833534483,10.8362069 0.484913793,10.4875862 0.484913793,10.0590517 L0.484913793,1.26850216 C0.484913793,0.839967672 0.833534483,0.491346983 1.26206897,0.491346983 L15.2897198,0.491346983 C15.7182543,0.491346983 16.066875,0.839967672 16.066875,1.26850216 L16.066875,5.09802802 C16.066875,5.23192888 16.1753987,5.34048491 16.3093319,5.34048491 C16.4432651,5.34048491 16.5517888,5.23192888 16.5517888,5.09802802 L16.5517888,1.26850216 C16.5517888,0.572586207 15.9856034,0.00643318966 15.2897198,0.00643318966 L1.26206897,0.00643318966 C0.566185345,0.00643318966 0,0.572586207 0,1.26850216 Z M11.9075431,14.2256897 L11.5413039,14.4856034 L11.5413039,11.6026293 C11.6298168,11.7297737 11.7325216,11.9018858 11.9075431,11.9925 L11.9075431,14.2256897 Z M13.1279741,13.8815625 L13.0267888,13.8097629 C13.0168319,13.8026832 13.0066487,13.796056 12.9962716,13.7898491 C12.9236961,13.7464978 12.8419073,13.7248384 12.7601832,13.7248384 C12.6667565,13.7248384 12.5733621,13.753125 12.4936746,13.8097306 L12.3924569,13.8815625 L12.3924569,12.0135453 C12.8789224,11.8716595 12.622403,11.8667134 13.1279741,12.0135453 L13.1279741,13.8815625 Z M13.9790625,14.4856034 L13.6128879,14.225722 L13.6128879,11.9925 C13.7877155,11.9019181 13.8902909,11.7301293 13.9790625,11.6026293 L13.9790625,14.4856034 Z M10.878847,9.43196121 C11.0838685,9.16735991 11.1209806,9.06371767 11.1116056,8.71231681 C11.1049138,8.46103448 11.1099569,8.45673491 11.2397522,8.41024784 C11.6000754,8.28122845 11.7031358,8.32412716 11.9739763,7.92633621 C12.0263793,7.84942888 12.0913901,7.75403017 12.1366164,7.73770474 C12.1896659,7.73770474 12.1886315,7.72794181 12.3711207,7.79269397 C12.7024461,7.9102694 12.8196013,7.90965517 13.1492134,7.79269397 C13.2307435,7.76376078 13.3425,7.7240625 13.3821336,7.73702586 C13.4274246,7.75170259 13.4933405,7.84852371 13.5463578,7.92633621 C13.7402263,8.21094828 13.8291595,8.27502155 14.1600323,8.37226293 C14.4213685,8.44904095 14.4159375,8.44212284 14.4087284,8.71231681 C14.3995797,9.06368534 14.4359806,9.16677802 14.6414871,9.43192888 C14.8119828,9.65198276 14.8121444,9.65036638 14.6414871,9.87048491 C14.4073384,10.1725539 14.403556,10.2631681 14.4098922,10.6421121 C14.4142888,10.9074569 14.396347,10.8415409 14.0220259,10.9734052 C13.7802155,11.0582651 13.6916056,11.1627155 13.5463254,11.3760129 C13.3879203,11.6087069 13.396778,11.5972306 13.1489547,11.5094935 C12.6883513,11.3464978 12.6234375,11.4399246 12.2525108,11.5491595 C12.104903,11.5921875 12.1213578,11.5800323 11.9210237,11.2996875 C11.6073491,10.8607759 11.2767026,10.9794504 11.1365302,10.8389224 C11.1026185,10.8030711 11.1097629,10.6557543 11.1115409,10.5900647 C11.118944,10.3102694 11.103653,10.1822198 10.9511961,9.96672414 C10.7231573,9.64826509 10.676444,9.69300647 10.878847,9.43196121 Z" id="Shape"></path>
            </g>
        </g>
    </g>
</svg>