<?xml version="1.0" encoding="UTF-8"?>
<svg width="14px" height="18px" viewBox="0 0 14 18" version="1.1" xmlns="http://www.w3.org/2000/svg" xmlns:xlink="http://www.w3.org/1999/xlink">
    <title>9287EE1D-A845-421C-8836-6A47670D3517@0,5x</title>
    <g id="Learning-Role-Murid" stroke="none" stroke-width="1" fill="none" fill-rule="evenodd" opacity="0.7">
        <g id="Desktop-HD" transform="translate(-86.000000, -253.000000)" fill="#424242" fill-rule="nonzero">
            <g id="exam" transform="translate(86.000000, 253.000000)">
                <path d="M8.80728022,4.98176511 L5.87688874,4.98176511 C5.71514423,4.98176511 5.58385989,5.11304945 5.58385989,5.27479396 C5.58385989,5.43653846 5.71514423,5.5678228 5.87688874,5.5678228 L8.80728022,5.5678228 C8.96902473,5.5678228 9.10030907,5.43653846 9.10030907,5.27479396 C9.10030907,5.11304945 8.96902473,4.98176511 8.80728022,4.98176511 Z" id="Path"></path>
                <path d="M10.565522,4.98176511 L9.97942995,4.98176511 C9.81768544,4.98176511 9.6864011,5.11304945 9.6864011,5.27479396 C9.6864011,5.43653846 9.81768544,5.5678228 9.97942995,5.5678228 L10.565522,5.5678228 C10.7272665,5.5678228 10.8585508,5.43653846 10.8585508,5.27479396 C10.8585508,5.11304945 10.7272665,4.98176511 10.565522,4.98176511 Z" id="Path"></path>
                <path d="M6.75597527,6.15391484 L5.8768544,6.15391484 C5.71510989,6.15391484 5.58382555,6.28519918 5.58382555,6.44694368 C5.58382555,6.60868819 5.71510989,6.73997253 5.8768544,6.73997253 L6.75597527,6.73997253 C6.91771978,6.73997253 7.04900412,6.60868819 7.04900412,6.44694368 C7.04900412,6.28519918 6.91775412,6.15391484 6.75597527,6.15391484 Z" id="Path"></path>
                <path d="M10.565522,6.15391484 L7.92815934,6.15391484 C7.76641484,6.15391484 7.63513049,6.28519918 7.63513049,6.44694368 C7.63513049,6.60868819 7.76641484,6.73997253 7.92815934,6.73997253 L10.565522,6.73997253 C10.7272665,6.73997253 10.8585508,6.60868819 10.8585508,6.44694368 C10.8585508,6.28519918 10.7272665,6.15391484 10.565522,6.15391484 Z" id="Path"></path>
                <path d="M8.80728022,9.08430632 L5.87688874,9.08430632 C5.71514423,9.08430632 5.58385989,9.21559066 5.58385989,9.37733516 C5.58385989,9.53907967 5.71514423,9.67036401 5.87688874,9.67036401 L8.80728022,9.67036401 C8.96902473,9.67036401 9.10030907,9.53907967 9.10030907,9.37733516 C9.10030907,9.21559066 8.96902473,9.08430632 8.80728022,9.08430632 Z" id="Path"></path>
                <path d="M10.565522,9.08430632 L9.97942995,9.08430632 C9.81768544,9.08430632 9.6864011,9.21559066 9.6864011,9.37733516 C9.6864011,9.53907967 9.81768544,9.67036401 9.97942995,9.67036401 L10.565522,9.67036401 C10.7272665,9.67036401 10.8585508,9.53907967 10.8585508,9.37733516 C10.8585508,9.21559066 10.7272665,9.08430632 10.565522,9.08430632 Z" id="Path"></path>
                <path d="M6.75597527,10.2564904 L5.8768544,10.2564904 C5.71510989,10.2564904 5.58382555,10.3877747 5.58382555,10.5495192 C5.58382555,10.7112637 5.71510989,10.8425481 5.8768544,10.8425481 L6.75597527,10.8425481 C6.91771978,10.8425481 7.04900412,10.7112637 7.04900412,10.5495192 C7.04900412,10.3877747 6.91775412,10.2564904 6.75597527,10.2564904 Z" id="Path"></path>
                <path d="M10.565522,10.2564904 L7.92815934,10.2564904 C7.76641484,10.2564904 7.63513049,10.3877747 7.63513049,10.5495192 C7.63513049,10.7112637 7.76641484,10.8425481 7.92815934,10.8425481 L10.565522,10.8425481 C10.7272665,10.8425481 10.8585508,10.7112637 10.8585508,10.5495192 C10.8585508,10.3877747 10.7272665,10.2564904 10.565522,10.2564904 Z" id="Path"></path>
                <path d="M3.44666896,6.23976648 L2.56754808,5.3606456 C2.45326236,5.24605082 2.2674794,5.24605082 2.15319368,5.3606456 C2.0385989,5.47524038 2.0385989,5.66043956 2.15319368,5.775 L3.03231456,6.65412088 C3.08945742,6.71126374 3.16449176,6.73997253 3.23949176,6.73997253 C3.3145261,6.73997253 3.3895261,6.71126374 3.44666896,6.65412088 C3.56126374,6.53956044 3.56126374,6.35436126 3.44666896,6.23976648 Z" id="Path"></path>
                <path d="M4.87496566,4.15714286 C4.74309753,4.06335852 4.56023352,4.09354396 4.46617445,4.22541209 L3.00096154,6.27668269 C2.90690247,6.40824176 2.93736264,6.59141484 3.06895604,6.6854739 C3.12081044,6.72211538 3.1803228,6.73997253 3.23921703,6.73997253 C3.33063187,6.73997253 3.42091346,6.69718407 3.47774725,6.61720467 L4.94296016,4.56593407 C5.03701923,4.43434066 5.00652473,4.25120192 4.87496566,4.15714286 Z" id="Path"></path>
                <path d="M4.48523352,6.45631868 C4.32846841,6.41617445 4.16875,6.50995879 4.12802198,6.6667239 C4.03073489,7.04241071 3.64859203,7.32606456 3.2395261,7.32606456 C2.83046016,7.32606456 2.44831731,7.04241071 2.35103022,6.66641484 C2.3103022,6.50964973 2.15,6.41555632 1.99381868,6.45600962 C1.8373283,6.49673764 1.74326923,6.65673077 1.78372253,6.81322115 C1.94869505,7.45 2.56085165,7.91212225 3.23956044,7.91212225 C3.91823489,7.91212225 4.53039148,7.45 4.69539835,6.81353022 C4.73605769,6.65707418 4.64199863,6.49708104 4.48523352,6.45631868 Z" id="Path"></path>
                <path d="M3.60638736,4.14924451 C3.24038462,4.05401786 2.83423764,4.10879121 2.50542582,4.30103022 C2.36593407,4.38279533 2.31875,4.56212225 2.40051511,4.70192308 C2.45501374,4.79512363 2.55288462,4.84697802 2.65370879,4.84697802 C2.70381181,4.84697802 2.75480769,4.83410027 2.80140797,4.80683379 C2.99745879,4.69196429 3.24127747,4.66002747 3.45899725,4.71627747 C3.61548764,4.75700549 3.77548077,4.66325549 3.81620879,4.50645604 C3.85693681,4.34996566 3.76315247,4.18997253 3.60638736,4.14924451 Z" id="Path"></path>
                <path d="M3.23949176,8.79127747 C2.59302885,8.79127747 2.06734203,9.31699863 2.06734203,9.9634272 C2.06734203,10.6098901 2.59306319,11.1355769 3.23949176,11.1355769 C3.88595467,11.1355769 4.41164148,10.6098558 4.41164148,9.9634272 C4.41164148,9.31699863 3.88595467,8.79127747 3.23949176,8.79127747 Z M3.23949176,10.5495192 C2.91627747,10.5495192 2.65339973,10.2866758 2.65339973,9.9634272 C2.65339973,9.64021291 2.91624313,9.37733516 3.23949176,9.37733516 C3.56270604,9.37733516 3.82558379,9.64017857 3.82558379,9.9634272 C3.82558379,10.2866758 3.56274038,10.5495192 3.23949176,10.5495192 Z" id="Shape"></path>
                <path d="M8.80728022,12.6007898 L5.87688874,12.6007898 C5.71514423,12.6007898 5.58385989,12.7320742 5.58385989,12.8938187 C5.58385989,13.0555632 5.71514423,13.1868475 5.87688874,13.1868475 L8.80728022,13.1868475 C8.96902473,13.1868475 9.10030907,13.0555632 9.10030907,12.8938187 C9.10030907,12.7320742 8.96902473,12.6007898 8.80728022,12.6007898 Z" id="Path"></path>
                <path d="M10.565522,12.6007898 L9.97942995,12.6007898 C9.81768544,12.6007898 9.6864011,12.7320742 9.6864011,12.8938187 C9.6864011,13.0555632 9.81768544,13.1868475 9.97942995,13.1868475 L10.565522,13.1868475 C10.7272665,13.1868475 10.8585508,13.0555632 10.8585508,12.8938187 C10.8585508,12.7320742 10.7272665,12.6007898 10.565522,12.6007898 Z" id="Path"></path>
                <path d="M6.75597527,13.7729739 L5.8768544,13.7729739 C5.71510989,13.7729739 5.58382555,13.9042582 5.58382555,14.0660027 C5.58382555,14.2277473 5.71510989,14.3590316 5.8768544,14.3590316 L6.75597527,14.3590316 C6.91771978,14.3590316 7.04900412,14.2277473 7.04900412,14.0660027 C7.04900412,13.9042582 6.91775412,13.7729739 6.75597527,13.7729739 Z" id="Path"></path>
                <path d="M10.565522,13.7729739 L7.92815934,13.7729739 C7.76641484,13.7729739 7.63513049,13.9042582 7.63513049,14.0660027 C7.63513049,14.2277473 7.76641484,14.3590316 7.92815934,14.3590316 L10.565522,14.3590316 C10.7272665,14.3590316 10.8585508,14.2277473 10.8585508,14.0660027 C10.8585508,13.9042582 10.7272665,13.7729739 10.565522,13.7729739 Z" id="Path"></path>
                <path d="M3.23949176,12.307761 C2.59302885,12.307761 2.06734203,12.8334821 2.06734203,13.4799107 C2.06734203,14.1263736 2.59306319,14.6520604 3.23949176,14.6520604 C3.88595467,14.6520604 4.41164148,14.1263393 4.41164148,13.4799107 C4.41167582,12.8334821 3.88595467,12.307761 3.23949176,12.307761 Z M3.23949176,14.0660027 C2.91627747,14.0660027 2.65339973,13.8031593 2.65339973,13.4799107 C2.65339973,13.1566964 2.91624313,12.8938187 3.23949176,12.8938187 C3.56270604,12.8938187 3.82558379,13.1566621 3.82558379,13.4799107 C3.82558379,13.8031593 3.56274038,14.0660027 3.23949176,14.0660027 Z" id="Shape"></path>
                <path d="M12.5197802,2.71274038 L9.58938874,0.0753777473 C9.5354739,0.026717033 9.46572802,6.86813187e-05 9.39333791,6.86813187e-05 L0.309100275,6.86813187e-05 C0.147355769,6.86813187e-05 0.0160714286,0.131353022 0.0160714286,0.293097527 L0.0160714286,16.1172734 C0.0160714286,16.2790179 0.147355769,16.4103022 0.309100275,16.4103022 L12.3237637,16.4103022 C12.4855082,16.4103022 12.6167926,16.2790179 12.6167926,16.1172734 L12.6167926,2.93046016 C12.6167926,2.84752747 12.5816277,2.76840659 12.5197802,2.71274038 Z M12.0307005,15.8242445 L0.602129121,15.8242445 L0.602129121,0.586160714 L9.28080357,0.586160714 L12.0307005,3.06119505 L12.0307005,15.8242445 Z" id="Shape"></path>
                <path d="M12.5197802,2.71246566 L9.58938874,0.075103022 C9.50353709,-0.00226648352 9.37987637,-0.0216002747 9.2740728,0.0252747253 C9.16826923,0.0724587912 9.10030907,0.177369505 9.10030907,0.293097527 L9.10030907,2.93046016 C9.10030907,3.09220467 9.23159341,3.22348901 9.39333791,3.22348901 L12.3237294,3.22348901 C12.4450549,3.22348901 12.5537775,3.14876374 12.5974245,3.03537088 C12.640831,2.92197802 12.6100618,2.79361264 12.5197802,2.71246566 Z M9.6864011,2.63743132 L9.6864011,0.950995879 L11.5600962,2.63743132 L9.6864011,2.63743132 Z" id="Shape"></path>
                <path d="M13.4959135,1.17221841 L10.6956387,1.17221841 C10.5743132,1.17221841 10.4655907,1.24694368 10.4219437,1.36006181 C10.3785714,1.47345467 10.4093407,1.60182005 10.4995879,1.68300137 L12.0307349,3.06088599 L12.0307349,15.8242445 L1.48128434,15.8242445 C1.31953984,15.8242445 1.18825549,15.9555288 1.18825549,16.1172734 L1.18825549,17.2894231 C1.18825549,17.4511676 1.31953984,17.5824519 1.48128434,17.5824519 L13.4959478,17.5824519 C13.6576923,17.5824519 13.7889766,17.4511676 13.7889766,17.2894231 L13.7889766,1.46524725 C13.7889766,1.30350275 13.657658,1.17221841 13.4959135,1.17221841 Z M13.2028846,16.9963942 L1.77431319,16.9963942 L1.77431319,16.4103022 L12.3237637,16.4103022 C12.4855082,16.4103022 12.6167926,16.2790179 12.6167926,16.1172734 L12.6167926,2.93046016 C12.6167926,2.84725275 12.5816277,2.76813187 12.5197802,2.71274038 L11.459272,1.75831044 L13.2028846,1.75831044 L13.2028846,16.9963942 L13.2028846,16.9963942 Z" id="Shape"></path>
            </g>
        </g>
    </g>
</svg>