<?xml version="1.0" encoding="UTF-8"?>
<svg width="20px" height="25px" viewBox="0 0 20 25" version="1.1" xmlns="http://www.w3.org/2000/svg" xmlns:xlink="http://www.w3.org/1999/xlink">
    <title>58A57A8E-EB39-4C01-8DE2-C9DA88D0F7AA@0,5x</title>
    <g id="Role-Guru" stroke="none" stroke-width="1" fill="none" fill-rule="evenodd">
        <g id="Profile" transform="translate(-19.000000, -938.000000)" fill="#FFFFFF" fill-rule="nonzero" stroke="#FFFFFF" stroke-width="0.869565217">
            <g id="user-4" transform="translate(20.000000, 939.000000)">
                <path d="M8.99999998,11.3043478 C10.5529603,11.3043478 11.8975224,10.7473485 12.9964468,9.64838925 C14.0950132,8.54960909 14.6521739,7.20518343 14.6521739,5.65199488 C14.6521739,4.09934348 14.0951922,2.75473874 12.9962678,1.65560051 C11.8973434,0.55699938 10.5527813,0 8.99999998,0 C7.44686068,0 6.10247756,0.55699938 5.00373221,1.65577954 C3.90498685,2.75455971 3.34782609,4.09916444 3.34782609,5.65199488 C3.34782609,7.20518343 3.90498685,8.54978812 5.00373221,9.64856828 C6.10283566,10.7471694 7.44739775,11.3043478 8.99999998,11.3043478 Z M5.97625703,2.62815615 C6.81933869,1.78504778 7.8083348,1.37522087 8.99999998,1.37522087 C10.1914861,1.37522087 11.1806614,1.78504778 12.023922,2.62815615 C12.8670036,3.4714435 13.2769966,4.46065002 13.2769966,5.65199488 C13.2769966,6.84369781 12.8670036,7.8327253 12.023922,8.67601265 C11.1806614,9.51930005 10.1914861,9.92912696 8.99999998,9.92912696 C7.8086929,9.92912696 6.81969674,9.51912102 5.97625703,8.67601265 C5.13299639,7.83290433 4.72300339,6.84369781 4.72300339,5.65199488 C4.72300339,4.46065002 5.13299639,3.4714435 5.97625703,2.62815615 Z" id="Shape"></path>
                <path d="M16.8490042,22.2565268 C16.3370887,22.7351541 15.6574611,22.9678201 14.7711652,22.9678201 L3.22865189,22.9678201 C2.34217311,22.9678201 1.66254552,22.7351541 1.15081296,22.2567065 C0.648773721,21.7872421 0.404795425,21.1463775 0.404795425,20.2979999 C0.404795425,19.8567429 0.419609686,19.4210556 0.449238255,19.0027957 C0.478135209,18.5924411 0.53720942,18.1416619 0.624814823,17.6626753 C0.71132285,17.1896177 0.821424013,16.7456658 0.95237487,16.3437554 C1.07802182,15.9583742 1.2493919,15.576766 1.46191268,15.2091717 C1.66474018,14.8588251 1.89811075,14.5582458 2.15562305,14.3160575 C2.39649214,14.0895001 2.70009329,13.9040859 3.05783055,13.7650253 C3.38868263,13.6363852 3.76050258,13.5659566 4.16414581,13.5553563 C4.21334381,13.5810484 4.30094922,13.6300969 4.44287361,13.7210074 C4.7316605,13.9058825 5.06452441,14.1168091 5.43250363,14.3476785 C5.84730327,14.6074739 6.38171443,14.8421163 7.02019131,15.0445986 C7.67293377,15.2519319 8.33866159,15.3572155 8.99945131,15.3572155 C9.66024108,15.3572155 10.3261518,15.2519319 10.9785285,15.0447783 C11.617554,14.8419366 12.1517823,14.6074739 12.5671306,14.3473192 C12.9437058,14.1108802 13.2672422,13.9060622 13.5560291,13.7210074 C13.6979535,13.6302766 13.7855589,13.5810484 13.8347569,13.5553563 C14.238583,13.5659566 14.6104029,13.6363852 14.9414379,13.7650253 C15.2989923,13.9040859 15.6025934,14.0896797 15.8434625,14.3160575 C16.1009748,14.5580661 16.3343454,14.8586455 16.5371729,15.2093513 C16.7498766,15.576766 16.9214295,15.9585539 17.0468936,16.3435757 C17.1780273,16.7460251 17.2883114,17.1897974 17.3746365,17.6624957 C17.462059,18.1423806 17.5213161,18.5933395 17.5502131,19.0029754 L17.5502131,19.0033347 C17.5800246,19.4199776 17.5950217,19.8554853 17.5952046,20.2979999 C17.5950217,21.1465572 17.3510434,21.7872421 16.8490042,22.2565268 L16.8490042,22.2565268 Z" id="Shape"></path>
            </g>
        </g>
    </g>
</svg>