<?xml version="1.0" encoding="UTF-8"?>
<svg width="438px" height="320px" viewBox="0 0 438 320" version="1.1" xmlns="http://www.w3.org/2000/svg" xmlns:xlink="http://www.w3.org/1999/xlink">
    <title>5A6737FF-AC5E-4885-BDA8-3AE4D6AAA558@0,5x</title>
    <g id="Page-1" stroke="none" stroke-width="1" fill="none" fill-rule="evenodd">
        <g id="Landing-Page" transform="translate(-204.000000, -251.000000)" fill-rule="nonzero">
            <g id="Group-4" transform="translate(204.000000, 251.000000)">
                <path d="M252.161971,69.9769057 C224.339395,69.0110953 197.838045,60.0071264 172.535018,50.1643262 C147.23199,40.3215259 122.16325,29.4128713 95.0089686,24.1951867 C77.5411226,20.8398615 57.5652504,20.3742717 43.4926498,29.7476342 C29.9462353,38.7746902 25.5715923,54.373874 23.2210378,68.8225507 C21.4504404,79.7042704 20.4095903,91.1400805 25.2566487,101.340731 C28.6250086,108.409231 34.6050958,114.354159 38.7416107,121.126375 C53.1253142,144.698304 42.9664635,173.761115 27.3652343,196.771258 C20.0677613,207.568325 11.5681256,217.865172 5.92602672,229.358699 C0.283927834,240.852227 -2.32779936,254.015722 2.60759688,265.736273 C7.50458536,277.35678 19.1651791,286.083704 31.797489,292.221024 C57.4577087,304.688058 87.6961325,308.258863 117.181764,310.278984 C182.45574,314.734795 248.075386,312.81087 313.518356,310.886945 C337.738285,310.167397 362.061915,309.440153 385.890085,305.688499 C399.117715,303.606813 412.775512,300.301509 422.37745,292.317221 C434.571911,282.181984 437.594601,265.020573 429.421432,252.299581 C415.717545,230.98634 377.820616,225.691698 368.241722,202.81623 C362.968338,190.226065 368.383831,176.200652 376.046178,164.522427 C392.484696,139.469076 420.038418,117.494005 421.490231,88.8583055 C422.488832,69.1919443 409.241998,49.4948003 388.762985,40.190699 C367.293051,30.4363993 337.527042,31.6638635 321.687685,47.809442 C305.387435,64.4360017 276.72757,70.8311284 252.161971,69.9769057 Z" id="Path" fill="#004887" opacity="0.1"></path>
                <g id="4002858" transform="translate(73.000000, 0.000000)">
                    <g id="Shadow" transform="translate(0.000000, 287.000000)" fill="#F5F5F5">
                        <ellipse id="_x3C_Path_x3E__1_" cx="182.665909" cy="16.2989062" rx="182.071402" ry="15.954125"></ellipse>
                    </g>
                    <g id="Character" transform="translate(42.000000, 0.000000)">
                        <g id="Group">
                            <g transform="translate(0.000000, 163.448686)">
                                <g transform="translate(10.499453, 5.560247)">
                                    <g transform="translate(17.995074, 0.000000)">
                                        <path d="M0.0622706946,0.0781821551 L0.0622706946,127.991667 C0.0622706946,129.492934 1.26655641,130.702288 2.76153178,130.702288 L4.79635936,130.702288 C6.27749237,130.702288 7.49562045,129.492934 7.49562045,127.991667 L7.49562045,0.0781821551 L0.0622706946,0.0781821551 Z" id="Path" fill="#407BFF"></path>
                                        <path d="M0.0622706946,0.0781821551 L0.0622706946,127.991667 C0.0622706946,129.492934 1.26655641,130.702288 2.76153178,130.702288 L4.79635936,130.702288 C6.27749237,130.702288 7.49562045,129.492934 7.49562045,127.991667 L7.49562045,0.0781821551 L0.0622706946,0.0781821551 Z" id="Path" fill="#FFFFFF" opacity="0.6"></path>
                                        <rect id="Rectangle" fill="#000000" opacity="0.1" x="0.0622706946" y="5.4160194" width="7.41950739" height="7.33952621"></rect>
                                    </g>
                                    <g transform="translate(251.121236, 0.000000)">
                                        <path d="M0.692118227,0.0781821551 L0.692118227,127.991667 C0.692118227,129.492934 1.89640394,130.702288 3.39137931,130.702288 L5.4262069,130.702288 C6.9073399,130.702288 8.12546798,129.492934 8.12546798,127.991667 L8.12546798,0.0781821551 L0.692118227,0.0781821551 Z" id="Path" fill="#407BFF"></path>
                                        <path d="M0.692118227,0.0781821551 L0.692118227,127.991667 C0.692118227,129.492934 1.89640394,130.702288 3.39137931,130.702288 L5.4262069,130.702288 C6.9073399,130.702288 8.12546798,129.492934 8.12546798,127.991667 L8.12546798,0.0781821551 L0.692118227,0.0781821551 Z" id="Path" fill="#FFFFFF" opacity="0.6"></path>
                                        <rect id="Rectangle" fill="#000000" opacity="0.1" x="0.692118227" y="5.4160194" width="7.41950739" height="7.33952621"></rect>
                                    </g>
                                    <g>
                                        <path d="M0.0622706946,0.0781821551 L0.0622706946,127.991667 C0.0622706946,129.492934 1.26655641,130.702288 2.76153178,130.702288 L4.79635936,130.702288 C6.27749237,130.702288 7.49562045,129.492934 7.49562045,127.991667 L7.49562045,0.0781821551 L0.0622706946,0.0781821551 Z" id="Path" fill="#407BFF"></path>
                                        <path d="M0.0622706946,0.0781821551 L0.0622706946,127.991667 C0.0622706946,129.492934 1.26655641,130.702288 2.76153178,130.702288 L4.79635936,130.702288 C6.27749237,130.702288 7.49562045,129.492934 7.49562045,127.991667 L7.49562045,0.0781821551 L0.0622706946,0.0781821551 Z" id="Path" fill="#FFFFFF" opacity="0.7"></path>
                                        <rect id="Rectangle" fill="#000000" opacity="0.1" x="0.0622706946" y="5.4160194" width="7.41950739" height="7.33952621"></rect>
                                    </g>
                                    <g transform="translate(233.126162, 0.000000)">
                                        <path d="M0.692118227,0.0781821551 L0.692118227,127.991667 C0.692118227,129.492934 1.89640394,130.702288 3.39137931,130.702288 L5.4262069,130.702288 C6.9073399,130.702288 8.12546798,129.492934 8.12546798,127.991667 L8.12546798,0.0781821551 L0.692118227,0.0781821551 Z" id="Path" fill="#407BFF"></path>
                                        <path d="M0.692118227,0.0781821551 L0.692118227,127.991667 C0.692118227,129.492934 1.89640394,130.702288 3.39137931,130.702288 L5.4262069,130.702288 C6.9073399,130.702288 8.12546798,129.492934 8.12546798,127.991667 L8.12546798,0.0781821551 L0.692118227,0.0781821551 Z" id="Path" fill="#FFFFFF" opacity="0.7"></path>
                                        <rect id="Rectangle" fill="#000000" opacity="0.1" x="0.692118227" y="5.4160194" width="7.41950739" height="7.33952621"></rect>
                                    </g>
                                </g>
                                <g id="Path">
                                    <path d="M3.84817734,10.9762665 C1.7164532,10.9762665 0,9.2386893 0,7.11189477 L0,4.19276503 C0,2.05206989 1.73029557,0.328393276 3.84817734,0.328393276 L276.459704,0.328393276 C278.591429,0.328393276 280.307882,2.0659705 280.307882,4.19276503 L280.307882,7.11189477 C280.307882,9.25258992 278.577586,10.9762665 276.459704,10.9762665 L3.84817734,10.9762665 Z" fill="#407BFF"></path>
                                    <path d="M3.84817734,10.9762665 C1.7164532,10.9762665 0,9.2386893 0,7.11189477 L0,4.19276503 C0,2.05206989 1.73029557,0.328393276 3.84817734,0.328393276 L276.459704,0.328393276 C278.591429,0.328393276 280.307882,2.0659705 280.307882,4.19276503 L280.307882,7.11189477 C280.307882,9.25258992 278.577586,10.9762665 276.459704,10.9762665 L3.84817734,10.9762665 Z" fill="#FFFFFF" opacity="0.7"></path>
                                </g>
                            </g>
                            <path d="M129.453793,27.3425153 C127.751182,28.7742789 128.581724,31.5544025 130.796502,31.8046136 C148.320936,33.7367995 185.252365,36.6142273 195.149655,27.8707387 C207.676995,16.7919463 171.991379,27.2730122 169.236749,24.7570003 C166.482118,22.2409885 176.26867,16.6668408 168.572315,16.8058469 C163.173793,16.9031513 154.78532,26.4945776 146.175369,25.2296213 C139.157291,24.2009756 148.514729,19.0716477 141.994975,19.0716477 C136.098128,19.0716477 133.537291,23.9229633 129.453793,27.3425153 Z" id="Path" fill="#FAFAFA"></path>
                            <g transform="translate(74.748768, 15.290680)" id="Path">
                                <path d="M8.40231527,119.47581 L172.102118,119.47581 C176.587044,119.47581 180.421379,115.819948 180.6567,111.316148 L186.041379,8.2708676 C186.2767,3.76706743 182.829951,0.111204943 178.345025,0.111204943 L14.6313793,0.111204943 C10.1464532,0.111204943 6.31211823,3.76706743 6.07679803,8.2708676 L0.705960591,111.316148 C0.470640394,115.819948 3.91738916,119.47581 8.40231527,119.47581 Z" fill="#407BFF"></path>
                                <path d="M8.40231527,119.47581 L172.102118,119.47581 C176.587044,119.47581 180.421379,115.819948 180.6567,111.316148 L186.041379,8.2708676 C186.2767,3.76706743 182.829951,0.111204943 178.345025,0.111204943 L14.6313793,0.111204943 C10.1464532,0.111204943 6.31211823,3.76706743 6.07679803,8.2708676 L0.705960591,111.316148 C0.470640394,115.819948 3.91738916,119.47581 8.40231527,119.47581 Z" fill="#FFFFFF" opacity="0.4"></path>
                            </g>
                            <g transform="translate(129.543788, 125.863280)" id="Path">
                                <polygon fill="#407BFF" points="22.403847 39.0675503 45.7143889 39.0675503 41.0218273 0.0485161188 22.403847 0.0485161188"></polygon>
                                <polygon fill="#FFFFFF" opacity="0.4" points="22.403847 39.0675503 45.7143889 39.0675503 41.0218273 0.0485161188 22.403847 0.0485161188"></polygon>
                                <path d="M2.12478301,35.7870045 L45.3129603,35.7870045 L45.7005466,39.0536497 L2.11094065,39.0536497 C1.21118695,39.0536497 0.477541631,38.316917 0.477541631,37.4133768 C0.491383995,36.5237373 1.22502932,35.7870045 2.12478301,35.7870045 Z" fill="#407BFF"></path>
                                <path d="M2.12478301,35.7870045 L45.3129603,35.7870045 L45.7005466,39.0536497 L2.11094065,39.0536497 C1.21118695,39.0536497 0.477541631,38.316917 0.477541631,37.4133768 C0.491383995,36.5237373 1.22502932,35.7870045 2.12478301,35.7870045 Z" fill="#FFFFFF" opacity="0.3"></path>
                                <polygon fill="#000000" opacity="0.1" points="43.2366057 18.5085366 22.403847 18.5085366 22.403847 7.31853924 41.8938963 7.31853924"></polygon>
                            </g>
                            <g transform="translate(73.364532, 15.290680)" id="Path">
                                <path d="M8.40231527,119.47581 L172.102118,119.47581 C176.587044,119.47581 180.421379,115.819948 180.6567,111.316148 L186.041379,8.2708676 C186.2767,3.76706743 182.829951,0.111204943 178.345025,0.111204943 L14.6313793,0.111204943 C10.1464532,0.111204943 6.31211823,3.76706743 6.07679803,8.2708676 L0.705960591,111.316148 C0.470640394,115.819948 3.91738916,119.47581 8.40231527,119.47581 Z" fill="#407BFF"></path>
                                <path d="M8.40231527,119.47581 L172.102118,119.47581 C176.587044,119.47581 180.421379,115.819948 180.6567,111.316148 L186.041379,8.2708676 C186.2767,3.76706743 182.829951,0.111204943 178.345025,0.111204943 L14.6313793,0.111204943 C10.1464532,0.111204943 6.31211823,3.76706743 6.07679803,8.2708676 L0.705960591,111.316148 C0.470640394,115.819948 3.91738916,119.47581 8.40231527,119.47581 Z" fill="#FFFFFF" opacity="0.7"></path>
                            </g>
                            <path d="M245.688128,130.596304 L81.9883251,130.596304 C79.8012315,130.596304 78.1124631,128.803125 78.223202,126.606827 L83.5940394,23.5615472 C83.7047783,21.3652496 85.5873399,19.5720699 87.7744335,19.5720699 L251.474236,19.5720699 C253.66133,19.5720699 255.350099,21.3652496 255.23936,23.5615472 L249.868522,126.606827 C249.743941,128.803125 247.875222,130.596304 245.688128,130.596304 Z" id="Path" fill="#407BFF"></path>
                            <path d="M245.688128,130.596304 L81.9883251,130.596304 C79.8012315,130.596304 78.1124631,128.803125 78.223202,126.606827 L83.5940394,23.5615472 C83.7047783,21.3652496 85.5873399,19.5720699 87.7744335,19.5720699 L251.474236,19.5720699 C253.66133,19.5720699 255.350099,21.3652496 255.23936,23.5615472 L249.868522,126.606827 C249.743941,128.803125 247.875222,130.596304 245.688128,130.596304 Z" id="Path" fill="#FFFFFF" opacity="0.9"></path>
                            <g transform="translate(85.822660, 8.340371)" id="Path">
                                <path d="M33.2908867,1.69587537 C26.7849754,1.69587537 20.2652217,1.69587537 13.7593103,1.69587537 C12.7903448,1.69587537 12.6657635,0.19460865 13.6347291,0.19460865 C20.1406404,0.19460865 26.6603941,0.19460865 33.1663054,0.19460865 C34.1214286,0.19460865 34.2460099,1.69587537 33.2908867,1.69587537 L33.2908867,1.69587537 Z" fill="#407BFF"></path>
                                <path d="M6.58896552,1.69587537 C4.72024631,1.69587537 2.85152709,1.69587537 0.982807882,1.69587537 C0.0276847291,1.69587537 -0.110738916,0.19460865 0.858226601,0.19460865 C2.72694581,0.19460865 4.59566502,0.19460865 6.4782266,0.19460865 C7.41950739,0.19460865 7.55793103,1.69587537 6.58896552,1.69587537 L6.58896552,1.69587537 Z" fill="#407BFF"></path>
                                <g opacity="0.4" transform="translate(12.458128, 0.000000)" fill="#FFFFFF">
                                    <path d="M20.8327586,1.69587537 C14.3268473,1.69587537 7.8070936,1.69587537 1.30118227,1.69587537 C0.332216749,1.69587537 0.207635468,0.19460865 1.17660099,0.19460865 C7.68251232,0.19460865 14.202266,0.19460865 20.7081773,0.19460865 C21.6633005,0.19460865 21.7878818,1.69587537 20.8327586,1.69587537 L20.8327586,1.69587537 Z"></path>
                                </g>
                                <g opacity="0.4" fill="#FFFFFF">
                                    <path d="M6.58896552,1.69587537 C4.72024631,1.69587537 2.85152709,1.69587537 0.982807882,1.69587537 C0.0276847291,1.69587537 -0.110738916,0.19460865 0.858226601,0.19460865 C2.72694581,0.19460865 4.59566502,0.19460865 6.4782266,0.19460865 C7.41950739,0.19460865 7.55793103,1.69587537 6.58896552,1.69587537 L6.58896552,1.69587537 Z"></path>
                                </g>
                            </g>
                            <g transform="translate(203.482759, 139.817636)" id="Path">
                                <path d="M33.4569951,2.03816927 C26.9510837,2.03816927 20.43133,2.03816927 13.9254187,2.03816927 C12.9564532,2.03816927 12.8318719,0.536902543 13.8008374,0.536902543 C20.3067488,0.536902543 26.8265025,0.536902543 33.3324138,0.536902543 C34.2875369,0.536902543 34.4259606,2.03816927 33.4569951,2.03816927 L33.4569951,2.03816927 Z" fill="#407BFF"></path>
                                <path d="M6.76891626,2.03816927 C4.90019704,2.03816927 3.03147783,2.03816927 1.16275862,2.03816927 C0.193793103,2.03816927 0.0692118227,0.536902543 1.03817734,0.536902543 C2.90689655,0.536902543 4.77561576,0.536902543 6.64433498,0.536902543 C7.59945813,0.536902543 7.73788177,2.03816927 6.76891626,2.03816927 L6.76891626,2.03816927 Z" fill="#407BFF"></path>
                                <g opacity="0.4" transform="translate(12.458128, 0.000000)" fill="#FFFFFF">
                                    <path d="M20.998867,2.03816927 C14.4929557,2.03816927 7.97320197,2.03816927 1.46729064,2.03816927 C0.498325123,2.03816927 0.373743842,0.536902543 1.34270936,0.536902543 C7.84862069,0.536902543 14.3683744,0.536902543 20.8742857,0.536902543 C21.8294089,0.536902543 21.9678325,2.03816927 20.998867,2.03816927 L20.998867,2.03816927 Z"></path>
                                </g>
                                <g opacity="0.4" fill="#FFFFFF">
                                    <path d="M6.76891626,2.03816927 C4.90019704,2.03816927 3.03147783,2.03816927 1.16275862,2.03816927 C0.193793103,2.03816927 0.0692118227,0.536902543 1.03817734,0.536902543 C2.90689655,0.536902543 4.77561576,0.536902543 6.64433498,0.536902543 C7.59945813,0.536902543 7.73788177,2.03816927 6.76891626,2.03816927 L6.76891626,2.03816927 Z"></path>
                                </g>
                            </g>
                            <g transform="translate(139.807882, 0.000000)" id="Path">
                                <g>
                                    <g transform="translate(0.000000, 4.927905)">
                                        <path d="M3.57133005,49.7571255 L46.3857635,49.7571255 C48.2406404,49.7571255 49.81867,48.2558587 49.9155665,46.3931759 L52.1580296,3.39856501 C52.2549261,1.53588223 50.8291626,0.034615501 48.9742857,0.034615501 L6.15985222,0.034615501 C4.30497537,0.034615501 2.72694581,1.53588223 2.63004926,3.39856501 L0.387586207,46.3931759 C0.30453202,48.2419581 1.73029557,49.7571255 3.57133005,49.7571255 Z" fill="#407BFF"></path>
                                        <path d="M3.57133005,49.7571255 L46.3857635,49.7571255 C48.2406404,49.7571255 49.81867,48.2558587 49.9155665,46.3931759 L52.1580296,3.39856501 C52.2549261,1.53588223 50.8291626,0.034615501 48.9742857,0.034615501 L6.15985222,0.034615501 C4.30497537,0.034615501 2.72694581,1.53588223 2.63004926,3.39856501 L0.387586207,46.3931759 C0.30453202,48.2419581 1.73029557,49.7571255 3.57133005,49.7571255 Z" fill="#000000" opacity="0.5"></path>
                                    </g>
                                    <g transform="translate(4.152709, 0.000000)">
                                        <path d="M2.60236453,20.6424175 C2.02098522,31.8185142 10.5755665,40.8956176 21.7048276,40.8956176 C32.8340887,40.8956176 42.3437931,31.8324148 42.9251724,20.6424175 C43.5065517,9.46632074 34.9519704,0.389217299 23.8227094,0.389217299 C12.6934483,0.389217299 3.18374384,9.45242012 2.60236453,20.6424175 Z" fill="#263238"></path>
                                        <path d="M28.2799507,46.5670697 C28.2799507,46.5670697 25.6499015,44.0927597 25.594532,38.1015935 L17.316798,38.1015935 C17.316798,38.1015935 16.8184729,46.5670697 12.7903448,46.5670697 L28.2799507,46.5670697 Z" fill="#FF8B7B"></path>
                                        <path d="M25.594532,38.1015935 C25.6083744,39.3943509 25.746798,40.5064003 25.9405911,41.4794436 C24.6670936,41.9659652 23.1167488,42.3412819 21.3172414,42.3412819 C19.6007882,42.3412819 18.0919704,41.938164 16.8184729,41.3960399 C17.2337438,39.644562 17.316798,38.1154941 17.316798,38.1154941 L25.594532,38.1154941 L25.594532,38.1015935 Z" fill="#000000" opacity="0.1"></path>
                                        <path d="M10.3125616,24.9794102 C9.85576355,33.6533958 14.0223153,40.6871084 21.71867,40.6871084 C29.4150246,40.6871084 34.3152217,33.6533958 34.7720197,24.9794102 C35.2288177,16.3054247 31.062266,9.27171209 23.3659113,9.27171209 C15.6557143,9.27171209 10.7555172,16.3054247 10.3125616,24.9794102 Z" fill="#FF8B7B"></path>
                                        <path d="M21.6771429,25.7022424 C21.303399,27.1479066 20.7358621,28.5379684 19.9883744,29.8585271 C20.6528079,30.1921419 21.4418227,30.2199431 22.1616256,29.9002289 L21.6771429,25.7022424 Z" fill="#FF5652"></path>
                                        <g transform="translate(25.673669, 21.662384)" fill="#263238">
                                            <path d="M1.3881541,4.08156009 C1.40199647,4.65148542 1.09746445,5.13800704 0.723720606,5.16580828 C0.349976764,5.19360951 0.0454447439,4.74878974 0.0316023794,4.17886441 C0.0177600149,3.60893908 0.322292035,3.12241746 0.696035877,3.10851684 C1.06977972,3.0807156 1.3881541,3.52553538 1.3881541,4.08156009 Z"></path>
                                            <path d="M3.51987824,2.07987112 C3.5752477,2.07987112 3.63061716,2.0659705 3.68598662,2.03816927 C3.82441026,1.91306371 3.85209499,1.70455444 3.74135607,1.56554826 C3.09076494,0.731511193 2.06642997,0.286691422 0.986725532,0.370095129 C0.806774793,0.397896365 0.668351148,0.564703779 0.682193512,0.745411811 C0.696035877,0.926119842 0.862144251,1.06512602 1.04209499,1.03732478 L1.04209499,1.03732478 C1.90032159,0.981722314 2.70317873,1.34313838 3.20150386,2.01036803 C3.29840041,2.07987112 3.40913933,2.10767236 3.51987824,2.07987112 Z"></path>
                                        </g>
                                        <g transform="translate(14.652163, 21.662384)" fill="#263238">
                                            <path d="M2.19399483,4.08156009 C2.12478301,4.65148542 2.37394557,5.13800704 2.74768941,5.16580828 C3.12143326,5.19360951 3.46749237,4.74878974 3.53670419,4.17886441 C3.60591601,3.60893908 3.35675345,3.12241746 2.98300961,3.10851684 C2.60926577,3.0807156 2.26320666,3.52553538 2.19399483,4.08156009 Z"></path>
                                            <path d="M0.269906163,2.07987112 C0.214536704,2.07987112 0.159167246,2.0659705 0.103797788,2.03816927 C-0.0207834926,1.91306371 -0.0207834926,1.70455444 0.0899554237,1.56554826 C0.823600744,0.731511193 1.88946281,0.286691422 2.96916725,0.370095129 C3.14911799,0.397896365 3.27369927,0.564703779 3.23217217,0.745411811 C3.20448744,0.926119842 3.0245367,1.06512602 2.84458597,1.03732478 L2.84458597,1.03732478 C2.00020173,0.981722314 1.15581749,1.34313838 0.574438182,2.01036803 C0.491383995,2.07987112 0.380645079,2.10767236 0.269906163,2.07987112 Z"></path>
                                        </g>
                                        <path d="M28.2384236,44.885095 C28.2384236,44.885095 25.7883251,46.5670697 21.4141379,46.5670697 C17.0399507,46.5670697 14.5483251,44.885095 14.5483251,44.885095 C14.5483251,44.885095 1.02433498,44.6070826 0.498325123,54.6711447 L39.644532,54.6711447 C39.644532,54.6850305 41.9146798,44.885095 28.2384236,44.885095 Z" fill="#407BFF"></path>
                                        <path d="M28.2384236,44.885095 C28.2384236,44.885095 25.7883251,46.5670697 21.4141379,46.5670697 C17.0399507,46.5670697 14.5483251,44.885095 14.5483251,44.885095 C14.5483251,44.885095 1.02433498,44.6070826 0.498325123,54.6711447 L39.644532,54.6711447 C39.644532,54.6850305 41.9146798,44.885095 28.2384236,44.885095 Z" fill="#263238"></path>
                                        <path d="M22.936798,34.5847371 C22.7983744,35.1824637 22.3692611,35.5994822 21.9816749,35.5299792 C21.607931,35.4604761 21.4141379,34.9044514 21.5525616,34.3206254 C21.6909852,33.7367995 22.1200985,33.3058803 22.5076847,33.3753834 C22.8952709,33.4448865 23.089064,33.9870106 22.936798,34.5847371 Z" fill="#263238"></path>
                                        <path d="M36.1977833,24.9794102 C36.1977833,24.9794102 31.3529557,20.9065292 30.0517734,12.6495622 C30.0517734,12.6495622 20.3205911,10.3142584 14.2853202,17.8622939 C14.2853202,17.8622939 14.4514286,15.1099716 20.9296552,11.8433264 C20.9296552,11.8433264 14.6452217,11.8433264 11.9044335,19.6971755 C9.16364532,27.5510245 10.9077833,27.1201054 10.9077833,27.1201054 L8.96985222,25.2852238 L8.02857143,17.8622939 C8.02857143,17.8622939 11.5583744,10.620072 11.7798522,10.3142584 C12.00133,10.0084448 17.8566502,6.33868173 17.8566502,6.33868173 C17.8566502,6.33868173 24.570197,4.50380017 25.0685222,4.6011045 C25.5668473,4.69840882 30.7023645,5.68535269 31.2975862,6.0050669 C31.8928079,6.32478111 34.5782266,8.88249479 35.5471921,9.89723989 C36.5161576,10.911985 37.8865517,17.8622939 37.8865517,17.8622939 L36.1977833,24.9794102 Z" fill="#263238"></path>
                                        <path d="M33.3324138,25.7717454 C32.3219212,27.5788258 32.391133,29.6361172 33.4985222,30.3867506 C34.6059113,31.1373839 36.3223645,30.2755456 37.3466995,28.4684653 C38.3571921,26.661385 38.2879803,24.6040935 37.1805911,23.8534602 C36.0593596,23.1028268 34.3429064,23.9646651 33.3324138,25.7717454 Z" fill="#FF8B7B"></path>
                                        <path d="M12.3473892,25.7717454 C13.177931,27.5788258 12.8872414,29.6361172 11.7106404,30.3867506 C10.5340394,31.1373839 8.90064039,30.2755456 8.07009852,28.4684653 C7.23955665,26.661385 7.53024631,24.6040935 8.70684729,23.8534602 C9.88344828,23.1028268 11.5168473,23.9646651 12.3473892,25.7717454 Z" fill="#FF8B7B"></path>
                                    </g>
                                </g>
                                <g transform="translate(9.689655, 5.560247)">
                                    <g transform="translate(0.809798, 0.000000)">
                                        <path d="M17.1160638,0.0139006178 C8.34000468,0.180708032 1.08660567,7.72874351 0.615965276,16.5417352 L0.50522636,18.5712254 C0.491383995,18.9326415 0.754388921,19.2106538 1.1142904,19.2106538 L2.01404409,19.2106538 C2.37394557,19.2106538 2.66463523,18.9187409 2.69231996,18.5712254 L2.76153178,17.1255612 C3.14911799,9.77213433 9.00443818,3.3500489 16.3408914,2.87742789 C24.3833052,2.36310503 30.7092658,8.72958799 30.2939948,16.6529402 L30.1970983,18.5712254 C30.1832559,18.9326415 30.4462608,19.2106538 30.8061623,19.2106538 L31.705916,19.2106538 C32.0658175,19.2106538 32.3565071,18.9187409 32.3841919,18.5712254 L32.5226155,16.0135117 C32.9794136,7.07541447 26.0582313,-0.152906796 17.1160638,0.0139006178 Z" fill="#407BFF"></path>
                                        <path d="M17.1160638,0.0139006178 C8.34000468,0.180708032 1.08660567,7.72874351 0.615965276,16.5417352 L0.50522636,18.5712254 C0.491383995,18.9326415 0.754388921,19.2106538 1.1142904,19.2106538 L2.01404409,19.2106538 C2.37394557,19.2106538 2.66463523,18.9187409 2.69231996,18.5712254 L2.76153178,17.1255612 C3.14911799,9.77213433 9.00443818,3.3500489 16.3408914,2.87742789 C24.3833052,2.36310503 30.7092658,8.72958799 30.2939948,16.6529402 L30.1970983,18.5712254 C30.1832559,18.9326415 30.4462608,19.2106538 30.8061623,19.2106538 L31.705916,19.2106538 C32.0658175,19.2106538 32.3565071,18.9187409 32.3841919,18.5712254 L32.5226155,16.0135117 C32.9794136,7.07541447 26.0582313,-0.152906796 17.1160638,0.0139006178 Z" fill="#FFFFFF" opacity="0.8"></path>
                                    </g>
                                    <g transform="translate(0.000000, 15.290680)">
                                        <g>
                                            <g transform="translate(0.000000, 1.390062)">
                                                <path d="M4.85866995,8.45157564 L2.1455665,8.45157564 C1.16275862,8.45157564 0.401428571,7.6453398 0.45679803,6.65839594 L0.678275862,2.52991244 C0.73364532,1.54296858 1.57802956,0.736732745 2.56083744,0.736732745 L5.27394089,0.736732745 L4.85866995,8.45157564 Z" fill="#407BFF"></path>
                                                <path d="M4.85866995,8.45157564 L2.1455665,8.45157564 C1.16275862,8.45157564 0.401428571,7.6453398 0.45679803,6.65839594 L0.678275862,2.52991244 C0.73364532,1.54296858 1.57802956,0.736732745 2.56083744,0.736732745 L5.27394089,0.736732745 L4.85866995,8.45157564 Z" fill="#FFFFFF" opacity="0.8"></path>
                                            </g>
                                            <g transform="translate(2.194035, 0.000000)">
                                                <path d="M1.70951207,11.3707054 L1.70951207,11.3707054 C0.892812567,11.3707054 0.269906163,10.7034757 0.311433256,9.89723989 L0.712861828,2.08509267 C0.754388921,1.26495622 1.44650715,0.611627184 2.26320666,0.611627184 L2.26320666,0.611627184 C3.07990616,0.611627184 3.70281257,1.27885684 3.66128547,2.08509267 L3.2598569,9.89723989 C3.21832981,10.7034757 2.52621158,11.3707054 1.70951207,11.3707054 Z" fill="#407BFF"></path>
                                                <path d="M1.70951207,11.3707054 L1.70951207,11.3707054 C0.892812567,11.3707054 0.269906163,10.7034757 0.311433256,9.89723989 L0.712861828,2.08509267 C0.754388921,1.26495622 1.44650715,0.611627184 2.26320666,0.611627184 L2.26320666,0.611627184 C3.07990616,0.611627184 3.70281257,1.27885684 3.66128547,2.08509267 L3.2598569,9.89723989 C3.21832981,10.7034757 2.52621158,11.3707054 1.70951207,11.3707054 Z" fill="#FFFFFF" opacity="0.5"></path>
                                            </g>
                                        </g>
                                        <g transform="translate(27.684729, 0.000000)">
                                            <g transform="translate(0.809798, 1.390062)">
                                                <path d="M0.477541631,8.45157564 L3.19064508,8.45157564 C4.17345296,8.45157564 5.0178372,7.6453398 5.07320666,6.65839594 L5.29468449,2.52991244 C5.35005395,1.54296858 4.5887239,0.736732745 3.60591601,0.736732745 L0.892812567,0.736732745 L0.477541631,8.45157564 Z" fill="#407BFF"></path>
                                                <path d="M0.477541631,8.45157564 L3.19064508,8.45157564 C4.17345296,8.45157564 5.0178372,7.6453398 5.07320666,6.65839594 L5.29468449,2.52991244 C5.35005395,1.54296858 4.5887239,0.736732745 3.60591601,0.736732745 L0.892812567,0.736732745 L0.477541631,8.45157564 Z" fill="#FFFFFF" opacity="0.8"></path>
                                            </g>
                                            <g>
                                                <path d="M2.07635468,11.3707054 L2.07635468,11.3707054 C2.89305419,11.3707054 3.58517241,10.7034757 3.62669951,9.89723989 L4.02812808,2.08509267 C4.06965517,1.26495622 3.44674877,0.611627184 2.63004926,0.611627184 L2.63004926,0.611627184 C1.81334975,0.611627184 1.12123153,1.27885684 1.07970443,2.08509267 L0.678275862,9.89723989 C0.636748768,10.7034757 1.25965517,11.3707054 2.07635468,11.3707054 Z" fill="#407BFF"></path>
                                                <path d="M2.07635468,11.3707054 L2.07635468,11.3707054 C2.89305419,11.3707054 3.58517241,10.7034757 3.62669951,9.89723989 L4.02812808,2.08509267 C4.06965517,1.26495622 3.44674877,0.611627184 2.63004926,0.611627184 L2.63004926,0.611627184 C1.81334975,0.611627184 1.12123153,1.27885684 1.07970443,2.08509267 L0.678275862,9.89723989 C0.636748768,10.7034757 1.25965517,11.3707054 2.07635468,11.3707054 Z" fill="#FFFFFF" opacity="0.5"></path>
                                            </g>
                                        </g>
                                    </g>
                                </g>
                            </g>
                            <g transform="translate(71.980296, 27.222631)" id="Path">
                                <g>
                                    <g>
                                        <path d="M4.67871921,62.4502543 L58.1933005,62.4502543 C60.5049754,62.4502543 62.4844335,60.5597703 62.6090148,58.2383671 L65.4051724,4.49857862 C65.5297537,2.17717545 63.7440887,0.286691422 61.4324138,0.286691422 L7.91783251,0.286691422 C5.60615764,0.286691422 3.62669951,2.17717545 3.50211823,4.49857862 L0.705960591,58.2383671 C0.58137931,60.5736709 2.35320197,62.4502543 4.67871921,62.4502543 Z" fill="#407BFF"></path>
                                        <path d="M4.67871921,62.4502543 L58.1933005,62.4502543 C60.5049754,62.4502543 62.4844335,60.5597703 62.6090148,58.2383671 L65.4051724,4.49857862 C65.5297537,2.17717545 63.7440887,0.286691422 61.4324138,0.286691422 L7.91783251,0.286691422 C5.60615764,0.286691422 3.62669951,2.17717545 3.50211823,4.49857862 L0.705960591,58.2383671 C0.58137931,60.5736709 2.35320197,62.4502543 4.67871921,62.4502543 Z" fill="#000000" opacity="0.4"></path>
                                    </g>
                                    <g transform="translate(6.921182, 3.358728)">
                                        <path d="M35.0211823,48.957976 C35.0211823,48.957976 31.7266995,45.8720388 31.6574877,38.3796058 L21.303399,38.3796058 C21.303399,38.3796058 20.6804926,48.957976 15.6418719,48.957976 L35.0211823,48.957976 Z" fill="#FF8B7B"></path>
                                        <path d="M31.6574877,38.3796058 C31.67133,39.9920775 31.8374384,41.3821393 32.086601,42.6053936 C30.4947291,43.2170208 28.556798,43.6757412 26.3004926,43.6757412 C24.1549261,43.6757412 22.2723645,43.175319 20.6804926,42.4802881 C21.1926601,40.2839905 21.3172414,38.3796058 21.3172414,38.3796058 L31.6574877,38.3796058 Z" fill="#000000" opacity="0.1"></path>
                                        <path d="M13.28867,22.8943176 C12.7488177,33.1946754 17.7043842,41.5489467 26.8403448,41.5489467 C35.9763054,41.5489467 41.8039409,33.1946754 42.3299507,22.8943176 C42.8559606,12.5939597 37.9142365,4.23967111 28.7782759,4.23967111 C19.6423153,4.22578782 13.8285222,12.5800591 13.28867,22.8943176 Z" fill="#FF8B7B"></path>
                                        <path d="M26.7849754,23.7422552 C26.3420197,25.4520312 25.6637438,27.1201054 24.7778325,28.6769746 C25.5668473,29.0800925 26.5081281,29.0939931 27.3525123,28.732577 L26.7849754,23.7422552 Z" fill="#FF5652"></path>
                                        <g transform="translate(31.263000, 18.882261)" fill="#263238">
                                            <path d="M1.91714754,4.91559716 C1.93098991,5.59672743 1.58493079,6.18055338 1.12813276,6.194454 C0.685177099,6.22225523 0.325275621,5.69403176 0.311433256,5.01290148 C0.297590892,4.33177121 0.65749237,3.76184588 1.10044803,3.73404464 C1.5434037,3.72014402 1.91714754,4.2483675 1.91714754,4.91559716 Z"></path>
                                            <path d="M4.45030025,2.52469089 C4.51951207,2.52469089 4.5887239,2.49688966 4.64409335,2.46908842 C4.81020173,2.31618162 4.83788646,2.07987112 4.71330518,1.89916309 C3.93813276,0.912219224 2.73384705,0.383995747 1.44650715,0.467399454 C1.22502932,0.49520069 1.05892094,0.703709957 1.08660567,0.926119842 C1.10044803,1.14852973 1.29424114,1.30143652 1.51571897,1.27363529 L1.51571897,1.27363529 C2.52621158,1.21803282 3.48133473,1.64895197 4.09039877,2.42738657 C4.18729533,2.52469089 4.32571897,2.56639275 4.45030025,2.52469089 Z"></path>
                                        </g>
                                        <g transform="translate(17.995074, 18.882261)" fill="#263238">
                                            <path d="M3.05916256,4.91559716 C2.97610837,5.59672743 3.26679803,6.18055338 3.70975369,6.194454 C4.15270936,6.22225523 4.5679803,5.69403176 4.65103448,5.01290148 C4.73408867,4.33177121 4.44339901,3.76184588 4.00044335,3.73404464 C3.55748768,3.72014402 3.12837438,4.2483675 3.05916256,4.91559716 Z"></path>
                                            <path d="M0.761330049,2.52469089 C0.692118227,2.52469089 0.622906404,2.49688966 0.567536946,2.46908842 C0.415270936,2.31618162 0.415270936,2.07987112 0.553694581,1.89916309 C1.42576355,0.912219224 2.69926108,0.383995747 3.97275862,0.467399454 C4.19423645,0.49520069 4.3326601,0.703709957 4.291133,0.926119842 C4.24960591,1.14852973 4.04197044,1.30143652 3.82049261,1.27363529 L3.82049261,1.27363529 C2.81,1.21803282 1.81334975,1.64895197 1.13507389,2.42738657 C1.03817734,2.52469089 0.899753695,2.56639275 0.761330049,2.52469089 Z"></path>
                                        </g>
                                        <path d="M26.2312808,34.153818 C25.8298522,34.153818 25.4145813,34.1260168 25.0269951,34.042613 C24.9162562,34.0287124 24.833202,33.9175075 24.8608867,33.7924019 C24.8608867,33.7924019 24.8608867,33.7924019 24.8608867,33.7785013 C24.8885714,33.6672964 24.9993103,33.5838927 25.1100493,33.5977933 C26.8818719,33.9453087 28.7782759,33.4309859 30.190197,32.1938309 C30.2732512,32.1104272 30.4116749,32.0965266 30.4947291,32.1799303 C30.5777833,32.263334 30.5777833,32.4023401 30.4947291,32.4857439 C29.3042857,33.5838927 27.7816256,34.1677186 26.2312808,34.153818 Z" fill="#263238"></path>
                                        <path d="M44.7246798,22.8943176 C44.7246798,22.8943176 40.668867,24.8960065 40.1566995,19.3635606 C40.1566995,19.3635606 36.2808374,18.3071137 37.0836946,12.1908418 C37.0836946,12.1908418 33.2770443,13.5809036 29.6780296,8.49327749 C29.6780296,8.49327749 27.2140887,12.4966554 20.9158128,10.3142584 C20.9158128,10.3142584 20.9158128,15.165574 16.86,15.165574 C16.86,15.165574 16.3063054,22.7414108 13.28867,22.9082182 C13.28867,22.9082182 9.53738916,19.7805792 12.5134975,13.7199098 C12.5134975,13.7199098 12.4442857,5.08762612 18.5072414,5.00422242 C18.5072414,5.00422242 22.0508867,-1.65417352 27.9200493,1.00084448 C27.9200493,1.00084448 42.6483251,-2.0294902 39.6306897,7.42292992 C39.6306897,7.42292992 46.6072414,7.06151385 44.3370936,14.331537 C44.3232512,14.3037357 47.7284729,18.2654118 44.7246798,22.8943176 Z" fill="#263238"></path>
                                        <path d="M40.6273399,23.8256589 C39.4230542,25.9663541 39.5061084,28.4267634 40.821133,29.3025024 C42.1361576,30.1921419 44.1848276,29.1634962 45.3891133,27.022801 C46.593399,24.8821059 46.5103448,22.4216965 45.1953202,21.5459576 C43.8664532,20.6563181 41.8316256,21.6849638 40.6273399,23.8256589 Z" fill="#FF8B7B"></path>
                                        <path d="M15.6972414,23.8256589 C16.6800493,25.9663541 16.3478325,28.4267634 14.9359113,29.3025024 C13.5239901,30.1921419 11.5999015,29.1634962 10.6032512,27.022801 C9.62044335,24.8821059 9.9526601,22.4216965 11.3645813,21.5459576 C12.7765025,20.6563181 14.7144335,21.6849638 15.6972414,23.8256589 Z" fill="#FF8B7B"></path>
                                        <g transform="translate(0.000000, 46.683496)">
                                            <path d="M34.6612808,0.17548648 C34.6612808,0.17548648 31.6021182,2.27447977 26.1343842,2.27447977 C20.6666502,2.27447977 17.5659606,0.17548648 17.5659606,0.17548648 C17.5659606,0.17548648 0.650591133,-0.158128348 0,12.4219308 L48.9327586,12.4219308 C48.9327586,12.4080302 51.7704433,0.17548648 34.6612808,0.17548648 Z" fill="#407BFF"></path>
                                            <path d="M26.9787685,4.49857862 C20.0299015,4.49857862 14.5760099,1.74625629 12.6380788,0.634206868 C15.4203941,0.119884009 17.5659606,0.161585862 17.5659606,0.161585862 C17.5659606,0.161585862 20.6666502,2.26057915 26.1343842,2.26057915 C31.6021182,2.26057915 34.6612808,0.161585862 34.6612808,0.161585862 C35.9901478,0.161585862 37.1805911,0.244989569 38.2741379,0.383995747 C36.5992118,1.96866618 32.9863547,4.49857862 26.9787685,4.49857862 Z" fill="#407BFF"></path>
                                            <path d="M26.9787685,4.49857862 C20.0299015,4.49857862 14.5760099,1.74625629 12.6380788,0.634206868 C15.4203941,0.119884009 17.5659606,0.161585862 17.5659606,0.161585862 C17.5659606,0.161585862 20.6666502,2.26057915 26.1343842,2.26057915 C31.6021182,2.26057915 34.6612808,0.161585862 34.6612808,0.161585862 C35.9901478,0.161585862 37.1805911,0.244989569 38.2741379,0.383995747 C36.5992118,1.96866618 32.9863547,4.49857862 26.9787685,4.49857862 Z" fill="#FFFFFF" opacity="0.3"></path>
                                        </g>
                                    </g>
                                </g>
                                <g transform="translate(18.804872, 5.506509)">
                                    <path d="M17.6974431,0.0485161188 C8.90754163,0.215323533 1.39113769,7.76335901 0.62980764,16.5763507 L0.449856902,18.6058409 C0.422172172,18.967257 0.685177099,19.2452693 1.03123621,19.2452693 L1.93098991,19.2452693 C2.29089138,19.2452693 2.5954234,18.9533564 2.62310813,18.6058409 L2.74768941,17.1601767 C3.38443818,9.80674983 9.47507858,3.3846644 16.8253741,2.91204339 C24.8816303,2.39772053 30.9861131,8.76420349 30.2939948,16.6875557 L30.1278865,18.6058409 C30.1002017,18.967257 30.3632067,19.2452693 30.7092658,19.2452693 L31.6090195,19.2452693 C31.9689209,19.2452693 32.273453,18.9533564 32.3011377,18.6058409 L32.5226155,16.0481272 C33.3116303,7.11002997 26.6396106,-0.118291295 17.6974431,0.0485161188 Z" fill="#407BFF"></path>
                                    <path d="M17.6974431,0.0485161188 C8.90754163,0.215323533 1.39113769,7.76335901 0.62980764,16.5763507 L0.449856902,18.6058409 C0.422172172,18.967257 0.685177099,19.2452693 1.03123621,19.2452693 L1.93098991,19.2452693 C2.29089138,19.2452693 2.5954234,18.9533564 2.62310813,18.6058409 L2.74768941,17.1601767 C3.38443818,9.80674983 9.47507858,3.3846644 16.8253741,2.91204339 C24.8816303,2.39772053 30.9861131,8.76420349 30.2939948,16.6875557 L30.1278865,18.6058409 C30.1002017,18.967257 30.3632067,19.2452693 30.7092658,19.2452693 L31.6090195,19.2452693 C31.9689209,19.2452693 32.273453,18.9533564 32.3011377,18.6058409 L32.5226155,16.0481272 C33.3116303,7.11002997 26.6396106,-0.118291295 17.6974431,0.0485161188 Z" fill="#FFFFFF" opacity="0.8"></path>
                                </g>
                                <g transform="translate(15.226601, 21.429531)">
                                    <g>
                                        <path d="M2.83768473,14.0813259 L2.83768473,14.0813259 C1.13507389,14.0813259 -0.124581281,12.6912641 0.0276847291,10.9814881 L0.705960591,3.21104272 C0.858226601,1.50126672 2.35320197,0.111204943 4.05581281,0.111204943 L4.05581281,0.111204943 C5.62,0.111204943 6.78275862,1.39006178 6.64433498,2.9608316 L5.92453202,11.2316992 C5.78610837,12.802469 4.40187192,14.0813259 2.83768473,14.0813259 Z" fill="#407BFF"></path>
                                        <path d="M2.83768473,14.0813259 L2.83768473,14.0813259 C1.13507389,14.0813259 -0.124581281,12.6912641 0.0276847291,10.9814881 L0.705960591,3.21104272 C0.858226601,1.50126672 2.35320197,0.111204943 4.05581281,0.111204943 L4.05581281,0.111204943 C5.62,0.111204943 6.78275862,1.39006178 6.64433498,2.9608316 L5.92453202,11.2316992 C5.78610837,12.802469 4.40187192,14.0813259 2.83768473,14.0813259 Z" fill="#FFFFFF" opacity="0.5"></path>
                                    </g>
                                    <g transform="translate(31.837438, 0.000000)">
                                        <path d="M3.50211823,14.0813259 L3.50211823,14.0813259 C1.79950739,14.0813259 0.539852217,12.6912641 0.692118227,10.9814881 L1.37039409,3.21104272 C1.5226601,1.50126672 3.01763547,0.111204943 4.72024631,0.111204943 L4.72024631,0.111204943 C6.2844335,0.111204943 7.44719212,1.39006178 7.30876847,2.9608316 L6.58896552,11.2316992 C6.45054187,12.802469 5.06630542,14.0813259 3.50211823,14.0813259 Z" fill="#407BFF"></path>
                                        <path d="M3.50211823,14.0813259 L3.50211823,14.0813259 C1.79950739,14.0813259 0.539852217,12.6912641 0.692118227,10.9814881 L1.37039409,3.21104272 C1.5226601,1.50126672 3.01763547,0.111204943 4.72024631,0.111204943 L4.72024631,0.111204943 C6.2844335,0.111204943 7.44719212,1.39006178 7.30876847,2.9608316 L6.58896552,11.2316992 C6.45054187,12.802469 5.06630542,14.0813259 3.50211823,14.0813259 Z" fill="#FFFFFF" opacity="0.5"></path>
                                    </g>
                                </g>
                            </g>
                            <g transform="translate(113.507389, 137.616116)" id="Path">
                                <g>
                                    <path d="M41.2502463,27.4120183 L1.97945813,27.4120183 C0.705960591,27.4120183 0.124581281,26.369472 0.692118227,25.0906152 L10.5478818,2.83572604 C11.1154187,1.5568692 12.6103941,0.514322859 13.897734,0.514322859 L53.1685222,0.514322859 C54.4420197,0.514322859 55.023399,1.5568692 54.4558621,2.83572604 L44.6000985,25.0906152 C44.0187192,26.369472 42.5237438,27.4120183 41.2502463,27.4120183 Z" fill="#407BFF"></path>
                                    <path d="M41.2502463,27.4120183 L1.97945813,27.4120183 C0.705960591,27.4120183 0.124581281,26.369472 0.692118227,25.0906152 L10.5478818,2.83572604 C11.1154187,1.5568692 12.6103941,0.514322859 13.897734,0.514322859 L53.1685222,0.514322859 C54.4420197,0.514322859 55.023399,1.5568692 54.4558621,2.83572604 L44.6000985,25.0906152 C44.0187192,26.369472 42.5237438,27.4120183 41.2502463,27.4120183 Z" fill="#000000" opacity="0.2"></path>
                                    <path d="M54.8572906,0.514322859 L53.1546798,0.514322859 C54.4281773,0.514322859 55.0095567,1.5568692 54.4420197,2.83572604 L44.5862562,25.0906152 C44.0187192,26.369472 42.5237438,27.4120183 41.2364039,27.4120183 L42.9390148,27.4120183 C44.2125123,27.4120183 45.72133,26.369472 46.288867,25.0906152 L56.1446305,2.83572604 C56.7121675,1.5568692 56.1446305,0.514322859 54.8572906,0.514322859 Z" fill="#407BFF"></path>
                                    <path d="M54.8572906,0.514322859 L53.1546798,0.514322859 C54.4281773,0.514322859 55.0095567,1.5568692 54.4420197,2.83572604 L44.5862562,25.0906152 C44.0187192,26.369472 42.5237438,27.4120183 41.2364039,27.4120183 L42.9390148,27.4120183 C44.2125123,27.4120183 45.72133,26.369472 46.288867,25.0906152 L56.1446305,2.83572604 C56.7121675,1.5568692 56.1446305,0.514322859 54.8572906,0.514322859 Z" fill="#000000" opacity="0.4"></path>
                                </g>
                                <g transform="translate(4.962508, 2.780124)">
                                    <polygon fill="#263238" points="35.5540934 22.0741811 0.0069012365 22.0741811 9.65502932 0.291912974 45.2022214 0.291912974"></polygon>
                                    <polygon fill="#FFFFFF" opacity="0.8" points="35.5540934 22.0741811 0.0069012365 22.0741811 9.65502932 0.291912974 45.2022214 0.291912974"></polygon>
                                </g>
                                <g transform="translate(4.962508, 11.931952)">
                                    <path d="M9.84882242,0.49520069 C8.36768941,0.49520069 6.85887168,0.62030625 5.36389631,0.842716135 L0.020743601,12.922353 L24.5770983,12.922353 C25.6152756,5.8052367 19.7184283,0.49520069 9.84882242,0.49520069 Z" fill="#407BFF"></path>
                                    <path d="M9.84882242,0.49520069 C8.36768941,0.49520069 6.85887168,0.62030625 5.36389631,0.842716135 L0.020743601,12.922353 L24.5770983,12.922353 C25.6152756,5.8052367 19.7184283,0.49520069 9.84882242,0.49520069 Z" fill="#FFFFFF" opacity="0.5"></path>
                                </g>
                                <g opacity="0.7" transform="translate(20.189109, 6.950309)" fill="#FFFFFF">
                                    <path d="M9.3504973,4.96252056 C8.6860638,7.49243301 6.111384,9.53582383 3.59207365,9.53582383 C1.07276331,9.53582383 -0.436054429,7.49243301 0.228379069,4.96252056 C0.892812567,2.43260812 3.46749237,0.389217299 5.98680271,0.389217299 C8.50611306,0.389217299 10.0149308,2.43260812 9.3504973,4.96252056 Z"></path>
                                </g>
                            </g>
                            <g transform="translate(20.763547, 31.392817)" id="Path">
                                <g transform="translate(10.499453, 14.479222)">
                                    <polygon fill="#FAB27B" points="24.3694628 37.9625873 25.1446352 47.2203987 10.9285269 46.6504734 11.8144382 35.5021779"></polygon>
                                    <path d="M24.757049,42.5636918 C20.7289209,41.4933442 19.4969505,38.6576182 19.4969505,38.6576182 L21.4348815,37.3787613 L24.3694628,37.9486867 L24.757049,42.5636918 Z" fill="#000000" opacity="0.2"></path>
                                    <path d="M32.0935022,11.5931153 C32.3980342,12.3437486 32.2457682,13.1221832 31.7336007,13.3167919 C31.2214333,13.5114005 30.529315,13.0387795 30.2524677,12.2881462 C29.9756204,11.5375128 30.1002017,10.7590782 30.6123692,10.5644695 C31.1245367,10.3976621 31.7751278,10.8424819 32.0935022,11.5931153 Z" fill="#263238"></path>
                                    <path d="M31.3321722,14.4705432 L37.4504973,18.9465421 C37.4504973,18.9465421 36.0108914,21.1289391 32.8409899,21.1984422 L31.3321722,14.4705432 Z" fill="#ED893E"></path>
                                    <path d="M0.948182025,20.1002934 C4.53335444,30.3450487 5.8345367,34.7654452 12.7141919,38.6576182 C22.4592165,41.8825615 35.1388224,37.9625873 34.7512362,26.8698943 C34.4051771,16.8892507 28.6052264,1.84878217 17.0053249,0.458720388 C8.72759089,-0.528223477 1.21118695,5.24053292 0.20069434,13.3445931 C-0.10383768,15.6381951 0.159167246,17.9456976 0.948182025,20.1002934 Z" fill="#FAB27B"></path>
                                    <path d="M28.3145367,9.54972444 C28.4529603,9.5914263 28.6052264,9.56362506 28.7159653,9.46632074 C29.5049801,8.74348861 30.6123692,8.45157564 31.6782313,8.68788614 C31.8997091,8.75738923 32.1350293,8.63228367 32.2042411,8.40987378 C32.2596106,8.1874639 32.1350293,7.93725278 31.8997091,7.86774969 C30.5569998,7.53413486 29.1450786,7.89555092 28.1484283,8.8129917 C27.9684776,8.9658985 27.9546352,9.24391085 28.1069012,9.42461888 L28.1069012,9.42461888 C28.1622707,9.48022136 28.2314825,9.53582383 28.3145367,9.54972444 Z" fill="#263238"></path>
                                </g>
                                <path d="M28.9028571,22.3330713 C28.9028571,22.3330713 42.7867488,43.1283956 24.570197,52.7059212 C24.570197,52.7059212 23.2136453,53.1368404 16.5831527,51.2880582 C16.5831527,51.2880582 -5.32931034,42.4333647 6.45054187,19.2471341 C11.959803,8.41855285 11.2123153,2.96951066 16.1955665,2.12157298 C18.2027094,1.77405753 20.9850246,4.67928665 19.2824138,9.66960845 C19.2824138,9.66960845 20.8050739,-0.700252443 25.8436946,0.0920827729 C29.2350739,0.62030625 31.5605911,3.28922487 28.9166995,8.0710374 C28.9166995,8.0710374 35.3810837,3.59503846 37.1805911,7.43160898 C38.5509852,10.3368381 33.5815764,10.1978319 31.9897044,13.394974 C31.9897044,13.394974 35.2703448,11.0596702 37.6097044,13.7146882 C39.6030049,16.0221908 40.1290148,21.1654194 28.9028571,22.3330713 Z" fill="#263238"></path>
                                <path d="M5.16320197,24.9602881 C5.16320197,24.9602881 1.66108374,20.5954941 2.93458128,17.3010476 C4.20807882,14.0066012 -5.53694581,21.4573324 5.16320197,24.9602881 Z" fill="#263238"></path>
                                <path d="M32.3219212,28.37984 C34.5228571,29.436287 36.2116256,31.2989698 37.0144828,33.5786711 C38.0526601,36.6090058 35.3257143,38.3048812 32.3219212,37.6237509 C29.6088177,37.0121237 25.8298522,34.6907205 26.1066995,31.5630815 C26.3697044,28.4354425 29.6088177,27.1148838 32.3219212,28.37984 Z" fill="#FAB27B"></path>
                                <path d="M23.9057635,36.0668817 C25.594532,41.0294023 29.7610837,44.1014388 34.7028079,42.4055634 C39.644532,40.7096881 41.0841379,35.7332669 39.4092118,30.7707463 C37.7204433,25.8082257 33.5538916,22.7361892 28.6121675,24.4320646 C23.6704433,26.12794 22.2308374,31.1043611 23.9057635,36.0668817 Z" fill="#407BFF"></path>
                                <path d="M23.9057635,36.0668817 C25.594532,41.0294023 29.7610837,44.1014388 34.7028079,42.4055634 C39.644532,40.7096881 41.0841379,35.7332669 39.4092118,30.7707463 C37.7204433,25.8082257 33.5538916,22.7361892 28.6121675,24.4320646 C23.6704433,26.12794 22.2308374,31.1043611 23.9057635,36.0668817 Z" fill="#FFFFFF" opacity="0.7"></path>
                                <path d="M26.1897537,35.2884471 C27.380197,38.7914028 30.3286207,40.9598992 33.8168966,39.764446 C37.3051724,38.5689929 38.3295074,35.0521366 37.139064,31.5491809 C35.9486207,28.0462252 33.000197,25.8777288 29.5119212,27.073182 C26.009803,28.2686351 24.9993103,31.7854914 26.1897537,35.2884471 Z" fill="#407BFF"></path>
                                <path d="M26.1897537,35.2884471 C27.380197,38.7914028 30.3286207,40.9598992 33.8168966,39.764446 C37.3051724,38.5689929 38.3295074,35.0521366 37.139064,31.5491809 C35.9486207,28.0462252 33.000197,25.8777288 29.5119212,27.073182 C26.009803,28.2686351 24.9993103,31.7854914 26.1897537,35.2884471 Z" fill="#FFFFFF" opacity="0.3"></path>
                                <g transform="translate(6.921182, 9.730432)">
                                    <path d="M22.1062562,13.6451852 C19.8499507,9.71131031 12.5134975,-0.352736997 3.64054187,0.523001925 C2.76847291,0.606405632 2.00714286,1.17633096 1.63339901,1.9825668 L0.968965517,3.42823105 C0.290689655,4.88779592 1.13507389,6.59757191 2.71310345,6.94508736 C6.60280788,7.79302505 13.330197,10.1005276 18.2303941,16.2724019 C18.797931,16.9813334 19.8084236,17.1620415 20.5974384,16.6894205 L21.4695074,16.161197 C22.3000493,15.6329735 22.6045813,14.5209241 22.1062562,13.6451852 Z" fill="#407BFF"></path>
                                    <path d="M22.1062562,13.6451852 C19.8499507,9.71131031 12.5134975,-0.352736997 3.64054187,0.523001925 C2.76847291,0.606405632 2.00714286,1.17633096 1.63339901,1.9825668 L0.968965517,3.42823105 C0.290689655,4.88779592 1.13507389,6.59757191 2.71310345,6.94508736 C6.60280788,7.79302505 13.330197,10.1005276 18.2303941,16.2724019 C18.797931,16.9813334 19.8084236,17.1620415 20.5974384,16.6894205 L21.4695074,16.161197 C22.3000493,15.6329735 22.6045813,14.5209241 22.1062562,13.6451852 Z" fill="#FFFFFF" opacity="0.2"></path>
                                </g>
                            </g>
                            <g transform="translate(2.768473, 88.385350)">
                                <g transform="translate(125.391079, 57.571137)" id="Path">
                                    <path d="M13.0879357,6.40818482 L2.60926577,0.583825949 C2.02788646,0.264111739 1.32192587,0.403117917 1.04507858,0.903540159 L0.671334734,1.57076981 C0.394487443,2.07119206 0.643650005,2.75232233 1.23887168,3.07203654 L11.7175416,8.89639541 L18.680251,13.4279968 L22.5422707,13.8867172 C23.1098076,13.9562203 23.428182,13.386295 23.0682805,12.9414752 L20.618182,9.89723989 L13.0879357,6.40818482 Z" fill="#263238"></path>
                                    <polygon fill="#263238" points="17.351384 12.5800591 19.1924185 9.24391085 14.541384 7.07541447 13.060251 9.77213433"></polygon>
                                    <polygon fill="#FFFFFF" opacity="0.6" points="17.351384 12.5800591 19.1924185 9.24391085 14.541384 7.07541447 13.060251 9.77213433"></polygon>
                                </g>
                                <g>
                                    <g transform="translate(89.400931, 197.967377)">
                                        <polygon id="Path" fill="#FAB27B" points="8.50611306 0.31971421 7.27414262 11.8989289 19.4969505 14.1786302 21.6840441 1.61247167"></polygon>
                                        <g>
                                            <g transform="translate(0.000000, 9.730432)">
                                                <path d="M21.642517,5.17102983 C21.5317781,5.11542736 21.4487239,5.00422242 21.4487239,4.86521624 C21.4487239,4.74011068 21.5456204,4.62890574 21.6563594,4.58720388 C21.8778372,4.51770079 26.8472461,2.9608316 28.8405466,4.01727855 C29.2142904,4.2118872 29.4911377,4.53160141 29.6295613,4.93471933 C29.8233544,5.3795391 29.7264579,5.90776257 29.3665564,6.25527802 C28.7021229,6.82520335 26.9995121,6.75570026 25.4214825,6.3942842 C24.147985,6.08847061 22.8744874,5.68535269 21.642517,5.17102983 Z M22.7083791,4.97642118 C25.0062116,5.79655763 28.2037978,6.47768791 28.9789702,5.78265701 C29.0897091,5.69925331 29.200448,5.53244589 29.0620244,5.11542736 C28.9928126,4.86521624 28.8128618,4.65670697 28.5636993,4.55940265 C28.3837485,4.46209832 28.2037978,4.39259523 28.0100047,4.35089338 C26.2104973,4.22578782 24.4109899,4.43429709 22.7083791,4.97642118 Z" id="Shape" fill="#407BFF"></path>
                                                <path d="M21.490251,5.11542736 C21.4071968,5.03202365 21.3795121,4.92081871 21.4210392,4.80961377 C21.4764086,4.65670697 22.5699554,1.29275746 24.4663594,0.31971421 C25.0200539,0.0278012356 25.6568027,-0.0278012356 26.2520244,0.180708032 C27.0548815,0.44481977 27.2209899,0.917440776 27.1794628,1.27885684 C27.1379357,2.76622295 23.4835515,4.85131562 21.8224677,5.19883107 C21.7809406,5.21273168 21.7394136,5.19883107 21.6978865,5.18493045 C21.6148323,5.18493045 21.5456204,5.15712921 21.490251,5.11542736 Z M25.9198076,0.708931509 C25.5460638,0.625527802 25.1446352,0.667229656 24.7985761,0.861838305 C23.6081328,1.75147785 22.7222214,2.98863283 22.2654234,4.39259523 C24.0372461,3.80876928 26.5150293,2.08509267 26.6257682,1.20935375 C26.6257682,1.12595004 26.6257682,0.903540159 26.0997584,0.736732745 L25.9198076,0.708931509 L25.9198076,0.708931509 Z" id="Shape" fill="#407BFF"></path>
                                                <path d="M20.7427633,3.09983777 L6.90039877,0.0417018535 C6.37438892,-0.0695030891 5.84837907,0.19460865 5.62690124,0.681130273 L0.643650005,11.4263079 C0.20069434,12.3715499 0.602122911,13.5114005 1.5434037,13.9562203 C1.66798498,14.0118228 1.79256626,14.0535246 1.91714754,14.0952265 C6.9280835,15.1099716 11.4130096,15.8189031 17.6282313,17.1950642 C24.9508421,18.8214365 22.9021722,19.2801569 31.4844382,21.3096471 C36.6614825,22.5329015 38.9039456,16.8058469 36.7722214,16.0274124 C26.9718273,12.5244567 26.5980835,9.24391085 23.5112362,4.76791191 C22.8329603,3.89217299 21.8363101,3.29444642 20.7427633,3.09983777 Z" id="Path" fill="#263238"></path>
                                            </g>
                                            <polygon id="Path" fill="#000000" opacity="0.2" points="7.88320666 6.19967555 8.50611306 0.31971421 21.6840441 1.61247167 20.618182 7.68704166"></polygon>
                                        </g>
                                    </g>
                                    <path d="M122.58798,121.903197 L112.261576,200.580694 L94.2803448,199.093328 C94.2803448,199.093328 96.0244828,158.586927 96.6335468,124.321904 L122.58798,121.903197 Z" id="Path" fill="#263238"></path>
                                    <polygon id="Path" fill="#407BFF" points="113.839606 197.57816 93.49133 195.423564 92.5638916 201.206221 112.815271 203.138407"></polygon>
                                    <path d="M10.2018227,32.6612303 C10.2018227,32.6612303 1.89640394,46.9093636 4.31881773,50.7320335 C6.74123153,54.5547034 18.0781281,53.6789645 18.0781281,53.6789645 L22.4523153,36.3031922 L10.2018227,32.6612303 Z" id="Path" fill="#FAB27B"></path>
                                    <path d="M33.4708374,7.47331084 C33.4708374,7.47331084 20.846601,4.97119963 14.9497537,17.1342402 C9.0529064,29.2972808 7.3364532,34.8575279 7.3364532,34.8575279 C7.3364532,34.8575279 13.3994089,40.0702596 23.9472906,39.7227442 L33.4708374,7.47331084 Z" id="Path" fill="#407BFF"></path>
                                    <path d="M33.4708374,7.47331084 C33.4708374,7.47331084 20.846601,4.97119963 14.9497537,17.1342402 C9.0529064,29.2972808 7.3364532,34.8575279 7.3364532,34.8575279 C7.3364532,34.8575279 13.3994089,40.0702596 23.9472906,39.7227442 L33.4708374,7.47331084 Z" id="Path" fill="#000000" opacity="0.2"></path>
                                    <g transform="translate(155.844281, 200.747501)">
                                        <polygon id="Path" fill="#FAB27B" points="0.62980764 4.10068226 3.50901946 15.3601827 15.7456697 13.2194875 13.4201525 0.681130273"></polygon>
                                        <g>
                                            <g transform="translate(0.000000, 6.371705)">
                                                <path d="M18.0158175,6.76437933 C17.8912362,6.75047871 17.7804973,6.667075 17.7389702,6.54196944 C17.6974431,6.41686388 17.7389702,6.2778577 17.8358668,6.20835462 C18.0158175,6.06934844 22.1408421,2.85830572 24.3694628,3.15021869 C24.7847337,3.19192055 25.1584776,3.40042981 25.4353249,3.73404464 C25.781384,4.08156009 25.8644382,4.62368418 25.6429603,5.05460334 C25.213847,5.81913732 23.5942904,6.34736079 22.0024185,6.56977068 C20.6735515,6.76437933 19.3446845,6.8199818 18.0158175,6.76437933 Z M18.9432559,6.22225523 C21.3795121,6.18055338 24.6186254,5.69403176 25.0892658,4.77659098 C25.1584776,4.66538604 25.213847,4.47077739 24.9369998,4.12326194 C24.7847337,3.91475267 24.5355712,3.78964711 24.2725663,3.7757465 C24.0787732,3.74794526 23.8711377,3.74794526 23.6773446,3.7757465 C21.9747337,4.29006936 20.3551771,5.11020581 18.9432559,6.22225523 Z" id="Shape" fill="#407BFF"></path>
                                                <path d="M17.8497091,6.77827995 C17.7528126,6.73657809 17.6836007,6.63927377 17.6697584,6.52806883 C17.6697584,6.36126141 17.5174924,2.83050448 18.9709406,1.24583405 C19.3862116,0.787113664 19.9675909,0.509101308 20.5904973,0.481300072 C21.4348815,0.453498836 21.7670983,0.828815518 21.8363101,1.17633096 C22.3207929,2.59419398 19.6215318,5.81913732 18.1819259,6.72267747 C18.1403988,6.75047871 18.0988717,6.76437933 18.0573446,6.75047871 C18.0019751,6.79218056 17.9189209,6.79218056 17.8497091,6.77827995 Z M20.465916,1.09292726 C20.0783298,1.14852973 19.7322707,1.32923776 19.4692658,1.62115073 C18.6664086,2.87220634 18.2649801,4.33177121 18.3203495,5.81913732 C19.7737978,4.65148542 21.5040934,2.17717545 21.2964579,1.30143652 C21.2687732,1.23193343 21.1995613,1.00952355 20.6458668,1.03732478 L20.465916,1.09292726 L20.465916,1.09292726 Z" id="Shape" fill="#407BFF"></path>
                                                <path d="M16.4516303,5.15190766 L2.42931503,7.13969601 C1.90330518,7.2091991 1.48803424,7.65401887 1.44650715,8.18224235 L0.519068724,19.9977675 C0.436014537,21.0403138 1.19734459,21.9716552 2.24936429,22.0550589 C2.38778794,22.0689596 2.51236922,22.0689596 2.65079286,22.0411583 C7.68941355,21.2349225 12.1466549,20.3174817 18.4449308,19.4417428 C25.8782805,18.3852958 24.1203003,19.5529477 32.8686746,18.4408983 C38.1426155,17.759768 38.2671968,11.6156949 35.9832067,11.6434962 C25.5875909,11.796403 24.0926155,8.849472 19.6353741,5.73573361 C18.680251,5.15190766 17.5451771,4.94339839 16.4516303,5.15190766 Z" id="Path" fill="#263238"></path>
                                            </g>
                                            <polygon id="Path" fill="#000000" opacity="0.2" points="2.09709828 9.8277368 0.62980764 4.10068226 13.4201525 0.681130273 14.541384 6.74179964"></polygon>
                                        </g>
                                    </g>
                                    <path d="M81.4623153,98.397252 C81.4623153,98.397252 83.2341379,35.1355403 76.2022167,14.1734086 C70.25,-3.57768033 26.0236453,3.05291437 19.4485222,12.088316 C12.873399,21.1237175 19.7945813,37.4569435 21.870936,61.7830247 L32.9448276,100.357239 L50.8706897,104.527424 L81.4623153,98.397252 Z" id="Path" fill="#407BFF"></path>
                                    <path d="M82.099064,95.2140105 C82.099064,95.2140105 151.075567,95.2140105 156.917044,117.288192 C162.260197,137.430187 169.679704,202.040259 169.679704,202.040259 L154.425419,204.528469 C154.425419,204.528469 136.69335,153.610506 129.606059,128.325282 L88.8264532,128.686698 L78.5415764,102.692543 L82.099064,95.2140105 Z" id="Path" fill="#263238"></path>
                                    <path d="M82.099064,95.2140105 C82.099064,95.2140105 151.075567,95.2140105 156.917044,117.288192 C162.260197,137.430187 169.679704,202.040259 169.679704,202.040259 L154.425419,204.528469 C154.425419,204.528469 136.69335,153.610506 129.606059,128.325282 L88.8264532,128.686698 L78.5415764,102.692543 L82.099064,95.2140105 Z" id="Path" fill="#FFFFFF" opacity="0.1"></path>
                                    <path d="M59.9651232,7.90422999 C59.9651232,7.90422999 61.6954187,3.90085206 56.6706404,2.07987112 C51.6458621,0.258890187 29.0689655,-3.007755 32.9725123,8.57145965 C32.9725123,8.57145965 50.7737931,7.00068983 59.9651232,7.90422999 Z" id="Path" fill="#407BFF"></path>
                                    <polygon id="Path" fill="#407BFF" points="172.489704 204.584072 171.506897 198.801415 151.670788 202.151463 153.345714 207.906319"></polygon>
                                    <path d="M129.758325,71.2076436 C129.758325,71.2076436 95.1108867,70.6377182 87.7605911,62.2695463 C80.4102956,53.915275 73.2399507,43.2535011 73.2399507,43.2535011 L86.6393596,35.1494409 L99.0974877,53.4565546 L129.509163,66.3841292 L129.758325,71.2076436 Z" id="Path" fill="#FAB27B"></path>
                                    <path d="M64.2839409,8.68266459 C72.4232512,4.52637986 78.6246305,10.3507387 89.6985222,36.4143971 C89.6985222,36.4143971 86.653202,39.875651 82.7773399,43.3369048 C76.7143842,48.7581458 72.7416256,49.9674995 72.7416256,49.9674995 C72.7416256,49.9674995 43.3404433,19.3861403 64.2839409,8.68266459 Z" id="Path" fill="#407BFF"></path>
                                    <path d="M64.2839409,8.68266459 C72.4232512,4.52637986 78.6246305,10.3507387 89.6985222,36.4143971 C89.6985222,36.4143971 86.653202,39.875651 82.7773399,43.3369048 C76.7143842,48.7581458 72.7416256,49.9674995 72.7416256,49.9674995 C72.7416256,49.9674995 43.3404433,19.3861403 64.2839409,8.68266459 Z" id="Path" fill="#000000" opacity="0.2"></path>
                                    <g transform="translate(0.000000, 40.890396)" id="Path">
                                        <path d="M15.5588177,0.0417018535 L32.6264532,0.0417018535 C52.5456158,0.0417018535 70.097734,13.1777857 75.8007882,32.3328371 L87.6360099,72.1164053 C89.615468,78.7887018 95.7337931,83.3620051 102.668818,83.3620051 L124.262906,83.3620051 C129.910591,83.3620051 134.492414,87.9631096 134.492414,93.6345617 L76.3960099,93.6345617 C75.3024631,106.895751 72.3678818,147.874772 76.7559113,158.508745 C80.617931,167.863861 98.2531034,177.413585 108.662562,182.376106 C110.420542,183.210143 109.811478,185.85126 107.873547,185.85126 L26.7019212,185.85126 C24.7639901,185.85126 24.1687685,183.210143 25.9129064,182.376106 C36.3362069,177.413585 53.9713793,167.863861 57.8195567,158.508745 C62.2075862,147.874772 59.2730049,106.895751 58.1794581,93.6345617 L27.2833005,93.6345617 C15.378867,93.6345617 5.46773399,84.4462533 4.5264532,72.5195232 L0.124581281,16.7919463 C-0.567536946,7.77044536 6.54743842,0.0417018535 15.5588177,0.0417018535 Z" fill="#407BFF"></path>
                                        <path d="M15.5588177,0.0417018535 L32.6264532,0.0417018535 C52.5456158,0.0417018535 70.097734,13.1777857 75.8007882,32.3328371 L87.6360099,72.1164053 C89.615468,78.7887018 95.7337931,83.3620051 102.668818,83.3620051 L124.262906,83.3620051 C129.910591,83.3620051 134.492414,87.9631096 134.492414,93.6345617 L76.3960099,93.6345617 C75.3024631,106.895751 72.3678818,147.874772 76.7559113,158.508745 C80.617931,167.863861 98.2531034,177.413585 108.662562,182.376106 C110.420542,183.210143 109.811478,185.85126 107.873547,185.85126 L26.7019212,185.85126 C24.7639901,185.85126 24.1687685,183.210143 25.9129064,182.376106 C36.3362069,177.413585 53.9713793,167.863861 57.8195567,158.508745 C62.2075862,147.874772 59.2730049,106.895751 58.1794581,93.6345617 L27.2833005,93.6345617 C15.378867,93.6345617 5.46773399,84.4462533 4.5264532,72.5195232 L0.124581281,16.7919463 C-0.567536946,7.77044536 6.54743842,0.0417018535 15.5588177,0.0417018535 Z" fill="#FFFFFF" opacity="0.7"></path>
                                        <path d="M75.6346798,103.670808 L58.9407882,103.670808 C58.6639409,99.6118273 58.400936,96.1366729 58.1933005,93.6484623 L76.3960099,93.6484623 C76.1883744,96.1366729 75.9115271,99.6118273 75.6346798,103.670808 Z" fill="#000000" opacity="0.1"></path>
                                    </g>
                                </g>
                            </g>
                            <g transform="translate(139.233444, 59.772657)">
                                <g>
                                    <g id="Path">
                                        <path d="M4.13192587,62.6222833 L57.6465071,62.6222833 C59.958182,62.6222833 61.9376402,60.7317993 62.0622214,58.4103961 L64.8722214,4.67060759 C64.9968027,2.34920441 63.2111377,0.458720388 60.8994628,0.458720388 L7.38488153,0.458720388 C5.07320666,0.458720388 3.09374853,2.34920441 2.96916725,4.67060759 L0.159167246,58.4103961 C0.0345859656,60.7456999 1.82025099,62.6222833 4.13192587,62.6222833 Z" fill="#407BFF"></path>
                                        <path d="M4.13192587,62.6222833 L57.6465071,62.6222833 C59.958182,62.6222833 61.9376402,60.7317993 62.0622214,58.4103961 L64.8722214,4.67060759 C64.9968027,2.34920441 63.2111377,0.458720388 60.8994628,0.458720388 L7.38488153,0.458720388 C5.07320666,0.458720388 3.09374853,2.34920441 2.96916725,4.67060759 L0.159167246,58.4103961 C0.0345859656,60.7456999 1.82025099,62.6222833 4.13192587,62.6222833 Z" fill="#FFFFFF" opacity="0.3"></path>
                                    </g>
                                    <g transform="translate(6.111384, 2.201519)">
                                        <g transform="translate(8.305419, 0.000000)">
                                            <path d="M29.4427094,4.56808171 C29.4427094,4.56808171 40.4197044,6.61147253 34.3705911,41.8078369 L30.2870936,44.3516499 L31.2422167,37.9712663 L28.7229064,44.9910783 C28.7229064,44.9910783 24.1826108,46.1865315 17.62133,46.5201463 C11.0600493,46.8537611 8.13931034,44.9910783 8.13931034,44.9910783 L6.92118227,39.7088436 L6.64433498,44.9910783 L1.92408867,42.9337869 C1.92408867,42.9337869 -2.24246305,19.7336558 7.32261084,5.83303793 L16.9153695,3.65064094 L20.2375369,3.65064094 L29.4427094,4.56808171 Z" id="Path" fill="#263238"></path>
                                            <path d="M26.3835468,50.2872137 C26.3835468,50.2872137 23.089064,47.2012766 23.0198522,39.7088436 L12.6657635,39.7088436 C12.6657635,39.7088436 12.0290148,50.2872137 7.00423645,50.2872137 L26.3835468,50.2872137 Z" id="Path" fill="#CE7A63"></path>
                                            <path d="M23.0336946,39.7088436 C23.0475369,41.3213152 23.2136453,42.711377 23.4628079,43.9346314 C21.870936,44.5462586 19.9330049,45.004979 17.6766995,45.004979 C15.531133,45.004979 13.6485714,44.5045567 12.0566995,43.8095258 C12.568867,41.6132282 12.6934483,39.7088436 12.6934483,39.7088436 L23.0336946,39.7088436 Z" id="Path" fill="#000000" opacity="0.1"></path>
                                            <ellipse id="Oval" fill="#CE7A63" transform="translate(19.222155, 23.312480) rotate(-82.408764) translate(-19.222155, -23.312480) " cx="19.2221552" cy="23.3124796" rx="19.7089147" ry="15.2271511"></ellipse>
                                            <path d="M18.1334975,24.1957541 C17.6628571,26.0028344 16.9568966,27.7543122 16.0294581,29.3806845 C16.86,29.7977031 17.8566502,29.8255043 18.7425616,29.436287 L18.1334975,24.1957541 Z" id="Path" fill="#BA4D3C"></path>
                                            <g transform="translate(22.957582, 19.460865)" fill="#263238" id="Path">
                                                <path d="M1.90330518,4.80439221 C1.91714754,5.52722434 1.5434037,6.12495091 1.07276331,6.15275214 C0.602122911,6.18055338 0.228379069,5.62452867 0.214536704,4.91559716 C0.20069434,4.19276503 0.574438182,3.59503846 1.04507858,3.56723723 C1.51571897,3.53943599 1.90330518,4.09546071 1.90330518,4.80439221 Z"></path>
                                                <path d="M4.57488153,2.28838039 C4.64409335,2.28838039 4.71330518,2.26057915 4.782517,2.23277792 C4.96246774,2.07987112 4.99015247,1.81575938 4.85172882,1.63505135 C4.03502932,0.592505015 2.76153178,0.0364803016 1.41882242,0.133784626 C1.18350222,0.161585862 1.01739385,0.383995747 1.03123621,0.606405632 C1.04507858,0.842716135 1.25271404,0.995622931 1.48803424,0.967821696 L1.48803424,0.967821696 C2.55389631,0.898318607 3.56438892,1.35703899 4.18729533,2.19107606 C4.29803424,2.28838039 4.43645789,2.31618162 4.57488153,2.28838039 Z"></path>
                                            </g>
                                            <g transform="translate(9.115217, 19.460865)" fill="#263238" id="Path">
                                                <path d="M2.98300961,4.80439221 C2.89995542,5.52722434 3.20448744,6.12495091 3.66128547,6.15275214 C4.13192587,6.18055338 4.56103917,5.62452867 4.65793572,4.91559716 C4.74098991,4.19276503 4.43645789,3.59503846 3.96581749,3.56723723 C3.4951771,3.53943599 3.0660638,4.09546071 2.98300961,4.80439221 Z"></path>
                                                <path d="M0.574438182,2.28838039 C0.50522636,2.28838039 0.436014537,2.26057915 0.366802714,2.23277792 C0.214536704,2.07987112 0.20069434,1.81575938 0.35296035,1.63505135 C1.26655641,0.592505015 2.60926577,0.0364803016 3.95197513,0.133784626 C4.18729533,0.161585862 4.32571897,0.383995747 4.28419188,0.606405632 C4.24266478,0.842716135 4.02118695,0.995622931 3.78586675,0.967821696 L3.78586675,0.967821696 C2.72000468,0.898318607 1.66798498,1.35703899 0.948182025,2.19107606 C0.851285473,2.28838039 0.712861828,2.31618162 0.574438182,2.28838039 Z"></path>
                                            </g>
                                            <path d="M17.5382759,35.1633415 C17.1091626,35.1633415 16.6800493,35.1216397 16.2647783,35.0521366 C16.140197,35.038236 16.0709852,34.9131304 16.09867,34.7880249 C16.09867,34.7880249 16.09867,34.7880249 16.09867,34.7741242 C16.1263547,34.6490187 16.2370936,34.565615 16.3616749,34.5934162 C18.2303941,34.9687329 20.2236946,34.4127082 21.7048276,33.1199507 C21.7878818,33.0226464 21.9401478,33.0226464 22.023202,33.1060501 C22.1062562,33.1894538 22.1062562,33.32846 22.023202,33.4257643 C20.7912315,34.5517144 19.1716749,35.1772422 17.5382759,35.1633415 Z" id="Path" fill="#263238"></path>
                                            <path d="M35.2288177,25.2243998 C35.2288177,25.2243998 29.0135961,23.0976053 29.3042857,9.32209301 C29.3042857,9.32209301 24.3210345,16.2028988 14.2299507,15.4383648 C14.2299507,15.4383648 22.5907389,14.6738309 27.227931,8.55755903 C27.227931,8.55755903 20.2652217,13.9092969 10.9908374,14.6738309 C10.9908374,14.6738309 8.16699507,23.945543 3.80665025,25.2104992 L2.24246305,23.2783133 C2.24246305,23.2783133 1.19044335,0.578604397 19.2824138,0.467399454 C41.0841379,0.370095129 35.2288177,25.2243998 35.2288177,25.2243998 Z" id="Path" fill="#263238"></path>
                                            <path d="M32.695665,24.2791578 C31.4221675,26.5310579 31.519064,29.1165728 32.8894581,30.0479142 C34.2736946,30.9792556 36.4192611,29.908908 37.6927586,27.6570079 C38.9662562,25.4051078 38.8693596,22.8195929 37.4989655,21.8882515 C36.1147291,20.9569101 33.9691626,22.0272577 32.695665,24.2791578 Z" id="Path" fill="#CE7A63"></path>
                                            <path d="M6.46438424,24.2791578 C7.50256158,26.5310579 7.1426601,29.1165728 5.66152709,30.0479142 C4.18039409,30.9792556 2.1455665,29.908908 1.10738916,27.6570079 C0.0692118227,25.4051078 0.4291133,22.8195929 1.91024631,21.8882515 C3.39137931,20.9569101 5.4262069,22.0272577 6.46438424,24.2791578 Z" id="Path" fill="#CE7A63"></path>
                                        </g>
                                        <g transform="translate(0.000000, 47.840705)" id="Path">
                                            <path d="M34.9381281,0.333614828 C34.9381281,0.333614828 31.8789655,2.43260812 26.4112315,2.43260812 C20.9434975,2.43260812 17.8428079,0.333614828 17.8428079,0.333614828 C17.8428079,0.333614828 0.927438424,0 0.276847291,12.5800591 L49.2096059,12.5800591 C49.1957635,12.5800591 52.0334483,0.333614828 34.9381281,0.333614828 Z" fill="#407BFF"></path>
                                            <path d="M34.9381281,0.333614828 C34.9381281,0.333614828 31.8789655,2.43260812 26.4112315,2.43260812 C20.9434975,2.43260812 17.8428079,0.333614828 17.8428079,0.333614828 C17.8428079,0.333614828 0.927438424,0 0.276847291,12.5800591 L49.2096059,12.5800591 C49.1957635,12.5800591 52.0334483,0.333614828 34.9381281,0.333614828 Z" fill="#FFFFFF" opacity="0.5"></path>
                                            <path d="M27.2417734,4.67060759 C20.2929064,4.67060759 14.8390148,1.91828526 12.9010837,0.806235834 C15.683399,0.291912974 17.8289655,0.333614828 17.8289655,0.333614828 C17.8289655,0.333614828 20.9296552,2.43260812 26.3973892,2.43260812 C31.8651232,2.43260812 34.9242857,0.333614828 34.9242857,0.333614828 C36.2531527,0.333614828 37.4435961,0.417018535 38.5371429,0.556024713 C36.8760591,2.14069514 33.2493596,4.67060759 27.2417734,4.67060759 Z" fill="#407BFF"></path>
                                            <path d="M27.2417734,4.67060759 C20.2929064,4.67060759 14.8390148,1.91828526 12.9010837,0.806235834 C15.683399,0.291912974 17.8289655,0.333614828 17.8289655,0.333614828 C17.8289655,0.333614828 20.9296552,2.43260812 26.3973892,2.43260812 C31.8651232,2.43260812 34.9242857,0.333614828 34.9242857,0.333614828 C36.2531527,0.333614828 37.4435961,0.417018535 38.5371429,0.556024713 C36.8760591,2.14069514 33.2493596,4.67060759 27.2417734,4.67060759 Z" fill="#FFFFFF" opacity="0.3"></path>
                                        </g>
                                    </g>
                                </g>
                                <path d="M18.5141426,29.8168252 C18.2372953,28.9688875 18.6387239,28.0653474 17.7943397,28.3433597 C17.0606943,28.5796702 16.6592658,29.2886018 16.7146352,30.0253345 C16.6454234,30.0948376 16.4239456,30.6508623 18.0158175,35.5438798 L18.7217781,35.3075693 C18.7217781,35.3075693 17.7666549,32.6525513 17.960448,31.4431975 C18.223453,31.4988 18.5003003,31.5127006 18.7771475,31.4153963 C19.6353741,31.1512845 18.7909899,30.6647629 18.5141426,29.8168252 Z" id="Path" fill="#FFFFFF"></path>
                                <path d="M48.3582805,29.8168252 C48.6351278,28.9688875 48.2336993,28.0653474 49.0780835,28.3433597 C49.8117288,28.5796702 50.2131574,29.2886018 50.1577879,30.0253345 C50.2269998,30.0948376 50.4484776,30.6508623 48.8566057,35.5438798 L48.1506451,35.3075693 C48.1506451,35.3075693 49.1057682,32.6525513 48.9119751,31.4431975 C48.6489702,31.4988 48.3721229,31.5127006 48.0952756,31.4153963 C47.2232067,31.1512845 48.0814333,30.6647629 48.3582805,29.8168252 Z" id="Path" fill="#FFFFFF"></path>
                            </g>
                            <g transform="translate(191.834429, 27.222631)" id="Path">
                                <g>
                                    <path d="M3.63360074,56.0837714 L51.791187,56.0837714 C53.8675416,56.0837714 55.6532067,54.387896 55.7639456,52.3028033 L58.2832559,3.94255391 C58.3939948,1.85746124 56.7882805,0.161585862 54.7119259,0.161585862 L6.55433966,0.161585862 C4.47798498,0.161585862 2.69231996,1.85746124 2.58158104,3.94255391 L0.0622706946,52.3028033 C-0.0484682216,54.387896 1.5434037,56.0837714 3.63360074,56.0837714 Z" fill="#407BFF"></path>
                                    <path d="M3.63360074,56.0837714 L51.791187,56.0837714 C53.8675416,56.0837714 55.6532067,54.387896 55.7639456,52.3028033 L58.2832559,3.94255391 C58.3939948,1.85746124 56.7882805,0.161585862 54.7119259,0.161585862 L6.55433966,0.161585862 C4.47798498,0.161585862 2.69231996,1.85746124 2.58158104,3.94255391 L0.0622706946,52.3028033 C-0.0484682216,54.387896 1.5434037,56.0837714 3.63360074,56.0837714 Z" fill="#000000" opacity="0.3"></path>
                                </g>
                                <g transform="translate(5.536946, 1.390062)">
                                    <path d="M31.7197584,45.5749043 C31.7197584,45.5749043 28.7574924,42.7947807 28.7021229,36.0529811 L19.3862116,36.0529811 C19.3862116,36.0529811 18.8186746,45.5749043 14.2922214,45.5749043 L31.7197584,45.5749043 Z" fill="#FFB573"></path>
                                    <path d="M28.6882805,36.0529811 C28.7021229,37.4986453 28.8543889,38.7497009 29.0758668,39.8478497 C27.6362608,40.4038745 25.8921229,40.8069924 23.8711377,40.8069924 C21.9332067,40.8069924 20.2444382,40.3621726 18.8048323,39.7366448 C19.2616303,37.7627571 19.3723692,36.0529811 19.3723692,36.0529811 L28.6882805,36.0529811 Z" fill="#000000" opacity="0.1"></path>
                                    <path d="M11.4960638,21.290525 C10.9838963,31.0487587 15.6764579,38.9721108 24.3279357,38.9721108 C32.9794136,38.9721108 38.502517,31.0626593 39.0146845,21.290525 C39.526852,11.5322912 34.8342904,3.60893908 26.1828126,3.60893908 C17.5174924,3.60893908 12.0082313,11.5183906 11.4960638,21.290525 Z" fill="#FFB573"></path>
                                    <path d="M24.2864086,22.0967608 C23.8711377,23.7231331 23.2343889,25.2939029 22.3900047,26.7673684 C23.1374924,27.1426851 24.0372461,27.1704863 24.8262608,26.8229708 L24.2864086,22.0967608 Z" fill="#ED893E"></path>
                                    <g transform="translate(19.953749, 29.769902)">
                                        <path d="M0.719802956,0.152906796 C0.719802956,0.152906796 2.87921182,-0.0834037069 8.69300493,0.875738923 C7.68251232,2.84962665 6.15985222,3.36394951 3.18374384,2.83572604 C0.207635468,2.32140318 0.719802956,0.152906796 0.719802956,0.152906796 Z" fill="#263238"></path>
                                        <path d="M0.982807882,0.152906796 C0.996650246,0.667229656 1.2873399,1.11204943 1.73029557,1.33445931 C3.44674877,1.61247167 5.1908867,1.72367661 6.948867,1.65417352 C7.53024631,1.68197476 8.11162562,1.37616116 8.41615764,0.861838305 C5.99374384,0.389217299 3.50211823,0.152906796 0.982807882,0.152906796 Z" fill="#FFFFFF"></path>
                                        <path d="M1.91024631,1.19545313 C3.51596059,1.02864572 5.12167488,1.11204943 6.6720197,1.43176364 C7.08729064,1.59857105 7.43334975,1.89048402 7.68251232,2.25190009 C6.72738916,3.09983777 5.31546798,3.23884395 3.18374384,2.87742789 C2.36704433,2.79402418 1.63339901,2.4187075 1.0935468,1.80708032 C1.34270936,1.57076981 1.61955665,1.36226055 1.91024631,1.19545313 Z" fill="#FFFFFF"></path>
                                    </g>
                                    <g transform="translate(28.259167, 17.259346)" fill="#263238">
                                        <path d="M2.09019704,4.89301747 C2.10403941,5.54634651 1.77182266,6.08847061 1.34270936,6.11627184 C0.927438424,6.14407308 0.58137931,5.64365084 0.567536946,5.00422242 C0.553694581,4.35089338 0.88591133,3.8226699 1.31502463,3.79486867 C1.73029557,3.75316681 2.07635468,4.25358905 2.09019704,4.89301747 Z"></path>
                                        <path d="M4.48492611,2.62721677 C4.55413793,2.62721677 4.60950739,2.59941553 4.67871921,2.5716143 C4.83098522,2.43260812 4.85866995,2.19629762 4.74793103,2.0294902 C4.01428571,1.09814881 2.86536946,0.597726566 1.66108374,0.681130273 C1.45344828,0.708931509 1.30118227,0.903540159 1.31502463,1.11204943 C1.328867,1.32055869 1.50881773,1.45956487 1.73029557,1.43176364 L1.73029557,1.43176364 C2.68541872,1.37616116 3.59901478,1.77927908 4.16655172,2.52991244 C4.23576355,2.62721677 4.36034483,2.655018 4.48492611,2.62721677 Z"></path>
                                    </g>
                                    <g transform="translate(15.801039, 17.259346)" fill="#263238">
                                        <path d="M3.05916256,4.89301747 C2.98995074,5.54634651 3.25295567,6.08847061 3.6682266,6.11627184 C4.08349754,6.14407308 4.48492611,5.64365084 4.55413793,5.00422242 C4.62334975,4.35089338 4.36034483,3.8226699 3.93123153,3.79486867 C3.51596059,3.75316681 3.12837438,4.25358905 3.05916256,4.89301747 Z"></path>
                                        <path d="M0.88591133,2.62721677 C0.816699507,2.62721677 0.761330049,2.59941553 0.705960591,2.5716143 C0.567536946,2.43260812 0.553694581,2.19629762 0.692118227,2.0294902 C1.5226601,1.09814881 2.72694581,0.597726566 3.93123153,0.681130273 C4.138867,0.708931509 4.27729064,0.903540159 4.23576355,1.11204943 C4.19423645,1.32055869 4.00044335,1.45956487 3.79280788,1.43176364 L3.79280788,1.43176364 C2.83768473,1.37616116 1.89640394,1.77927908 1.24581281,2.52991244 C1.13507389,2.62721677 1.01049261,2.655018 0.88591133,2.62721677 Z"></path>
                                    </g>
                                    <path d="M40.3435515,22.2079657 C40.3435515,22.2079657 35.2634037,19.8170595 33.60232,9.48890042 C33.60232,9.48890042 27.8854234,12.9362536 18.527985,13.0474586 L24.4663594,10.4063412 C24.4663594,10.4063412 16.783847,8.08493802 11.5099062,21.290525 L10.4717288,21.0403138 C10.4717288,21.0403138 7.71709828,5.91644164 17.8358668,2.59419398 C17.8358668,2.59419398 12.9495121,2.70539892 10.6793643,5.45772125 C10.6793643,5.45772125 13.060251,-4.4117174 25.2692165,2.59419398 C25.2692165,2.59419398 44.1502017,-4.35611493 41.4509406,21.0403138 L40.3435515,22.2079657 Z" fill="#263238"></path>
                                    <path d="M37.3951278,22.1662639 C36.2462116,24.1957541 36.3292658,26.5171573 37.5750786,27.3650949 C38.8208914,28.199132 40.7588224,27.2399894 41.8938963,25.2104992 C43.0428126,23.181009 42.9597584,20.8596058 41.7139456,20.0116681 C40.4681328,19.177631 38.5440441,20.1367737 37.3951278,22.1662639 Z" fill="#FFB573"></path>
                                    <path d="M13.7800539,22.1662639 C14.7074924,24.1957541 14.389118,26.5171573 13.060251,27.3650949 C11.731384,28.199132 9.89034951,27.2399894 8.96291109,25.2104992 C8.03547267,23.181009 8.35384705,20.8596058 9.68271404,20.0116681 C11.011581,19.177631 12.8526155,20.1367737 13.7800539,22.1662639 Z" fill="#FFB573"></path>
                                    <path d="M31.3183298,43.6844203 C31.3183298,43.6844203 28.5636993,45.5749043 23.6496599,45.5749043 C18.7356204,45.5749043 15.9256204,43.6844203 15.9256204,43.6844203 C15.9256204,43.6844203 0.699019463,43.3786067 0.117640153,54.7076102 L44.1502017,54.7076102 C44.1502017,54.6937096 46.7110392,43.6844203 31.3183298,43.6844203 Z" fill="#407BFF"></path>
                                </g>
                            </g>
                        </g>
                        <path d="M132.277635,153.365516 L140.20931,149.918163 L145.261773,152.712187 L144.348177,156.479255 L141.690443,158.508745 C140.20931,159.273279 138.5067,159.495689 136.887143,159.134273 L132.54064,158.189031 L131.710099,154.852883 L132.277635,153.365516 Z" id="Path" fill="#FAB27B"></path>
                    </g>
                </g>
            </g>
        </g>
    </g>
</svg>