<?xml version="1.0" encoding="UTF-8"?>
<svg width="22px" height="26px" viewBox="0 0 22 26" version="1.1" xmlns="http://www.w3.org/2000/svg" xmlns:xlink="http://www.w3.org/1999/xlink">
    <title>D1C85709-ED3A-499D-B67E-7A8EF4171C25@0,5x</title>
    <g id="Role-Guru" stroke="none" stroke-width="1" fill="none" fill-rule="evenodd" opacity="0.5">
        <g id="Side-Bar" transform="translate(-18.000000, -1260.000000)" fill="#FFFFFF" fill-rule="nonzero" stroke="#FFFFFF" stroke-width="0.869565217">
            <g id="user-4" transform="translate(19.000000, 1261.000000)">
                <path d="M9.99999998,11.3043478 C11.5529603,11.3043478 12.8975224,10.7473485 13.9964468,9.64838925 C15.0950132,8.54960909 15.6521739,7.20518343 15.6521739,5.65199488 C15.6521739,4.09934348 15.0951922,2.75473874 13.9962678,1.65560051 C12.8973434,0.55699938 11.5527813,0 9.99999998,0 C8.44686068,0 7.10247756,0.55699938 6.00373221,1.65577954 C4.90498685,2.75455971 4.34782609,4.09916444 4.34782609,5.65199488 C4.34782609,7.20518343 4.90498685,8.54978812 6.00373221,9.64856828 C7.10283566,10.7471694 8.44739775,11.3043478 9.99999998,11.3043478 Z M6.97625703,2.62815615 C7.81933869,1.78504778 8.8083348,1.37522087 9.99999998,1.37522087 C11.1914861,1.37522087 12.1806614,1.78504778 13.023922,2.62815615 C13.8670036,3.4714435 14.2769966,4.46065002 14.2769966,5.65199488 C14.2769966,6.84369781 13.8670036,7.8327253 13.023922,8.67601265 C12.1806614,9.51930005 11.1914861,9.92912696 9.99999998,9.92912696 C8.8086929,9.92912696 7.81969674,9.51912102 6.97625703,8.67601265 C6.13299639,7.83290433 5.72300339,6.84369781 5.72300339,5.65199488 C5.72300339,4.46065002 6.13299639,3.4714435 6.97625703,2.62815615 Z" id="Shape"></path>
                <path d="M19.9515336,18.9068547 C19.9191616,18.4479905 19.8536862,17.9474442 19.757302,17.4188701 C19.6600033,16.8863434 19.5347221,16.3829223 19.3847505,15.9228006 C19.2296579,15.4472276 19.0191489,14.9775836 18.7585274,14.5275231 C18.4883955,14.0603943 18.1708945,13.653633 17.8146204,13.3189174 C17.4420689,12.9687505 16.9859356,12.6872156 16.4584744,12.4818587 C15.932842,12.2775797 15.3503302,12.1740927 14.7272162,12.1740927 C14.4825063,12.1740927 14.2458438,12.2727288 13.788796,12.5650435 C13.5075078,12.7452474 13.1784846,12.9536587 12.8112369,13.1841687 C12.4972109,13.3807221 12.0718035,13.5648786 11.5463541,13.7316076 C11.033707,13.8945636 10.5131957,13.9772095 9.99926843,13.9772095 C9.48570697,13.9772095 8.96519563,13.8945636 8.45218285,13.7316076 C7.92728205,13.5650583 7.50169175,13.3809018 7.18821444,13.1843484 C6.82444171,12.9559943 6.49523564,12.747583 6.20974084,12.5648638 C5.75305888,12.2725491 5.51639627,12.173913 5.27168646,12.173913 C4.64838964,12.173913 4.06606069,12.2775797 3.54061124,12.4820383 C3.01351573,12.687036 2.55719958,12.9685708 2.18428225,13.3190971 C1.82800813,13.6539924 1.51050717,14.060574 1.2405582,14.5275231 C0.980302505,14.9775836 0.769610623,15.447048 0.614517988,15.9229802 C0.464729217,16.383102 0.339448032,16.8863434 0.24214935,17.4188701 C0.145582238,17.9467255 0.0802897131,18.4474516 0.0479177951,18.9073937 C0.0160945187,19.3570949 0,19.8251219 0,20.2979999 C0,21.527267 0.397790674,22.5224308 1.18221556,23.2563619 C1.95694716,23.9805911 2.98187538,24.3478261 4.22865189,24.3478261 L15.7713481,24.3478261 C17.0177589,24.3478261 18.0426871,23.9805911 18.8176016,23.2563619 C19.6022094,22.5229698 20,21.5274467 20,20.2978202 C20,19.8233252 19.9835397,19.3552982 19.9515336,18.9068547 L19.9515336,18.9068547 Z M17.8490042,22.2565268 C17.3370887,22.7351541 16.6574611,22.9678201 15.7711652,22.9678201 L4.22865189,22.9678201 C3.34217311,22.9678201 2.66254552,22.7351541 2.15081296,22.2567065 C1.64877372,21.7872421 1.40479542,21.1463775 1.40479542,20.2979999 C1.40479542,19.8567429 1.41960969,19.4210556 1.44923826,19.0027957 C1.47813521,18.5924411 1.53720942,18.1416619 1.62481482,17.6626753 C1.71132285,17.1896177 1.82142401,16.7456658 1.95237487,16.3437554 C2.07802182,15.9583742 2.2493919,15.576766 2.46191268,15.2091717 C2.66474018,14.8588251 2.89811075,14.5582458 3.15562305,14.3160575 C3.39649214,14.0895001 3.70009329,13.9040859 4.05783055,13.7650253 C4.38868263,13.6363852 4.76050258,13.5659566 5.16414581,13.5553563 C5.21334381,13.5810484 5.30094922,13.6300969 5.44287361,13.7210074 C5.7316605,13.9058825 6.06452441,14.1168091 6.43250363,14.3476785 C6.84730327,14.6074739 7.38171443,14.8421163 8.02019131,15.0445986 C8.67293377,15.2519319 9.33866159,15.3572155 9.99945131,15.3572155 C10.6602411,15.3572155 11.3261518,15.2519319 11.9785285,15.0447783 C12.617554,14.8419366 13.1517823,14.6074739 13.5671306,14.3473192 C13.9437058,14.1108802 14.2672422,13.9060622 14.5560291,13.7210074 C14.6979535,13.6302766 14.7855589,13.5810484 14.8347569,13.5553563 C15.238583,13.5659566 15.6104029,13.6363852 15.9414379,13.7650253 C16.2989923,13.9040859 16.6025934,14.0896797 16.8434625,14.3160575 C17.1009748,14.5580661 17.3343454,14.8586455 17.5371729,15.2093513 C17.7498766,15.576766 17.9214295,15.9585539 18.0468936,16.3435757 C18.1780273,16.7460251 18.2883114,17.1897974 18.3746365,17.6624957 C18.462059,18.1423806 18.5213161,18.5933395 18.5502131,19.0029754 L18.5502131,19.0033347 C18.5800246,19.4199776 18.5950217,19.8554853 18.5952046,20.2979999 C18.5950217,21.1465572 18.3510434,21.7872421 17.8490042,22.2565268 L17.8490042,22.2565268 Z" id="Shape"></path>
            </g>
        </g>
    </g>
</svg>