<?xml version="1.0" encoding="UTF-8"?>
<svg width="50px" height="50px" viewBox="0 0 50 50" version="1.1" xmlns="http://www.w3.org/2000/svg" xmlns:xlink="http://www.w3.org/1999/xlink">
    <title>7C351E62-E70D-4C1B-8077-CF33E6BA3D86@0,5x</title>
    <g id="Web-Admin" stroke="none" stroke-width="1" fill="none" fill-rule="evenodd">
        <g id="Dasbor" transform="translate(-238.000000, -385.000000)" fill="#D87C96" fill-rule="nonzero">
            <g id="webinar" transform="translate(238.000000, 385.000000)">
                <path d="M17.1875,13.671875 L21.5820312,13.671875 L21.5820312,24.9023438 C21.5820312,25.7113281 22.2378906,26.3671875 23.046875,26.3671875 L42.578125,26.3671875 C43.3871094,26.3671875 44.0429688,25.7113281 44.0429688,24.9023438 L44.0429688,7.32421875 C44.0429688,6.51523437 43.3871094,5.859375 42.578125,5.859375 L23.046875,5.859375 C22.7041992,5.859375 22.3723633,5.97949219 22.109082,6.19892578 L16.249707,11.0817383 C15.7759766,11.4765625 15.6001953,12.1257813 15.8101562,12.7057617 C16.0201172,13.2857422 16.5708008,13.671875 17.1875,13.671875 Z M23.5772461,8.7890625 L41.1132812,8.7890625 L41.1132812,23.4375 L24.5117188,23.4375 L24.5117188,12.2070312 C24.5117188,11.3980469 23.8558594,10.7421875 23.046875,10.7421875 L21.2334961,10.7421875 L23.5772461,8.7890625 Z" id="Shape"></path>
                <path d="M28.90625,14.6484375 L36.71875,14.6484375 C37.5277344,14.6484375 38.1835938,13.9925781 38.1835938,13.1835938 C38.1835938,12.3746094 37.5277344,11.71875 36.71875,11.71875 L28.90625,11.71875 C28.0972656,11.71875 27.4414062,12.3746094 27.4414062,13.1835938 C27.4414062,13.9925781 28.0972656,14.6484375 28.90625,14.6484375 Z" id="Path"></path>
                <path d="M28.90625,20.5078125 L36.71875,20.5078125 C37.5277344,20.5078125 38.1835938,19.8519531 38.1835938,19.0429688 C38.1835938,18.2339844 37.5277344,17.578125 36.71875,17.578125 L28.90625,17.578125 C28.0972656,17.578125 27.4414062,18.2339844 27.4414062,19.0429688 C27.4414062,19.8519531 28.0972656,20.5078125 28.90625,20.5078125 Z" id="Path"></path>
                <path d="M45.6054688,0 L4.39453125,0 C1.97138672,0 0,1.97138672 0,4.39453125 L0,35.8398438 C0,38.2629883 1.97138672,40.234375 4.39453125,40.234375 L17.587793,40.234375 C17.3133789,42.5325195 16.3999023,44.7333984 14.9464844,46.5500977 L14.5302734,47.0703125 L11.328125,47.0703125 C10.5191406,47.0703125 9.86328125,47.7261719 9.86328125,48.5351562 C9.86328125,49.3441406 10.5191406,50 11.328125,50 L38.671875,50 C39.4808594,50 40.1367188,49.3441406 40.1367188,48.5351562 C40.1367188,47.7261719 39.4808594,47.0703125 38.671875,47.0703125 L35.4696289,47.0703125 L35.053418,46.5500977 C33.6000977,44.7333984 32.6865234,42.5325195 32.4121094,40.234375 L45.6054688,40.234375 C48.0286133,40.234375 50,38.2629883 50,35.8398438 L50,4.39453125 C50,1.97138672 48.0286133,0 45.6054688,0 Z M4.39453125,2.9296875 L45.6054688,2.9296875 C46.4131836,2.9296875 47.0703125,3.58681641 47.0703125,4.39453125 L47.0703125,30.2734375 L20.6054688,30.2734375 L20.6054688,29.7851562 C20.6054688,27.2086914 19.2670898,24.9404297 17.2501953,23.6344727 C18.1208008,22.6794922 18.6523438,21.4104492 18.6523438,20.0195312 C18.6523438,17.0579102 16.2428711,14.6484375 13.28125,14.6484375 C10.3196289,14.6484375 7.91015625,17.0579102 7.91015625,20.0195312 C7.91015625,21.4104492 8.44169922,22.6794922 9.31230469,23.6344727 C7.29541016,24.9404297 5.95703125,27.2086914 5.95703125,29.7851562 L5.95703125,30.2734375 L2.9296875,30.2734375 L2.9296875,4.39453125 C2.9296875,3.58681641 3.58681641,2.9296875 4.39453125,2.9296875 Z M10.8398438,20.0195312 C10.8398438,18.6733398 11.9350586,17.578125 13.28125,17.578125 C14.6274414,17.578125 15.7226562,18.6733398 15.7226562,20.0195312 C15.7226562,21.3657227 14.6274414,22.4609375 13.28125,22.4609375 C11.9350586,22.4609375 10.8398438,21.3657227 10.8398438,20.0195312 Z M13.28125,25.390625 C15.7043945,25.390625 17.6757812,27.3620117 17.6757812,29.7851562 L17.6757812,30.2734375 L8.88671875,30.2734375 L8.88671875,29.7851562 C8.88671875,27.3620117 10.8581055,25.390625 13.28125,25.390625 Z M31.8270508,47.0703125 L18.1729492,47.0703125 C19.4873047,45.015332 20.3003906,42.6632813 20.5348633,40.234375 L29.4652344,40.234375 C29.699707,42.6632813 30.5126953,45.015332 31.8270508,47.0703125 Z M45.6054688,37.3046875 L4.39453125,37.3046875 C3.58681641,37.3046875 2.9296875,36.6475586 2.9296875,35.8398438 L2.9296875,33.203125 L47.0703125,33.203125 L47.0703125,35.8398438 C47.0703125,36.6475586 46.4131836,37.3046875 45.6054688,37.3046875 Z" id="Shape"></path>
            </g>
        </g>
    </g>
</svg>