<?xml version="1.0" encoding="UTF-8"?>
<svg width="228px" height="169px" viewBox="0 0 228 169" version="1.1" xmlns="http://www.w3.org/2000/svg" xmlns:xlink="http://www.w3.org/1999/xlink">
    <title>3DCD8524-8CC2-4688-9E6B-CC189891E1DE@0,5x</title>
    <g id="Page-1" stroke="none" stroke-width="1" fill="none" fill-rule="evenodd">
        <g id="Lupa-Password-1" transform="translate(-941.000000, -277.000000)" fill-rule="nonzero">
            <g id="undraw_feeling_blue_4b7q" transform="translate(941.000000, 277.000000)">
                <path d="M3,81.4736842 C6.58899054,95.5259452 14.1802118,107.673312 26.1765728,113.561738 C51.1156147,125.799116 107.359663,119.487845 149.336595,112.242965 C171.050298,108.495975 190.135794,98.1551184 204,83.6025609 L3,81.4736842 Z" id="Path" fill="#53C7E0" opacity="0.1"></path>
                <path d="M222.98747,15.8343697 L199.884333,15.8343697 C198.787934,15.8343697 197.88843,15.0098123 197.88843,14.0022536 C197.88843,12.994695 198.787934,12.1680341 199.884333,12.1680341 L203.880282,12.1680341 C202.78181,12.1680341 201.88438,11.3434768 201.88438,10.3338146 C201.88438,9.32415252 202.78181,8.50169859 203.880282,8.50169859 L201.028401,8.50169859 C199.929929,8.50169859 199.030426,7.6771412 199.030426,6.66747909 C199.030426,5.65781698 199.929929,4.83536305 201.028401,4.83536305 L213.086717,4.83536305 C210.411006,3.69318278 207.283471,2.88124616 203.679241,2.45424323 C170.797634,-1.42243859 159.058496,1.14168248 154.917466,3.77732129 C149.755875,7.10341292 144.022305,9.41130927 138.017584,10.5799198 C117.731094,14.4229462 79.7923721,19.0463573 45.4060663,9.10749586 C28.3155066,4.15804804 15.6126153,12.5108986 8,26.4736842 L227,26.4736842 C226.713983,22.4161046 225.858004,18.667734 224.286982,15.3884356 C223.914922,15.6799791 223.457516,15.83694 222.98747,15.8343697 L222.98747,15.8343697 Z" id="Path" fill="#53C7E0" opacity="0.1"></path>
                <path d="M0.496454659,52.4736842 C-0.389606847,60.5687439 -0.088408319,68.7501507 1.39047494,76.7578124 L203.927459,83.4736842 C209.502747,77.6802222 214.239709,71.1321386 218,64.020671 L0.496454659,52.4736842 Z M80.6023275,69.7972746 L76.6144176,69.7972746 C77.711248,69.7972746 78.6094073,70.6121365 78.6094073,71.6053142 C78.6094073,72.5984919 77.711248,73.4112804 76.6144176,73.4112804 L53.545797,73.4112804 C52.4510361,73.4112804 51.5528768,72.5984919 51.5528768,71.6053142 C51.5528768,70.6121365 52.4510361,69.7972746 53.545797,69.7972746 L57.5357764,69.7972746 C56.438946,69.7972746 55.5428562,68.9844862 55.5428562,67.9913084 C55.5428562,66.9981307 56.438946,66.1832689 57.5357764,66.1832689 L54.6860868,66.1832689 C53.5892563,66.1832689 52.6910971,65.3704804 52.6910971,64.3773027 C52.6910971,63.384125 53.5892563,62.5692631 54.6860868,62.5692631 L77.7547073,62.5692631 C78.8515378,62.5692631 79.7476275,63.3820515 79.7476275,64.3773027 C79.7476275,65.3725539 78.8515378,66.1832689 77.7547073,66.1832689 L80.6023275,66.1832689 C81.6991579,66.1832689 82.5952477,66.9960573 82.5952477,67.9913084 C82.5952477,68.9865596 81.6991579,69.7972746 80.6023275,69.7972746 Z" id="Shape" fill="#53C7E0" opacity="0.1"></path>
                <path d="M226.897536,26.4736842 L6.28368198,31.4278722 C3.59951372,37.8008552 1.81970369,45.0065635 1,52.4736842 L223.032334,52.4736842 C224.477313,48.1049704 225.54947,43.6168237 226.236818,39.0594298 C226.899601,34.6723382 227.163888,30.4286019 226.897536,26.4736842 Z M45.792574,42.7170962 L41.8138107,42.7170962 C42.9081255,42.7170962 43.8042247,43.5456051 43.8042247,44.5554161 C43.8042247,45.5652272 42.9081255,46.3937361 41.8138107,46.3937361 L18.7981003,46.3937361 C17.7058503,46.3937361 16.809751,45.5652272 16.809751,44.5554161 C16.809751,43.5456051 17.7058503,42.7170962 18.7981003,42.7170962 L22.7789283,42.7170962 C21.6846135,42.7170962 20.790579,41.8906955 20.790579,40.8808844 C20.790579,39.8710733 21.6846135,39.0425645 22.7789283,39.0425645 L19.9357747,39.0425645 C18.8414599,39.0425645 17.9453607,38.2161637 17.9453607,37.2063527 C17.9453607,36.1965416 18.8414599,35.3680327 19.9357747,35.3680327 L42.9514851,35.3680327 C44.0457999,35.3680327 44.9398344,36.1944334 44.9398344,37.2063527 C44.9398344,38.2182719 44.0457999,39.0425645 42.9514851,39.0425645 L45.792574,39.0425645 C46.8868887,39.0425645 47.7809232,39.8710733 47.7809232,40.8808844 C47.7809232,41.8906955 46.8868887,42.7170962 45.792574,42.7170962 Z" id="Shape" fill="#53C7E0" opacity="0.1"></path>
                <ellipse id="Oval" fill="#53C7E0" opacity="0.1" cx="112.5" cy="153.973684" rx="92.5" ry="8.5"></ellipse>
                <path d="M167.676668,88.2563309 C167.676668,88.2563309 168.285405,85.2612025 167.468908,84.3091951 C166.65241,83.3571876 166.914188,78.3667559 168.160749,78.4754326 C169.407309,78.5841092 171.27715,82.5312451 170.96551,83.3658818 C170.65387,84.2005184 169.47587,88.4736842 169.47587,88.4736842 L167.676668,88.2563309 Z" id="Path" fill="#FBBEBE"></path>
                <path d="M186.548768,67.314042 C186.403533,67.5665747 186.189912,67.7749703 185.931434,67.9162745 C185.668668,68.0340707 185.379759,68.0849754 185.091524,68.0642633 C184.808051,68.0658958 184.527707,68.0062394 184.270511,67.8895542 C183.571286,67.5483577 183.310914,66.7303082 182.983348,66.0396935 C182.941896,65.9151114 182.868093,65.803206 182.769171,65.7149402 C182.599104,65.6392412 182.416081,65.5953238 182.229529,65.58545 C181.836871,65.4991231 181.553401,65.1640928 181.37282,64.8146747 C181.19224,64.4652565 181.085151,64.0788412 180.879373,63.7438108 C180.673595,63.4087805 180.325032,63.1148582 179.923975,63.1271906 C179.662924,63.1610602 179.408708,63.233842 179.170155,63.3430077 C178.479612,63.5599243 177.72369,63.415658 177.166969,62.9607031 C176.998365,62.7813481 176.797688,62.6336727 176.574832,62.5249582 C176.422989,62.4814338 176.264304,62.4654131 176.106582,62.477684 C175.865108,62.477684 175.625733,62.5002934 175.384259,62.518792 C175.264668,62.6723224 175.13638,62.8191712 175,62.9586477 C175.367461,62.9278167 175.737021,62.8969857 176.106582,62.8887641 C176.264304,62.8764932 176.422989,62.892514 176.574832,62.9360383 C176.797688,63.0447529 176.998365,63.1924283 177.166969,63.3717833 C177.72369,63.8267381 178.479612,63.9710045 179.170155,63.7540878 C179.408708,63.6449221 179.662924,63.5721404 179.923975,63.5382708 C180.325032,63.5382708 180.671495,63.8260269 180.879373,64.154891 C181.087251,64.4837551 181.194339,64.8742813 181.37282,65.2257548 C181.551301,65.5772283 181.836871,65.9102033 182.229529,65.9965301 C182.416081,66.0064039 182.599104,66.0503214 182.769171,66.1260204 C182.874874,66.2100747 182.956005,66.3199813 183.004346,66.4446075 C183.331911,67.1372776 183.592284,67.9553271 184.291509,68.2944682 C184.548705,68.4111533 184.829049,68.4708097 185.112521,68.4691773 C185.400757,68.4898893 185.689666,68.4389846 185.952432,68.3211884 C186.21091,68.1798842 186.424531,67.9714887 186.569766,67.718956 C186.895763,67.1379631 187.041699,66.4765584 186.989721,65.8156548 C186.973755,66.3434608 186.822097,66.8588066 186.548768,67.314042 L186.548768,67.314042 Z" id="Path" fill="#000000" opacity="0.1"></path>
                <ellipse id="Oval" fill="#575A89" cx="168" cy="88.9736842" rx="2" ry="1.5"></ellipse>
                <circle id="Oval" fill="#53C7E0" cx="130" cy="95" r="64"></circle>
                <path d="M151,126.781322 C151,136.813624 135.155433,127.638291 118.168469,127.638291 C101.181504,127.638291 84,136.43458 84,126.402278 C84,120.6816 89.476061,112.725799 97.3321184,106.94744 L97.3321184,106.94744 C103.251066,102.592556 110.519367,99.4736842 117.820782,99.4736842 C125.329153,99.4736842 132.684376,102.850059 138.551585,107.485106 C145.956477,113.329385 151,121.182185 151,126.781322 Z" id="Path" fill="#444053"></path>
                <path d="M139,107.473684 C130.018126,106.12218 113.773348,104.474456 98,106.936785 C103.887728,102.58811 111.117694,99.4736842 118.380599,99.4736842 C125.847309,99.4736842 133.163738,102.845245 139,107.473684 Z" id="Path" fill="#F6F8FB"></path>
                <path d="M74,49.4736842 C74,49.4736842 54.8442965,61.8105781 55.0009557,81.1081299 C55.1576148,100.405682 74,49.4736842 74,49.4736842 Z" id="Path" fill="#000000" opacity="0.05"></path>
                <path d="M171.666608,15.4957466 C171.666608,15.4957466 154.097908,14.47001 156.169846,26.4065901 C156.169846,26.4065901 155.752538,28.5147115 157.730581,29.4736842 C157.730581,29.4736842 157.761879,28.589568 159.531268,28.8889941 C160.161848,28.9912851 160.802663,29.0211641 161.440456,28.9780127 C162.302299,28.9211954 163.121417,28.5929887 163.773212,28.0433178 L163.773212,28.0433178 C163.773212,28.0433178 168.712061,26.066701 170.633768,18.2391369 C170.633768,18.2391369 172.054705,16.531599 171.998368,16.0945988 L169.033389,17.3206272 C169.033389,17.3206272 170.045363,19.3943551 169.242044,21.1180782 C169.242044,21.1180782 169.146063,17.3975068 168.576436,17.4764097 C168.461676,17.494618 167.036567,18.1946276 167.036567,18.1946276 C167.036567,18.1946276 168.778831,21.807972 167.453875,24.4319965 C167.453875,24.4319965 167.952559,19.9810683 166.481546,18.4556139 L164.395002,19.637133 C164.395002,19.637133 166.431469,23.36782 165.050177,26.4126595 C165.050177,26.4126595 165.404889,21.7432312 163.956828,19.9244201 L162.064333,21.3547866 C162.064333,21.3547866 163.977693,25.0328718 162.811315,27.557762 C162.811315,27.557762 162.658998,22.1215601 161.65537,21.7108609 C161.65537,21.7108609 160.000741,23.1270653 159.748269,23.7077091 C159.748269,23.7077091 161.058619,26.3762428 160.246953,27.7843547 C160.246953,27.7843547 159.748269,24.1629177 159.339306,24.1426862 C159.339306,24.1426862 157.690937,26.5421411 157.517754,28.1889845 C157.517754,28.1889845 157.590783,25.740974 158.93869,23.9140703 C158.93869,23.9140703 157.344571,24.1791028 156.416058,25.1825848 C156.416058,25.1825848 156.672703,23.4851627 159.33722,23.3374728 C159.33722,23.3374728 160.699733,21.5166385 161.064878,21.4073885 C161.064878,21.4073885 158.404535,21.1909115 156.791636,21.8848517 C156.791636,21.8848517 158.210486,20.2845407 161.551043,21.0108513 L163.428932,19.5339524 C163.428932,19.5339524 159.927712,19.0686281 158.442093,19.5825079 C158.442093,19.5825079 160.150972,18.1663035 163.931789,19.1981096 L165.96617,18.0186136 C165.96617,18.0186136 162.980325,17.3954837 161.200504,17.6139838 C161.200504,17.6139838 163.078393,16.6327565 166.560835,17.6969329 L168.021415,17.0636872 C168.021415,17.0636872 165.832631,16.6469185 165.192062,16.5821777 C164.551493,16.517437 164.518108,16.3434461 164.518108,16.3434461 C165.908107,16.1243125 167.333578,16.2847357 168.634859,16.8067473 C168.634859,16.8067473 171.718771,15.6838995 171.666608,15.4957466 Z" id="Path" fill="#53C7E0"></path>
                <path d="M153.846299,10.4832436 C153.846299,10.4832436 146.176697,10.0417821 147.07283,15.1588967 C147.07283,15.1588967 146.8932,16.0629331 147.755021,16.4736842 C147.755021,16.4736842 147.767131,16.0898046 148.542164,16.2241625 C148.817557,16.2672646 149.097245,16.280145 149.375729,16.2625505 C149.752708,16.2369649 150.110913,16.0962618 150.396997,15.8613963 L150.396997,15.8613963 C150.396997,15.8613963 152.554576,15.0130225 153.394196,11.6579151 C153.394196,11.6579151 154.015837,10.9266245 153.999691,10.7385235 L152.703932,11.2644385 C152.703932,11.2644385 153.147961,12.1531197 152.798793,12.8920879 C152.798793,12.8920879 152.756408,11.2970683 152.508155,11.3354562 C152.457697,11.3354562 151.834038,11.6425599 151.834038,11.6425599 C151.834038,11.6425599 152.596961,13.1915139 152.021741,14.3162811 C152.021741,14.3162811 152.239719,12.4083996 151.597895,11.753885 L150.685616,12.260606 C150.685616,12.260606 151.575693,13.8613838 150.972217,15.1665743 C150.972217,15.1665743 151.125609,13.1646424 150.493876,12.3853669 L149.666366,12.9976548 C149.666366,12.9976548 150.501949,14.5734804 149.993333,15.6560207 C149.993333,15.6560207 149.926729,13.3258718 149.486736,13.1492872 C149.486736,13.1492872 148.764179,13.7558169 148.653171,14.0053386 C148.653171,14.0053386 149.226373,15.1569773 148.87115,15.75391 C148.87115,15.75391 148.653171,14.2011172 148.467486,14.195359 C148.467486,14.195359 147.746947,15.2222368 147.67227,15.922817 C147.707004,15.2708452 147.920628,14.638883 148.291893,14.0897921 C147.876619,14.1645098 147.493488,14.35336 147.189892,14.6329817 C147.189892,14.6329817 147.3009,13.9055299 148.469505,13.8421898 C148.469505,13.8421898 149.064908,13.0629143 149.224355,13.0149293 C149.224355,13.0149293 148.061805,12.9227982 147.357412,13.2203049 C147.357412,13.2203049 147.977035,12.5331605 149.438296,12.8364253 L150.245623,12.2049435 C150.245623,12.2049435 148.715739,12.0130037 148.065841,12.2241374 C148.065841,12.2241374 148.812618,11.6176077 150.465619,12.0609886 L151.353678,11.5542676 C151.353678,11.5542676 150.049846,11.2874713 149.270776,11.3834412 C149.270776,11.3834412 150.092231,10.9630931 151.614041,11.4199097 L152.249811,11.1473553 C152.249811,11.1473553 151.293129,10.9688513 151.014601,10.9419797 C150.736074,10.9151081 150.717909,10.8402516 150.717909,10.8402516 C151.323802,10.7443991 151.945792,10.8108605 152.51421,11.0321914 C152.51421,11.0321914 153.8685,10.5638583 153.846299,10.4832436 Z" id="Path" fill="#53C7E0"></path>
                <ellipse id="Oval" fill="#53C7E0" opacity="0.1" cx="222.5" cy="151.473684" rx="5.5" ry="1"></ellipse>
                <ellipse id="Oval" fill="#53C7E0" opacity="0.1" cx="9.5" cy="166.473684" rx="5.5" ry="1"></ellipse>
                <ellipse id="Oval" fill="#53C7E0" opacity="0.1" cx="42.5" cy="167.473684" rx="5.5" ry="1"></ellipse>
                <ellipse id="Oval" fill="#53C7E0" cx="210.5" cy="160.973684" rx="8.5" ry="1.5"></ellipse>
                <path d="M214.133042,159.21278 C214.534466,158.910576 214.827278,158.503342 214.972937,158.044678 C215.080111,157.582683 214.865763,157.025867 214.38676,156.856402 C213.848702,156.666762 213.273461,157.011745 212.838203,157.358746 C212.402944,157.705747 211.902069,158.101167 211.331203,158.028539 C211.928416,157.529746 212.197529,156.77818 212.039865,156.049423 C212.014976,155.900992 211.946949,155.761555 211.843014,155.645934 C211.543364,155.351387 211.003119,155.476468 210.644413,155.708475 C209.507055,156.44686 209.189907,157.871178 209.183345,159.154274 C209.069609,158.692279 209.165847,158.210109 209.16366,157.742061 C209.161473,157.274013 209.019303,156.733338 208.586232,156.485192 C208.317475,156.352798 208.015897,156.287429 207.711341,156.295552 C207.199529,156.277395 206.63085,156.323796 206.280893,156.668779 C205.843448,157.098496 205.959371,157.816707 206.337761,158.282737 C206.716152,158.748767 207.289206,159.051384 207.816327,159.376193 C208.240547,159.60882 208.602403,159.926726 208.874946,160.306236 C208.906815,160.359657 208.933177,160.415719 208.953686,160.473684 L212.157975,160.473684 C212.874969,160.137466 213.539351,159.713318 214.133042,159.21278 L214.133042,159.21278 Z" id="Path" fill="#53C7E0"></path>
                <path d="M12.3055487,141.473684 C12.3055487,141.473684 13.5047072,142.917384 11.7507468,145.092987 C9.99678633,147.26859 8.55080648,149.114435 9.12963527,150.473684 C9.12963527,150.473684 11.7747736,146.424086 13.9350064,146.365775 C16.0952391,146.307464 14.6732861,143.908671 12.3055487,141.473684 Z" id="Path" fill="#53C7E0"></path>
                <path d="M12.2708187,141.473684 C12.3761063,141.61312 12.4593695,141.765306 12.518173,141.925794 C14.6427696,144.19639 15.773532,146.316283 13.7328592,146.368527 C11.8291146,146.418761 9.53667046,149.513202 9,150.29485 C9.01876061,150.355438 9.04087401,150.415126 9.06625561,150.473684 C9.06625561,150.473684 11.7407738,146.426799 13.9250005,146.368527 C16.1092271,146.310255 14.6648548,143.90704 12.2708187,141.473684 Z" id="Path" fill="#000000" opacity="0.1"></path>
                <path d="M14.1313793,143.737097 C14.1313793,144.143989 14.0713793,144.473684 13.9989655,144.473684 C13.9265517,144.473684 13.8686207,144.152031 13.8686207,143.737097 C13.8686207,143.322164 13.9410345,143.521589 14.0155172,143.521589 C14.09,143.521589 14.1313793,143.330205 14.1313793,143.737097 Z" id="Path" fill="#FFD037"></path>
                <path d="M15.7598664,143.977708 C15.3704531,144.330461 15.0319091,144.543279 15.0020892,144.452904 C14.9722693,144.362529 15.2652063,144.006861 15.6546196,143.654107 C16.0440329,143.301354 15.8896708,143.557902 15.9194908,143.654107 C15.9493107,143.750313 16.1562962,143.624954 15.7598664,143.977708 Z" id="Path" fill="#FFD037"></path>
                <path d="M6.69611015,141.473684 C6.69611015,141.473684 5.49671387,142.917384 7.2488374,145.092987 C9.00096093,147.26859 10.4494122,149.114435 9.87046861,150.473684 C9.87046861,150.473684 7.22262109,146.424086 5.06414472,146.365775 C2.90566835,146.307464 4.32571859,143.908671 6.69611015,141.473684 Z" id="Path" fill="#53C7E0"></path>
                <path d="M6.72993313,141.473684 C6.62362708,141.612598 6.54025496,141.764916 6.48246861,141.925794 C4.35692514,144.19639 3.22344926,146.316283 5.26724106,146.368527 C7.16962455,146.418761 9.46529988,149.513202 10,150.29485 C9.9819775,150.355407 9.96059152,150.415095 9.93592437,150.473684 C9.93592437,150.473684 7.25800474,146.426799 5.07501415,146.368527 C2.89202356,146.310255 4.33262059,143.90704 6.72993313,141.473684 Z" id="Path" fill="#000000" opacity="0.1"></path>
                <path d="M3.86965517,143.737097 C3.86965517,144.143989 3.92758621,144.473684 4,144.473684 C4.07241379,144.473684 4.13034483,144.152031 4.13034483,143.737097 C4.13034483,143.322164 4.05793103,143.521589 3.98551724,143.521589 C3.91310345,143.521589 3.86965517,143.330205 3.86965517,143.737097 Z" id="Path" fill="#FFD037"></path>
                <path d="M3.23651874,143.977708 C3.62688342,144.330461 3.96801291,144.543279 3.9979057,144.452904 C4.02779849,144.362529 3.73414578,144.006861 3.34378111,143.654107 C2.95341643,143.301354 3.10639718,143.557902 3.07826279,143.654107 C3.0501284,143.750313 2.84615407,143.624954 3.23651874,143.977708 Z" id="Path" fill="#FFD037"></path>
                <path d="M5,150.194623 C5,150.194623 8.22420273,150.097348 9.19818063,149.414352 C10.1721585,148.731357 14.158331,147.917971 14.3997264,149.000416 C14.6411218,150.08286 19.2444269,154.443683 15.6046043,154.472658 C11.9647817,154.501634 7.14736939,153.911774 6.17758967,153.330193 C5.20780994,152.748612 5,150.194623 5,150.194623 Z" id="Path" fill="#A8A8A8"></path>
                <path d="M15.6700143,154.12146 C12.0286435,154.148481 7.20918225,153.598419 6.23899004,153.056078 C5.49979598,152.643049 5.20579835,151.158849 5.10709914,150.473684 L5,150.473684 C5,150.473684 5.20999831,152.865004 6.17389057,153.407345 C7.13778282,153.949687 11.963544,154.499748 15.6049148,154.472728 C16.6549063,154.472728 17.0182034,154.11953 16.9993036,153.61193 C16.8523048,153.922666 16.453308,154.11567 15.6700143,154.12146 Z" id="Path" fill="#000000" opacity="0.2"></path>
                <path d="M94.7687563,86.425458 C95.9704777,86.3577699 101.626962,85.9311303 105.219843,83.8779268 C105.796872,83.5378004 106.448702,83.3454692 107.117621,83.3179622 C108.259973,83.2851438 109.574292,83.7630623 108.732882,86.4377649 C107.36943,90.8128727 99.4528084,95.7356382 94.539467,95.4628349 C89.8144703,95.2002874 84.2091667,93.2927158 80.5077828,86.5854478 C80.1531438,85.940152 79.9784744,85.2110847 80.0021181,84.4748121 C80.0451098,83.1210516 80.536444,81.4247487 83.0729565,83.3159111 C86.5000121,85.8695957 93.0020006,86.3536676 94.3060833,86.425458 C94.460197,86.4337352 94.6146426,86.4337352 94.7687563,86.425458 L94.7687563,86.425458 Z" id="Path" fill="#444053"></path>
                <path d="M140.768756,86.425458 C141.970478,86.3577699 147.626962,85.9311303 151.219843,83.8779268 C151.796872,83.5378004 152.448702,83.3454692 153.117621,83.3179622 C154.259973,83.2851438 155.574292,83.7630623 154.732882,86.4377649 C153.36943,90.8128727 145.452808,95.7356382 140.539467,95.4628349 C135.81447,95.2002874 130.209167,93.2927158 126.507783,86.5854478 C126.153144,85.940152 125.978474,85.2110847 126.002118,84.4748121 C126.04511,83.1210516 126.536444,81.4247487 129.072956,83.3159111 C132.500012,85.8695957 139.002001,86.3536676 140.306083,86.425458 C140.460197,86.4337352 140.614643,86.4337352 140.768756,86.425458 L140.768756,86.425458 Z" id="Path" fill="#444053"></path>
            </g>
        </g>
    </g>
</svg>