<?xml version="1.0" encoding="UTF-8"?>
<svg width="25px" height="25px" viewBox="0 0 25 25" version="1.1" xmlns="http://www.w3.org/2000/svg" xmlns:xlink="http://www.w3.org/1999/xlink">
    <title>97ACF426-F060-445A-85D9-D4FDF377124E@0,5x</title>
    <g id="Web-User--" stroke="none" stroke-width="1" fill="none" fill-rule="evenodd">
        <g id="Ikon-side-Bar" transform="translate(-97.000000, -458.000000)" fill="#FFFFFF" fill-rule="nonzero">
            <g id="Help-on" transform="translate(97.000000, 458.000000)">
                <path d="M12.5,0 C19.4093262,0 25,5.59160156 25,12.5 C25,19.4093262 19.4083984,25 12.5,25 C5.59067383,25 0,19.4083984 0,12.5 C0,5.59067383 5.59160156,0 12.5,0 Z M12.5,17.2607422 C11.8258243,17.2607422 11.2792969,17.8072696 11.2792969,18.4814453 C11.2792969,19.155621 11.8258243,19.7021484 12.5,19.7021484 C13.1741757,19.7021484 13.7207031,19.155621 13.7207031,18.4814453 C13.7207031,17.8072696 13.1741757,17.2607422 12.5,17.2607422 Z M12.5,6.27441406 C10.3460937,6.27441406 8.59375,8.02675781 8.59375,10.1806641 C8.59375,10.7200195 9.03095703,11.1572266 9.5703125,11.1572266 C10.109668,11.1572266 10.546875,10.7200195 10.546875,10.1806641 C10.546875,9.10371094 11.4230469,8.22753906 12.5,8.22753906 C13.5769531,8.22753906 14.453125,9.10371094 14.453125,10.1806641 C14.453125,11.2576172 13.5769531,12.1337891 12.5,12.1337891 C11.9606445,12.1337891 11.5234375,12.5709961 11.5234375,13.1103516 L11.5234375,15.5517578 C11.5234375,16.0911133 11.9606445,16.5283203 12.5,16.5283203 C13.0393555,16.5283203 13.4765625,16.0911133 13.4765625,15.5517578 L13.4765625,13.9633301 C15.1594727,13.5286133 16.40625,11.9975098 16.40625,10.1806641 C16.40625,8.02675781 14.6539063,6.27441406 12.5,6.27441406 Z" id="Combined-Shape"></path>
            </g>
        </g>
    </g>
</svg>