<?xml version="1.0" encoding="UTF-8"?>
<svg width="18px" height="20px" viewBox="0 0 18 20" version="1.1" xmlns="http://www.w3.org/2000/svg" xmlns:xlink="http://www.w3.org/1999/xlink">
    <title>1FF848F1-B633-47A1-8E5E-4D31B53D7E17@0,5x</title>
    <g id="Learning-Role-Admin" stroke="none" stroke-width="1" fill="none" fill-rule="evenodd">
        <g id="Dashboard" transform="translate(-141.000000, -330.000000)" fill="#0091FF" fill-rule="nonzero">
            <g id="book" transform="translate(141.000000, 330.000000)">
                <path d="M0.745341615,17.4336533 C0.333680124,17.4336533 7.81597009e-13,17.1597614 7.81597009e-13,16.8219462 L7.81597009e-13,2.52329193 C7.81597009e-13,1.13192582 1.37920807,-1.77635684e-15 3.07453416,-1.77635684e-15 L16.3975155,-1.77635684e-15 C16.809177,-1.77635684e-15 17.1428571,0.273891869 17.1428571,0.611707133 L17.1428571,14.6809712 C17.1428571,15.0187865 16.809177,15.2926783 16.3975155,15.2926783 C15.985854,15.2926783 15.6521739,15.0187865 15.6521739,14.6809712 L15.6521739,1.22341427 L3.07453416,1.22341427 C2.20118012,1.22341427 1.49068323,1.80652409 1.49068323,2.52329193 L1.49068323,16.8219462 C1.49068323,17.1597614 1.15700311,17.4336533 0.745341615,17.4336533 Z" id="Path"></path>
                <path d="M16.3975155,19.5746283 L3.35403727,19.5746283 C1.5046118,19.5746283 7.81597009e-13,18.3397827 7.81597009e-13,16.8219462 C7.81597009e-13,15.3041096 1.5046118,14.0692641 3.35403727,14.0692641 L16.3975155,14.0692641 C16.809177,14.0692641 17.1428571,14.3431559 17.1428571,14.6809712 C17.1428571,15.0187865 16.809177,15.2926783 16.3975155,15.2926783 L3.35403727,15.2926783 C2.32658385,15.2926783 1.49068323,15.9787079 1.49068323,16.8219462 C1.49068323,17.6651845 2.32658385,18.351214 3.35403727,18.351214 L16.3975155,18.351214 C16.809177,18.351214 17.1428571,18.6251059 17.1428571,18.9629211 C17.1428571,19.3007364 16.809177,19.5746283 16.3975155,19.5746283 Z" id="Path"></path>
                <path d="M15.5067155,17.4336533 L3.54090354,17.4336533 C3.16325397,17.4336533 2.85714286,17.1597614 2.85714286,16.8219462 C2.85714286,16.4841309 3.16325397,16.210239 3.54090354,16.210239 L15.5067155,16.210239 C15.8843651,16.210239 16.1904762,16.4841309 16.1904762,16.8219462 C16.1904762,17.1597614 15.8843651,17.4336533 15.5067155,17.4336533 Z" id="Path"></path>
                <path d="M4.76190476,15.2926783 C4.23589286,15.2926783 3.80952381,15.0187865 3.80952381,14.6809712 L3.80952381,0.611707133 C3.80952381,0.273891869 4.23589286,4.4408921e-15 4.76190476,4.4408921e-15 C5.28791667,4.4408921e-15 5.71428571,0.273891869 5.71428571,0.611707133 L5.71428571,14.6809712 C5.71428571,15.0187865 5.28791667,15.2926783 4.76190476,15.2926783 Z" id="Path"></path>
            </g>
        </g>
    </g>
</svg>
