<?xml version="1.0" encoding="UTF-8"?>
<svg width="25px" height="25px" viewBox="0 0 25 25" version="1.1" xmlns="http://www.w3.org/2000/svg" xmlns:xlink="http://www.w3.org/1999/xlink">
    <title>E28FA4CF-2B46-4CBD-87B7-81C11E1BC250@0,5x</title>
    <g id="Role-Guru" stroke="none" stroke-width="1" fill="none" fill-rule="evenodd">
        <g id="Kalender" transform="translate(-17.000000, -278.000000)" fill="#FFFFFF" fill-rule="nonzero">
            <g id="calendar-2" transform="translate(17.000000, 278.000000)">
                <path d="M22.3152197,2.67782427 L19.6373954,2.67782427 L19.6373954,0.892625523 C19.6373954,0.399633891 19.2377615,-3.18323146e-11 18.7447699,-3.18323146e-11 C18.2517782,-3.18323146e-11 17.8521444,0.399633891 17.8521444,0.892625523 L17.8521444,2.67782427 L7.14084728,2.67782427 L7.14084728,0.892625523 C7.14084728,0.399633891 6.74121339,-3.18323146e-11 6.24827406,-3.18323146e-11 C5.75533473,-3.18323146e-11 5.35564854,0.399633891 5.35564854,0.892625523 L5.35564854,2.67782427 L2.67782427,2.67782427 C1.19890167,2.67782427 -4.01742639e-10,3.87672594 -4.01742639e-10,5.35564854 L-4.01742639e-10,22.3152197 C-4.01742639e-10,23.7941423 1.19890167,24.9930439 2.67782427,24.9930439 L22.3152197,24.9930439 C23.7941423,24.9930439 24.9930439,23.7941423 24.9930439,22.3152197 L24.9930439,5.35564854 C24.9930439,3.87672594 23.7941423,2.67782427 22.3152197,2.67782427 Z M7.14084728,19.6373954 C7.63383891,19.6373954 8.0334728,20.036977 8.0334728,20.5299686 C8.0334728,21.0229603 7.63383891,21.4225941 7.14084728,21.4225941 L7.14084728,21.4225941 L5.35564854,21.4225941 C4.8626569,21.4225941 4.46302301,21.0230126 4.46302301,20.5300209 C4.46302301,20.0370293 4.8626569,19.6373954 5.35564854,19.6373954 L5.35564854,19.6373954 Z M13.3891213,19.6373954 C13.882113,19.6373954 14.2817469,20.0370293 14.2817469,20.5300209 C14.2817469,21.0230126 13.882113,21.4226464 13.3891213,21.4226464 L13.3891213,21.4226464 L11.6039226,21.4226464 C11.110931,21.4226464 10.7112971,21.0230126 10.7112971,20.5300209 C10.7112971,20.0370293 11.110931,19.6373954 11.6039226,19.6373954 L11.6039226,19.6373954 Z M19.6373954,19.6373954 C20.1303347,19.6373954 20.5300209,20.0370293 20.5300209,20.5300209 C20.5300209,21.0230126 20.130387,21.4226464 19.6373954,21.4226464 L19.6373954,21.4226464 L17.8521967,21.4226464 C17.359205,21.4226464 16.9595711,21.0230126 16.9595711,20.5300209 C16.9595711,20.0370293 17.359205,19.6373954 17.8521967,19.6373954 L17.8521967,19.6373954 Z M7.14084728,16.0669456 C7.63383891,16.0669456 8.0334728,16.4665795 8.0334728,16.9595711 C8.0334728,17.4525628 7.63383891,17.8521967 7.14084728,17.8521967 L7.14084728,17.8521967 L5.35564854,17.8521967 C4.8626569,17.8521967 4.46302301,17.4525628 4.46302301,16.9595711 C4.46302301,16.4665795 4.8626569,16.0669456 5.35564854,16.0669456 L5.35564854,16.0669456 Z M13.3891213,16.0669456 C13.882113,16.0669456 14.2817469,16.4665795 14.2817469,16.9595711 C14.2817469,17.4525628 13.882113,17.8521967 13.3891213,17.8521967 L13.3891213,17.8521967 L11.6039226,17.8521967 C11.110931,17.8521967 10.7112971,17.4525628 10.7112971,16.9595711 C10.7112971,16.4665795 11.110931,16.0669456 11.6039226,16.0669456 L11.6039226,16.0669456 Z M19.6373954,16.0669456 C20.1303347,16.0669456 20.5299686,16.4665795 20.5300209,16.9595711 C20.5300209,17.4525628 20.130387,17.8521967 19.6373954,17.8521967 L19.6373954,17.8521967 L17.8521967,17.8521967 C17.359205,17.8521967 16.9595711,17.4525628 16.9595711,16.9595711 C16.9595711,16.4665795 17.359205,16.0669456 17.8521967,16.0669456 L17.8521967,16.0669456 Z M7.14084728,12.4964958 C7.63383891,12.4964958 8.0334728,12.8961297 8.0334728,13.3891213 C8.0334728,13.882113 7.63383891,14.2817469 7.14084728,14.2817469 L7.14084728,14.2817469 L5.35564854,14.2817469 C4.8626569,14.2817469 4.46302301,13.882113 4.46302301,13.3891213 C4.46302301,12.8961297 4.8626569,12.4964958 5.35564854,12.4964958 L5.35564854,12.4964958 Z M13.3891213,12.4964958 C13.882113,12.4964958 14.2817469,12.8961297 14.2817469,13.3891213 C14.2817469,13.882113 13.882113,14.2817469 13.3891213,14.2817469 L13.3891213,14.2817469 L11.6039226,14.2817469 C11.110931,14.2817469 10.7112971,13.882113 10.7112971,13.3891213 C10.7112971,12.8961297 11.110931,12.4964958 11.6039226,12.4964958 L11.6039226,12.4964958 Z M19.6373954,12.4964958 C20.1303347,12.4964958 20.5299686,12.8961297 20.5300209,13.3891213 C20.5300209,13.882113 20.130387,14.2817469 19.6373954,14.2817469 L19.6373954,14.2817469 L17.8521967,14.2817469 C17.359205,14.2817469 16.9595711,13.882113 16.9595711,13.3891213 C16.9595711,12.8961297 17.359205,12.4964958 17.8521967,12.4964958 L17.8521967,12.4964958 Z M5.35564854,4.46302301 L5.35564854,6.24822176 C5.35564854,6.74121339 5.75528243,7.14084728 6.24827406,7.14084728 C6.74126569,7.14084728 7.14089958,6.74121339 7.14089958,6.24822176 L7.14089958,4.46302301 L17.8521967,4.46302301 L17.8521967,6.24822176 C17.8521967,6.74121339 18.2518305,7.14084728 18.7448222,7.14084728 C19.2378138,7.14084728 19.6374477,6.74121339 19.6374477,6.24822176 L19.6374477,4.46302301 L22.315272,4.46302301 C22.8082636,4.46302301 23.2078975,4.8626569 23.2078975,5.35564854 L23.2078975,8.92609833 L1.78519874,8.92609833 L1.78519874,5.35564854 C1.78519874,4.8626569 2.18483264,4.46302301 2.67782427,4.46302301 L5.35564854,4.46302301 Z" id="Shape"></path>
            </g>
        </g>
    </g>
</svg>