<?xml version="1.0" encoding="UTF-8"?>
<svg width="27px" height="27px" viewBox="0 0 27 27" version="1.1" xmlns="http://www.w3.org/2000/svg" xmlns:xlink="http://www.w3.org/1999/xlink">
    <title>9C95D10E-CEFD-4A5F-A101-9A2749B6059E@0,5x</title>
    <g id="Web-Superadmin" stroke="none" stroke-width="1" fill="none" fill-rule="evenodd">
        <g id="User-1" transform="translate(-352.000000, -139.000000)" fill="#0091FF" fill-rule="nonzero" stroke="#0091FF" stroke-width="0.3">
            <g id="company" transform="translate(353.000000, 140.000000)">
                <path d="M8.37425889,13.4738142 L9.69822134,13.4738142 C9.90291502,13.4738142 10.0687747,13.3079051 10.0687747,13.1032609 L10.0687747,11.7792984 C10.0687747,11.5746542 9.90291502,11.4087451 9.69822134,11.4087451 L8.37425889,11.4087451 C8.16956522,11.4087451 8.00370553,11.5746542 8.00370553,11.7792984 L8.00370553,13.1032609 C8.00370553,13.3079051 8.16961462,13.4738142 8.37425889,13.4738142 Z M8.74481225,12.1498518 L9.32766798,12.1498518 L9.32766798,12.7327075 L8.74481225,12.7327075 L8.74481225,12.1498518 Z" id="Shape"></path>
                <path d="M15.6631423,13.4738142 L16.9871047,13.4738142 C17.1917984,13.4738142 17.3576581,13.3079051 17.3576581,13.1032609 L17.3576581,11.7792984 C17.3576581,11.5746542 17.1917984,11.4087451 16.9871047,11.4087451 L15.6631423,11.4087451 C15.4584486,11.4087451 15.2925889,11.5746542 15.2925889,11.7792984 L15.2925889,13.1032609 C15.2925889,13.3079051 15.458498,13.4738142 15.6631423,13.4738142 Z M16.0336957,12.1498518 L16.6165514,12.1498518 L16.6165514,12.7327075 L16.0336957,12.7327075 L16.0336957,12.1498518 Z" id="Shape"></path>
                <path d="M12.0187253,13.4738142 L13.3426877,13.4738142 C13.5473814,13.4738142 13.7132411,13.3079051 13.7132411,13.1032609 L13.7132411,11.7792984 C13.7132411,11.5746542 13.5473814,11.4087451 13.3426877,11.4087451 L12.0187253,11.4087451 C11.8140316,11.4087451 11.6481719,11.5746542 11.6481719,11.7792984 L11.6481719,13.1032609 C11.6481719,13.3079051 11.8140316,13.4738142 12.0187253,13.4738142 Z M12.3892787,12.1498518 L12.9721344,12.1498518 L12.9721344,12.7327075 L12.3892787,12.7327075 L12.3892787,12.1498518 Z" id="Shape"></path>
                <path d="M8.37425889,10.1586462 L9.69822134,10.1586462 C9.90291502,10.1586462 10.0687747,9.99273715 10.0687747,9.78809289 L10.0687747,8.46413043 C10.0687747,8.25948617 9.90291502,8.09357708 9.69822134,8.09357708 L8.37425889,8.09357708 C8.16956522,8.09357708 8.00370553,8.25948617 8.00370553,8.46413043 L8.00370553,9.78809289 C8.00370553,9.99273715 8.16961462,10.1586462 8.37425889,10.1586462 Z M8.74481225,8.83468379 L9.32766798,8.83468379 L9.32766798,9.41753953 L8.74481225,9.41753953 L8.74481225,8.83468379 Z" id="Shape"></path>
                <path d="M15.6631423,10.1586462 L16.9871047,10.1586462 C17.1917984,10.1586462 17.3576581,9.99273715 17.3576581,9.78809289 L17.3576581,8.46413043 C17.3576581,8.25948617 17.1917984,8.09357708 16.9871047,8.09357708 L15.6631423,8.09357708 C15.4584486,8.09357708 15.2925889,8.25948617 15.2925889,8.46413043 L15.2925889,9.78809289 C15.2925889,9.99273715 15.458498,10.1586462 15.6631423,10.1586462 Z M16.0336957,8.83468379 L16.6165514,8.83468379 L16.6165514,9.41753953 L16.0336957,9.41753953 L16.0336957,8.83468379 Z" id="Shape"></path>
                <path d="M12.0187253,10.1586462 L13.3426877,10.1586462 C13.5473814,10.1586462 13.7132411,9.99273715 13.7132411,9.78809289 L13.7132411,8.46413043 C13.7132411,8.25948617 13.5473814,8.09357708 13.3426877,8.09357708 L12.0187253,8.09357708 C11.8140316,8.09357708 11.6481719,8.25948617 11.6481719,8.46413043 L11.6481719,9.78809289 C11.6481719,9.99273715 11.8140316,10.1586462 12.0187253,10.1586462 Z M12.3892787,8.83468379 L12.9721344,8.83468379 L12.9721344,9.41753953 L12.3892787,9.41753953 L12.3892787,8.83468379 Z" id="Shape"></path>
                <path d="M24.9258893,22.8967885 L24.4815217,22.8967885 L24.4815217,13.7087451 C24.4815217,13.5041008 24.3156621,13.3381917 24.1109684,13.3381917 L23.3002964,13.3381917 L23.3002964,9.42910079 C23.3002964,9.22445652 23.1344368,9.05854743 22.9297431,9.05854743 L21.1604743,9.05854743 L21.1604743,7.66852767 C21.1604743,7.4638834 20.9946146,7.29797431 20.7899209,7.29797431 C20.5852273,7.29797431 20.4193676,7.4638834 20.4193676,7.66852767 L20.4193676,9.05854743 L19.0206028,9.05854743 L19.0206028,6.43171937 C19.0206028,6.2270751 18.8547431,6.06116601 18.6500494,6.06116601 L17.3499506,6.06116601 L17.3499506,4.40088933 C17.3499506,4.19624506 17.1840909,4.03033597 16.9793972,4.03033597 L15.9803854,4.03033597 L15.9803854,2.3701087 C15.9803854,2.16546443 15.8145257,1.99955534 15.609832,1.99955534 L13.0435277,1.99955534 L13.0435277,0.408695652 C13.0435277,0.204051383 12.877668,0.0381422925 12.6729743,0.0381422925 C12.4682806,0.0381422925 12.3024209,0.204051383 12.3024209,0.408695652 L12.3024209,1.99955534 L9.7361166,1.99955534 C9.53142292,1.99955534 9.36556324,2.16546443 9.36556324,2.3701087 L9.36556324,4.03033597 L8.36655138,4.03033597 C8.16185771,4.03033597 7.99599802,4.19624506 7.99599802,4.40088933 L7.99599802,6.06116601 L6.69589921,6.06116601 C6.49120553,6.06116601 6.32534585,6.2270751 6.32534585,6.43171937 L6.32534585,10.7737648 L5.73270751,10.7737648 L5.73270751,7.5819664 L5.73270751,5.71353755 C5.73270751,5.50889328 5.56684783,5.34298419 5.36215415,5.34298419 C5.15746047,5.34298419 4.99160079,5.50889328 4.99160079,5.71353755 L4.99160079,7.28310277 C4.68962451,7.36358696 4.21590909,7.53038538 3.74219368,7.86086957 C3.07801383,8.32425889 2.29575099,9.19906126 2.18853755,10.7737648 L1.23498024,10.7737648 C1.03028656,10.7737648 0.864426877,10.9396739 0.864426877,11.1443182 L0.864426877,20.1948617 C0.864426877,20.3995059 1.03028656,20.565415 1.23498024,20.565415 C1.43967391,20.565415 1.6055336,20.3995059 1.6055336,20.1948617 L1.6055336,11.5148715 L6.32529644,11.5148715 L6.32529644,21.5728261 L1.23498024,21.5728261 C1.03028656,21.5728261 0.864426877,21.7387352 0.864426877,21.9433794 L0.864426877,22.8967885 L0.37055336,22.8967885 C0.165859684,22.8967885 0,23.0626976 0,23.2673419 C0,23.4719862 0.165859684,23.6378953 0.37055336,23.6378953 L6.32529644,23.6378953 L6.32529644,24.5913043 C6.32529644,24.7959486 6.49115613,24.9618577 6.6958498,24.9618577 L18.6500494,24.9618577 C18.8547431,24.9618577 19.0206028,24.7959486 19.0206028,24.5913043 L19.0206028,23.6378953 L24.9258893,23.6378953 C25.130583,23.6378953 25.2964427,23.4719862 25.2964427,23.2673419 C25.2964427,23.0626976 25.130583,22.8967885 24.9258893,22.8967885 Z M2.93132411,10.7737648 C3.0791502,8.92994071 4.32287549,8.27411067 4.99160079,8.05340909 L4.99160079,10.7737648 L2.93132411,10.7737648 Z M22.5591897,9.79965415 L22.5591897,13.3381917 L19.0206522,13.3381917 L19.0206522,9.79965415 L22.5591897,9.79965415 Z M10.10667,2.74066206 L15.2393281,2.74066206 L15.2393281,4.03033597 L10.10667,4.03033597 L10.10667,2.74066206 Z M7.06640316,6.80227273 L9.69451581,6.80227273 C9.89920949,6.80227273 10.0650692,6.63636364 10.0650692,6.43171937 C10.0650692,6.2270751 9.89920949,6.06116601 9.69451581,6.06116601 L8.73705534,6.06116601 L8.73705534,4.77144269 L16.6087945,4.77144269 L16.6087945,6.06116601 L11.4613142,6.06116601 C11.2566206,6.06116601 11.0907609,6.2270751 11.0907609,6.43171937 C11.0907609,6.63636364 11.2566206,6.80227273 11.4613142,6.80227273 L18.2795455,6.80227273 L18.2795455,13.7087451 C18.2795455,13.9133893 18.4454051,14.0792984 18.6500988,14.0792984 L23.740415,14.0792984 L23.740415,21.5728261 L19.0206522,21.5728261 L19.0206522,15.4663043 C19.0206522,15.2616601 18.8547925,15.095751 18.6500988,15.095751 C18.4454051,15.095751 18.2795455,15.2616601 18.2795455,15.4663043 L18.2795455,22.8967885 L17.3577075,22.8967885 L17.3577075,21.9433794 C17.3577075,21.7387352 17.1918478,21.5728261 16.9871542,21.5728261 L15.9804348,21.5728261 L15.9804348,15.1352767 C15.9804348,14.9306324 15.8145751,14.7647233 15.6098814,14.7647233 L9.75158103,14.7647233 C9.54688735,14.7647233 9.38102767,14.9306324 9.38102767,15.1352767 L9.38102767,21.5727767 L8.37425889,21.5727767 C8.16956522,21.5727767 8.00370553,21.7386858 8.00370553,21.94333 L8.00370553,22.8967885 L7.06640316,22.8967885 L7.06640316,6.80227273 Z M15.2392787,21.5728261 L13.0512352,21.5728261 L13.0512352,15.50583 L15.2392787,15.50583 L15.2392787,21.5728261 Z M12.3101285,21.5728261 L10.1221344,21.5728261 L10.1221344,15.50583 L12.3101285,15.50583 L12.3101285,21.5728261 Z M16.6165514,22.3139328 L16.6165514,22.8967885 L8.74481225,22.8967885 L8.74481225,22.3139328 L16.6165514,22.3139328 Z M1.6055336,22.3139328 L6.32529644,22.3139328 L6.32529644,22.8967885 L1.6055336,22.8967885 L1.6055336,22.3139328 Z M18.2795455,24.220751 L7.06640316,24.220751 L7.06640316,23.6378953 L18.2795455,23.6378953 L18.2795455,24.220751 L18.2795455,24.220751 Z M19.0206522,22.3139328 L23.740415,22.3139328 L23.740415,22.8967885 L19.0206522,22.8967885 L19.0206522,22.3139328 Z" id="Shape"></path>
                <path d="M3.23937747,13.4738142 L4.66907115,13.4738142 C4.87376482,13.4738142 5.03962451,13.3079051 5.03962451,13.1032609 C5.03962451,12.8986166 4.87376482,12.7327075 4.66907115,12.7327075 L3.23937747,12.7327075 C3.03468379,12.7327075 2.86882411,12.8986166 2.86882411,13.1032609 C2.86882411,13.3079051 3.0347332,13.4738142 3.23937747,13.4738142 Z" id="Path"></path>
                <path d="M3.23937747,15.2200593 L4.66907115,15.2200593 C4.87376482,15.2200593 5.03962451,15.0541502 5.03962451,14.8495059 C5.03962451,14.6448617 4.87376482,14.4789526 4.66907115,14.4789526 L3.23937747,14.4789526 C3.03468379,14.4789526 2.86882411,14.6448617 2.86882411,14.8495059 C2.86882411,15.0541502 3.0347332,15.2200593 3.23937747,15.2200593 Z" id="Path"></path>
                <path d="M3.23937747,16.9663043 L4.66907115,16.9663043 C4.87376482,16.9663043 5.03962451,16.8003953 5.03962451,16.595751 C5.03962451,16.3911067 4.87376482,16.2251976 4.66907115,16.2251976 L3.23937747,16.2251976 C3.03468379,16.2251976 2.86882411,16.3911067 2.86882411,16.595751 C2.86882411,16.8003953 3.0347332,16.9663043 3.23937747,16.9663043 Z" id="Path"></path>
                <path d="M3.23937747,18.7125988 L4.66907115,18.7125988 C4.87376482,18.7125988 5.03962451,18.5466897 5.03962451,18.3420455 C5.03962451,18.1374012 4.87376482,17.9714921 4.66907115,17.9714921 L3.23937747,17.9714921 C3.03468379,17.9714921 2.86882411,18.1374012 2.86882411,18.3420455 C2.86882411,18.5466897 3.0347332,18.7125988 3.23937747,18.7125988 Z" id="Path"></path>
                <path d="M3.23937747,20.4588439 L4.66907115,20.4588439 C4.87376482,20.4588439 5.03962451,20.2929348 5.03962451,20.0882905 C5.03962451,19.8836462 4.87376482,19.7177372 4.66907115,19.7177372 L3.23937747,19.7177372 C3.03468379,19.7177372 2.86882411,19.8836462 2.86882411,20.0882905 C2.86882411,20.2929348 3.0347332,20.4588439 3.23937747,20.4588439 Z" id="Path"></path>
                <path d="M20.599753,16.4712451 L22.0294466,16.4712451 C22.2341403,16.4712451 22.4,16.305336 22.4,16.1006917 C22.4,15.8960474 22.2341403,15.7301383 22.0294466,15.7301383 L20.599753,15.7301383 C20.3950593,15.7301383 20.2291996,15.8960474 20.2291996,16.1006917 C20.2291996,16.305336 20.3951087,16.4712451 20.599753,16.4712451 Z" id="Path"></path>
                <path d="M20.599753,18.2175395 L22.0294466,18.2175395 C22.2341403,18.2175395 22.4,18.0516304 22.4,17.8469862 C22.4,17.6423419 22.2341403,17.4764328 22.0294466,17.4764328 L20.599753,17.4764328 C20.3950593,17.4764328 20.2291996,17.6423419 20.2291996,17.8469862 C20.2291996,18.0516304 20.3951087,18.2175395 20.599753,18.2175395 Z" id="Path"></path>
                <path d="M20.599753,19.9637846 L22.0294466,19.9637846 C22.2341403,19.9637846 22.4,19.7978755 22.4,19.5932312 C22.4,19.388587 22.2341403,19.2226779 22.0294466,19.2226779 L20.599753,19.2226779 C20.3950593,19.2226779 20.2291996,19.388587 20.2291996,19.5932312 C20.2291996,19.7978755 20.3951087,19.9637846 20.599753,19.9637846 Z" id="Path"></path>
                <path d="M20.7899209,11.7424901 C20.9939723,11.7424901 21.1593379,11.5770751 21.1593379,11.3730731 C21.1593379,11.1690711 20.9939229,11.0036561 20.7899209,11.0036561 C20.585919,11.0036561 20.420504,11.1690711 20.420504,11.3730731 C20.420504,11.5770751 20.5858696,11.7424901 20.7899209,11.7424901 Z" id="Path"></path>
            </g>
        </g>
    </g>
</svg>