<?xml version="1.0" encoding="UTF-8"?>
<svg width="13px" height="15px" viewBox="0 0 13 15" version="1.1" xmlns="http://www.w3.org/2000/svg" xmlns:xlink="http://www.w3.org/1999/xlink">
    <title>4F80F4FB-CE49-4B4F-82AD-58CCDF6D69E7@0,5x</title>
    <g id="Role-Guru" stroke="none" stroke-width="1" fill="none" fill-rule="evenodd" opacity="0.5">
        <g id="Side-Bar" transform="translate(-89.000000, -310.000000)" fill="#000000" fill-rule="nonzero">
            <g id="document-5" transform="translate(89.000000, 310.000000)">
                <path d="M12.0515625,2.9484375 L9.2390625,0.1359375 C9.15061523,0.0481933594 9.03084961,-0.000703125 8.90625,-7.47946816e-06 L1.40625,-7.47946816e-06 C0.629589844,-7.47946816e-06 0,0.629589844 0,1.40625 L0,13.59375 C0,14.3704102 0.629589844,14.9999925 1.40625,14.9999925 L10.78125,14.9999925 C11.5579102,14.9999925 12.1875081,14.3704102 12.1875081,13.59375 L12.1875081,3.28125 C12.1882324,3.15665039 12.1393066,3.03691406 12.0515625,2.9484375 Z M11.25,13.59375 C11.25,13.8526465 11.0401465,14.0625 10.78125,14.0625 L1.40625,14.0625 C1.14735352,14.0625 0.9375,13.8526465 0.9375,13.59375 L0.9375,1.40625 C0.9375,1.14735352 1.14735352,0.9375 1.40625,0.9375 L8.4375,0.9375 L8.4375,2.8125 C8.4375,3.33026367 8.85723633,3.75 9.375,3.75 L11.25,3.75 L11.25,13.59375 Z" id="Shape"></path>
                <path d="M3.75,5.15625 C2.97333984,5.15625 2.34375,5.78583984 2.34375,6.5625 C2.34375,7.33916016 2.97333984,7.96875 3.75,7.96875 C4.52666016,7.96875 5.15625,7.33916016 5.15625,6.5625 C5.15625,5.78586914 4.52666016,5.15625 3.75,5.15625 Z M3.75,7.03125 C3.49110352,7.03125 3.28125,6.82139648 3.28125,6.5625 C3.28125,6.30360352 3.49110352,6.09375 3.75,6.09375 C4.00889648,6.09375 4.21875,6.30360352 4.21875,6.5625 C4.21875,6.82139648 4.00889648,7.03125 3.75,7.03125 Z" id="Shape"></path>
                <path d="M3.75,9.84375 C2.97333984,9.84375 2.34375,10.4733398 2.34375,11.25 C2.34375,12.0266602 2.97333984,12.65625 3.75,12.65625 C4.52666016,12.65625 5.15625,12.0266602 5.15625,11.25 C5.15625,10.4733691 4.52666016,9.84375 3.75,9.84375 Z M3.75,11.71875 C3.49110352,11.71875 3.28125,11.5088965 3.28125,11.25 C3.28125,10.9911035 3.49110352,10.78125 3.75,10.78125 C4.00889648,10.78125 4.21875,10.9911035 4.21875,11.25 C4.21875,11.5088965 4.00889648,11.71875 3.75,11.71875 Z" id="Shape"></path>
                <rect id="Rectangle" x="6.09375" y="5.15625" width="3.75" height="1"></rect>
                <rect id="Rectangle" x="6.09375" y="7.03125" width="1.875" height="1"></rect>
                <rect id="Rectangle" x="6.09375" y="9.84375" width="3.75" height="1"></rect>
                <rect id="Rectangle" x="6.09375" y="11.71875" width="1.875" height="1"></rect>
            </g>
        </g>
    </g>
</svg>