<?xml version="1.0" encoding="UTF-8"?>
<svg width="11px" height="14px" viewBox="0 0 11 14" version="1.1" xmlns="http://www.w3.org/2000/svg" xmlns:xlink="http://www.w3.org/1999/xlink">
    <title>8865BD5C-4F88-469D-B631-6EFC6C7933BA@0,5x</title>
    <g id="Learning-Role-Admin" stroke="none" stroke-width="1" fill="none" fill-rule="evenodd">
        <g id="Dashboard2" transform="translate(-132.000000, -302.000000)" fill="#F60000" fill-rule="nonzero">
            <g id="Group-12" transform="translate(132.000000, 302.000000)">
                <path d="M10.4665975,6.93000481 L7.7591282,4.6056494 L10.4665975,2.29565695 C10.5626954,2.21986007 10.5848156,2.10341847 10.5210982,2.00869983 C10.4653107,1.9082415 10.331511,1.84955384 10.1940246,1.865235 L1.45384965,1.865235 L1.45384965,1.66437326 C1.86923029,1.52950424 2.1463594,1.21530418 2.16249744,0.860898819 C2.16249744,0.385410681 1.67439128,-9.05941988e-14 1.07224064,-9.05941988e-14 C0.480141489,-9.05941988e-14 6.53699317e-13,0.378874573 6.53699317e-13,0.846398545 C6.53699317e-13,0.85123197 6.53699317e-13,0.856037932 0.000139121041,0.860871356 C0.0239288189,1.21752865 0.307422718,1.53090483 0.726976994,1.6643458 L0.726976994,12.9130429 C0.726976994,13.0715298 0.88967905,13.2 1.09039593,13.2 C1.29111281,13.2 1.45381487,13.0715298 1.45381487,12.9130429 L1.45381487,7.46085762 L10.1940246,7.46085762 C10.3419103,7.44723616 10.467954,7.36981898 10.5210982,7.25999588 C10.5885023,7.15132622 10.5670429,7.02137301 10.4665975,6.93000481 Z" id="Path"></path>
                <path d="M1.07224064,1.14782848 C0.871523755,1.14782848 0.708821698,1.01935825 0.708821698,0.860871356 C0.708821698,0.702384464 0.871523755,0.573914238 1.07224064,0.573914238 C1.27295752,0.573914238 1.43565957,0.702384464 1.43565957,0.860871356 C1.43565957,1.01935825 1.27295752,1.14782848 1.07224064,1.14782848 Z" id="Path"></path>
                <path d="M1.45384965,6.88697085 L1.45384965,2.43912178 L9.37637551,2.43912178 L7.01416981,4.43345865 C6.88461334,4.54784054 6.88461334,4.72082771 7.01416981,4.8352096 L9.37637551,6.88697085 L1.45384965,6.88697085 L1.45384965,6.88697085 Z" id="Path"></path>
            </g>
        </g>
    </g>
</svg>