<?xml version="1.0" encoding="UTF-8"?>
<svg width="342px" height="253px" viewBox="0 0 342 253" version="1.1" xmlns="http://www.w3.org/2000/svg" xmlns:xlink="http://www.w3.org/1999/xlink">
    <title>BDD82369-88B0-4B7F-8C79-05956C994F3D@0,5x</title>
    <g id="Role-Webinar-Project-Admin" stroke="none" stroke-width="1" fill="none" fill-rule="evenodd">
        <g id="Dokument-Tree" transform="translate(-491.000000, -291.000000)" fill-rule="nonzero">
            <g id="undraw_feeling_blue_4b7q" transform="translate(491.000000, 291.000000)">
                <path d="M4.5,122.210526 C9.88348581,143.288918 21.2703176,161.509967 39.2648592,170.342608 C76.6734221,188.698674 161.039494,179.231767 224.004893,168.364448 C256.575447,162.743962 285.20369,147.232678 306,125.403841 L4.5,122.210526 Z" id="Path" fill="#53C7E0" opacity="0.1"></path>
                <path d="M334.481205,23.7515545 L299.826499,23.7515545 C298.1819,23.7515545 296.832646,22.5147184 296.832646,21.0033805 C296.832646,19.4920425 298.1819,18.2520512 299.826499,18.2520512 L305.820423,18.2520512 C304.172716,18.2520512 302.82657,17.0152151 302.82657,15.500722 C302.82657,13.9862288 304.172716,12.7525479 305.820423,12.7525479 L301.542602,12.7525479 C299.894894,12.7525479 298.54564,11.5157118 298.54564,10.0012186 C298.54564,8.48672546 299.894894,7.25304457 301.542602,7.25304457 L319.630076,7.25304457 C315.61651,5.53977417 310.925207,4.32186925 305.518861,3.68136484 C256.196451,-2.13365789 238.587744,1.71252372 232.376198,5.66598193 C224.633812,10.6551194 216.033457,14.1169639 207.026376,15.8698797 C176.59664,21.6344193 119.688558,28.5695359 68.1090995,13.6612438 C42.4732598,6.23707207 23.418923,18.7663479 12,39.7105263 L340.5,39.7105263 C340.070974,33.6241569 338.787006,28.001601 336.430474,23.0826534 C335.872383,23.5199686 335.186274,23.75541 334.481205,23.7515545 L334.481205,23.7515545 Z" id="Path" fill="#53C7E0" opacity="0.1"></path>
                <path d="M0.744681989,78.7105263 C-0.584410271,90.8531158 -0.132612478,103.125226 2.08571241,115.136719 L305.891188,125.210526 C314.25412,116.520333 321.359563,106.698208 327,96.0310066 L0.744681989,78.7105263 Z M120.903491,104.695912 L114.921626,104.695912 C116.566872,104.695912 117.914111,105.918205 117.914111,107.407971 C117.914111,108.897738 116.566872,110.116921 114.921626,110.116921 L80.3186955,110.116921 C78.6765541,110.116921 77.3293152,108.897738 77.3293152,107.407971 C77.3293152,105.918205 78.6765541,104.695912 80.3186955,104.695912 L86.3036646,104.695912 C84.658419,104.695912 83.3142843,103.476729 83.3142843,101.986963 C83.3142843,100.497196 84.658419,99.2749033 86.3036646,99.2749033 L82.0291302,99.2749033 C80.3838845,99.2749033 79.0366456,98.0557206 79.0366456,96.565954 C79.0366456,95.0761875 80.3838845,93.8538947 82.0291302,93.8538947 L116.632061,93.8538947 C118.277307,93.8538947 119.621441,95.0730773 119.621441,96.565954 C119.621441,98.0588308 118.277307,99.2749033 116.632061,99.2749033 L120.903491,99.2749033 C122.548737,99.2749033 123.892872,100.494086 123.892872,101.986963 C123.892872,103.479839 122.548737,104.695912 120.903491,104.695912 Z" id="Shape" fill="#53C7E0" opacity="0.1"></path>
                <path d="M340.346304,39.7105263 L9.42552297,47.1418082 C5.39927058,56.7012828 2.72955554,67.5098452 1.5,78.7105263 L334.5485,78.7105263 C336.715969,72.1574556 338.324205,65.4252356 339.355226,58.5891447 C340.349401,52.0085073 340.745832,45.6429029 340.346304,39.7105263 Z M68.688861,64.0756443 L62.7207161,64.0756443 C64.3621882,64.0756443 65.7063371,65.3184076 65.7063371,66.8331242 C65.7063371,68.3478408 64.3621882,69.5906042 62.7207161,69.5906042 L28.1971504,69.5906042 C26.5587754,69.5906042 25.2146266,68.3478408 25.2146266,66.8331242 C25.2146266,65.3184076 26.5587754,64.0756443 28.1971504,64.0756443 L34.1683924,64.0756443 C32.5269203,64.0756443 31.1858686,62.8360432 31.1858686,61.3213266 C31.1858686,59.80661 32.5269203,58.5638467 34.1683924,58.5638467 L29.903662,58.5638467 C28.2621899,58.5638467 26.918041,57.3242456 26.918041,55.809529 C26.918041,54.2948124 28.2621899,53.0520491 29.903662,53.0520491 L64.4272277,53.0520491 C66.0686998,53.0520491 67.4097516,54.2916501 67.4097516,55.809529 C67.4097516,57.3274079 66.0686998,58.5638467 64.4272277,58.5638467 L68.688861,58.5638467 C70.3303331,58.5638467 71.6713849,59.80661 71.6713849,61.3213266 C71.6713849,62.8360432 70.3303331,64.0756443 68.688861,64.0756443 Z" id="Shape" fill="#53C7E0" opacity="0.1"></path>
                <ellipse id="Oval" fill="#53C7E0" opacity="0.1" cx="168.75" cy="230.960526" rx="138.75" ry="12.75"></ellipse>
                <path d="M251.515002,132.384496 C251.515002,132.384496 252.428107,127.891804 251.203361,126.463793 C249.978616,125.035781 250.371282,117.550134 252.241123,117.713149 C254.110964,117.876164 256.915726,123.796868 256.448265,125.048823 C255.980805,126.300778 254.213805,132.710526 254.213805,132.710526 L251.515002,132.384496 Z" id="Path" fill="#FBBEBE"></path>
                <path d="M279.823152,100.971063 C279.6053,101.349862 279.284868,101.662455 278.897151,101.874412 C278.503003,102.051106 278.069638,102.127463 277.637285,102.096395 C277.212077,102.098844 276.791561,102.009359 276.405767,101.834331 C275.356929,101.322537 274.96637,100.095462 274.475023,99.0595403 C274.412844,98.8726671 274.30214,98.7048091 274.153757,98.5724103 C273.898656,98.4588618 273.624121,98.3929856 273.344293,98.3781749 C272.755306,98.2486847 272.330101,97.7461392 272.05923,97.222012 C271.788359,96.6978848 271.627726,96.1182618 271.319059,95.6157163 C271.010392,95.1131708 270.487548,94.6722873 269.885962,94.6907859 C269.494387,94.7415904 269.113061,94.850763 268.755233,95.0145115 C267.719418,95.3398865 266.585535,95.123487 265.750453,94.4410547 C265.497548,94.1720221 265.196532,93.9505091 264.862248,93.7874373 C264.634484,93.7221508 264.396456,93.6981196 264.159873,93.7165259 C263.797662,93.7165259 263.4386,93.75044 263.076389,93.778188 C262.897002,94.0084836 262.704571,94.2287569 262.5,94.4379716 C263.051191,94.3917251 263.605532,94.3454786 264.159873,94.3331462 C264.396456,94.3147398 264.634484,94.338771 264.862248,94.4040575 C265.196532,94.5671293 265.497548,94.7886424 265.750453,95.0576749 C266.585535,95.7401072 267.719418,95.9565067 268.755233,95.6311318 C269.113061,95.4673832 269.494387,95.3582106 269.885962,95.3074061 C270.487548,95.3074061 271.007243,95.7390403 271.319059,96.2323365 C271.630876,96.7256327 271.791509,97.3114219 272.05923,97.8386322 C272.326952,98.3658425 272.755306,98.8653049 273.344293,98.9947952 C273.624121,99.0096059 273.898656,99.0754821 274.153757,99.1890305 C274.31231,99.3151121 274.434007,99.479972 274.506519,99.6669112 C274.997867,100.705916 275.388425,101.932991 276.437263,102.441702 C276.823057,102.61673 277.243573,102.706215 277.668782,102.703766 C278.101135,102.734834 278.534499,102.658477 278.928648,102.481783 C279.316365,102.269826 279.636797,101.957233 279.854649,101.578434 C280.343644,100.706945 280.562548,99.7148377 280.484582,98.7234823 C280.460633,99.5151912 280.233145,100.28821 279.823152,100.971063 L279.823152,100.971063 Z" id="Path" fill="#000000" opacity="0.1"></path>
                <ellipse id="Oval" fill="#575A89" cx="252" cy="133.460526" rx="3" ry="2.25"></ellipse>
                <circle id="Oval" fill="#53C7E0" cx="195" cy="142.5" r="96"></circle>
                <path d="M226.5,190.171983 C226.5,205.220436 202.73315,191.457436 177.252703,191.457436 C151.772256,191.457436 126,204.651871 126,189.603417 C126,181.0224 134.214092,169.088699 145.998178,160.42116 L145.998178,160.42116 C154.876599,153.888834 165.779051,149.210526 176.731173,149.210526 C187.99373,149.210526 199.026565,154.275088 207.827377,161.227659 C218.934716,169.994078 226.5,181.773278 226.5,190.171983 Z" id="Path" fill="#444053"></path>
                <path d="M208.5,161.210526 C195.027189,159.18327 170.660022,156.711683 147,160.405178 C155.831593,153.882164 166.676541,149.210526 177.570898,149.210526 C188.770963,149.210526 199.745607,154.267868 208.5,161.210526 Z" id="Path" fill="#F6F8FB"></path>
                <path d="M111,74.2105263 C111,74.2105263 82.2664448,92.7158672 82.5014335,121.662195 C82.7364222,150.608523 111,74.2105263 111,74.2105263 Z" id="Path" fill="#000000" opacity="0.05"></path>
                <path d="M257.499911,23.2436199 C257.499911,23.2436199 231.146862,21.705015 234.254769,39.6098851 C234.254769,39.6098851 233.628806,42.7720673 236.595872,44.2105263 C236.595872,44.2105263 236.642819,42.884352 239.296903,43.3334912 C240.242772,43.4869277 241.203995,43.5317461 242.160684,43.467019 C243.453448,43.3817931 244.682126,42.8894831 245.659818,42.0649766 L245.659818,42.0649766 C245.659818,42.0649766 253.068092,39.1000515 255.950652,27.3587053 C255.950652,27.3587053 258.082057,24.7973985 257.997552,24.1418982 L253.550084,25.9809408 C253.550084,25.9809408 255.068044,29.0915326 253.863065,31.6771172 C253.863065,31.6771172 253.719094,26.0962603 252.864654,26.2146145 C252.692514,26.241927 250.55485,27.2919414 250.55485,27.2919414 C250.55485,27.2919414 253.168246,32.711958 251.180813,36.6479947 C251.180813,36.6479947 251.928839,29.9716025 249.722319,27.6834208 L246.592503,29.4556994 C246.592503,29.4556994 249.647203,35.05173 247.575265,39.6189893 C247.575265,39.6189893 248.107334,32.6148469 245.935242,29.8866302 L243.096499,32.0321799 C243.096499,32.0321799 245.96654,37.5493077 244.216973,41.3366429 C244.216973,41.3366429 243.988497,33.1823402 242.483055,32.5662913 C242.483055,32.5662913 240.001111,34.6905979 239.622404,35.5615636 C239.622404,35.5615636 241.587928,39.5643643 240.37043,41.676532 C240.37043,41.676532 239.622404,36.2443765 239.00896,36.2140292 C239.00896,36.2140292 236.536405,39.8132116 236.27663,42.2834767 C236.27663,42.2834767 236.386174,38.611461 238.408035,35.8711055 C238.408035,35.8711055 236.016856,36.2686543 234.624088,37.7738772 C234.624088,37.7738772 235.009055,35.227744 239.00583,35.0062092 C239.00583,35.0062092 241.0496,32.2749578 241.597317,32.1110827 C241.597317,32.1110827 237.606802,31.7863673 235.187455,32.8272775 C235.187455,32.8272775 237.315729,30.426811 242.326564,31.5162769 L245.143399,29.3009285 C245.143399,29.3009285 239.891568,28.6029421 237.663139,29.3737619 C237.663139,29.3737619 240.226458,27.2494553 245.897684,28.7971644 L248.949255,27.0279205 C248.949255,27.0279205 244.470488,26.0932255 241.800755,26.4209757 C241.800755,26.4209757 244.61759,24.9491347 249.841252,26.5453994 L252.032123,25.5955308 C252.032123,25.5955308 248.748946,24.9703777 247.788093,24.8732666 C246.827239,24.7761554 246.777162,24.5151692 246.777162,24.5151692 C248.862161,24.1864687 251.000368,24.4271035 252.952289,25.2101209 C252.952289,25.2101209 257.578157,23.5258492 257.499911,23.2436199 Z" id="Path" fill="#53C7E0"></path>
                <path d="M230.769448,15.7248654 C230.769448,15.7248654 219.265046,15.0626732 220.609245,22.7383451 C220.609245,22.7383451 220.3398,24.0943996 221.632531,24.7105263 C221.632531,24.7105263 221.650696,24.134707 222.813246,24.3362437 C223.226336,24.4008969 223.645867,24.4202175 224.063593,24.3938257 C224.629062,24.3554473 225.16637,24.1443927 225.595495,23.7920945 L225.595495,23.7920945 C225.595495,23.7920945 228.831865,22.5195337 230.091294,17.4868726 C230.091294,17.4868726 231.023756,16.3899368 230.999536,16.1077853 L229.055898,16.8966578 C229.055898,16.8966578 229.721942,18.2296796 229.198189,19.3381318 C229.198189,19.3381318 229.134612,16.9456024 228.762233,17.0031844 C228.686546,17.0031844 227.751056,17.4638398 227.751056,17.4638398 C227.751056,17.4638398 228.895442,19.7872709 228.032612,21.4744216 C228.032612,21.4744216 228.359579,18.6125994 227.396842,17.6308275 L226.028424,18.390909 C226.028424,18.390909 227.36354,20.7920757 226.458325,22.7498614 C226.458325,22.7498614 226.688413,19.7469635 225.740814,18.5780503 L224.499549,19.4964821 C224.499549,19.4964821 225.752923,21.8602206 224.99,23.4840311 C224.99,23.4840311 224.890093,19.9888077 224.230104,19.7239308 C224.230104,19.7239308 223.146268,20.6337253 222.979757,21.0080079 C222.979757,21.0080079 223.83956,22.735466 223.306724,23.630865 C223.306724,23.630865 222.979757,21.3016758 222.701229,21.2930385 C222.701229,21.2930385 221.620421,22.8333552 221.508405,23.8842256 C221.560506,22.9062677 221.880942,21.9583246 222.437839,21.1346882 C221.814929,21.2467648 221.240232,21.53004 220.784838,21.9494725 C220.784838,21.9494725 220.951349,20.8582949 222.704257,20.7632847 C222.704257,20.7632847 223.597362,19.5943714 223.836532,19.522394 C223.836532,19.522394 222.092707,19.3841974 221.036119,19.8304574 C221.036119,19.8304574 221.965553,18.7997407 224.157445,19.254638 L225.368434,18.3074152 C225.368434,18.3074152 223.073609,18.0195055 222.098762,18.3362061 C222.098762,18.3362061 223.218928,17.4264116 225.698429,18.0914829 L227.030518,17.3314014 C227.030518,17.3314014 225.074769,16.9312069 223.906164,17.0751618 C223.906164,17.0751618 225.138346,16.4446396 227.421062,17.1298646 L228.374716,16.7210329 C228.374716,16.7210329 226.939693,16.4532769 226.521902,16.4129695 C226.10411,16.3726622 226.076863,16.2603774 226.076863,16.2603774 C226.985703,16.1165986 227.918688,16.2162907 228.771315,16.5482871 C228.771315,16.5482871 230.80275,15.8457875 230.769448,15.7248654 Z" id="Path" fill="#53C7E0"></path>
                <ellipse id="Oval" fill="#53C7E0" opacity="0.1" cx="333.75" cy="227.210526" rx="8.25" ry="1.5"></ellipse>
                <ellipse id="Oval" fill="#53C7E0" opacity="0.1" cx="14.25" cy="249.710526" rx="8.25" ry="1.5"></ellipse>
                <ellipse id="Oval" fill="#53C7E0" opacity="0.1" cx="63.75" cy="251.210526" rx="8.25" ry="1.5"></ellipse>
                <ellipse id="Oval" fill="#53C7E0" cx="315.75" cy="241.460526" rx="12.75" ry="2.25"></ellipse>
                <path d="M321.199562,238.81917 C321.801699,238.365864 322.240917,237.755013 322.459406,237.067017 C322.620167,236.374024 322.298645,235.538801 321.58014,235.284603 C320.773053,235.000143 319.910192,235.517618 319.257304,236.038119 C318.604417,236.558621 317.853104,237.15175 316.996804,237.042808 C317.892624,236.294619 318.296293,235.16727 318.059797,234.074135 C318.022464,233.851488 317.920423,233.642333 317.764521,233.468901 C317.315046,233.02708 316.504678,233.214702 315.96662,233.562712 C314.260582,234.67029 313.78486,236.806767 313.775017,238.731411 C313.604414,238.038418 313.748771,237.315163 313.74549,236.613092 C313.742209,235.91102 313.528954,235.100007 312.879348,234.727788 C312.476213,234.529197 312.023846,234.431143 311.567011,234.443328 C310.799294,234.416092 309.946275,234.485694 309.42134,235.003169 C308.765172,235.647743 308.939056,236.72506 309.506642,237.424105 C310.074228,238.123151 310.933808,238.577076 311.724491,239.06429 C312.360821,239.413229 312.903605,239.890089 313.312419,240.459354 C313.360222,240.539485 313.399765,240.623578 313.430529,240.710526 L318.236962,240.710526 C319.312454,240.206199 320.309026,239.569977 321.199562,238.81917 L321.199562,238.81917 Z" id="Path" fill="#53C7E0"></path>
                <path d="M18.4583231,212.210526 C18.4583231,212.210526 20.2570609,214.376076 17.6261202,217.639481 C14.9951795,220.902886 12.8262097,223.671652 13.6944529,225.710526 C13.6944529,225.710526 17.6621605,219.63613 20.9025096,219.548663 C24.1428587,219.461197 22.0099292,215.863006 18.4583231,212.210526 Z" id="Path" fill="#53C7E0"></path>
                <path d="M18.4062281,212.210526 C18.5641595,212.419679 18.6890542,212.64796 18.7772595,212.888691 C21.9641544,216.294585 23.6602981,219.474425 20.5992888,219.55279 C17.7436719,219.628142 14.3050057,224.269803 13.5,225.442274 C13.5281409,225.533158 13.561311,225.622689 13.5993834,225.710526 C13.5993834,225.710526 17.6111607,219.640198 20.8875007,219.55279 C24.1638407,219.465382 21.9972822,215.86056 18.4062281,212.210526 Z" id="Path" fill="#000000" opacity="0.1"></path>
                <path d="M21.197069,215.605646 C21.197069,216.215984 21.107069,216.710526 20.9984483,216.710526 C20.8898276,216.710526 20.802931,216.228046 20.802931,215.605646 C20.802931,214.983246 20.9115517,215.282384 21.0232759,215.282384 C21.135,215.282384 21.197069,214.995308 21.197069,215.605646 Z" id="Path" fill="#FFD037"></path>
                <path d="M23.6397996,215.966561 C23.0556797,216.495691 22.5478637,216.814919 22.5031338,216.679357 C22.4584039,216.543794 22.8978094,216.010291 23.4819294,215.481161 C24.0660493,214.952031 23.8345063,215.336853 23.8792362,215.481161 C23.9239661,215.625469 24.2344442,215.437431 23.6397996,215.966561 Z" id="Path" fill="#FFD037"></path>
                <path d="M10.0441652,212.210526 C10.0441652,212.210526 8.2450708,214.376076 10.8732561,217.639481 C13.5014414,220.902886 15.6741183,223.671652 14.8057029,225.710526 C14.8057029,225.710526 10.8339316,219.63613 7.59621708,219.548663 C4.35850253,219.461197 6.48857789,215.863006 10.0441652,212.210526 Z" id="Path" fill="#53C7E0"></path>
                <path d="M10.0948997,212.210526 C9.93544062,212.418897 9.81038244,212.647374 9.72370291,212.888691 C6.53538771,216.294585 4.83517389,219.474425 7.90086158,219.55279 C10.7544368,219.628142 14.1979498,224.269803 15,225.442274 C14.9729662,225.533111 14.9408873,225.622643 14.9038865,225.710526 C14.9038865,225.710526 10.8870071,219.640198 7.61252123,219.55279 C4.33803535,219.465382 6.49893089,215.86056 10.0948997,212.210526 Z" id="Path" fill="#000000" opacity="0.1"></path>
                <path d="M5.80448276,215.605646 C5.80448276,216.215984 5.89137931,216.710526 6,216.710526 C6.10862069,216.710526 6.19551724,216.228046 6.19551724,215.605646 C6.19551724,214.983246 6.08689655,215.282384 5.97827586,215.282384 C5.86965517,215.282384 5.80448276,214.995308 5.80448276,215.605646 Z" id="Path" fill="#FFD037"></path>
                <path d="M4.85477811,215.966561 C5.44032513,216.495691 5.95201937,216.814919 5.99685855,216.679357 C6.04169774,216.543794 5.60121868,216.010291 5.01567166,215.481161 C4.43012465,214.952031 4.65959577,215.336853 4.61739419,215.481161 C4.5751926,215.625469 4.2692311,215.437431 4.85477811,215.966561 Z" id="Path" fill="#FFD037"></path>
                <path d="M7.5,225.291934 C7.5,225.291934 12.3363041,225.146022 13.7972709,224.121528 C15.2582378,223.097035 21.2374966,221.876957 21.5995897,223.500623 C21.9616827,225.12429 28.8666403,231.665524 23.4069064,231.708988 C17.9471725,231.752451 10.7210541,230.867661 9.2663845,229.99529 C7.81171491,229.122918 7.5,225.291934 7.5,225.291934 Z" id="Path" fill="#A8A8A8"></path>
                <path d="M23.5050214,231.182191 C18.0429653,231.222721 10.8137734,230.397629 9.35848507,229.584117 C8.24969398,228.964574 7.80869752,226.738273 7.66064871,225.710526 L7.5,225.710526 C7.5,225.710526 7.81499747,229.297506 9.26083585,230.111018 C10.7066742,230.92453 17.9453161,231.749622 23.4073722,231.709092 C24.9823595,231.709092 25.5273051,231.179295 25.4989554,230.417895 C25.2784571,230.883999 24.679962,231.173505 23.5050214,231.182191 Z" id="Path" fill="#000000" opacity="0.2"></path>
                <path d="M142.153134,129.638187 C143.955717,129.536655 152.440443,128.896695 157.829764,125.81689 C158.695308,125.306701 159.673053,125.018204 160.676432,124.976943 C162.389959,124.927716 164.361438,125.644593 163.099323,129.656647 C161.054145,136.219309 149.179213,143.603457 141.8092,143.194252 C134.721705,142.800431 126.31375,139.939074 120.761674,129.878172 C120.229716,128.910228 119.967712,127.816627 120.003177,126.712218 C120.067665,124.681577 120.804666,122.137123 124.609435,124.973867 C129.750018,128.804394 139.503001,129.530501 141.459125,129.638187 C141.690295,129.650603 141.921964,129.650603 142.153134,129.638187 L142.153134,129.638187 Z" id="Path" fill="#444053"></path>
                <path d="M211.153134,129.638187 C212.955717,129.536655 221.440443,128.896695 226.829764,125.81689 C227.695308,125.306701 228.673053,125.018204 229.676432,124.976943 C231.389959,124.927716 233.361438,125.644593 232.099323,129.656647 C230.054145,136.219309 218.179213,143.603457 210.8092,143.194252 C203.721705,142.800431 195.31375,139.939074 189.761674,129.878172 C189.229716,128.910228 188.967712,127.816627 189.003177,126.712218 C189.067665,124.681577 189.804666,122.137123 193.609435,124.973867 C198.750018,128.804394 208.503001,129.530501 210.459125,129.638187 C210.690295,129.650603 210.921964,129.650603 211.153134,129.638187 L211.153134,129.638187 Z" id="Path" fill="#444053"></path>
            </g>
        </g>
    </g>
</svg>