<?xml version="1.0" encoding="UTF-8"?>
<svg width="17px" height="15px" viewBox="0 0 17 15" version="1.1" xmlns="http://www.w3.org/2000/svg" xmlns:xlink="http://www.w3.org/1999/xlink">
    <title>4E9F8B72-6483-4C89-A335-90516FE69760@0,5x</title>
    <g id="Role-Guru" stroke="none" stroke-width="1" fill="none" fill-rule="evenodd" opacity="0.5">
        <g id="Side-Bar" transform="translate(-87.000000, -196.000000)" fill="#000000" fill-rule="nonzero">
            <g id="Dialog" transform="translate(87.000000, 196.000000)">
                <path d="M15.5822438,4.56065673 L12.1617513,4.56065673 L12.1617513,1.14016418 C12.1617513,0.510468893 11.6512824,-1.50102153e-13 11.0215871,-1.50102153e-13 L1.14016418,-1.50102153e-13 C0.510468893,-1.50102153e-13 1.44240175e-12,0.510468893 1.44240175e-12,1.14016418 L1.44240175e-12,7.22103983 C1.44240175e-12,7.85073512 0.510468893,8.36120401 1.14016418,8.36120401 L1.35641532,8.36120401 L1.22187595,8.69945272 C1.08205632,9.05052508 1.12526601,9.44806545 1.33724734,9.76089966 C1.54922867,10.0737339 1.90243783,10.2612138 2.28032837,10.2614777 C2.47421334,10.2623663 2.66496601,10.212582 2.83368805,10.1170569 L4.56065673,9.15931894 L4.56065673,11.7816966 C4.56065673,12.4113919 5.07112563,12.9218607 5.70082092,12.9218607 L10.7262846,12.9218607 L13.8883399,14.6777136 C14.0571739,14.7733028 14.248066,14.8230893 14.4420797,14.8221479 C14.8200375,14.8219964 15.1733628,14.634568 15.385434,14.3217136 C15.5975052,14.0088591 15.6407566,13.6112443 15.5009121,13.2601095 L15.3663728,12.9218607 L15.5822438,12.9218607 C16.2119391,12.9218607 16.722408,12.4113919 16.722408,11.7816966 L16.722408,5.70082092 C16.722408,5.07112563 16.2119391,4.56065673 15.5822438,4.56065673 L15.5822438,4.56065673 Z M4.56065673,5.70082092 L4.56065673,7.85573123 L2.28032837,9.12131347 L3.04043782,7.22103983 L1.14016418,7.22103983 L1.14016418,1.14016418 L11.0215871,1.14016418 L11.0215871,4.56065673 L5.70082092,4.56065673 C5.07112563,4.56065673 4.56065673,5.07112563 4.56065673,5.70082092 L4.56065673,5.70082092 Z M15.5822438,11.7816966 L13.6819702,11.7816966 L14.4420797,13.6819702 L11.0215871,11.7816966 L5.70082092,11.7816966 L5.70082092,5.70082092 L15.5822438,5.70082092 L15.5822438,11.7816966 Z M7.22103983,7.98114929 L14.0620249,7.98114929 C14.3768726,7.98114929 14.632107,7.72591484 14.632107,7.41106719 C14.632107,7.09621955 14.3768726,6.8409851 14.0620249,6.8409851 L7.22103983,6.8409851 C6.90619218,6.8409851 6.65095774,7.09621955 6.65095774,7.41106719 C6.65095774,7.72591484 6.90619218,7.98114929 7.22103983,7.98114929 Z M7.22103983,10.2614777 L14.0620249,10.2614777 C14.3768726,10.2614777 14.632107,10.0062432 14.632107,9.69139556 C14.632107,9.37654792 14.3768726,9.12131347 14.0620249,9.12131347 L7.22103983,9.12131347 C6.90619218,9.12131347 6.65095774,9.37654792 6.65095774,9.69139556 C6.65095774,10.0062432 6.90619218,10.2614777 7.22103983,10.2614777 L7.22103983,10.2614777 Z"></path>
            </g>
        </g>
    </g>
</svg>