<?xml version="1.0" encoding="UTF-8"?>
<svg width="18px" height="18px" viewBox="0 0 18 18" version="1.1" xmlns="http://www.w3.org/2000/svg" xmlns:xlink="http://www.w3.org/1999/xlink">
    <title>6AD4489A-C7A3-4422-ADBE-0720480911C2@0,5x</title>
    <g id="Learning-Role-Guru" stroke="none" stroke-width="1" fill="none" fill-rule="evenodd" opacity="0.7">
        <g id="Exercise-&amp;-Ujian" transform="translate(-84.000000, -311.000000)" fill="#000000" fill-rule="nonzero">
            <g id="info" transform="translate(84.000000, 311.000000)">
                <path d="M12.8205128,17.5824176 C10.1948718,17.5824176 8.05860806,15.4461538 8.05860806,12.8205128 C8.05860806,10.1948718 10.1948718,8.05860806 12.8205128,8.05860806 C15.4461538,8.05860806 17.5824176,10.1948718 17.5824176,12.8205128 C17.5824176,15.4461538 15.4461538,17.5824176 12.8205128,17.5824176 Z M12.8205128,8.79120879 C10.5985348,8.79120879 8.79120879,10.5992674 8.79120879,12.8205128 C8.79120879,15.0417582 10.5985348,16.8498168 12.8205128,16.8498168 C15.0424908,16.8498168 16.8498168,15.0417582 16.8498168,12.8205128 C16.8498168,10.5992674 15.0424908,8.79120879 12.8205128,8.79120879 Z" id="Shape"></path>
                <path d="M12.8205128,15.3846154 C12.618315,15.3846154 12.4542125,15.2205128 12.4542125,15.018315 L12.4542125,12.0879121 C12.4542125,11.8857143 12.618315,11.7216117 12.8205128,11.7216117 C13.0227106,11.7216117 13.1868132,11.8857143 13.1868132,12.0879121 L13.1868132,15.018315 C13.1868132,15.2205128 13.0227106,15.3846154 12.8205128,15.3846154 Z" id="Path"></path>
                <circle id="Oval" cx="12.8205128" cy="10.6227106" r="1"></circle>
                <path d="M6.95970696,15.3846154 L1.83150183,15.3846154 C0.821978022,15.3846154 0,14.56337 0,13.5531136 L0,4.02930403 C0,3.01904762 0.821978022,2.1978022 1.83150183,2.1978022 L3.2967033,2.1978022 C3.4989011,2.1978022 3.66300366,2.36190476 3.66300366,2.56410256 C3.66300366,2.76630037 3.4989011,2.93040293 3.2967033,2.93040293 L1.83150183,2.93040293 C1.22564103,2.93040293 0.732600733,3.42344322 0.732600733,4.02930403 L0.732600733,13.5531136 C0.732600733,14.1589744 1.22564103,14.6520147 1.83150183,14.6520147 L6.95970696,14.6520147 C7.16190476,14.6520147 7.32600733,14.8161172 7.32600733,15.018315 C7.32600733,15.2205128 7.16190476,15.3846154 6.95970696,15.3846154 Z" id="Path"></path>
                <path d="M8.42490842,4.3956044 L4.02930403,4.3956044 C3.42344322,4.3956044 2.93040293,3.9025641 2.93040293,3.2967033 L2.93040293,1.83150183 C2.93040293,1.62930403 3.09450549,1.46520147 3.2967033,1.46520147 L4.43223443,1.46520147 C4.6029304,0.63003663 5.34212454,0 6.22710623,0 C7.11208791,0 7.85128205,0.63003663 8.02197802,1.46520147 L9.15750916,1.46520147 C9.35970696,1.46520147 9.52380952,1.62930403 9.52380952,1.83150183 L9.52380952,3.2967033 C9.52380952,3.9025641 9.03076923,4.3956044 8.42490842,4.3956044 Z M3.66300366,2.1978022 L3.66300366,3.2967033 C3.66300366,3.4981685 3.82710623,3.66300366 4.02930403,3.66300366 L8.42490842,3.66300366 C8.62710623,3.66300366 8.79120879,3.4981685 8.79120879,3.2967033 L8.79120879,2.1978022 L7.69230769,2.1978022 C7.49010989,2.1978022 7.32600733,2.03369963 7.32600733,1.83150183 C7.32600733,1.22564103 6.83296703,0.732600733 6.22710623,0.732600733 C5.62124542,0.732600733 5.12820513,1.22564103 5.12820513,1.83150183 C5.12820513,2.03369963 4.96410256,2.1978022 4.76190476,2.1978022 L3.66300366,2.1978022 Z" id="Shape"></path>
                <path d="M9.89010989,6.59340659 L2.56410256,6.59340659 C2.36190476,6.59340659 2.1978022,6.42930403 2.1978022,6.22710623 C2.1978022,6.02490842 2.36190476,5.86080586 2.56410256,5.86080586 L9.89010989,5.86080586 C10.0923077,5.86080586 10.2564103,6.02490842 10.2564103,6.22710623 C10.2564103,6.42930403 10.0923077,6.59340659 9.89010989,6.59340659 Z" id="Path"></path>
                <path d="M7.69230769,8.79120879 L2.56410256,8.79120879 C2.36190476,8.79120879 2.1978022,8.62710623 2.1978022,8.42490842 C2.1978022,8.22271062 2.36190476,8.05860806 2.56410256,8.05860806 L7.69230769,8.05860806 C7.89450549,8.05860806 8.05860806,8.22271062 8.05860806,8.42490842 C8.05860806,8.62710623 7.89450549,8.79120879 7.69230769,8.79120879 Z" id="Path"></path>
                <path d="M6.22710623,10.989011 L2.56410256,10.989011 C2.36190476,10.989011 2.1978022,10.8249084 2.1978022,10.6227106 C2.1978022,10.4205128 2.36190476,10.2564103 2.56410256,10.2564103 L6.22710623,10.2564103 C6.42930403,10.2564103 6.59340659,10.4205128 6.59340659,10.6227106 C6.59340659,10.8249084 6.42930403,10.989011 6.22710623,10.989011 Z" id="Path"></path>
                <path d="M12.0879121,6.59340659 C11.8857143,6.59340659 11.7216117,6.42930403 11.7216117,6.22710623 L11.7216117,4.02930403 C11.7216117,3.42344322 11.2285714,2.93040293 10.6227106,2.93040293 L9.15750916,2.93040293 C8.95531136,2.93040293 8.79120879,2.76630037 8.79120879,2.56410256 C8.79120879,2.36190476 8.95531136,2.1978022 9.15750916,2.1978022 L10.6227106,2.1978022 C11.6322344,2.1978022 12.4542125,3.01904762 12.4542125,4.02930403 L12.4542125,6.22710623 C12.4542125,6.42930403 12.2901099,6.59340659 12.0879121,6.59340659 Z" id="Path"></path>
            </g>
        </g>
    </g>
</svg>