<?xml version="1.0" encoding="UTF-8"?>
<svg width="18px" height="18px" viewBox="0 0 18 18" version="1.1" xmlns="http://www.w3.org/2000/svg" xmlns:xlink="http://www.w3.org/1999/xlink">
    <title>32338F2E-8BC3-4AB3-8490-FB247BDC4635@0,5x</title>
    <g id="Learning-Role-Guru" stroke="none" stroke-width="1" fill="none" fill-rule="evenodd">
        <g id="KPI-Guru" transform="translate(-84.000000, -366.000000)" fill="#0091FF" fill-rule="nonzero">
            <g id="instructor" transform="translate(84.000000, 366.000000)">
                <path d="M17.2765379,7.93021412 L10.4792115,7.93021412 C10.3227924,7.93021412 10.1959896,8.05701689 10.1959896,8.21343605 L10.1959896,9.23586723 C9.67893165,8.93845276 9.09314967,8.78126793 8.49665798,8.77987991 L7.64699218,8.77987991 L7.64699218,8.21343605 C8.20476056,7.79921129 8.59081819,7.19442126 8.73173219,6.51410445 L8.77987991,6.51410445 C9.22229139,6.51162018 9.62277935,6.2518233 9.80539466,5.84885217 C9.98800998,5.44588105 9.91933677,4.97347337 9.62954571,4.63917526 L9.62954571,3.68188513 C9.62954571,1.64843612 7.98110959,2.57588847e-15 5.94766059,2.57588847e-15 C3.91421158,2.57588847e-15 2.26577546,1.64843612 2.26577546,3.68188513 L2.26577546,4.63917526 C1.9759844,4.97347337 1.90731119,5.44588105 2.08992651,5.84885217 C2.27254182,6.2518233 2.67302979,6.51162018 3.11544126,6.51410445 L3.17208565,6.51410445 C3.31082619,7.19315244 3.69374251,7.79775715 4.24832899,8.21343605 L4.24832899,8.77987991 L3.39866319,8.77987991 C1.52163334,8.77987991 3.86383271e-15,10.3015133 3.86383271e-15,12.1785431 L3.86383271e-15,17.2765379 C3.86383271e-15,17.432957 0.126802778,17.5597598 0.283221933,17.5597598 L9.62954571,17.5597598 L9.62954571,16.993316 L7.32128696,16.993316 L6.51410445,12.2238586 L6.85680299,11.5384615 L7.50821344,11.8641668 C7.55106987,11.8861873 7.59883565,11.8969102 7.64699218,11.8953212 C7.7687538,11.8956355 7.87708958,11.8180899 7.91605302,11.7027303 L8.69774555,9.34632378 C9.24126043,9.38704254 9.7614823,9.58372378 10.1959896,9.91276764 L10.1959896,17.2765379 C10.1959896,17.432957 10.3227924,17.5597598 10.4792115,17.5597598 L17.2765379,17.5597598 C17.432957,17.5597598 17.5597598,17.432957 17.5597598,17.2765379 L17.5597598,8.21343605 C17.5597598,8.05701689 17.432957,7.93021412 17.2765379,7.93021412 L17.2765379,7.93021412 Z M8.77987991,5.94766059 L8.77987991,4.81477286 C9.09271822,4.81477286 9.34632378,5.06837841 9.34632378,5.38121672 C9.34632378,5.69405503 9.09271822,5.94766059 8.77987991,5.94766059 Z M2.54899739,5.38121672 C2.54899739,5.06837841 2.80260295,4.81477286 3.11544126,4.81477286 L3.11544126,5.94766059 C2.80260295,5.94766059 2.54899739,5.69405503 2.54899739,5.38121672 Z M3.11544126,4.24832899 C3.01975856,4.24979675 2.92462644,4.26311525 2.83221933,4.28798006 L2.83221933,3.68188513 C2.83221933,1.96127443 4.22704989,0.566443865 5.94766059,0.566443865 C7.66827128,0.566443865 9.06310185,1.96127443 9.06310185,3.68188513 L9.06310185,4.28798006 C8.97069474,4.26311525 8.87556261,4.24979675 8.77987991,4.24832899 C8.77987991,4.09190984 8.65307714,3.96510706 8.49665798,3.96510706 C8.05092712,3.96510706 7.63120877,3.75524788 7.36377025,3.39866319 L7.02390393,2.9455081 C6.97041623,2.87419116 6.88647256,2.83221933 6.79732638,2.83221933 C6.70818021,2.83221933 6.62423654,2.87419116 6.57074884,2.9455081 L6.23088252,3.39866319 C5.963444,3.75524788 5.54372565,3.96510706 5.09799479,3.96510706 L3.39866319,3.96510706 C3.24224404,3.96510706 3.11544126,4.09190984 3.11544126,4.24832899 L3.11544126,4.24832899 Z M3.68188513,5.94766059 L3.68188513,4.53155092 L5.09799479,4.53155092 C5.72201799,4.53155092 6.30962369,4.23774807 6.68403761,3.73852951 L6.79732638,3.58842189 L6.91061516,3.73852951 C7.22666161,4.15716971 7.69455653,4.43485518 8.21343605,4.51172539 L8.21343605,5.94766059 C8.21343605,7.19901382 7.19901382,8.21343605 5.94766059,8.21343605 C4.69630735,8.21343605 3.68188513,7.19901382 3.68188513,5.94766059 L3.68188513,5.94766059 Z M5.94766059,8.77987991 C6.33771,8.78007652 6.72352729,8.69905489 7.08054832,8.54197349 L7.08054832,8.96114195 L5.94766059,10.3206072 L4.81477286,8.96114195 L4.81477286,8.54197349 C5.17179388,8.69905489 5.55761118,8.78007652 5.94766059,8.77987991 L5.94766059,8.77987991 Z M4.41259771,11.2127563 L3.79234168,9.34632378 L4.39843661,9.34632378 L5.50016993,10.6689702 L4.41259771,11.2127563 Z M0.566434683,12.1785431 C0.562686645,10.6896306 1.71241556,9.45203217 3.19757562,9.34632378 L3.97926815,11.6914014 C4.01421492,11.8112422 4.12350301,11.894071 4.24832899,11.8953212 C4.29266519,11.8950553 4.33631973,11.8843842 4.37577886,11.8641668 L5.02718931,11.5384615 L5.38121672,12.2238586 L4.57403421,16.993316 L2.26577546,16.993316 L2.26577546,13.0282089 L1.6993316,13.0282089 L1.6993316,16.993316 L0.566434683,16.993316 L0.566434683,12.1785431 Z M5.14897474,16.993316 L5.9051773,12.461765 L5.99014388,12.461765 L6.74634644,16.993316 L5.14897474,16.993316 Z M6.05528492,11.8953212 L5.84003625,11.8953212 L5.53415657,11.286394 L5.94766059,11.079642 L6.36116461,11.286394 L6.05528492,11.8953212 Z M7.47139458,11.2127563 L6.38382236,10.6689702 L7.49688456,9.34632378 L8.10297949,9.34632378 L7.47139458,11.2127563 Z M12.461765,8.49665798 L15.2939844,8.49665798 L15.2939844,9.06310185 L12.461765,9.06310185 L12.461765,8.49665798 Z M16.993316,16.993316 L10.7624334,16.993316 L10.7624334,8.49665798 L11.8953212,8.49665798 L11.8953212,9.34632378 C11.8953212,9.50274293 12.022124,9.62954571 12.1785431,9.62954571 L15.5772063,9.62954571 C15.7336255,9.62954571 15.8604282,9.50274293 15.8604282,9.34632378 L15.8604282,8.49665798 L16.993316,8.49665798 L16.993316,16.993316 Z" id="Shape"></path>
                <path d="M12.744987,10.1959896 L11.6120992,10.1959896 C11.4556801,10.1959896 11.3288773,10.3227924 11.3288773,10.4792115 L11.3288773,11.6120992 C11.3288773,11.7685184 11.4556801,11.8953212 11.6120992,11.8953212 L12.744987,11.8953212 C12.9014061,11.8953212 13.0282089,11.7685184 13.0282089,11.6120992 L13.0282089,10.4792115 C13.0282089,10.3227924 12.9014061,10.1959896 12.744987,10.1959896 Z M12.461765,11.3288773 L11.8953212,11.3288773 L11.8953212,10.7624334 L12.461765,10.7624334 L12.461765,11.3288773 Z" id="Shape"></path>
                <path d="M12.744987,12.461765 L11.6120992,12.461765 C11.4556801,12.461765 11.3288773,12.5885678 11.3288773,12.744987 L11.3288773,13.8778747 C11.3288773,14.0342939 11.4556801,14.1610966 11.6120992,14.1610966 L12.744987,14.1610966 C12.9014061,14.1610966 13.0282089,14.0342939 13.0282089,13.8778747 L13.0282089,12.744987 C13.0282089,12.5885678 12.9014061,12.461765 12.744987,12.461765 Z M12.461765,13.5946528 L11.8953212,13.5946528 L11.8953212,13.0282089 L12.461765,13.0282089 L12.461765,13.5946528 Z" id="Shape"></path>
                <path d="M12.744987,14.7275405 L11.6120992,14.7275405 C11.4556801,14.7275405 11.3288773,14.8543433 11.3288773,15.0107624 L11.3288773,16.1436502 C11.3288773,16.3000693 11.4556801,16.4268721 11.6120992,16.4268721 L12.744987,16.4268721 C12.9014061,16.4268721 13.0282089,16.3000693 13.0282089,16.1436502 L13.0282089,15.0107624 C13.0282089,14.8543433 12.9014061,14.7275405 12.744987,14.7275405 Z M12.461765,15.8604282 L11.8953212,15.8604282 L11.8953212,15.2939844 L12.461765,15.2939844 L12.461765,15.8604282 Z" id="Shape"></path>
                <polygon id="Path" points="13.5946528 10.1959896 16.4268721 10.1959896 16.4268721 10.7624334 13.5946528 10.7624334"></polygon>
                <polygon id="Path" points="13.5946528 11.3288773 16.4268721 11.3288773 16.4268721 11.8953212 13.5946528 11.8953212"></polygon>
                <polygon id="Path" points="13.5946528 12.461765 16.4268721 12.461765 16.4268721 13.0282089 13.5946528 13.0282089"></polygon>
                <polygon id="Path" points="13.5946528 13.5946528 16.4268721 13.5946528 16.4268721 14.1610966 13.5946528 14.1610966"></polygon>
                <polygon id="Path" points="13.5946528 14.7275405 16.4268721 14.7275405 16.4268721 15.2939844 13.5946528 15.2939844"></polygon>
                <polygon id="Path" points="13.5946528 15.8604282 16.4268721 15.8604282 16.4268721 16.4268721 13.5946528 16.4268721"></polygon>
            </g>
        </g>
    </g>
</svg>