<?xml version="1.0" encoding="UTF-8"?>
<svg width="17px" height="21px" viewBox="0 0 17 21" version="1.1" xmlns="http://www.w3.org/2000/svg" xmlns:xlink="http://www.w3.org/1999/xlink">
    <title>0846BA9F-AD47-47AB-A537-1848C966E22E@0,5x</title>
    <g id="Learning-Role-Admin" stroke="none" stroke-width="1" fill="none" fill-rule="evenodd">
        <g id="Icon-Learning" transform="translate(-866.000000, -130.000000)" fill="#424242" fill-rule="nonzero">
            <g id="clipboard-(1)" transform="translate(867.000000, 131.000000)">
                <path d="M12.3308852,13.5354078 L8.92926169,13.5354078 C8.60904523,13.5354078 8.34943951,13.7950135 8.34943951,14.11523 C8.34943951,14.4354465 8.60904523,14.6950522 8.92926169,14.6950522 L12.3308852,14.6950522 C12.6511017,14.6950522 12.9107074,14.4354465 12.9107074,14.11523 C12.9107074,13.7950135 12.6511017,13.5354078 12.3308852,13.5354078 Z" id="Path"></path>
                <path d="M12.3308852,9.00463858 L8.92926169,9.00463858 C8.60904523,9.00463858 8.34943951,9.2642443 8.34943951,9.58446077 C8.34943951,9.90467723 8.60904523,10.164283 8.92926169,10.164283 L12.3308852,10.164283 C12.6511017,10.164283 12.9107074,9.90467723 12.9107074,9.58446077 C12.9107074,9.2642443 12.6511017,9.00463858 12.3308852,9.00463858 Z" id="Path"></path>
                <path d="M5.59006571,8.21360649 C5.34425976,8.00838809 4.97862389,8.04120603 4.77336683,8.28701198 L3.79427909,9.45948976 L3.57212988,9.01611906 C3.42868187,8.72980286 3.0803247,8.61399304 2.7940085,8.75747971 C2.50769231,8.90092772 2.39192114,9.24932354 2.53536915,9.53560108 L3.15384615,10.7700039 C3.2413993,10.9447623 3.41113259,11.0636645 3.60533436,11.0862389 C3.62775416,11.0888288 3.65005798,11.0901044 3.67232315,11.0901044 C3.84298415,11.0901044 4.00645535,11.0146888 4.11731736,10.8819482 L5.66350986,9.03038268 C5.8686896,8.78453807 5.83583301,8.41886355 5.59006571,8.21360649 L5.59006571,8.21360649 Z" id="Path"></path>
                <path d="M4.936954,12.5123309 C4.67634325,12.3262466 4.31426363,12.3865868 4.12810205,12.6471202 L3.82682644,13.0689215 L3.52555083,12.6471202 C3.33942791,12.3865481 2.97727097,12.326208 2.71669888,12.5123309 C2.45612679,12.6984538 2.39578663,13.0606107 2.58190955,13.3211828 L3.11426363,14.0664863 L2.58190955,14.8117897 C2.39578663,15.0723618 2.45612679,15.4344801 2.71669888,15.6206417 C2.81886355,15.693622 2.93656745,15.7286819 3.05322768,15.7286819 C3.2341322,15.7286819 3.41236954,15.6442598 3.52555083,15.4858523 L3.82682644,15.0640897 L4.12810205,15.485891 C4.24128334,15.6443371 4.41952068,15.7287205 4.6004252,15.7287205 C4.71704677,15.7287205 4.83478933,15.693622 4.936954,15.6206803 C5.19752609,15.4345574 5.25786625,15.0724005 5.07174333,14.8118284 L4.53938925,14.0664863 L5.07174333,13.3211828 C5.25786625,13.0606107 5.19752609,12.6984925 4.936954,12.5123309 L4.936954,12.5123309 Z" id="Path"></path>
                <path d="M13.2199459,1.98871279 L13.2199459,1.73946656 C13.2199459,0.7803247 12.4396212,0 11.4804793,0 L3.90413606,0 C2.9449942,0 2.1646695,0.7803247 2.1646695,1.73946656 L2.1646695,1.98871279 C0.915229996,2.31588713 0,3.45747971 0,4.79319675 L0,16.8921531 C0,18.4907228 1.30054117,19.791264 2.89911094,19.791264 L12.4855044,19.791264 C14.0840742,19.791264 15.3846154,18.4907228 15.3846154,16.8921531 L15.3846154,4.79319675 C15.3846154,3.45747971 14.4693854,2.31588713 13.2199459,1.98871279 Z M3.32431388,1.73946656 C3.32431388,1.41975261 3.58442211,1.15964438 3.90413606,1.15964438 L11.4804793,1.15964438 C11.8001933,1.15964438 12.0603015,1.41975261 12.0603015,1.73946656 L12.0603015,3.16969463 C12.0603015,3.48940858 11.8001933,3.74951681 11.4804793,3.74951681 L3.90413606,3.74951681 C3.58442211,3.74951681 3.32431388,3.48940858 3.32431388,3.16969463 L3.32431388,1.73946656 Z M14.224971,16.8921531 C14.224971,17.8512949 13.4446463,18.6316196 12.4855044,18.6316196 L2.89911094,18.6316196 C1.93996908,18.6316196 1.15964438,17.8512949 1.15964438,16.8921531 L1.15964438,4.79319675 C1.15964438,4.10007731 1.57027445,3.4943564 2.1658678,3.21627368 C2.19068419,4.15392346 2.96061075,4.90916119 3.90413606,4.90916119 L11.4804793,4.90916119 C12.4240046,4.90916119 13.1939312,4.15392346 13.2187476,3.21627368 C13.8143409,3.4943564 14.224971,4.10007731 14.224971,4.79319675 L14.224971,16.8921531 Z" id="Shape" stroke="#424242" stroke-width="0.3"></path>
            </g>
        </g>
    </g>
</svg>