<?xml version="1.0" encoding="UTF-8"?>
<svg width="22px" height="22px" viewBox="0 0 22 22" version="1.1" xmlns="http://www.w3.org/2000/svg" xmlns:xlink="http://www.w3.org/1999/xlink">
    <title>97C9E78B-106B-44CF-AD58-CB5B35342657@0,5x</title>
    <g id="Learning-Role-Admin" stroke="none" stroke-width="1" fill="none" fill-rule="evenodd">
        <g id="Icon-Learning" transform="translate(-727.000000, -129.000000)" fill="#424242" fill-rule="nonzero" stroke="#424242" stroke-width="0.5">
            <g id="teamwork" transform="translate(728.000000, 130.000000)">
                <path d="M18.6445161,13.5483871 L19.0322581,13.5483871 C19.5658065,13.5483871 20,13.1141935 20,12.5806452 C20,12.0470968 19.5658065,11.6129032 19.0322581,11.6129032 L18.8774194,11.6129032 L19.0541935,11.2029032 C19.3858065,10.4348387 19.3264516,9.54774194 18.896129,8.83032258 C18.6232258,8.37548387 18.2241935,8.01903226 17.7416129,7.79967742 L16.8412903,7.38967742 C15.7783871,6.90580645 14.4751613,7.04709677 13.5409677,7.74774194 L13.0322581,8.12903226 L13.0329032,8.13 C12.5296774,8.26129032 12.0854839,8.58516129 11.8125806,9.04 C11.7283871,9.18032258 11.6641935,9.32806452 11.6167742,9.48 L11.6129032,9.47806452 L11.6129032,8.59580645 C12.3967742,8.14064516 12.9741935,7.36741935 13.1606452,6.4516129 L13.5483871,6.4516129 C14.0819355,6.4516129 14.516129,6.01741935 14.516129,5.48387097 C14.516129,4.95032258 14.0819355,4.51612903 13.5483871,4.51612903 L13.3935484,4.51612903 L13.5703226,4.10612903 C13.9019355,3.33806452 13.8425806,2.45096774 13.4122581,1.73354839 C13.1393548,1.27870968 12.7403226,0.922258065 12.2577419,0.702903226 L11.3574194,0.292903226 C10.2945161,-0.190967742 8.99129032,-0.0493548387 8.05709677,0.650967742 L7.5483871,1.03225806 L7.54903226,1.03322581 C7.04580645,1.16451613 6.6016129,1.4883871 6.32870968,1.94322581 C5.97354839,2.53548387 5.94580645,3.25774194 6.25451613,3.87548387 L6.57483871,4.51612903 L6.4516129,4.51612903 C5.91806452,4.51612903 5.48387097,4.95032258 5.48387097,5.48387097 C5.48387097,6.01741935 5.91806452,6.4516129 6.4516129,6.4516129 L6.83935484,6.4516129 C7.02580645,7.36741935 7.60322581,8.14064516 8.38709677,8.59580645 L8.38709677,9.47806452 L8.22225806,9.56064516 C8.16129032,9.30645161 8.06580645,9.05935484 7.9283871,8.83032258 C7.65548387,8.37548387 7.25645161,8.01903226 6.77387097,7.79967742 L5.87354839,7.38967742 C4.81064516,6.90580645 3.50741935,7.04709677 2.57322581,7.74774194 L2.06451613,8.12903226 L2.06516129,8.13 C1.56193548,8.26129032 1.11774194,8.58516129 0.84483871,9.04 C0.489677419,9.63225806 0.461935484,10.3545161 0.770645161,10.9722581 L1.09096774,11.6129032 L0.967741935,11.6129032 C0.434193548,11.6129032 0,12.0470968 0,12.5806452 C0,13.1141935 0.434193548,13.5483871 0.967741935,13.5483871 L1.35548387,13.5483871 C1.54193548,14.4641935 2.11935484,15.2374194 2.90322581,15.6925806 L2.90322581,16.4974194 L0.596129032,16.8522581 C0.438709677,16.8767742 0.322580645,17.0119355 0.322580645,17.1712903 L0.322580645,19.6774194 C0.322580645,19.8554839 0.467096774,20 0.64516129,20 L4.19354839,20 L4.83870968,20 L9.03225806,20 L15.1612903,20 L15.8064516,20 L19.3548387,20 C19.5329032,20 19.6774194,19.8554839 19.6774194,19.6774194 L19.6774194,17.1712903 C19.6774194,17.0119355 19.5612903,16.8767742 19.403871,16.8525806 L17.0967742,16.4974194 L17.0967742,15.6925806 C17.8806452,15.2374194 18.4580645,14.4641935 18.6445161,13.5483871 Z M18.0645161,12.9032258 C18.0645161,14.326129 16.9067742,15.483871 15.483871,15.483871 C14.0609677,15.483871 12.9032258,14.326129 12.9032258,12.9032258 L12.9032258,11.6890323 L13.3412903,10.8125806 L13.5483871,10.9677419 C14.1032258,11.383871 14.7906452,11.6129032 15.483871,11.6129032 C16.1770968,11.6129032 16.8645161,11.383871 17.4193548,10.9677419 L17.6264516,10.8125806 L18.0645161,11.6890323 L18.0645161,12.9032258 Z M13.8709677,16.4974194 L11.0125806,16.9370968 C10.6354839,16.9951613 10.2893548,17.1448387 9.99709677,17.3651613 C9.70129032,17.1425806 9.3583871,16.9941935 8.98741935,16.9370968 L6.12903226,16.4974194 L6.12903226,15.6925806 C6.24129032,15.6274194 6.3483871,15.5554839 6.4516129,15.4777419 L6.4516129,15.483871 L13.5483871,15.483871 L13.5483871,15.4777419 C13.6516129,15.5554839 13.7587097,15.6274194 13.8709677,15.6925806 L13.8709677,16.4974194 Z M9.77193548,11.1958065 C9.83483871,11.2587097 9.91741935,11.2903226 10,11.2903226 C10.0825806,11.2903226 10.1651613,11.2587097 10.2280645,11.1958065 L10.5041935,10.9196774 L10.6119355,11.2425806 L10.15,11.9354839 L9.85,11.9354839 L9.38806452,11.2425806 L9.49580645,10.9196774 L9.77193548,11.1958065 Z M11.353871,10.07 L11.5303226,10.1583871 C11.5422581,10.4367742 11.6090323,10.713871 11.7383871,10.9725806 L12.0587097,11.6129032 L11.9354839,11.6129032 C11.4019355,11.6129032 10.9677419,12.0470968 10.9677419,12.5806452 C10.9677419,13.1141935 11.4019355,13.5483871 11.9354839,13.5483871 L12.3232258,13.5483871 C12.4206452,14.0258065 12.6264516,14.4629032 12.9093548,14.8387097 L10.7032258,14.8387097 L10.9632258,13.2790323 C10.9719355,13.2270968 10.9677419,13.173871 10.9509677,13.123871 L10.6783871,12.3058065 L11.236129,11.4693548 C11.2912903,11.3864516 11.3051613,11.2829032 11.273871,11.1883871 L11.0141935,10.4096774 L11.353871,10.07 Z M12.2580645,12.9032258 L11.9354839,12.9032258 C11.7577419,12.9032258 11.6129032,12.7583871 11.6129032,12.5806452 C11.6129032,12.4029032 11.7577419,12.2580645 11.9354839,12.2580645 L12.2580645,12.2580645 L12.2580645,12.9032258 Z M9.68612903,13.2519355 L9.91,12.5806452 L10.09,12.5806452 L10.313871,13.2519355 L10.0493548,14.8387097 L9.95064516,14.8387097 L9.68612903,13.2519355 Z M19.3548387,12.5806452 C19.3548387,12.7583871 19.21,12.9032258 19.0322581,12.9032258 L18.7096774,12.9032258 L18.7096774,12.2580645 L19.0322581,12.2580645 C19.21,12.2580645 19.3548387,12.4029032 19.3548387,12.5806452 Z M12.3658065,9.37193548 C12.6109677,8.96354839 13.0593548,8.70967742 13.5354839,8.70967742 C14.0412903,8.70967742 14.5106452,8.96096774 14.7916129,9.3816129 L14.8929032,9.53354839 L15.4296774,9.17580645 L15.3283871,9.02387097 C15.0374194,8.58774194 14.6035484,8.28129032 14.1116129,8.14516129 C14.8419355,7.69225806 15.7880645,7.61870968 16.573871,7.97645161 L17.4741935,8.38645161 C17.8370968,8.5516129 18.1374194,8.81967742 18.3429032,9.16193548 C18.6667742,9.7016129 18.7112903,10.3690323 18.4619355,10.9470968 L18.4403226,10.9974194 L18.0306452,10.1780645 C17.9877419,10.0925806 17.9093548,10.0303226 17.816129,10.0083871 C17.7232258,9.98645161 17.6251613,10.0067742 17.5483871,10.0641935 L17.0322581,10.4512903 C16.5883871,10.7845161 16.0383871,10.9677419 15.483871,10.9677419 C14.9293548,10.9677419 14.3793548,10.7845161 13.9354839,10.4516129 L13.4193548,10.0645161 C13.3425806,10.0067742 13.2441935,9.98612903 13.1516129,10.0087097 C13.0583871,10.0306452 12.98,10.0929032 12.9370968,10.1783871 L12.5,11.0529032 L12.3154839,10.683871 C12.1058065,10.2645161 12.1245161,9.77387097 12.3658065,9.37193548 L12.3658065,9.37193548 Z M13.8709677,5.48387097 C13.8709677,5.6616129 13.726129,5.80645161 13.5483871,5.80645161 L13.2258065,5.80645161 L13.2258065,5.16129032 L13.5483871,5.16129032 C13.726129,5.16129032 13.8709677,5.30612903 13.8709677,5.48387097 Z M6.88193548,2.27516129 C7.12709677,1.86677419 7.57548387,1.61290323 8.0516129,1.61290323 C8.55741935,1.61290323 9.02677419,1.86419355 9.30774194,2.28483871 L9.40903226,2.43677419 L9.94580645,2.07903226 L9.84451613,1.92709677 C9.55354839,1.49096774 9.11967742,1.18451613 8.62774194,1.0483871 C9.35774194,0.595483871 10.3041935,0.521935484 11.09,0.879677419 L11.9903226,1.28967742 C12.3532258,1.45483871 12.6535484,1.72290323 12.8590323,2.06516129 C13.1829032,2.60483871 13.2274194,3.27225806 12.9780645,3.85032258 L12.9564516,3.90064516 L12.5467742,3.08129032 C12.503871,2.99580645 12.4254839,2.93354839 12.3322581,2.9116129 C12.2393548,2.88935484 12.1412903,2.91 12.0645161,2.96741935 L11.5483871,3.35451613 C11.1045161,3.68774194 10.5545161,3.87096774 10,3.87096774 C9.44548387,3.87096774 8.89548387,3.68774194 8.4516129,3.35483871 L7.93548387,2.96774194 C7.85903226,2.91 7.76064516,2.88935484 7.66774194,2.91193548 C7.57451613,2.93387097 7.49612903,2.99612903 7.45322581,3.0816129 L7.01612903,3.95612903 L6.8316129,3.58709677 C6.62193548,3.16774194 6.64064516,2.67709677 6.88193548,2.27516129 Z M6.4516129,5.80645161 C6.27387097,5.80645161 6.12903226,5.6616129 6.12903226,5.48387097 C6.12903226,5.30612903 6.27387097,5.16129032 6.4516129,5.16129032 L6.77419355,5.16129032 L6.77419355,5.80645161 L6.4516129,5.80645161 Z M7.41935484,5.80645161 L7.41935484,4.59225806 L7.85741935,3.71580645 L8.06451613,3.87096774 C8.61935484,4.28709677 9.30677419,4.51612903 10,4.51612903 C10.6932258,4.51612903 11.3806452,4.28709677 11.9354839,3.87096774 L12.1425806,3.71580645 L12.5806452,4.59225806 L12.5806452,5.80645161 C12.5806452,7.22935484 11.4229032,8.38709677 10,8.38709677 C8.57709677,8.38709677 7.41935484,7.22935484 7.41935484,5.80645161 Z M10,9.03225806 C10.3370968,9.03225806 10.6619355,8.98 10.9677419,8.88354839 L10.9677419,9.54387097 L10,10.5116129 L9.03225806,9.54387097 L9.03225806,8.88354839 C9.33806452,8.98 9.66290323,9.03225806 10,9.03225806 L10,9.03225806 Z M8.64612903,10.07 L8.98580645,10.4096774 L8.72612903,11.1883871 C8.69451613,11.2829032 8.7083871,11.3864516 8.76387097,11.4693548 L9.3216129,12.3058065 L9.04903226,13.123871 C9.03225806,13.173871 9.0283871,13.2270968 9.03677419,13.2790323 L9.29677419,14.8387097 L7.09064516,14.8387097 C7.37387097,14.4629032 7.57967742,14.0258065 7.67677419,13.5483871 L8.06451613,13.5483871 C8.59806452,13.5483871 9.03225806,13.1141935 9.03225806,12.5806452 C9.03225806,12.0470968 8.59806452,11.6129032 8.06451613,11.6129032 L7.90967742,11.6129032 L8.08645161,11.2029032 C8.21870968,10.8964516 8.28612903,10.5712903 8.29516129,10.2454839 L8.64612903,10.07 Z M7.74193548,12.2580645 L8.06451613,12.2580645 C8.24225806,12.2580645 8.38709677,12.4029032 8.38709677,12.5806452 C8.38709677,12.7583871 8.24225806,12.9032258 8.06451613,12.9032258 L7.74193548,12.9032258 L7.74193548,12.2580645 Z M1.39806452,9.37193548 C1.64322581,8.96354839 2.0916129,8.70967742 2.56774194,8.70967742 C3.07354839,8.70967742 3.54290323,8.96096774 3.82387097,9.3816129 L3.92516129,9.53354839 L4.46193548,9.17580645 L4.36064516,9.02387097 C4.06967742,8.58774194 3.63580645,8.28129032 3.14387097,8.14516129 C3.87387097,7.69225806 4.82032258,7.61870968 5.60612903,7.97645161 L6.50645161,8.38645161 C6.86935484,8.5516129 7.16967742,8.81967742 7.37516129,9.16193548 C7.69903226,9.7016129 7.74354839,10.3690323 7.49419355,10.9470968 L7.47258065,10.9974194 L7.06290323,10.1780645 C7.02,10.0925806 6.9416129,10.0303226 6.8483871,10.0083871 C6.75580645,9.98645161 6.65709677,10.0067742 6.58064516,10.0641935 L6.06451613,10.4512903 C5.62064516,10.7845161 5.07064516,10.9677419 4.51612903,10.9677419 C3.9616129,10.9677419 3.4116129,10.7845161 2.96774194,10.4516129 L2.4516129,10.0645161 C2.37483871,10.0067742 2.27612903,9.98612903 2.18387097,10.0087097 C2.09064516,10.0306452 2.01225806,10.0929032 1.96935484,10.1783871 L1.53225806,11.0529032 L1.34774194,10.683871 C1.13806452,10.2645161 1.15677419,9.77387097 1.39806452,9.37193548 L1.39806452,9.37193548 Z M0.967741935,12.9032258 C0.79,12.9032258 0.64516129,12.7583871 0.64516129,12.5806452 C0.64516129,12.4029032 0.79,12.2580645 0.967741935,12.2580645 L1.29032258,12.2580645 L1.29032258,12.9032258 L0.967741935,12.9032258 Z M1.93548387,12.9032258 L1.93548387,11.6890323 L2.37354839,10.8125806 L2.58064516,10.9677419 C3.13548387,11.383871 3.82290323,11.6129032 4.51612903,11.6129032 C5.20935484,11.6129032 5.89677419,11.383871 6.4516129,10.9677419 L6.65870968,10.8125806 L7.09677419,11.6890323 L7.09677419,12.9032258 C7.09677419,14.326129 5.93903226,15.483871 4.51612903,15.483871 C3.09322581,15.483871 1.93548387,14.326129 1.93548387,12.9032258 Z M4.51612903,16.1290323 C4.85322581,16.1290323 5.17806452,16.0767742 5.48387097,15.9803226 L5.48387097,16.6406452 L4.51612903,17.6083871 L3.5483871,16.6406452 L3.5483871,15.9803226 C3.85419355,16.0767742 4.17903226,16.1290323 4.51612903,16.1290323 Z M0.967741935,17.4480645 L3.11322581,17.1177419 L3.50193548,17.5064516 L3.24225806,18.2851613 C3.21516129,18.3664516 3.2216129,18.4548387 3.25967742,18.5316129 L3.6716129,19.3548387 L0.967741935,19.3548387 L0.967741935,17.4480645 Z M4.39290323,19.3548387 L3.89645161,18.3622581 L4.0116129,18.0164516 L4.28774194,18.2925806 C4.35096774,18.3554839 4.43354839,18.3870968 4.51612903,18.3870968 C4.59870968,18.3870968 4.68129032,18.3554839 4.74419355,18.2925806 L5.02032258,18.0164516 L5.13548387,18.3622581 L4.63935484,19.3548387 L4.39290323,19.3548387 Z M8.81967742,19.3548387 L5.36064516,19.3548387 L5.77225806,18.5312903 C5.81064516,18.4548387 5.81677419,18.366129 5.78967742,18.2848387 L5.53,17.506129 L5.91870968,17.1174194 L8.88903226,17.5745161 C9.12483871,17.6109677 9.34451613,17.7 9.53935484,17.8306452 C9.4383871,17.9687097 9.34967742,18.1174194 9.28032258,18.2793548 L8.81967742,19.3548387 Z M9.87322581,18.533871 C10.0941935,18.0187097 10.5567742,17.6603226 11.1103226,17.5748387 L14.0806452,17.1177419 L14.4693548,17.5064516 L14.2096774,18.2851613 C14.1825806,18.3664516 14.1890323,18.4548387 14.2270968,18.5316129 L14.6393548,19.3548387 L9.5216129,19.3548387 L9.87322581,18.533871 Z M15.3606452,19.3548387 L14.8641935,18.3622581 L14.9793548,18.0164516 L15.2554839,18.2925806 C15.3187097,18.3554839 15.4012903,18.3870968 15.483871,18.3870968 C15.5664516,18.3870968 15.6490323,18.3554839 15.7119355,18.2925806 L15.9880645,18.0164516 L16.1032258,18.3622581 L15.6070968,19.3548387 L15.3606452,19.3548387 Z M19.0322581,19.3548387 L16.3283871,19.3548387 L16.74,18.5312903 C16.7783871,18.4548387 16.7845161,18.366129 16.7574194,18.2848387 L16.4977419,17.506129 L16.8864516,17.1174194 L19.0322581,17.4480645 L19.0322581,19.3548387 Z M16.4516129,16.6406452 L15.483871,17.6083871 L14.516129,16.6406452 L14.516129,15.9803226 C14.8219355,16.0767742 15.1467742,16.1290323 15.483871,16.1290323 C15.8209677,16.1290323 16.1458065,16.0767742 16.4516129,15.9803226 L16.4516129,16.6406452 Z" id="Shape"></path>
            </g>
        </g>
    </g>
</svg>