<?xml version="1.0" encoding="UTF-8"?>
<svg width="18px" height="20px" viewBox="0 0 18 20" version="1.1" xmlns="http://www.w3.org/2000/svg" xmlns:xlink="http://www.w3.org/1999/xlink">
    <title>863A49D9-BC42-4B76-941A-C4E9D6F6D343@0,5x</title>
    <g id="Learning-Role-Admin" stroke="none" stroke-width="1" fill="none" fill-rule="evenodd">
        <g id="Icon-Learning" transform="translate(-997.000000, -130.000000)" fill="#424242" fill-rule="nonzero">
            <g id="Group-13" transform="translate(997.000000, 130.000000)">
                <path d="M10.5263101,-9.49285095e-12 C12.0710986,-9.49285095e-12 13.3526931,0.978338504 13.6511694,2.27154045 L13.6833064,2.43478261 L14.6453067,2.43478261 C16.1010237,2.43478261 17.2961141,3.4447849 17.3858907,4.71583421 L17.3913043,4.86956522 L17.3913043,17.0434783 C17.3913043,18.334213 16.2522031,19.3938589 14.8186876,19.4734608 L14.6453067,19.4782609 L2.74599768,19.4782609 C1.29028061,19.4782609 0.095190228,18.4682586 0.0054136261,17.1972093 L-1.10489395e-12,17.0434783 L-1.10489395e-12,4.86956522 C-1.10489395e-12,3.57883048 1.13910127,2.51918454 2.5726167,2.43958269 L2.74599768,2.43478261 L3.7079979,2.43478261 C3.92329785,1.11649391 5.15171277,0.0854238609 6.67331853,0.0050475186 L6.8649942,-9.49285095e-12 L10.5263101,-9.49285095e-12 Z M3.98255476,4.0579837 L2.74595478,4.0579837 C2.28042896,4.0579837 1.89441927,4.36778097 1.83778775,4.76780622 L1.83063652,4.86956522 L1.83063652,17.0434783 C1.83063652,17.4570167 2.18083653,17.7986246 2.6313745,17.8487327 L2.74595478,17.8550598 L14.6453067,17.8550598 C15.1108325,17.8550598 15.4968422,17.5452625 15.5534737,17.1452373 L15.5606249,17.0434783 L15.5606249,4.86956522 C15.5606249,4.45602676 15.2104249,4.11441883 14.7598532,4.06431074 L14.6452638,4.0579837 L13.4086638,4.0579837 C12.9227837,4.9578149 11.9260911,5.60169906 10.7490043,5.67433653 L10.5262672,5.68118478 L6.8649513,5.68118478 C5.5917094,5.68118478 4.49880233,5.01405435 3.98255476,4.0579837 Z M8.18726563,15 C8.51085938,15 8.77320313,15.2623437 8.77320313,15.5859375 C8.77320313,15.8771719 8.56070469,16.1187937 8.28230516,16.1642058 L8.18726563,16.171875 L4.0859375,16.171875 C3.76234375,16.171875 3.5,15.9095312 3.5,15.5859375 C3.5,15.2947031 3.71249844,15.0530812 3.99089797,15.0076692 L4.0859375,15 L8.18726563,15 Z M13.4608984,12.4063281 C13.7844922,12.4063281 14.0468359,12.6686719 14.0468359,12.9922656 C14.0468359,13.3158594 13.7844922,13.5782031 13.4608984,13.5782031 L13.4608984,13.5782031 L4.08597656,13.5782031 C3.76238281,13.5782031 3.50003906,13.3158594 3.50003906,12.9922656 C3.50003906,12.6686719 3.76238281,12.4063281 4.08597656,12.4063281 L4.08597656,12.4063281 Z M7.60160156,6 C7.92519531,6 8.18753906,6.26234375 8.18753906,6.5859375 L8.18753906,6.5859375 L8.18753906,10.0625781 L9.35945312,10.0625781 L9.35945312,8.82117187 C9.35945312,8.49757812 9.62179687,8.23523437 9.94539062,8.23523437 C10.2689844,8.23523437 10.5313281,8.49757812 10.5313281,8.82117187 L10.5313281,8.82117187 L10.5313281,10.0625781 L11.7032031,10.0625781 L11.7032031,7.91148437 C11.7032031,7.58789062 11.9655469,7.32554687 12.2891406,7.32554687 C12.6127344,7.32554687 12.8750781,7.58789062 12.8750781,7.91148437 L12.8750781,7.91148437 L12.8750781,10.0625781 L13.4611328,10.0625781 C13.7847266,10.0625781 14.0470703,10.3249219 14.0470703,10.6485156 C14.0470703,10.9721094 13.7847266,11.2344531 13.4611328,11.2344531 L13.4611328,11.2344531 L4.0859375,11.2344531 C3.76234375,11.2344531 3.5,10.9721094 3.5,10.6485156 C3.5,10.3249219 3.76234375,10.0625781 4.0859375,10.0625781 L4.0859375,10.0625781 L4.67195312,10.0625781 L4.67195312,9.4028125 C4.67195312,9.07921875 4.93429687,8.816875 5.25789062,8.816875 C5.58148437,8.816875 5.84382812,9.07921875 5.84382812,9.4028125 L5.84382812,9.4028125 L5.84382812,10.0625781 L7.01566406,10.0625781 L7.01566406,6.5859375 C7.01566406,6.26234375 7.27800781,6 7.60160156,6 Z M10.5262672,1.62320109 L6.8649513,1.62320109 C6.10799987,1.62320109 5.49195246,2.1693913 5.49195246,2.84059239 C5.49195246,3.46984341 6.03336267,3.98922159 6.72478306,4.05168586 L6.8649513,4.0579837 L10.5262672,4.0579837 C11.2832616,4.0579837 11.8992661,3.51179348 11.8992661,2.84059239 C11.8992661,2.1693913 11.2832616,1.62320109 10.5262672,1.62320109 Z" id="Combined-Shape"></path>
            </g>
        </g>
    </g>
</svg>