<?xml version="1.0" encoding="UTF-8"?>
<svg width="16px" height="15px" viewBox="0 0 16 15" version="1.1" xmlns="http://www.w3.org/2000/svg" xmlns:xlink="http://www.w3.org/1999/xlink">
    <title>BE25818E-7958-48D8-A86A-B92A84114F5F@0,5x</title>
    <g id="Role-Guru" stroke="none" stroke-width="1" fill="none" fill-rule="evenodd" opacity="0.5">
        <g id="Side-Bar" transform="translate(-87.000000, -536.000000)" fill="#000000" fill-rule="nonzero">
            <g id="logout-4" transform="translate(87.000000, 536.000000)">
                <path d="M15.1489777,8.0106383 L5.27655418,8.0106383 C4.99468085,8.0106383 4.76591588,7.78187333 4.76591588,7.5 C4.76591588,7.21812667 4.99468085,6.9893617 5.27655418,6.9893617 L15.1489777,6.9893617 C15.4308511,6.9893617 15.659616,7.21812667 15.659616,7.5 C15.659616,7.78187333 15.4308511,8.0106383 15.1489777,8.0106383 Z" id="Path"></path>
                <path d="M8.00004156,10.734001 C7.86926528,10.734001 7.73861368,10.6843833 7.63912899,10.5842753 L4.9157663,7.86091257 C4.71629821,7.66131983 4.71629821,7.33793218 4.9157663,7.1384641 L7.63912899,4.4151014 C7.83859707,4.21563332 8.16198472,4.21563332 8.36157747,4.4151014 C8.56104555,4.61456949 8.56104555,4.93795711 8.36157747,5.13742519 L5.99900266,7.5 L8.36157747,9.86257481 C8.56104555,10.0620429 8.56104555,10.3854305 8.36157747,10.5848986 C8.26146941,10.6843833 8.13069316,10.734001 8.00004156,10.734001 L8.00004156,10.734001 Z" id="Path"></path>
                <path d="M7.48940327,14.9894033 C3.36003989,14.9894033 0,11.6293634 0,7.5 C0,3.37063663 3.36003989,0.010596734 7.48940327,0.010596734 C10.5878906,0.010596734 13.3235954,1.87475068 14.4599402,4.76030585 C14.5634142,5.02235706 14.4340093,5.31856717 14.1719581,5.42266455 C13.9097823,5.52489195 13.6135721,5.39748172 13.5094747,5.13405919 C12.5283411,2.64207945 10.1651429,1.03187333 7.48940327,1.03187333 C3.92303856,1.03187333 1.0212766,3.93375996 1.0212766,7.5 C1.0212766,11.06624 3.92303856,13.9681267 7.48940327,13.9681267 C10.1651429,13.9681267 12.5283411,12.3579206 13.5094747,9.86668883 C13.6129488,9.60314164 13.9091589,9.47585604 14.1719581,9.57795878 C14.4340093,9.68143283 14.5634142,9.9782663 14.4599402,10.2404422 C13.3235954,13.1252493 10.5878906,14.9894033 7.48940327,14.9894033 Z" id="Path"></path>
            </g>
        </g>
    </g>
</svg>