<svg xmlns="http://www.w3.org/2000/svg" width="23" height="22" viewBox="0 0 23 22">
  <path fill="#6D7278" stroke="#6D7278" stroke-width=".3" d="M10,0 C14.1371619,0 17.7899292,2.48905538 19.3071993,6.34190595 C19.4453599,6.69180194 19.2725759,7.08730756 18.92268,7.22630045 C18.5726176,7.3627965 18.1771119,7.19267584 18.038119,6.84094884 C16.7280899,3.51360799 13.5727008,1.3636288 10,1.3636288 C5.23811901,1.3636288 1.3636288,5.23828546 1.3636288,10 C1.3636288,14.7617145 5.23811901,18.6363712 10,18.6363712 C13.5727008,18.6363712 16.7280899,16.486392 18.038119,13.1600499 C18.1762796,12.8081565 18.5717852,12.6382022 18.92268,12.7745318 C19.2725759,12.9126924 19.4453599,13.3090304 19.3071993,13.6590928 C17.7899292,17.5109446 14.1371619,20 10,20 C4.48639201,20 -8.45545856e-13,15.513608 -8.45545856e-13,10 C-8.45545856e-13,4.48639201 4.48639201,0 10,0 Z M11.1645443,5.88098212 C11.4308781,6.14731587 11.4308781,6.57910944 11.1645443,6.84544319 L8.691,9.318 L20.227216,9.3181856 C20.6035788,9.3181856 20.9090304,9.62363713 20.9090304,10 C20.9090304,10.3763629 20.6035788,10.6818144 20.227216,10.6818144 L8.69,10.681 L11.1645443,13.1545568 C11.4308781,13.4208906 11.4308781,13.8526841 11.1645443,14.1190179 C11.0308781,14.2518519 10.856263,14.3181024 10.6818144,14.3181024 C10.5071993,14.3181024 10.3327507,14.2518519 10.1999168,14.1181856 L6.5636288,10.4818976 L6.55448966,10.4730528 C6.53596094,10.4538314 6.51854957,10.4335256 6.50236049,10.4122404 L6.5636288,10.4818976 C6.53413162,10.452382 6.50790134,10.4208389 6.48493794,10.3877176 C6.468962,10.365232 6.45460539,10.3416055 6.44169749,10.3170988 C6.4394466,10.3120644 6.43685363,10.3069809 6.43432854,10.3018724 C6.42214563,10.2780786 6.41174079,10.2535618 6.4027769,10.2283636 C6.39995399,10.2190982 6.39703796,10.2102974 6.39430591,10.2014521 C6.37420555,10.1381443 6.36354555,10.0703095 6.36354555,10 C6.36354555,9.93044243 6.37397875,9.86330695 6.39336458,9.80007414 C6.39754327,9.78693603 6.40211726,9.77342451 6.40712639,9.76003886 C6.41468979,9.73971011 6.42310529,9.7202426 6.43237598,9.70126834 C6.43771276,9.69022512 6.44332876,9.67942603 6.4492531,9.6687522 C6.45936666,9.65079956 6.47021185,9.63326295 6.48180474,9.61627665 C6.49002673,9.60388232 6.49888715,9.59174608 6.50819809,9.57984777 C6.52119416,9.56361668 6.53461107,9.54800537 6.54869701,9.53303045 C6.55357938,9.52747616 6.55855578,9.5223431 6.5636288,9.51727008 L10.1999168,5.88098212 C10.4662505,5.61464837 10.8980441,5.61464837 11.1645443,5.88098212 Z" transform="translate(1 1)"/>
</svg>
