<?xml version="1.0" encoding="UTF-8"?>
<svg width="29px" height="22px" viewBox="0 0 29 22" version="1.1" xmlns="http://www.w3.org/2000/svg" xmlns:xlink="http://www.w3.org/1999/xlink">
    <title>BCCC432B-C2B7-4CD0-82D4-8142B4352667@0,5x</title>
    <g id="Learning-Role-Admin" stroke="none" stroke-width="1" fill="none" fill-rule="evenodd" opacity="0.5" stroke-linejoin="round">
        <g id="Dashboard" transform="translate(-16.000000, -223.000000)" fill-rule="nonzero" stroke="#FFFFFF" stroke-width="2">
            <g id="mail-2" transform="translate(18.000000, 225.000000)">
                <path d="M26,1.31232095 L26,15.8652547 L14.7279545,8.73924894 L26,1.31232095 Z" id="Path"></path>
                <path d="M-1,1.31232095 L10.2720455,8.73924894 L-1,15.8652547 L-1,1.31232095 Z" id="Path"></path>
                <path d="M23.4375,-1 C24.0765654,-1 24.6504433,-0.764885026 25.0916372,-0.377816995 C25.6947457,0.151301883 26.0489317,0.969664811 25.9595445,1.86414216 L25.9595445,1.86414216 L12.5,10.7319048 L-0.959544512,1.86414216 C-1.04893171,0.969664811 -0.694745659,0.151301883 -0.091637185,-0.377816995 C0.349556693,-0.764885026 0.923434581,-1 1.5625,-1 L1.5625,-1 Z" id="Path"></path>
                <path d="M9.87064627,8.47367935 L12.1506146,9.97700827 L15.2096513,8.52610635 L25.9573056,15.3225682 C26.0484988,16.2193168 25.6923131,17.0412586 25.0848942,17.5708677 C24.6449749,17.9544337 24.0738187,18.1875 23.4375,18.1875 L23.4375,18.1875 L1.5625,18.1875 C0.926181258,18.1875 0.355025142,17.9544337 -0.0848942013,17.5708677 C-0.692294944,17.0412745 -1.04847752,16.219366 -0.957313817,15.3226487 L-0.957313817,15.3226487 L9.87064627,8.47367935 Z" id="Path"></path>
            </g>
        </g>
    </g>
</svg>
