<?xml version="1.0" encoding="UTF-8"?>
<svg width="52px" height="50px" viewBox="0 0 52 50" version="1.1" xmlns="http://www.w3.org/2000/svg" xmlns:xlink="http://www.w3.org/1999/xlink">
    <title>36803EB5-9C2B-41E5-9745-E33BE088742B@0,5x</title>
    <g id="Web-Admin" stroke="none" stroke-width="1" fill="none" fill-rule="evenodd">
        <g id="Dasbor" transform="translate(-236.000000, -217.000000)" fill="#52A2C3" fill-rule="nonzero" stroke="#52A2C3" stroke-width="0.5">
            <g id="video-conference" transform="translate(237.000000, 218.000000)">
                <path d="M22.9165039,5.2734375 C22.9165039,5.8484375 23.3832031,6.31513672 23.9582031,6.31513672 C24.5332031,6.31513672 24.9998047,5.8484375 24.9998047,5.2734375 C24.9998047,4.6984375 24.5331055,4.23173828 23.9581055,4.23173828 C23.3831055,4.23173828 22.9165039,4.6984375 22.9165039,5.2734375 Z" id="Path"></path>
                <path d="M13.8041992,38.6066406 L13.8040039,38.6068359 C13.8040039,38.0318359 13.3373047,37.5651367 12.7623047,37.5651367 L5.20820313,37.5651367 C3.48535156,37.5651367 2.08320313,36.1630859 2.08320313,34.4401367 L2.08320313,33.3984375 L20.2727539,33.3984375 C20.8499023,33.3984375 21.3144531,32.9317383 21.3186523,32.3546875 C21.3186523,31.7796875 20.8519531,31.3129883 20.2769531,31.3129883 L4.29160156,31.3109375 C4.67080078,29.6942383 5.925,28.3837891 7.59570313,27.9650391 L12.0749023,26.8442383 C12.4477539,26.7504883 12.7415039,26.4588867 12.8333008,26.0858398 L13.3666016,23.9545898 C13.4582031,23.5878906 13.34375,23.2003906 13.06875,22.9420898 C12.0603516,21.9942383 11.3916016,20.6067383 11.28125,19.2275391 C11.2375,18.6858398 10.7853516,18.2692383 10.2416016,18.2692383 L10.0208008,18.2295898 L9.90615234,16.0045898 C10.2061523,16.0045898 10.4895508,15.8774414 10.6874023,15.6524414 C10.8852539,15.4295898 10.9770508,15.1295898 10.9394531,14.8336914 C10.8415039,14.0711914 10.6894531,12.6941406 10.6894531,12.2461914 C10.6894531,10.9066406 10.6894531,9.52324219 14.5499023,9.48369141 C14.7624023,9.48164063 14.9728516,9.41494141 15.1458008,9.28994141 C16.3936523,8.3984375 17.8061523,8.3984375 18.4853516,8.3984375 C19.8519531,8.3984375 20.7645508,8.77763672 21.2769531,9.55888672 C21.5102539,9.9171875 21.6310547,10.2359375 21.6249023,10.4838867 C21.6124023,11.0588867 22.0686523,11.5359375 22.6436523,11.5484375 C23.3061523,11.5443359 23.6957031,11.1026367 23.7082031,10.5296875 C23.7227539,9.8484375 23.4915039,9.13808594 23.0185547,8.4171875 C22.3914063,7.45878906 21.0957031,6.31503906 18.4851563,6.31503906 C17.7018555,6.31503906 15.9206055,6.31503906 14.2060547,7.40664063 C9.24775391,7.55869141 8.60195313,10.0628906 8.60195313,12.2461914 C8.60195313,12.6774414 8.68730469,13.5253906 8.76025391,14.1878906 C8.54990234,14.3045898 8.35820313,14.4586914 8.19365234,14.6441406 C7.78955078,15.1025391 7.59990234,15.7108398 7.67705078,16.3169922 L7.94785156,18.4899414 C8.04580078,19.2649414 8.55410156,19.900293 9.30615234,20.187793 C9.57490234,21.5898438 10.2478516,22.950293 11.1999023,24.012793 L10.9603516,24.975293 L7.08740234,25.944043 C4.48525391,26.5961914 2.58115234,28.731543 2.17080078,31.3148438 L2.08330078,31.3148438 L2.08330078,5.27333984 C2.08330078,3.55039063 3.48535156,2.14833984 5.20830078,2.14833984 L42.7083008,2.14833984 C44.4311523,2.14833984 45.8333008,3.55039063 45.8333008,5.27333984 L45.8333008,34.4399414 C45.8333008,34.8858398 45.7311523,35.3274414 45.5291016,35.7586914 C45.2853516,36.2794922 45.5103516,36.900293 46.0311523,37.1441406 C46.5561523,37.3878906 47.1749023,37.1628906 47.4166016,36.6419922 C47.7478516,35.9316406 47.9166016,35.1919922 47.9166016,34.4399414 L47.9166016,5.27324219 C47.9166016,2.40244141 45.5791016,0.0649414062 42.7083008,0.0649414062 L5.20830078,0.0649414062 C2.3375,0.0649414062 9.09494702e-13,2.40244141 9.09494702e-13,5.27324219 L9.09494702e-13,34.4399414 C9.09494702e-13,37.3108398 2.3375,39.6482422 5.20839844,39.6482422 L12.7625,39.6482422 C13.3396484,39.6482422 13.8041992,39.1816406 13.8041992,38.6066406 Z" id="Path"></path>
                <path d="M40.6665039,33.3984375 L40.6456055,33.3984375 C40.0706055,33.3984375 39.6143555,33.8651367 39.6143555,34.4401367 C39.6143555,35.0151367 40.0914062,35.4818359 40.6664062,35.4818359 C41.2414062,35.4818359 41.7081055,35.0151367 41.7081055,34.4401367 C41.7081055,33.8651367 41.2415039,33.3984375 40.6665039,33.3984375 Z" id="Path"></path>
                <path d="M43.237207,38.2775391 L43.2373047,38.2776367 L37.4977539,36.8442383 L37.0727539,35.1420898 C38.5935547,33.5879883 39.6435547,31.5045898 39.9935547,29.3545898 C40.8873047,29.0336914 41.5644531,28.2317383 41.6893555,27.2420898 L42.0748047,24.1629883 C42.1664062,23.4338867 41.9414062,22.7004883 41.4601562,22.1483398 C41.2226562,21.8754883 40.9330078,21.6587891 40.6123047,21.5087891 L40.7415039,18.9045898 L41.2477539,18.3961914 C42.1831055,17.4024414 42.9602539,15.7044922 41.3602539,13.2628906 C40.1518555,11.4170898 38.1143555,10.4816406 35.2998047,10.4816406 C34.2143555,10.4816406 31.7248047,10.4816406 29.3789062,12.0274414 C22.6164062,12.1961914 21.7393555,15.5399414 21.7393555,18.4524414 C21.7393555,19.1149414 21.8852539,20.5024414 21.9956055,21.4586914 C21.6373047,21.6086914 21.3143555,21.8358398 21.0518555,22.1336914 C20.5602539,22.687793 20.3331055,23.4274414 20.424707,24.162793 L20.8101562,27.2419922 C20.9414062,28.3003906 21.705957,29.1441406 22.6914062,29.412793 C23.0393555,31.4732422 24.0351562,33.4836914 25.462207,35.0024414 L25.0018555,36.844043 L19.2623047,38.2773438 C15.2790039,39.2710938 12.4998047,42.8335938 12.4998047,46.9398438 C12.4998047,47.2168945 12.6081055,47.4835938 12.8040039,47.6773438 C12.9998047,47.8710938 13.2665039,47.981543 13.5415039,47.981543 L48.9582031,47.9773438 C49.5332031,47.9773438 49.9999023,47.5106445 49.9999023,46.9356445 C49.9999023,42.8337891 47.218457,39.2733398 43.237207,38.2775391 Z M14.6624023,45.8943359 L14.6624023,45.8943359 C15.0728516,43.2026367 17.0561523,40.9755859 19.7686523,40.2984375 L26.1145508,38.7130859 C26.4874023,38.6193359 26.7811523,38.3276367 26.8729492,37.9546875 L27.6270508,34.9337891 C27.7208008,34.5671875 27.6041992,34.1796875 27.3291992,33.9212891 C25.8229492,32.5087891 24.825,30.4359375 24.6604492,28.3795898 C24.6166992,27.8379883 24.1645508,27.4212891 23.6208008,27.4212891 L23.3708008,27.4212891 C23.1208008,27.4212891 22.9083008,27.2337891 22.8770508,26.9859375 L22.4916992,23.9067383 C22.4666992,23.7129883 22.55625,23.5776367 22.6125,23.5151367 C22.66875,23.4526367 22.7916992,23.3463867 23.1458008,23.3463867 C23.4458008,23.3463867 23.7291992,23.2192383 23.9270508,22.9942383 C24.125,22.7713867 24.2166992,22.4713867 24.1791992,22.1754883 C24.08125,21.3920898 23.8229492,19.1942383 23.8229492,18.4567383 C23.8229492,16.5442383 23.8229492,14.1671875 29.7208008,14.1087891 C29.9333008,14.1067383 30.14375,14.0400391 30.3166992,13.9150391 C31.9750977,12.7295898 33.7666992,12.5691406 35.3021484,12.5691406 C37.36875,12.5691406 38.8208984,13.1878906 39.61875,14.4087891 C40.53125,15.8025391 40.1875,16.4879883 39.7521484,16.9503906 L38.9833984,17.7211914 C38.8,17.9045898 38.6916992,18.1483398 38.6791992,18.406543 L38.4916992,22.2607422 C38.4791992,22.544043 38.58125,22.819043 38.775,23.025293 C38.9666016,23.231543 39.2375,23.350293 39.5208984,23.3523438 C39.7166992,23.3544922 39.8375,23.4606445 39.8916992,23.5232422 C39.9458984,23.5858398 40.0333984,23.7169922 40.0104492,23.9086914 L39.625,26.987793 C39.59375,27.2357422 39.38125,27.4231445 39.05625,27.4231445 C38.5125,27.4231445 38.0603516,27.8398438 38.0166016,28.381543 C37.8478516,30.5023438 36.8041016,32.6148438 35.2207031,34.0336914 C34.9332031,34.2899414 34.8124023,34.6857422 34.9061523,35.0607422 L35.6291016,37.9544922 C35.7228516,38.3273438 36.0144531,38.6210938 36.3875,38.7128906 L42.7333984,40.2982422 C45.4416992,40.975293 47.425,43.2044922 47.8375,45.8982422 L14.6624023,45.8943359 Z" id="Shape"></path>
                <path d="M22.9165039,5.2734375 C22.9165039,5.8484375 23.3832031,6.31513672 23.9582031,6.31513672 C24.5332031,6.31513672 24.9998047,5.8484375 24.9998047,5.2734375 C24.9998047,4.6984375 24.5331055,4.23173828 23.9581055,4.23173828 C23.3831055,4.23173828 22.9165039,4.6984375 22.9165039,5.2734375 Z" id="Path"></path>
                <path d="M13.8041992,38.6066406 L13.8040039,38.6068359 C13.8040039,38.0318359 13.3373047,37.5651367 12.7623047,37.5651367 L5.20820313,37.5651367 C3.48535156,37.5651367 2.08320313,36.1630859 2.08320313,34.4401367 L2.08320313,33.3984375 L20.2727539,33.3984375 C20.8499023,33.3984375 21.3144531,32.9317383 21.3186523,32.3546875 C21.3186523,31.7796875 20.8519531,31.3129883 20.2769531,31.3129883 L4.29160156,31.3109375 C4.67080078,29.6942383 5.925,28.3837891 7.59570313,27.9650391 L12.0749023,26.8442383 C12.4477539,26.7504883 12.7415039,26.4588867 12.8333008,26.0858398 L13.3666016,23.9545898 C13.4582031,23.5878906 13.34375,23.2003906 13.06875,22.9420898 C12.0603516,21.9942383 11.3916016,20.6067383 11.28125,19.2275391 C11.2375,18.6858398 10.7853516,18.2692383 10.2416016,18.2692383 L10.0208008,18.2295898 L9.90615234,16.0045898 C10.2061523,16.0045898 10.4895508,15.8774414 10.6874023,15.6524414 C10.8852539,15.4295898 10.9770508,15.1295898 10.9394531,14.8336914 C10.8415039,14.0711914 10.6894531,12.6941406 10.6894531,12.2461914 C10.6894531,10.9066406 10.6894531,9.52324219 14.5499023,9.48369141 C14.7624023,9.48164063 14.9728516,9.41494141 15.1458008,9.28994141 C16.3936523,8.3984375 17.8061523,8.3984375 18.4853516,8.3984375 C19.8519531,8.3984375 20.7645508,8.77763672 21.2769531,9.55888672 C21.5102539,9.9171875 21.6310547,10.2359375 21.6249023,10.4838867 C21.6124023,11.0588867 22.0686523,11.5359375 22.6436523,11.5484375 C23.3061523,11.5443359 23.6957031,11.1026367 23.7082031,10.5296875 C23.7227539,9.8484375 23.4915039,9.13808594 23.0185547,8.4171875 C22.3914063,7.45878906 21.0957031,6.31503906 18.4851563,6.31503906 C17.7018555,6.31503906 15.9206055,6.31503906 14.2060547,7.40664063 C9.24775391,7.55869141 8.60195313,10.0628906 8.60195313,12.2461914 C8.60195313,12.6774414 8.68730469,13.5253906 8.76025391,14.1878906 C8.54990234,14.3045898 8.35820313,14.4586914 8.19365234,14.6441406 C7.78955078,15.1025391 7.59990234,15.7108398 7.67705078,16.3169922 L7.94785156,18.4899414 C8.04580078,19.2649414 8.55410156,19.900293 9.30615234,20.187793 C9.57490234,21.5898438 10.2478516,22.950293 11.1999023,24.012793 L10.9603516,24.975293 L7.08740234,25.944043 C4.48525391,26.5961914 2.58115234,28.731543 2.17080078,31.3148438 L2.08330078,31.3148438 L2.08330078,5.27333984 C2.08330078,3.55039063 3.48535156,2.14833984 5.20830078,2.14833984 L42.7083008,2.14833984 C44.4311523,2.14833984 45.8333008,3.55039063 45.8333008,5.27333984 L45.8333008,34.4399414 C45.8333008,34.8858398 45.7311523,35.3274414 45.5291016,35.7586914 C45.2853516,36.2794922 45.5103516,36.900293 46.0311523,37.1441406 C46.5561523,37.3878906 47.1749023,37.1628906 47.4166016,36.6419922 C47.7478516,35.9316406 47.9166016,35.1919922 47.9166016,34.4399414 L47.9166016,5.27324219 C47.9166016,2.40244141 45.5791016,0.0649414062 42.7083008,0.0649414062 L5.20830078,0.0649414062 C2.3375,0.0649414062 9.09494702e-13,2.40244141 9.09494702e-13,5.27324219 L9.09494702e-13,34.4399414 C9.09494702e-13,37.3108398 2.3375,39.6482422 5.20839844,39.6482422 L12.7625,39.6482422 C13.3396484,39.6482422 13.8041992,39.1816406 13.8041992,38.6066406 Z" id="Path"></path>
                <path d="M40.6665039,33.3984375 L40.6456055,33.3984375 C40.0706055,33.3984375 39.6143555,33.8651367 39.6143555,34.4401367 C39.6143555,35.0151367 40.0914062,35.4818359 40.6664062,35.4818359 C41.2414062,35.4818359 41.7081055,35.0151367 41.7081055,34.4401367 C41.7081055,33.8651367 41.2415039,33.3984375 40.6665039,33.3984375 Z" id="Path"></path>
                <path d="M43.237207,38.2775391 L43.2373047,38.2776367 L37.4977539,36.8442383 L37.0727539,35.1420898 C38.5935547,33.5879883 39.6435547,31.5045898 39.9935547,29.3545898 C40.8873047,29.0336914 41.5644531,28.2317383 41.6893555,27.2420898 L42.0748047,24.1629883 C42.1664062,23.4338867 41.9414062,22.7004883 41.4601562,22.1483398 C41.2226562,21.8754883 40.9330078,21.6587891 40.6123047,21.5087891 L40.7415039,18.9045898 L41.2477539,18.3961914 C42.1831055,17.4024414 42.9602539,15.7044922 41.3602539,13.2628906 C40.1518555,11.4170898 38.1143555,10.4816406 35.2998047,10.4816406 C34.2143555,10.4816406 31.7248047,10.4816406 29.3789062,12.0274414 C22.6164062,12.1961914 21.7393555,15.5399414 21.7393555,18.4524414 C21.7393555,19.1149414 21.8852539,20.5024414 21.9956055,21.4586914 C21.6373047,21.6086914 21.3143555,21.8358398 21.0518555,22.1336914 C20.5602539,22.687793 20.3331055,23.4274414 20.424707,24.162793 L20.8101562,27.2419922 C20.9414062,28.3003906 21.705957,29.1441406 22.6914062,29.412793 C23.0393555,31.4732422 24.0351562,33.4836914 25.462207,35.0024414 L25.0018555,36.844043 L19.2623047,38.2773438 C15.2790039,39.2710938 12.4998047,42.8335938 12.4998047,46.9398438 C12.4998047,47.2168945 12.6081055,47.4835938 12.8040039,47.6773438 C12.9998047,47.8710938 13.2665039,47.981543 13.5415039,47.981543 L48.9582031,47.9773438 C49.5332031,47.9773438 49.9999023,47.5106445 49.9999023,46.9356445 C49.9999023,42.8337891 47.218457,39.2733398 43.237207,38.2775391 Z M14.6624023,45.8943359 L14.6624023,45.8943359 C15.0728516,43.2026367 17.0561523,40.9755859 19.7686523,40.2984375 L26.1145508,38.7130859 C26.4874023,38.6193359 26.7811523,38.3276367 26.8729492,37.9546875 L27.6270508,34.9337891 C27.7208008,34.5671875 27.6041992,34.1796875 27.3291992,33.9212891 C25.8229492,32.5087891 24.825,30.4359375 24.6604492,28.3795898 C24.6166992,27.8379883 24.1645508,27.4212891 23.6208008,27.4212891 L23.3708008,27.4212891 C23.1208008,27.4212891 22.9083008,27.2337891 22.8770508,26.9859375 L22.4916992,23.9067383 C22.4666992,23.7129883 22.55625,23.5776367 22.6125,23.5151367 C22.66875,23.4526367 22.7916992,23.3463867 23.1458008,23.3463867 C23.4458008,23.3463867 23.7291992,23.2192383 23.9270508,22.9942383 C24.125,22.7713867 24.2166992,22.4713867 24.1791992,22.1754883 C24.08125,21.3920898 23.8229492,19.1942383 23.8229492,18.4567383 C23.8229492,16.5442383 23.8229492,14.1671875 29.7208008,14.1087891 C29.9333008,14.1067383 30.14375,14.0400391 30.3166992,13.9150391 C31.9750977,12.7295898 33.7666992,12.5691406 35.3021484,12.5691406 C37.36875,12.5691406 38.8208984,13.1878906 39.61875,14.4087891 C40.53125,15.8025391 40.1875,16.4879883 39.7521484,16.9503906 L38.9833984,17.7211914 C38.8,17.9045898 38.6916992,18.1483398 38.6791992,18.406543 L38.4916992,22.2607422 C38.4791992,22.544043 38.58125,22.819043 38.775,23.025293 C38.9666016,23.231543 39.2375,23.350293 39.5208984,23.3523438 C39.7166992,23.3544922 39.8375,23.4606445 39.8916992,23.5232422 C39.9458984,23.5858398 40.0333984,23.7169922 40.0104492,23.9086914 L39.625,26.987793 C39.59375,27.2357422 39.38125,27.4231445 39.05625,27.4231445 C38.5125,27.4231445 38.0603516,27.8398438 38.0166016,28.381543 C37.8478516,30.5023438 36.8041016,32.6148438 35.2207031,34.0336914 C34.9332031,34.2899414 34.8124023,34.6857422 34.9061523,35.0607422 L35.6291016,37.9544922 C35.7228516,38.3273438 36.0144531,38.6210938 36.3875,38.7128906 L42.7333984,40.2982422 C45.4416992,40.975293 47.425,43.2044922 47.8375,45.8982422 L14.6624023,45.8943359 Z" id="Shape"></path>
            </g>
        </g>
    </g>
</svg>