<svg width="20" height="19" viewBox="0 0 20 19" fill="none" xmlns="http://www.w3.org/2000/svg">
<circle cx="9.5" cy="9.5" r="9.5" fill="#E1D7FF"/>
<path d="M0.667543 17.0292C0.528159 17.0311 0.392101 16.9865 0.280894 16.9025C0.194737 16.8412 0.124411 16.7602 0.0757264 16.6663C0.0270418 16.5724 0.00139566 16.4683 0.000906597 16.3625V3.69643C-0.00668108 3.55106 0.0335227 3.4072 0.115377 3.28682C0.197232 3.16645 0.316238 3.07618 0.454219 3.02979L6.45395 1.02988C6.58657 0.990039 6.72797 0.990039 6.86059 1.02988L13.3336 3.02979L19.1334 1.09655C19.2336 1.06349 19.3403 1.05471 19.4446 1.07094C19.5489 1.08716 19.6479 1.12793 19.7333 1.18988C19.8126 1.24922 19.8777 1.32548 19.9238 1.41311C19.97 1.50075 19.996 1.59757 20 1.69652V14.3626C20.0004 14.5024 19.9568 14.6387 19.8754 14.7523C19.7941 14.866 19.6791 14.9512 19.5467 14.9959L13.547 16.9958C13.4143 17.0357 13.2729 17.0357 13.1403 16.9958L6.66727 15.0626L0.880867 17.0292C0.810083 17.0388 0.738327 17.0388 0.667543 17.0292V17.0292ZM6.66727 13.696C6.73137 13.6866 6.7965 13.6866 6.86059 13.696L13.3336 15.6959L18.6667 13.916V2.62314L13.547 4.36307C13.4143 4.40291 13.2729 4.40291 13.1403 4.36307L6.66727 2.39649L1.33418 4.17641V15.4359L6.45395 13.7293C6.5232 13.7085 6.59498 13.6973 6.66727 13.696V13.696Z" fill="black"/>
<path d="M13.3336 16.363C13.1568 16.363 12.9873 16.2928 12.8622 16.1677C12.7372 16.0427 12.667 15.8732 12.667 15.6964V3.69691C12.667 3.52011 12.7372 3.35055 12.8622 3.22553C12.9873 3.10051 13.1568 3.03027 13.3336 3.03027C13.5104 3.03027 13.68 3.10051 13.805 3.22553C13.93 3.35055 14.0003 3.52011 14.0003 3.69691V15.6964C14.0003 15.8732 13.93 16.0427 13.805 16.1677C13.68 16.2928 13.5104 16.363 13.3336 16.363Z" fill="black"/>
<path d="M6.66725 14.363C6.49044 14.363 6.32088 14.2928 6.19586 14.1677C6.07085 14.0427 6.00061 13.8732 6.00061 13.6964V1.69691C6.00061 1.52011 6.07085 1.35055 6.19586 1.22553C6.32088 1.10051 6.49044 1.03027 6.66725 1.03027C6.84405 1.03027 7.01361 1.10051 7.13863 1.22553C7.26365 1.35055 7.33388 1.52011 7.33388 1.69691V13.6964C7.33388 13.8732 7.26365 14.0427 7.13863 14.1677C7.01361 14.2928 6.84405 14.363 6.66725 14.363Z" fill="black"/>
</svg>
