<?xml version="1.0" encoding="UTF-8"?>
<svg width="27px" height="25px" viewBox="0 0 27 25" version="1.1" xmlns="http://www.w3.org/2000/svg" xmlns:xlink="http://www.w3.org/1999/xlink">
    <title>BC749566-6911-4306-992A-0F4FD6BCFFFB@0,5x</title>
    <g id="Web-Admin" stroke="none" stroke-width="1" fill="none" fill-rule="evenodd">
        <g id="News-1" transform="translate(-629.000000, -140.000000)" fill="#0091FF" fill-rule="nonzero">
            <g id="newspaper" transform="translate(629.000000, 140.000000)">
                <path d="M25.9937238,5.43933054 L20.0313808,5.43933054 L20.0313808,0.784518828 C20.0313808,0.35125523 19.6801255,0 19.2468619,0 L0.784518828,0 C0.35125523,0 0,0.35125523 0,0.784518828 L0,21.0774059 C0,23.2403243 1.75967573,25 3.92259414,25 L22.8556485,25 C25.0185669,25 26.7782427,23.2403243 26.7782427,21.0774059 L26.7782427,6.22384937 C26.7782427,5.79058577 26.4269874,5.43933054 25.9937238,5.43933054 Z M3.92259414,23.4309623 C2.6248431,23.4309623 1.56903766,22.3751569 1.56903766,21.0774059 L1.56903766,1.56903766 L18.4623431,1.56903766 C18.4623431,22.3047071 18.4524582,21.1518828 18.4803347,21.4475418 C18.5485356,22.1748431 18.8197699,22.8606695 19.2486925,23.4309623 L3.92259414,23.4309623 Z M25.209205,21.0774059 C25.209205,22.3751569 24.1533996,23.4309623 22.8556485,23.4309623 C22.6796025,23.4309623 22.5577929,23.4309623 22.3849372,23.4309623 C21.0871862,23.4309623 20.0313808,22.3751569 20.0313808,21.0774059 L20.0313808,7.0083682 L25.209205,7.0083682 L25.209205,21.0774059 Z" id="Shape"></path>
                <path d="M15.8995816,3.76569038 L4.18410042,3.76569038 C3.75083682,3.76569038 3.39958159,4.11694561 3.39958159,4.55020921 C3.39958159,4.9834728 3.75083682,5.33472803 4.18410042,5.33472803 L15.8995816,5.33472803 C16.3328452,5.33472803 16.6841004,4.9834728 16.6841004,4.55020921 C16.6841004,4.11694561 16.3328452,3.76569038 15.8995816,3.76569038 Z" id="Path"></path>
                <path d="M15.8995816,7.11297071 L4.18410042,7.11297071 C3.75083682,7.11297071 3.39958159,7.46422594 3.39958159,7.89748954 C3.39958159,8.33075314 3.75083682,8.68200837 4.18410042,8.68200837 L15.8995816,8.68200837 C16.3328452,8.68200837 16.6841004,8.33075314 16.6841004,7.89748954 C16.6841004,7.46422594 16.3328452,7.11297071 15.8995816,7.11297071 Z" id="Path"></path>
                <path d="M15.8995816,19.665272 L4.18410042,19.665272 C3.75083682,19.665272 3.39958159,20.0165272 3.39958159,20.4497908 C3.39958159,20.8830544 3.75083682,21.2343096 4.18410042,21.2343096 L15.8995816,21.2343096 C16.3328452,21.2343096 16.6841004,20.8830544 16.6841004,20.4497908 C16.6841004,20.0165272 16.3328452,19.665272 15.8995816,19.665272 Z" id="Path"></path>
                <path d="M15.8995816,10.460251 L10.041841,10.460251 C9.60857741,10.460251 9.25732218,10.8115063 9.25732218,11.2447699 L9.25732218,17.1025105 C9.25732218,17.5357741 9.60857741,17.8870293 10.041841,17.8870293 L15.8995816,17.8870293 C16.3328452,17.8870293 16.6841004,17.5357741 16.6841004,17.1025105 L16.6841004,11.2447699 C16.6841004,10.8115063 16.3328452,10.460251 15.8995816,10.460251 Z M15.1150628,16.3179916 L10.8263598,16.3179916 L10.8263598,12.0292887 L15.1150628,12.0292887 L15.1150628,16.3179916 Z" id="Shape"></path>
                <path d="M4.18410042,13.2845188 L6.69456067,13.2845188 C7.12782427,13.2845188 7.4790795,12.9332636 7.4790795,12.5 C7.4790795,12.0667364 7.12782427,11.7154812 6.69456067,11.7154812 L4.18410042,11.7154812 C3.75083682,11.7154812 3.39958159,12.0667364 3.39958159,12.5 C3.39958159,12.9332636 3.75083682,13.2845188 4.18410042,13.2845188 Z" id="Path"></path>
                <path d="M4.18410042,16.6317992 L6.69456067,16.6317992 C7.12782427,16.6317992 7.4790795,16.2805439 7.4790795,15.8472803 C7.4790795,15.4140167 7.12782427,15.0627615 6.69456067,15.0627615 L4.18410042,15.0627615 C3.75083682,15.0627615 3.39958159,15.4140167 3.39958159,15.8472803 C3.39958159,16.2805439 3.75083682,16.6317992 4.18410042,16.6317992 Z" id="Path"></path>
            </g>
        </g>
    </g>
</svg>