<?xml version="1.0" encoding="UTF-8"?>
<svg width="18px" height="20px" viewBox="0 0 18 20" version="1.1" xmlns="http://www.w3.org/2000/svg" xmlns:xlink="http://www.w3.org/1999/xlink">
    <title>28F94487-7E07-4826-A1AA-B3C0D707970E@0,5x</title>
    <g id="Role-Admin" stroke="none" stroke-width="1" fill="none" fill-rule="evenodd">
        <g id="Learnign-adm_Tampilan-Murid" transform="translate(-551.000000, -133.000000)" fill="#BCBCBC" fill-rule="nonzero">
            <g id="clipboard-2" transform="translate(551.000000, 133.000000)">
                <path d="M13.0276793,8.34782609 L5.05927722,8.34782609 C4.57054856,8.34782609 4.17391304,8.65878747 4.17391304,9.04347826 C4.17391304,9.42816905 4.57054856,9.73913043 5.05927722,9.73913043 L13.0276793,9.73913043 C13.516408,9.73913043 13.9130435,9.42816905 13.9130435,9.04347826 C13.9130435,8.65878747 13.516408,8.34782609 13.0276793,8.34782609 Z" id="Path"></path>
                <path d="M13.0276793,12.5217391 L5.05927722,12.5217391 C4.57054856,12.5217391 4.17391304,12.8327005 4.17391304,13.2173913 C4.17391304,13.6020821 4.57054856,13.9130435 5.05927722,13.9130435 L13.0276793,13.9130435 C13.516408,13.9130435 13.9130435,13.6020821 13.9130435,13.2173913 C13.9130435,12.8327005 13.516408,12.5217391 13.0276793,12.5217391 Z" id="Path"></path>
                <path d="M14.6453067,2.43478261 L13.6833064,2.43478261 C13.4590357,1.06156522 12.1354648,0 10.5263101,0 L6.8649942,0 C5.25583956,0 3.93226868,1.06156522 3.7079979,2.43478261 L2.74599768,2.43478261 C1.23205193,2.43478261 0,3.52720109 0,4.86956522 L0,17.0434783 C0,18.3858424 1.23205193,19.4782609 2.74599768,19.4782609 L14.6453067,19.4782609 C16.1592524,19.4782609 17.3913043,18.3858424 17.3913043,17.0434783 L17.3913043,4.86956522 C17.3913043,3.52720109 16.1592524,2.43478261 14.6453067,2.43478261 Z M6.8649513,1.62320109 L10.5262672,1.62320109 C11.2832616,1.62320109 11.8992661,2.1693913 11.8992661,2.84059239 C11.8992661,3.51179348 11.2832616,4.0579837 10.5262672,4.0579837 L6.8649513,4.0579837 C6.10795697,4.0579837 5.49195246,3.51179348 5.49195246,2.84059239 C5.49195246,2.1693913 6.10799987,1.62320109 6.8649513,1.62320109 Z M15.5606249,17.0434783 C15.5606249,17.4914783 15.1496263,17.8550598 14.6453067,17.8550598 L2.74595478,17.8550598 C2.24163514,17.8550598 1.83063652,17.4914783 1.83063652,17.0434783 L1.83063652,4.86956522 C1.83063652,4.42156522 2.24163514,4.0579837 2.74595478,4.0579837 L3.98255476,4.0579837 C4.49880233,5.01405435 5.5917094,5.68118478 6.8649513,5.68118478 L10.5262672,5.68118478 C11.7995091,5.68118478 12.8924162,5.01405435 13.4086638,4.0579837 L14.6452638,4.0579837 C15.1496263,4.0579837 15.5606249,4.42156522 15.5606249,4.86956522 L15.5606249,17.0434783 L15.5606249,17.0434783 Z" id="Shape"></path>
            </g>
        </g>
    </g>
</svg>