<?xml version="1.0" encoding="UTF-8"?>
<svg width="32px" height="20px" viewBox="0 0 32 20" version="1.1" xmlns="http://www.w3.org/2000/svg" xmlns:xlink="http://www.w3.org/1999/xlink">
    <title>6479D4C3-4379-4318-8FA3-9C961BC3B81B@0,5x</title>
    <g id="Learning-Role-Guru" stroke="none" stroke-width="1" fill="none" fill-rule="evenodd">
        <g id="People---Absensi" transform="translate(-77.000000, -136.000000)" fill="#0091FF" fill-rule="nonzero">
            <g id="group-3" transform="translate(77.000000, 136.000000)">
                <path d="M20.9477848,11.24361 L18.2955209,10.0648126 C18.1081426,9.98156037 17.9871592,9.79527751 17.9871592,9.59031159 L17.9871592,8.86197663 C18.8781037,8.1520813 19.4507668,7.05890944 19.4507668,5.83386076 L19.4507668,4.80860516 C19.7442795,4.64642162 19.9385954,4.33300876 19.9385954,3.98198637 L19.9385954,3.88248539 C19.9385954,1.74787001 18.2019231,0.0111976631 16.0673077,0.0111976631 L15.0916504,0.0111976631 C12.9570351,0.0111976631 11.2203627,1.74787001 11.2203627,3.88248539 L11.2203627,4.78529698 C11.2203627,5.09384129 11.3531524,5.37335686 11.584591,5.55221519 C11.6238437,5.58252191 11.6651655,5.60917722 11.7081913,5.63224197 L11.7081913,5.8337999 C11.7081913,7.05884859 12.2807936,8.15202045 13.1716772,8.86185492 L13.1716772,9.59025073 C13.1716772,9.79521665 13.0506329,9.98149951 12.8633155,10.0647517 L10.2110516,11.2435492 C9.34244158,11.6295643 8.78115871,12.4932449 8.78115871,13.4437683 L8.78115871,19.493184 C8.78115871,19.7452532 8.98551607,19.9496714 9.2375852,19.9496714 C9.48965433,19.9496714 9.69401168,19.7452532 9.69401168,19.493184 L9.69401168,13.4438291 C9.69401168,13.3909445 9.69778481,13.3386685 9.70326193,13.2868184 L10.9253895,14.508946 C11.1155672,14.6991845 11.2203627,14.9520448 11.2203627,15.221093 L11.2203627,19.4932449 C11.2203627,19.745314 11.4247201,19.9496714 11.6767892,19.9496714 C11.9288583,19.9496714 12.1332157,19.745314 12.1332157,19.4932449 L12.1332157,15.221093 C12.1332157,14.7082522 11.9335443,14.2261441 11.5708982,13.8634981 L10.1139241,12.406463 C10.2451923,12.2702653 10.4026899,12.1573759 10.5818525,12.0777142 L13.1893866,10.9188169 L15.1231134,12.8525438 L15.1231134,19.493184 C15.1231134,19.7452532 15.3274708,19.9496714 15.5795399,19.9496714 C15.8316091,19.9496714 16.0359664,19.7452532 16.0359664,19.493184 L16.0359664,12.8526047 L17.9696933,10.9188778 L20.5771665,12.0777142 C20.7563291,12.1573759 20.9138267,12.2702653 21.0450949,12.4065239 L19.5881207,13.8634981 C19.2254747,14.2261441 19.0258033,14.7082522 19.0258033,15.221093 L19.0258033,19.4932449 C19.0258033,19.745314 19.2301607,19.9496714 19.4822298,19.9496714 C19.7342989,19.9496714 19.9386563,19.745314 19.9386563,19.4932449 L19.9386563,15.221093 C19.9386563,14.9521056 20.0433909,14.6991845 20.2336295,14.508946 L21.4556962,13.2868793 C21.4611733,13.3387293 21.4649464,13.3908836 21.4649464,13.4437683 L21.4649464,19.493184 C21.4649464,19.7452532 21.6693038,19.9496714 21.9213729,19.9496714 C22.1734421,19.9496714 22.3777994,19.7452532 22.3777994,19.493184 L22.3777994,13.4438291 C22.3776168,12.4933057 21.8163948,11.6296251 20.9477848,11.24361 Z M15.5793574,12.0180745 L13.8826071,10.3212634 C14.0116237,10.104187 14.0844693,9.85303067 14.0844693,9.59031159 L14.0844693,9.40457644 C14.5447298,9.59797955 15.0497809,9.70514849 15.5794182,9.70514849 C16.1090555,9.70514849 16.6140458,9.59804041 17.0742454,9.40463729 L17.0742454,9.59031159 C17.0742454,9.85309153 17.147091,10.104187 17.2761685,10.3213242 L15.5793574,12.0180745 Z M15.5794182,8.79223466 C13.94815,8.79223466 12.6209834,7.46512902 12.6209834,5.83386076 L12.6209834,5.62859056 C12.9057936,5.51570107 13.1837877,5.33605161 13.4499148,5.09049416 C13.6351022,4.91954722 13.6467259,4.6307814 13.4757181,4.44553311 C13.3047712,4.26034567 13.0160662,4.24872201 12.8307571,4.41966894 C12.602483,4.63041626 12.3743914,4.76655307 12.1529942,4.82436709 C12.1476388,4.8257668 12.1436831,4.82637537 12.1408836,4.82661879 C12.1375974,4.82022882 12.1331548,4.80684031 12.1331548,4.78535784 L12.1331548,3.88254625 C12.1331548,2.25127799 13.4603213,0.92411149 15.0915896,0.92411149 L16.0672468,0.92411149 C17.6985759,0.92411149 19.0256816,2.25127799 19.0256816,3.88254625 L19.0256816,3.98204722 C19.0256816,3.99683544 19.0167965,4.00967624 19.005112,4.0119888 C16.2719693,4.55178919 14.9011076,3.53444499 14.4385954,3.07193281 C14.2603457,2.89368306 13.9713364,2.89368306 13.7931475,3.07193281 C13.6148978,3.25018257 13.6148978,3.53919182 13.7931475,3.71738072 C15.2105039,5.1347371 17.2787244,5.16029698 18.537853,5.00900682 L18.537853,5.8337999 C18.537853,7.46506816 17.2106865,8.79223466 15.5794182,8.79223466 Z" id="Shape"></path>
                <path d="M8.23040409,8.76101509 L8.23040409,7.78517527 C8.23040409,6.59444985 7.61161149,5.54625122 6.67922347,4.94303797 C6.73679406,4.75833739 6.76685735,4.56487342 6.76685735,4.37031402 C6.76685735,3.311648 5.905611,2.45040166 4.84694499,2.45040166 C3.78827897,2.45040166 2.92703262,3.31170886 2.92703262,4.37031402 C2.92703262,4.56730769 2.95685248,4.7588851 3.01454479,4.94315969 C2.08221762,5.54631207 1.46348588,6.59451071 1.46348588,7.78517527 L1.46348588,8.76083252 C1.46348588,9.91388754 2.04363437,10.9334834 2.92697176,11.5446081 L2.92697176,12.5483204 C2.92697176,12.7462877 2.81700341,12.9242332 2.63997079,13.0127799 L1.06128286,13.8020935 C0.40664557,14.1295034 0,14.7874878 0,15.5194133 L0,19.4933057 C0,19.7453749 0.204357352,19.9497931 0.456426485,19.9497931 C0.708495618,19.9497931 0.91285297,19.7453749 0.91285297,19.4933057 L0.91285297,15.716833 L1.65640214,16.4603822 C1.84657984,16.6506207 1.95137537,16.903481 1.95137537,17.1725292 L1.95137537,19.4933057 C1.95137537,19.7453749 2.15573272,19.9497931 2.40780185,19.9497931 C2.65987098,19.9497931 2.86422833,19.7453749 2.86422833,19.4933057 L2.86422833,17.1725292 C2.86422833,16.6596884 2.66449611,16.1775803 2.30191091,15.8149343 L1.26703992,14.7800633 C1.26204966,14.775073 1.25669426,14.7707522 1.25158228,14.7660662 C1.31651655,14.708739 1.38936222,14.6588364 1.46957157,14.6186709 L3.04825949,13.8293574 C3.12913827,13.7888875 3.20441821,13.7411149 3.27458617,13.6880477 L4.3905185,14.8040409 L4.3905185,19.4933666 C4.3905185,19.7454357 4.59487585,19.9497931 4.84694499,19.9497931 C5.09901412,19.9497931 5.30337147,19.7454357 5.30337147,19.4933666 L5.30337147,14.80398 L6.41936465,13.6879869 C6.48959348,13.7411149 6.56481256,13.7888875 6.64569133,13.8292965 L7.08100049,14.0469815 C7.14654333,14.0797833 7.21616358,14.0953019 7.28481013,14.0953019 C7.45222736,14.0953019 7.6134372,14.0027994 7.69340312,13.8429284 C7.80617089,13.6174537 7.71476388,13.3432936 7.48928919,13.2305867 L7.05398004,13.0129017 C6.87688656,12.9243549 6.76691821,12.7464094 6.76691821,12.5485029 L6.76691821,11.5447907 C7.6502556,10.933666 8.23040409,9.91400925 8.23040409,8.76101509 Z M4.84694499,3.36325463 C5.40226388,3.36325463 5.85400438,3.81505599 5.85400438,4.37031402 C5.85400438,4.43147517 5.84852726,4.49141918 5.83805988,4.55014606 C5.5244036,4.4538705 5.19169912,4.40171616 4.84694499,4.40171616 C4.5026777,4.40171616 4.17039922,4.45368793 3.8572298,4.54972006 C3.84670156,4.49099318 3.83988559,4.43135346 3.83988559,4.37031402 C3.83988559,3.81499513 4.2916261,3.36325463 4.84694499,3.36325463 Z M4.84694499,5.31462999 C6.2092259,5.31462999 7.31755112,6.42295521 7.31755112,7.78523612 L7.31755112,7.95064508 C5.41729552,8.53243671 4.28481013,7.0869036 4.23642892,7.02355161 C4.15701071,6.91772152 4.03560127,6.85150925 3.90366358,6.84213729 C3.7717259,6.83288705 3.64210078,6.88114654 3.54856378,6.97468354 C3.11288948,7.41035784 2.68616115,7.62049659 2.37798199,7.72194499 C2.41175755,6.38881451 3.50590312,5.31462999 4.84694499,5.31462999 Z M4.84694499,13.969389 L3.79223466,12.9146787 C3.82302824,12.7969815 3.83988559,12.6742941 3.83988559,12.5483812 L3.83988559,11.9912366 C4.15810613,12.0906767 4.49640944,12.1442916 4.84694499,12.1442916 C5.19748053,12.1442916 5.53578384,12.0906767 5.85400438,11.9912366 L5.85400438,12.5483812 C5.85400438,12.6742941 5.87086173,12.7970424 5.90165531,12.9146787 L4.84694499,13.969389 Z M4.84694499,11.2314387 C3.48466407,11.2314387 2.37633885,10.1231134 2.37633885,8.76083252 L2.37633885,8.66626095 C2.74032376,8.58264362 3.28000243,8.38832765 3.84298929,7.93555258 C4.04217381,8.12347858 4.32686222,8.35400438 4.68938656,8.55172833 C5.11818403,8.78560127 5.71038218,9.00194742 6.43372687,9.00194742 C6.70861733,9.00194742 7.00273856,8.96999757 7.31365628,8.89660419 C7.24287975,10.19602 6.16364411,11.2314387 4.84694499,11.2314387 Z" id="Shape"></path>
                <path d="M30.0974318,12.8264971 L27.5430867,11.5492941 C27.366054,11.4607473 27.2560857,11.2828019 27.2560857,11.0848953 L27.2560857,10.4380477 C27.8540044,9.90719328 28.2317429,9.13358082 28.2317429,8.27306475 L28.2317429,7.7535297 C28.2422712,7.7535297 28.2526168,7.75383398 28.2631451,7.75383398 C28.5152142,7.75383398 28.7195716,7.54947663 28.7195716,7.2974075 L28.7195716,6.32175024 C28.7195716,4.72510954 27.4205818,3.42611977 25.8239411,3.42611977 L24.8482838,3.42611977 C23.2516431,3.42611977 21.9526534,4.72510954 21.9526534,6.32175024 L21.9526534,7.2974075 C21.9526534,7.54947663 22.1570107,7.75383398 22.4090798,7.75383398 C22.412853,7.75383398 22.4238072,7.75371227 22.440482,7.75304284 L22.440482,8.27306475 C22.440482,9.13364167 22.8182814,9.90725414 23.4162001,10.4381086 L23.4162001,11.0849562 C23.4162001,11.2829236 23.3062317,11.460869 23.1291383,11.5493549 C22.9036636,11.6620618 22.8122566,11.936222 22.9250243,12.1616967 C23.0049903,12.3216285 23.1662001,12.414131 23.3336173,12.414131 C23.402203,12.414131 23.4718233,12.3986125 23.5373661,12.3658715 C23.6182449,12.3254017 23.6935248,12.277629 23.7636928,12.2245618 L24.879686,13.340555 L24.879686,19.4933666 C24.879686,19.7454357 25.0840433,19.9497931 25.3361125,19.9497931 C25.5881816,19.9497931 25.7925389,19.7454357 25.7925389,19.4933666 L25.7925389,13.3404333 L26.9084713,12.2244401 C26.9787001,12.2775682 27.0539192,12.3253408 27.134798,12.3657498 L29.6064995,13.601631 L28.8568038,14.3513267 C28.4942186,14.7139727 28.2944864,15.1960808 28.2944864,15.7089216 L28.2944864,19.4932449 C28.2944864,19.745314 28.4988437,19.9497931 28.7509129,19.9497931 C29.002982,19.9497931 29.2073393,19.745314 29.2073393,19.4932449 L29.2073393,15.7089216 C29.2073393,15.4399343 29.312074,15.1870131 29.5023126,14.9967746 L30.2124513,14.2866358 C30.2339946,14.3692186 30.2458009,14.4553311 30.2458009,14.5436952 L30.2458009,19.4932449 C30.2458009,19.745314 30.4501582,19.9497931 30.7022274,19.9497931 C30.9542965,19.9497931 31.1586538,19.745314 31.1586538,19.4932449 L31.1586538,14.5436952 C31.1586538,13.8118306 30.7520691,13.1538462 30.0974318,12.8264971 Z M22.8654455,6.74707887 L22.8654455,6.32168939 L22.8655063,6.32168939 C22.8655063,5.22839581 23.7549903,4.33891188 24.8482838,4.33891188 L25.8239411,4.33891188 C26.9172347,4.33891188 27.8067186,5.22839581 27.8067186,6.32168939 L27.8067186,6.82868793 C25.8226022,6.7216407 24.6252434,5.94954966 24.6136198,5.94194255 C24.5363924,5.89045764 24.4482717,5.8652629 24.3605769,5.8652629 C24.242758,5.8652629 24.1259129,5.91078384 24.0376704,5.99896543 C23.6009615,6.43567429 23.1730769,6.6458739 22.8654455,6.74707887 Z M25.3361125,12.5059031 L24.2814021,11.4511928 C24.3121957,11.3334956 24.3290531,11.2108082 24.3290531,11.0848953 L24.3290531,10.9877069 C24.6428311,11.1044912 24.9821081,11.1686344 25.3361125,11.1686344 C25.6901168,11.1686344 26.0293939,11.1044912 26.3431719,10.9877069 L26.3431719,11.0848953 C26.3431719,11.2108082 26.3599684,11.3334956 26.3908228,11.4511928 L25.3361125,12.5059031 Z M25.3361125,10.2558423 C24.2428189,10.2558423 23.353335,9.36641918 23.353335,8.27306475 L23.353335,7.5372444 L23.353335,7.5372444 C23.6730161,7.40950584 24.0454601,7.20642648 24.4244766,6.88351996 C24.9037853,7.13291139 25.9065847,7.56396056 27.31889,7.70636563 L27.31889,8.27306475 C27.31889,9.36635833 26.429406,10.2558423 25.3361125,10.2558423 Z" id="Shape"></path>
            </g>
        </g>
    </g>
</svg>
