<?xml version="1.0" encoding="UTF-8"?>
<svg width="26px" height="20px" viewBox="0 0 26 20" version="1.1" xmlns="http://www.w3.org/2000/svg" xmlns:xlink="http://www.w3.org/1999/xlink">
    <title>78CE9B9B-5B1D-42B9-86CB-2A8E81F9F7D8@0,5x</title>
    <g id="Web-Superadmin" stroke="none" stroke-width="1" fill="none" fill-rule="evenodd">
        <g id="User-1" transform="translate(-859.000000, -142.000000)" fill="#BAB8BB">
            <g id="Group-6" transform="translate(859.000000, 141.000000)">
                <g id="pencil-square-o---FontAwesome-2" transform="translate(0.000000, 1.000000)">
                    <path d="M12.8849499,15 L14.568119,13.3522727 L12.3625871,11.1931818 L10.6794179,12.8409091 L10.6794179,13.6363636 L12.0723855,13.6363636 L12.0723855,15 L12.8849499,15 Z M19.2693846,4.77272727 C19.1387938,4.64488636 18.9211427,4.65909091 18.790552,4.78693182 L13.7120244,9.75852273 C13.5814337,9.88636364 13.5669236,10.0994318 13.6975143,10.2272727 C13.828105,10.3551136 14.0457562,10.3409091 14.1763469,10.2130682 L19.2548745,5.24147727 C19.3854652,5.11363636 19.3999753,4.90056818 19.2693846,4.77272727 Z M20.4301909,13.2102273 L20.4301909,15.9090909 C20.4301909,18.1676136 18.5583907,20 16.2512882,20 L4.17890268,20 C1.87180016,20 5.32907052e-14,18.1676136 5.32907052e-14,15.9090909 L5.32907052e-14,4.09090909 C5.32907052e-14,1.83238636 1.87180016,0 4.17890268,0 L16.2512882,0 C16.8316913,0 17.4120945,0.113636364 17.9489674,0.355113636 C18.0795581,0.411931818 18.1811287,0.539772727 18.2101488,0.681818182 C18.239169,0.838068182 18.1956387,0.980113636 18.0795581,1.09375 L17.3685642,1.78977273 C17.2379735,1.91761364 17.0638526,1.96022727 16.9042417,1.90340909 C16.6865905,1.84659091 16.4689394,1.81818182 16.2512882,1.81818182 L4.17890268,1.81818182 C2.90201575,1.81818182 1.85729008,2.84090909 1.85729008,4.09090909 L1.85729008,15.9090909 C1.85729008,17.1590909 2.90201575,18.1818182 4.17890268,18.1818182 L16.2512882,18.1818182 C17.5281751,18.1818182 18.5729008,17.1590909 18.5729008,15.9090909 L18.5729008,14.1193182 C18.5729008,14.0056818 18.616431,13.8920455 18.7034915,13.8068182 L19.6321365,12.8977273 C19.7772373,12.7556818 19.9658683,12.7272727 20.1399893,12.7982955 C20.3141102,12.8693182 20.4301909,13.0255682 20.4301909,13.2102273 Z M19.0372233,2.72727273 L23.216126,6.81818182 L13.4653531,16.3636364 L9.28645039,16.3636364 L9.28645039,12.2727273 L19.0372233,2.72727273 Z M25.4796983,4.60227273 L24.144771,5.90909091 L19.9658683,1.81818182 L21.3007956,0.511363636 C21.8376685,-0.0142045455 22.7372934,-0.0142045455 23.2741663,0.511363636 L25.4796983,2.67045455 C26.0165712,3.19602273 26.0165712,4.07670455 25.4796983,4.60227273 Z" id="pencil-square-o---FontAwesome"></path>
                </g>
            </g>
        </g>
    </g>
</svg>