<svg xmlns="http://www.w3.org/2000/svg" width="22" height="22" viewBox="0 0 22 22">
  <path fill="#0091FF" stroke="#0091FF" stroke-width=".3" d="M17.65625,15.3125 C17.22229,15.3125 16.8156433,15.4315186 16.4666748,15.63797 L13.8406372,13.0119324 C14.4932556,12.1817016 14.8828125,11.1355591 14.8828125,10 C14.8828125,8.86886598 14.4961548,7.82638551 13.848114,6.99768066 L16.4775086,4.36828613 C16.8240356,4.57077027 17.2267151,4.6875 17.65625,4.6875 C18.9486695,4.6875 20,3.63616945 20,2.34375 C20,1.05133055 18.9486695,0 17.65625,0 C16.3638305,0 15.3125,1.05133055 15.3125,2.34375 C15.3125,2.78228758 15.4338074,3.1929016 15.6442261,3.54431152 L13.0215454,6.16699219 C12.1897888,5.50994875 11.1398316,5.1171875 10,5.1171875 C8.86444094,5.1171875 7.81829836,5.50674438 6.98806762,6.15936281 L4.36203004,3.5333252 C4.56848145,3.18435668 4.6875,2.77770996 4.6875,2.34375 C4.6875,1.05133055 3.63616945,0 2.34375,0 C1.05133055,0 0,1.05133055 0,2.34375 C0,3.63616945 1.05133055,4.6875 2.34375,4.6875 C2.77770996,4.6875 3.18435668,4.56848145 3.5333252,4.36203004 L6.15936281,6.98806762 C5.50674438,7.81829836 5.1171875,8.86444094 5.1171875,10 C5.1171875,11.1355591 5.50674438,12.1817016 6.15936281,13.0119324 L3.5333252,15.63797 C3.18435668,15.4315186 2.77770996,15.3125 2.34375,15.3125 C1.05133055,15.3125 0,16.3638305 0,17.65625 C0,18.9486695 1.05133055,20 2.34375,20 C3.63616945,20 4.6875,18.9486695 4.6875,17.65625 C4.6875,17.22229 4.56848145,16.8156433 4.36203004,16.4666748 L6.98806762,13.8406372 C7.81829836,14.4932556 8.86444094,14.8828125 10,14.8828125 C11.1355591,14.8828125 12.1817016,14.4932556 13.0119324,13.8406372 L15.63797,16.4666748 C15.4315186,16.8156433 15.3125,17.22229 15.3125,17.65625 C15.3125,18.9486695 16.3638305,20 17.65625,20 C18.9486695,20 20,18.9486695 20,17.65625 C20,16.3638305 18.9486695,15.3125 17.65625,15.3125 Z M17.65625,1.171875 C18.3024597,1.171875 18.828125,1.69754027 18.828125,2.34375 C18.828125,2.98995973 18.3024597,3.515625 17.65625,3.515625 C17.0100403,3.515625 16.484375,2.98995973 16.484375,2.34375 C16.484375,1.69754027 17.0100403,1.171875 17.65625,1.171875 Z M2.34375,3.515625 C1.69754027,3.515625 1.171875,2.98995973 1.171875,2.34375 C1.171875,1.69754027 1.69754027,1.171875 2.34375,1.171875 C2.98995973,1.171875 3.515625,1.69754027 3.515625,2.34375 C3.515625,2.98995973 2.98995973,3.515625 2.34375,3.515625 Z M2.34375,18.828125 C1.69754027,18.828125 1.171875,18.3024597 1.171875,17.65625 C1.171875,17.0100403 1.69754027,16.484375 2.34375,16.484375 C2.98995973,16.484375 3.515625,17.0100403 3.515625,17.65625 C3.515625,18.3024597 2.98995973,18.828125 2.34375,18.828125 Z M11.3671875,13.4498596 C10.9439087,13.6183166 10.4826355,13.7109375 10,13.7109375 C9.51736449,13.7109375 9.05609133,13.6183166 8.6328125,13.4498596 L8.6328125,13.125 C8.6328125,12.5865173 9.07089234,12.1484375 9.609375,12.1484375 L10.390625,12.1484375 C10.9291077,12.1484375 11.3671875,12.5865173 11.3671875,13.125 L11.3671875,13.4498596 Z M9.0234375,10 C9.0234375,9.46151734 9.46151734,9.0234375 10,9.0234375 C10.5384827,9.0234375 10.9765625,9.46151734 10.9765625,10 C10.9765625,10.5384827 10.5384827,10.9765625 10,10.9765625 C9.46151734,10.9765625 9.0234375,10.5384827 9.0234375,10 Z M12.503357,12.736969 C12.4014282,12.1812439 12.0852661,11.6998291 11.6436768,11.3813782 C11.958313,11.0076904 12.1484375,10.5256653 12.1484375,10 C12.1484375,8.81530762 11.1846924,7.8515625 10,7.8515625 C8.81530762,7.8515625 7.8515625,8.81530762 7.8515625,10 C7.8515625,10.5256653 8.04168703,11.0076904 8.35632324,11.3813782 C7.91473391,11.6996765 7.5985718,12.1812439 7.49664305,12.736969 C6.75506594,12.0579529 6.2890625,11.0824585 6.2890625,10 C6.2890625,7.95379641 7.95379641,6.2890625 10,6.2890625 C12.0462036,6.2890625 13.7109375,7.95379641 13.7109375,10 C13.7109375,11.0824585 13.2449341,12.0579529 12.503357,12.736969 Z M17.65625,18.828125 C17.0100403,18.828125 16.484375,18.3024597 16.484375,17.65625 C16.484375,17.0100403 17.0100403,16.484375 17.65625,16.484375 C18.3024597,16.484375 18.828125,17.0100403 18.828125,17.65625 C18.828125,18.3024597 18.3024597,18.828125 17.65625,18.828125 Z" transform="translate(1 1)"/>
</svg>
