<?xml version="1.0" encoding="UTF-8"?>
<svg width="223px" height="213px" viewBox="0 0 223 213" version="1.1" xmlns="http://www.w3.org/2000/svg" xmlns:xlink="http://www.w3.org/1999/xlink">
    <title>638B3289-E91A-470E-9606-44551AECB2A9@0,5x</title>
    <g id="Page-1" stroke="none" stroke-width="1" fill="none" fill-rule="evenodd">
        <g id="Link-Email" transform="translate(-959.000000, -275.000000)" fill-rule="nonzero">
            <g id="Mask" transform="translate(959.365526, 289.000000)">
                <path d="M58.6692331,185.24203 C54.755684,184.527124 50.263394,180.542622 51.8326172,174.401336 C52.6108699,171.355606 54.7661472,169.2423 56.9350651,167.809276 C59.9351184,165.827124 63.2368281,164.893877 66.3782063,164.460125 C70.0015793,163.959809 73.5625687,164.131778 77.0982351,164.333389 C80.5886817,164.532432 84.0839745,164.678908 87.6099863,164.648899 C101.408054,164.523072 115.471837,162.308432 129.315186,158.081534 C132.731955,157.037281 136.140015,155.86372 139.539364,154.56085 C142.755276,153.388033 145.920142,152.002998 149.009782,150.416328 C153.106698,148.229366 159.820644,144.081688 159.87783,137.462272 C159.907596,133.952476 158.026081,131.312786 156.051786,129.530673 C153.664607,127.375868 150.799253,126.069224 147.991702,124.802516 C134.932615,118.910417 121.839553,113.104487 108.763455,107.256077 C105.711639,105.891131 102.634775,104.571909 99.7016348,102.91716 C96.9554938,101.367907 94.2481759,99.5268726 92.1633738,96.8389688 C90.3424642,94.4912876 88.8136809,91.260998 89.206803,87.4696557 C89.5328244,84.3254093 91.2243796,81.5358431 93.1856436,79.3912007 C98.0413502,74.0814656 104.478106,71.5452248 110.22968,70.0124958 C117.375396,68.1082385 124.509357,67.5027542 131.655783,65.642824 C137.426086,64.1410317 143.667544,61.6621597 148.687287,56.6776369 C150.804236,54.6437619 152.392214,52.1613098 153.271874,49.5106513 C154.097965,46.7425801 154.056901,43.9375159 153.154356,41.4829045 C152.156637,38.6645393 150.362224,36.5051966 148.428323,34.7768819 C146.204146,32.8220449 143.623937,31.2684996 140.77712,30.170088 C134.788448,27.7953948 128.356865,26.8433012 122.157611,25.1585355 C119.117355,24.3322865 116.054566,23.4029967 113.306564,21.7714875 C110.978425,20.3892459 108.478095,18.4713794 107.383295,15.3942375 C105.124446,9.04536426 112.220324,4.53710327 116.176964,2.7205726 C118.862273,1.53187408 121.606983,0.551356504 124.382318,-0.210700449 C124.969978,-0.38147375 124.823004,-1.48769277 124.238102,-1.31773321 C121.317391,-0.523097372 118.431769,0.523031726 115.617418,1.80753761 C113.227891,2.94392004 110.73937,4.38141416 108.742124,6.65897327 C106.904557,8.73981363 105.93382,11.3441282 106.071487,13.8238157 C106.276984,16.9454327 108.1527,19.2033597 109.959792,20.8003399 C112.349474,22.9121713 115.172876,24.1829838 118.061843,25.1684859 C121.104458,26.2063996 124.239131,26.9497736 127.374417,27.6737519 C133.639393,29.1204047 140.212128,30.3246921 145.65496,34.0799848 C149.4624,36.706952 154.501239,41.8125679 152.548102,48.8446092 C151.681093,51.9661691 149.64948,54.5228929 147.528705,56.4571465 C145.043504,58.6675609 142.241419,60.481423 139.258619,61.8105881 C125.937979,67.9879202 112.077562,65.5771667 98.9310737,73.5428888 C94.4611857,76.2512762 88.908586,80.9605703 88.2840946,87.6741516 C87.9596976,91.1617111 89.1099632,94.2360681 90.6558476,96.6114229 C92.5073766,99.4564473 95.0509833,101.459523 97.6742641,103.090963 C100.442716,104.736681 103.338552,106.20081 106.346511,107.475636 C109.625782,108.945273 112.906014,110.412458 116.187207,111.877192 L136.097813,120.782408 L145.99051,125.206967 C149.009801,126.55737 152.115986,127.834729 154.782508,129.968562 C156.965818,131.715733 159.467631,134.674751 158.88275,138.665805 C158.418269,141.835358 156.079905,144.294551 153.99161,145.983753 C151.28748,148.171098 148.331369,149.689444 145.408285,150.991212 C142.0367,152.492694 138.629501,153.790601 135.224747,154.986843 C128.250705,157.434476 121.18257,159.362634 114.0868,160.75319 C107.008295,162.14446 99.9240492,163.008002 92.8975552,163.336077 C89.3473542,163.501486 85.8147167,163.527878 82.2996426,163.415252 C78.6764553,163.297933 75.0891885,162.946075 71.4447041,162.966131 C68.1481967,162.984267 64.7911783,163.333688 61.4475014,164.47148 C58.6556141,165.42151 55.6609269,166.944845 53.3726157,169.612188 C51.6802796,171.643805 50.7086702,174.090622 50.6406067,176.492244 C50.5716856,178.88903 51.2486032,181.125517 52.5833442,182.910909 C53.938172,184.735155 55.958209,185.958514 58.329179,186.390655 C58.888244,186.492777 59.2308547,185.344628 58.6693004,185.242062 L58.6692331,185.24203 Z" id="Path" fill="#E6E6E6" transform="translate(105.256826, 92.530825) rotate(43.000000) translate(-105.256826, -92.530825) "></path>
                <ellipse id="Oval" fill="#E6E6E6" transform="translate(112.917653, 161.163198) rotate(43.000000) translate(-112.917653, -161.163198) " cx="112.917653" cy="161.163198" rx="6.78701548" ry="6.68283354"></ellipse>
                <ellipse id="Oval" fill="#E6E6E6" transform="translate(172.863166, 90.114593) rotate(43.000000) translate(-172.863166, -90.114593) " cx="172.863166" cy="90.1145933" rx="6.78701548" ry="6.68283354"></ellipse>
                <path d="M203.190887,28.1041335 L182.831337,35.5289791 C180.959092,36.2138703 180.101018,38.0408698 180.913212,39.6130245 L187.235178,51.8126205 C188.051589,53.3832454 190.229471,54.1030857 192.103559,53.4217328 L212.463109,45.9968872 C214.33537,45.3120029 215.193453,43.4849903 214.381244,41.9128302 L208.059278,29.7132341 C207.242853,28.1426164 205.064974,27.4227837 203.190887,28.1041335 L203.190887,28.1041335 Z M204.033818,29.7307475 C204.155574,29.6868224 204.283439,29.6559366 204.414396,29.6388193 L197.531069,40.5333553 L183.393449,37.2878045 C183.481469,37.2358576 183.575561,37.191558 183.674271,37.1555902 L204.033818,29.7307475 Z M211.620181,44.3702732 L191.260631,51.7951189 C190.457447,52.0871082 189.524083,51.7786068 189.17418,51.1054918 L182.90899,39.0154477 L197.789678,42.4316218 C198.266976,42.5411717 198.770997,42.3583185 199.00274,41.991537 L206.207344,30.5883709 L212.442239,42.6199473 C212.790318,43.2937348 212.422573,44.0767376 211.620181,44.3702732 L211.620181,44.3702732 Z" id="Shape" fill="#E6E6E6" transform="translate(197.647231, 40.762933) rotate(43.000000) translate(-197.647231, -40.762933) "></path>
                <g id="Group" transform="translate(64.634474, 80.716629)">
                    <path d="M88.621707,15.9827834 L4.7481899,0.26362762 L3.65817524,0.0598242328 C2.52543344,-0.15391934 1.35188536,0.214934565 0.638734466,1.00885439 C-0.0744164277,1.80277422 -0.201111225,2.88142408 0.312759378,3.78413 L33.6139783,62.5385631 C34.0513215,63.3046048 34.8899974,63.8381209 35.862623,63.9690181 C36.8386785,64.1009355 37.826874,63.8065514 38.504391,63.1820336 L61.6346293,41.992907 C61.9672663,41.6804883 62.4350074,41.5030095 62.9248614,41.5033439 C63.5959821,41.4951158 64.2176169,41.8091277 64.5413994,42.3199201 L69.2791379,49.9333983 C69.9014544,50.9779478 71.2627156,51.5199187 72.579695,51.2474781 L72.6032766,51.2429445 C73.9366877,50.9975664 74.9033407,49.9909022 74.9421998,48.8072097 L75.8912677,31.2325913 C75.9025793,31.0133145 75.9656162,30.7983938 76.0764699,30.6011546 C76.1954714,30.405956 76.3569848,30.2327003 76.5520355,30.0910146 L89.8960552,20.574332 C90.7910569,19.9360795 91.1871785,18.9094018 90.9157544,17.9314502 C90.6443304,16.9534986 89.7531616,16.1965019 88.621701,15.9827834 L88.621707,15.9827834 Z M88.8761311,19.8359 L75.6104706,29.2975446 C75.4376147,29.4185303 75.2809769,29.5560325 75.1435137,29.707456 L4.83490503,2.00233457 C4.77289363,1.97726653 4.70820149,1.95754456 4.64175801,1.94345199 C4.08226452,1.81815485 3.49938604,2.05677379 3.25437561,2.51141895 C3.00936517,2.96606411 3.17167565,3.50785766 3.6407112,3.80100997 L61.4501243,40.6976821 C61.1567646,40.8302039 60.8919023,41.0056865 60.667179,41.2164169 L37.6729745,62.2827926 C37.2680083,62.6530296 36.6804395,62.828057 36.0992141,62.7515907 C35.5179887,62.6751244 35.016393,62.356806 34.7557264,61.898998 L1.64998833,3.48461768 C1.34802822,2.94612222 1.42572693,2.30517784 1.8501865,1.83316306 C2.27464606,1.36114829 2.97162471,1.14062274 3.64601875,1.26495786 L4.75536967,1.47325109 L88.1105658,17.0958119 C88.7859004,17.222852 89.3182928,17.6740394 89.4813001,18.2574703 C89.6443074,18.8409011 89.4092602,19.4539623 88.8761311,19.8359 L88.8761311,19.8359 Z" id="Shape" fill="#53C7E0" transform="translate(45.500000, 32.000000) scale(-1, 1) translate(-45.500000, -32.000000) "></path>
                    <path d="M88.621707,15.9827834 L4.7481899,0.26362762 L3.65817524,0.0598242328 C2.52543344,-0.15391934 1.35188536,0.214934565 0.638734466,1.00885439 C-0.0744164277,1.80277422 -0.201111225,2.88142408 0.312759378,3.78413 L33.6139783,62.5385631 C34.0513215,63.3046048 34.8899974,63.8381209 35.862623,63.9690181 C36.8386785,64.1009355 37.826874,63.8065514 38.504391,63.1820336 L61.6346293,41.992907 C61.9672663,41.6804883 62.4350074,41.5030095 62.9248614,41.5033439 C63.5959821,41.4951158 64.2176169,41.8091277 64.5413994,42.3199201 L69.2791379,49.9333983 C69.9014544,50.9779478 71.2627156,51.5199187 72.579695,51.2474781 L72.6032766,51.2429445 C73.9366877,50.9975664 74.9033407,49.9909022 74.9421998,48.8072097 L75.8912677,31.2325913 C75.9025793,31.0133145 75.9656162,30.7983938 76.0764699,30.6011546 C76.1954714,30.405956 76.3569848,30.2327003 76.5520355,30.0910146 L89.8960552,20.574332 C90.7910569,19.9360795 91.1871785,18.9094018 90.9157544,17.9314502 C90.6443304,16.9534986 89.7531616,16.1965019 88.621701,15.9827834 L88.621707,15.9827834 Z M88.8761311,19.8359 L75.6104706,29.2975446 C75.4376147,29.4185303 75.2809769,29.5560325 75.1435137,29.707456 C75.019552,29.8421638 74.9125095,29.9879937 74.8242088,30.1424628 C74.7316815,30.3004405 74.6587586,30.4665224 74.606671,30.6379051 L74.6079724,30.6429961 C74.5530092,30.8215134 74.5213226,31.0048346 74.5135099,31.1895046 L73.5702885,48.6623491 C73.553982,49.3699845 72.9754092,49.9733034 72.1772923,50.1149251 L72.1655677,50.1171814 C71.3794716,50.2868465 70.5623119,49.9644068 70.1920569,49.3384619 L65.4808313,41.7639728 C64.9873216,40.9718352 64.0570821,40.4580841 63.0221261,40.4060831 L63.0164047,40.4071826 C62.9479102,40.4043896 62.8796677,40.4014819 62.8127625,40.4036652 C62.3377831,40.4038547 61.8700364,40.5047815 61.4501363,40.6976821 C61.1567766,40.8302039 60.8919143,41.0056865 60.667191,41.2164169 L37.6729865,62.2827926 C37.2680203,62.6530296 36.6804515,62.828057 36.0992261,62.7515907 C35.5180007,62.6751244 35.016405,62.356806 34.7557384,61.898998 L1.64998833,3.48461768 C1.34802822,2.94612222 1.42572693,2.30517784 1.8501865,1.83316306 C2.27464606,1.36114829 2.97162471,1.14062274 3.64601875,1.26495786 L4.75536967,1.47325109 L88.1105658,17.0958119 C88.7859004,17.222852 89.3182928,17.6740394 89.4813001,18.2574703 C89.6443074,18.8409011 89.4092602,19.4539623 88.8761311,19.8359 L88.8761311,19.8359 Z" id="Shape" fill="#3F3D56" transform="translate(45.500000, 32.000000) scale(-1, 1) translate(-45.500000, -32.000000) "></path>
                    <path d="M87.75,30.6593002 L87.2486547,31.6097016 L86.9389344,31.4922423 L86.9376176,31.4871449 L15.8521905,3.77392832 L75.2100027,41.2686985 L75.2157918,41.2675976 L75.372961,41.3712882 L74.6572528,42.212766 L73.6251674,41.5595476 L15.1306931,4.61649131 C14.6560993,4.32297047 14.4918654,3.78049581 14.7397793,3.32527909 C14.9876932,2.87006238 15.577479,2.63114347 16.1436027,2.75659812 C16.2108335,2.77070841 16.2762923,2.79045518 16.3390385,2.81555473 L87.4808281,30.5555053 L87.75,30.6593002 Z" id="Path" fill="#3F3D56" transform="translate(51.187500, 22.468085) scale(-1, 1) translate(-51.187500, -22.468085) "></path>
                </g>
            </g>
        </g>
    </g>
</svg>