<?xml version="1.0" encoding="UTF-8"?>
<svg width="24px" height="24px" viewBox="0 0 24 24" version="1.1" xmlns="http://www.w3.org/2000/svg" xmlns:xlink="http://www.w3.org/1999/xlink">
    <title>0BBB95D3-24B4-4817-B4C8-7B648EE4F281@0,5x</title>
    <g id="Role-Guru" stroke="none" stroke-width="1" fill="none" fill-rule="evenodd" stroke-linejoin="round">
        <g id="Pengaturan---Pengamanan" transform="translate(-17.000000, -882.000000)" fill="#FFFFFF" fill-rule="nonzero" stroke="#FFFFFF" stroke-width="2">
            <g id="Icon-Pengaturan" transform="translate(19.000000, 884.000000)">
                <path d="M12.7340879,-1.07399839 L13.7089851,2.35206883 C13.8818445,2.43553425 14.0505862,2.52470204 14.2159353,2.61960148 L14.461505,2.76625302 L17.4535367,1.88976308 L20.9608343,6.84025482 L18.474739,9.38190525 L18.4936691,9.6878174 L18.4936691,9.6878174 L18.5,10 L20.7301286,12.3942627 L18.2137623,17.896717 L14.7560645,17.0322925 C14.5997841,17.1382915 14.4397088,17.2398432 14.2758681,17.3362648 L14.0272869,17.4769641 L13.2907436,20.5034015 L7.26591207,21.0739984 L6.29101489,17.6479312 C6.11815549,17.5644658 5.94941378,17.475298 5.78406471,17.3803985 L5.53849496,17.233747 L2.54646328,18.1102369 L-0.960834254,13.1597452 L1.52564425,10.6177029 L1.50642706,10.3082535 L1.50642706,10.3082535 L1.5,10 L-0.738284643,7.62357178 L1.78623766,2.10328301 L5.24393554,2.96770748 C5.40021592,2.86170853 5.56029125,2.76015676 5.72413188,2.66373521 L5.97271312,2.52303593 L6.7092564,-0.503401536 L12.7340879,-1.07399839 Z M10,7.25 C9.24375,7.25 8.5568869,7.56045166 8.05866928,8.05866928 C7.56045166,8.5568869 7.25,9.24375 7.25,10 C7.25,10.75625 7.56045166,11.4431131 8.05866928,11.9413307 C8.5568869,12.4395483 9.24375,12.75 10,12.75 C10.75625,12.75 11.4431131,12.4395483 11.9413307,11.9413307 C12.4395483,11.4431131 12.75,10.75625 12.75,10 C12.75,9.24375 12.4395483,8.5568869 11.9413307,8.05866928 C11.4431131,7.56045166 10.75625,7.25 10,7.25 Z" id="Combined-Shape"></path>
            </g>
        </g>
    </g>
</svg>