<?xml version="1.0" encoding="UTF-8"?>
<svg width="25px" height="20px" viewBox="0 0 25 20" version="1.1" xmlns="http://www.w3.org/2000/svg" xmlns:xlink="http://www.w3.org/1999/xlink">
    <title>5FF7771E-BCD8-42FB-B03B-C83F2AB1E4BD@0,5x</title>
    <g id="Web-Superadmin" stroke="none" stroke-width="1" fill="none" fill-rule="evenodd">
        <g id="User-1" transform="translate(-743.000000, -143.000000)" fill="#B9B9B9">
            <g id="Group-7" transform="translate(743.000000, 141.000000)">
                <g id="dvr---material-2" transform="translate(0.000000, 2.000000)">
                    <path d="M6.72818147,10 L6.72818147,12.24 L4.52133795,12.24 L4.52133795,10 L6.72818147,10 Z M6.72818147,5.57333333 L6.72818147,7.76 L4.52133795,7.76 L4.52133795,5.57333333 L6.72818147,5.57333333 Z M20.1845444,10 L20.1845444,12.24 L7.88542868,12.24 L7.88542868,10 L20.1845444,10 Z M20.1845444,5.57333333 L20.1845444,7.76 L7.88542868,7.76 L7.88542868,5.57333333 L20.1845444,5.57333333 Z M22.4452134,15.5733333 L22.4452134,2.24 L2.26066897,2.24 L2.26066897,15.5733333 L22.4452134,15.5733333 Z M22.4452134,0 C23.0552382,0 23.5845165,0.22222 24.0330642,0.666666667 C24.4816119,1.11111333 24.7058824,1.63555253 24.7058824,2.24 L24.6520569,15.5733333 C24.6520569,16.1777808 24.4367572,16.6933312 24.0061515,17.12 C23.5755457,17.5466688 23.0552382,17.76 22.4452134,17.76 L16.8204537,17.76 L16.8204537,20 L7.88542868,20 L7.88542868,17.76 L2.26066897,17.76 C1.65064414,17.76 1.12136582,17.5466688 0.672818147,17.12 C0.224270473,16.6933312 1.77635684e-14,16.1777808 1.77635684e-14,15.5733333 L1.77635684e-14,2.24 C1.77635684e-14,1.63555253 0.224270473,1.11111333 0.672818147,0.666666667 C1.12136582,0.22222 1.65064414,0 2.26066897,0 L22.4452134,0 Z" id="dvr---material"></path>
                </g>
            </g>
        </g>
    </g>
</svg>