<?xml version="1.0" encoding="UTF-8"?>
<svg width="40px" height="50px" viewBox="0 0 40 50" version="1.1" xmlns="http://www.w3.org/2000/svg" xmlns:xlink="http://www.w3.org/1999/xlink">
    <title>3FE815D4-9066-41B6-BFC3-340AFF911F0B@0,5x</title>
    <g id="Web-Admin" stroke="none" stroke-width="1" fill="none" fill-rule="evenodd">
        <g id="Dasbor" transform="translate(-552.000000, -385.000000)" fill="#52A2C3">
            <g id="ion-clipboard---Ionicons-2" transform="translate(552.000000, 385.000000)">
                <path d="M8.92857143,14.2857143 C9.15178683,11.8303449 10.1934431,10.3422645 12.0535714,9.82142857 L12.1651786,9.70982143 C13.7276864,9.33779576 14.5089286,8.59375558 14.5089286,7.47767857 L14.5089286,5.13392857 C14.5089286,3.72023103 15.0111557,2.51116574 16.015625,1.50669643 C17.0200943,0.502227121 18.2291596,0 19.6428571,0 C21.0565547,0 22.26562,0.502227121 23.2700893,1.50669643 C24.2745586,2.51116574 24.7767857,3.72023103 24.7767857,5.13392857 L24.7767857,7.47767857 C24.7767857,8.66816071 25.5580279,9.4494029 27.1205357,9.82142857 L27.34375,9.82142857 C29.1294732,10.3422645 30.1339275,11.8303449 30.3571429,14.2857143 L8.92857143,14.2857143 Z M19.6428571,3.57142857 C18.6755904,3.57142857 18.1919643,4.0922567 18.1919643,5.13392857 C18.1919643,6.17560045 18.6755904,6.69642857 19.6428571,6.69642857 C20.684529,6.69642857 21.2053571,6.17560045 21.2053571,5.13392857 C21.2053571,4.0922567 20.684529,3.57142857 19.6428571,3.57142857 Z M36.2723214,3.57142857 C37.0907779,3.57142857 37.7976161,3.86904464 38.3928571,4.46428571 C38.9880982,5.05952679 39.2857143,5.80356696 39.2857143,6.69642857 L39.2857143,46.875 C39.2857143,47.7678616 38.9880982,48.5119018 38.3928571,49.1071429 C37.7976161,49.7023839 37.0907779,50 36.2723214,50 L3.125,50 C2.30654353,50 1.58110435,49.7023839 0.948660714,49.1071429 C0.316217076,48.5119018 -4.95159469e-13,47.7678616 -4.95159469e-13,46.875 L-4.95159469e-13,6.69642857 C-4.95159469e-13,5.80356696 0.316217076,5.05952679 0.948660714,4.46428571 C1.58110435,3.86904464 2.30654353,3.57142857 3.125,3.57142857 L11.2723214,3.57142857 L11.2723214,5.02232143 C11.2723214,5.6175625 11.0677104,6.11978962 10.6584821,6.52901786 C10.2492539,6.93824609 9.74702679,7.14285714 9.15178571,7.14285714 L5.02232143,7.14285714 C4.12945982,7.14285714 3.68303571,7.62648326 3.68303571,8.59375 L3.68303571,45.0892857 C3.68303571,45.9821473 4.09225781,46.4285714 4.91071429,46.4285714 L34.4866071,46.4285714 C35.3050636,46.4285714 35.7142857,45.9821473 35.7142857,45.0892857 L35.7142857,8.59375 C35.7142857,7.62648326 35.2678616,7.14285714 34.375,7.14285714 L30.2455357,7.14285714 C29.6502946,7.14285714 29.1294665,6.93824609 28.6830357,6.52901786 C28.2366049,6.11978962 28.0133929,5.6175625 28.0133929,5.02232143 L28.0133929,3.57142857 L36.2723214,3.57142857 Z M7.14285714,21.4285714 L7.14285714,17.8571429 L19.6428571,17.8571429 L19.6428571,21.4285714 L7.14285714,21.4285714 Z M7.14285714,42.8571429 L7.14285714,39.2857143 L25,39.2857143 L25,42.8571429 L7.14285714,42.8571429 Z M7.14285714,35.7142857 L7.14285714,32.1428571 L21.5401786,32.1428571 L21.5401786,35.7142857 L7.14285714,35.7142857 Z M7.14285714,28.5714286 L7.14285714,25 L30.3571429,25 L30.3571429,28.5714286 L7.14285714,28.5714286 Z" id="ion-clipboard---Ionicons"></path>
            </g>
        </g>
    </g>
</svg>