<svg xmlns="http://www.w3.org/2000/svg" width="20" height="20" viewBox="0 0 20 20">
  <path fill="#6D7278" d="M10,20 C7.32890625,20 4.81769531,18.9598047 2.92890625,17.0710937 C1.04019531,15.1823047 0,12.6710937 0,10 C0,7.32890625 1.04019531,4.81769531 2.92890625,2.92890625 C4.81769531,1.04019531 7.32890625,-4.4408921e-15 10,-4.4408921e-15 C12.6710938,-4.4408921e-15 15.1823047,1.04019531 17.0710937,2.92890625 C18.9598047,4.81769531 20,7.32890625 20,10 C20,12.6710937 18.9598047,15.1823047 17.0710937,17.0710937 C15.1823047,18.9598047 12.6710938,20 10,20 Z M10,1.5625 C5.34753906,1.5625 1.5625,5.34753906 1.5625,10 C1.5625,14.6524609 5.34753906,18.4375 10,18.4375 C14.6524609,18.4375 18.4375,14.6524609 18.4375,10 C18.4375,5.34753906 14.6524609,1.5625 10,1.5625 Z M9.9609375,10.7421875 C7.89316406,10.7421875 6.2109375,9.05996094 6.2109375,6.9921875 C6.2109375,4.92441406 7.89316406,3.2421875 9.9609375,3.2421875 C12.0287109,3.2421875 13.7109375,4.92441406 13.7109375,6.9921875 C13.7109375,9.05996094 12.0287109,10.7421875 9.9609375,10.7421875 Z M9.9609375,4.8046875 C8.75472656,4.8046875 7.7734375,5.78601562 7.7734375,6.9921875 C7.7734375,8.19835937 8.75472656,9.1796875 9.9609375,9.1796875 C11.1671484,9.1796875 12.1484375,8.19835937 12.1484375,6.9921875 C12.1484375,5.78601562 11.1671484,4.8046875 9.9609375,4.8046875 Z M14.910625,15.291875 C15.2444531,15.0184766 15.2933984,14.52625 15.02,14.1924219 C13.9152734,12.8437891 12.2829687,12.0703125 10.5416016,12.0703125 L9.61464844,12.0703125 C7.87328125,12.0703125 6.24097656,12.8437891 5.13628906,14.1924609 C4.86289063,14.52625 4.91183594,15.0184766 5.24566406,15.2919141 C5.57945313,15.5653516 6.07167969,15.5163281 6.34511719,15.1825781 C7.15175781,14.1976562 8.34347656,13.6328125 9.61464844,13.6328125 L10.5416016,13.6328125 C11.8127734,13.6328125 13.0044922,14.1976562 13.8111719,15.1825391 C13.9656641,15.3710937 14.1898828,15.46875 14.4160156,15.46875 C14.5901953,15.46875 14.7654297,15.4108203 14.910625,15.291875 Z"/>
</svg>
