<?xml version="1.0" encoding="UTF-8"?>
<svg width="23px" height="27px" viewBox="0 0 23 27" version="1.1" xmlns="http://www.w3.org/2000/svg" xmlns:xlink="http://www.w3.org/1999/xlink">
    <title>A692146C-1175-4DBF-85F8-89C26C50721E@0,5x</title>
    <g id="Web-Admin" stroke="none" stroke-width="1" fill="none" fill-rule="evenodd">
        <g id="User-1" transform="translate(-508.000000, -140.000000)" fill="#0091FF" fill-rule="nonzero" stroke="#0091FF" stroke-width="0.5">
            <g id="user-3" transform="translate(509.000000, 141.000000)">
                <path d="M10.2710724,12.0426178 C11.9255066,12.0426178 13.3579254,11.4492417 14.528656,10.278511 C15.6990051,9.10797119 16.292572,7.67574312 16.292572,6.02111816 C16.292572,4.36706543 15.6991958,2.93464658 14.5284653,1.76372529 C13.3577347,0.593376172 11.9253159,0 10.2710724,0 C8.61644746,0 7.18421934,0.593376172 6.01367949,1.76391602 C4.84313965,2.93445586 4.24957275,4.36687471 4.24957275,6.02111816 C4.24957275,7.67574312 4.84313965,9.10816191 6.01367949,10.2787018 C7.18460083,11.4490509 8.61701963,12.0426178 10.2710724,12.0426178 Z M7.04975127,2.79979707 C7.94792178,1.90162656 9.00154111,1.46503447 10.2710724,1.46503447 C11.5404129,1.46503447 12.594223,1.90162656 13.4925842,2.79979707 C14.3907547,3.69815825 14.8275375,4.75196836 14.8275375,6.02111816 C14.8275375,7.29064941 14.3907547,8.3442688 13.4925842,9.24262998 C12.594223,10.1409912 11.5404129,10.5775833 10.2710724,10.5775833 C9.00192261,10.5775833 7.94830322,10.1408005 7.04975127,9.24262998 C6.15139009,8.34445952 5.71460723,7.29064941 5.71460723,6.02111816 C5.71460723,4.75196836 6.15139009,3.69815825 7.04975127,2.79979707 Z" id="Shape"></path>
                <path d="M20.8070755,19.2237854 C20.7733154,18.7366485 20.7050323,18.2052612 20.6045151,17.6441192 C20.5030441,17.0787812 20.3723907,16.544342 20.2159882,16.0558701 C20.054245,15.5509949 19.8347092,15.052414 19.562912,14.5746231 C19.2811966,14.0787125 18.9500809,13.6468887 18.5785293,13.2915497 C18.1900024,12.9198074 17.7143097,12.6209259 17.1642304,12.402916 C16.6160583,12.1860504 16.0085678,12.0761871 15.3587341,12.0761871 C15.1035309,12.0761871 14.85672,12.1809006 14.3800735,12.4912262 C14.0867233,12.6825333 13.7435913,12.9037857 13.3605957,13.1484985 C13.033104,13.3571625 12.5894546,13.5526657 12.0414734,13.7296677 C11.5068436,13.9026642 10.9640122,13.9904022 10.4280472,13.9904022 C9.89246367,13.9904022 9.34963228,13.9026642 8.814621,13.7296677 C8.26721191,13.5528564 7.82337187,13.3573532 7.49645234,13.1486893 C7.11708066,12.9062652 6.77375791,12.6850128 6.4760208,12.4910354 C5.99975586,12.1807099 5.75294492,12.0759964 5.4977417,12.0759964 C4.84771729,12.0759964 4.24041748,12.1860504 3.69243623,12.4031067 C3.14273833,12.6207352 2.66685488,12.9196167 2.27794648,13.2917404 C1.90639497,13.6472702 1.57527925,14.0789032 1.29375459,14.5746231 C1.02233887,15.052414 0.802612305,15.5508042 0.640869141,16.0560608 C0.484657275,16.5445328 0.354003906,17.0787812 0.252532959,17.6441192 C0.151824951,18.2044983 0.0837326172,18.7360764 0.0499725586,19.2243576 C0.016784668,19.701767 0,20.1986313 0,20.7006455 C0,22.0056534 0.41484834,23.0621338 1.23291016,23.8412857 C2.04086304,24.6101379 3.10974121,25 4.40998076,25 L16.4476395,25 C17.7474976,25 18.8163757,24.6101379 19.6245193,23.8412857 C20.4427719,23.062706 20.8576202,22.0058441 20.8576202,20.7004547 C20.8576202,20.1967239 20.8404541,19.6998596 20.8070755,19.2237854 L20.8070755,19.2237854 Z M18.6143875,22.7798462 C18.0805206,23.2879639 17.3717499,23.5349655 16.4474487,23.5349655 L4.40998076,23.5349655 C3.48548887,23.5349655 2.77671816,23.2879639 2.24304199,22.7800369 C1.7194748,22.2816467 1.46503447,21.6012955 1.46503447,20.7006455 C1.46503447,20.2322006 1.48048398,19.7696686 1.51138306,19.3256378 C1.54151914,18.8899994 1.60312651,18.4114456 1.69448853,17.9029465 C1.7847061,17.4007416 1.89952852,16.9294357 2.03609468,16.5027618 C2.16712949,16.0936355 2.3458481,15.6885147 2.56748198,15.2982712 C2.77900693,14.9263382 3.02238467,14.6072388 3.29093936,14.3501282 C3.54213716,14.1096115 3.85875703,13.9127731 4.23183442,13.7651443 C4.57687378,13.6285782 4.96463774,13.5538101 5.3855896,13.5425567 C5.43689727,13.5698318 5.52825928,13.6219024 5.67626953,13.7184143 C5.97743989,13.9146805 6.32457734,14.1386032 6.70833589,14.3836975 C7.14092256,14.6595001 7.6982498,14.9085999 8.36410522,15.1235581 C9.04483794,15.3436661 9.73911284,15.4554367 10.4282379,15.4554367 C11.117363,15.4554367 11.8118286,15.3436661 12.4921799,15.1237488 C13.1586075,14.9084091 13.715744,14.6595001 14.1489029,14.383316 C14.541626,14.132309 14.8790359,13.9148712 15.1802063,13.7184143 C15.3282166,13.6220932 15.4195786,13.5698318 15.4708862,13.5425567 C15.8920288,13.5538101 16.2797928,13.6285782 16.6250229,13.7651443 C16.9979096,13.9127731 17.3145294,14.1098022 17.5657272,14.3501282 C17.8342819,14.607048 18.0776596,14.9261475 18.2891846,15.2984619 C18.5110092,15.6885147 18.6899185,16.0938263 18.8207626,16.5025711 C18.9575195,16.9298172 19.0725327,17.4009323 19.1625595,17.9027558 C19.2537308,18.4122085 19.3155289,18.8909531 19.345665,19.3258286 L19.345665,19.32621 C19.3767548,19.7685242 19.392395,20.2308655 19.3925857,20.7006455 C19.392395,21.6014862 19.1379547,22.2816467 18.6143875,22.7798462 L18.6143875,22.7798462 Z" id="Shape"></path>
            </g>
        </g>
    </g>
</svg>