<?xml version="1.0" encoding="UTF-8"?>
<svg width="23px" height="27px" viewBox="0 0 23 27" version="1.1" xmlns="http://www.w3.org/2000/svg" xmlns:xlink="http://www.w3.org/1999/xlink">
    <title>F0DEC04D-22D1-4D4A-812E-E63B9636041E@0,5x</title>
    <g id="Web-Superadmin" stroke="none" stroke-width="1" fill="none" fill-rule="evenodd">
        <g id="Icon2" transform="translate(-191.000000, -113.000000)" fill="#B9B9B9" fill-rule="nonzero" stroke="#B9B9B9" stroke-width="0.5">
            <g id="User-off" transform="translate(192.000000, 114.000000)">
                <path d="M5.4977417,12.0759964 C5.75294492,12.0759964 5.99975586,12.1807099 6.4760208,12.4910354 C6.77375791,12.6850128 7.11708066,12.9062652 7.49645234,13.1486893 C7.82337187,13.3573532 8.26721191,13.5528564 8.814621,13.7296677 C9.34963228,13.9026642 9.89246367,13.9904022 10.4280472,13.9904022 C10.9640122,13.9904022 11.5068436,13.9026642 12.0414734,13.7296677 C12.5894546,13.5526657 13.033104,13.3571625 13.3605957,13.1484985 C13.7435913,12.9037857 14.0867233,12.6825333 14.3800735,12.4912262 C14.85672,12.1809006 15.1035309,12.0761871 15.3587341,12.0761871 C16.0085678,12.0761871 16.6160583,12.1860504 17.1642304,12.402916 C17.7143097,12.6209259 18.1900024,12.9198074 18.5785293,13.2915497 C18.9500809,13.6468887 19.2811966,14.0787125 19.562912,14.5746231 C19.8347092,15.052414 20.054245,15.5509949 20.2159882,16.0558701 C20.3723907,16.544342 20.5030441,17.0787812 20.6045151,17.6441192 C20.7050323,18.2052612 20.7733154,18.7366485 20.8070755,19.2237854 C20.8404541,19.6998596 20.8576202,20.1967239 20.8576202,20.7004547 C20.8576202,22.0058441 20.4427719,23.062706 19.6245193,23.8412857 C18.8163757,24.6101379 17.7474976,25 16.4476395,25 L16.4476395,25 L4.40998076,25 C3.10974121,25 2.04086304,24.6101379 1.23291016,23.8412857 C0.41484834,23.0621338 -4.12114787e-13,22.0056534 -4.12114787e-13,20.7006455 C-4.12114787e-13,20.1986313 0.016784668,19.701767 0.0499725586,19.2243576 C0.0837326172,18.7360764 0.151824951,18.2044983 0.252532959,17.6441192 C0.354003906,17.0787812 0.484657275,16.5445328 0.640869141,16.0560608 C0.802612305,15.5508042 1.02233887,15.052414 1.29375459,14.5746231 C1.57527925,14.0789032 1.90639497,13.6472702 2.27794648,13.2917404 C2.66685488,12.9196167 3.14273833,12.6207352 3.69243623,12.4031067 C4.24041748,12.1860504 4.84771729,12.0759964 5.4977417,12.0759964 Z M15.4708862,13.5425567 C15.4195786,13.5698318 15.3282166,13.6220932 15.1802063,13.7184143 C14.8790359,13.9148712 14.541626,14.132309 14.1489029,14.383316 C13.715744,14.6595001 13.1586075,14.9084091 12.4921799,15.1237488 C11.8118286,15.3436661 11.117363,15.4554367 10.4282379,15.4554367 C9.73911284,15.4554367 9.04483794,15.3436661 8.36410522,15.1235581 C7.6982498,14.9085999 7.14092256,14.6595001 6.70833589,14.3836975 C6.32457734,14.1386032 5.97743989,13.9146805 5.67626953,13.7184143 C5.52825928,13.6219024 5.43689727,13.5698318 5.3855896,13.5425567 C4.96463774,13.5538101 4.57687378,13.6285782 4.23183442,13.7651443 C3.85875703,13.9127731 3.54213716,14.1096115 3.29093936,14.3501282 C3.02238467,14.6072388 2.77900693,14.9263382 2.56748198,15.2982712 C2.3458481,15.6885147 2.16712949,16.0936355 2.03609468,16.5027618 C1.89952852,16.9294357 1.7847061,17.4007416 1.69448853,17.9029465 C1.60312651,18.4114456 1.54151914,18.8899994 1.51138306,19.3256378 C1.48048398,19.7696686 1.46503447,20.2322006 1.46503447,20.7006455 C1.46503447,21.6012955 1.7194748,22.2816467 2.24304199,22.7800369 C2.77671816,23.2879639 3.48548887,23.5349655 4.40998076,23.5349655 L4.40998076,23.5349655 L16.4474487,23.5349655 C17.3717499,23.5349655 18.0805206,23.2879639 18.6143875,22.7798462 C19.1379547,22.2816467 19.392395,21.6014862 19.3925857,20.7006455 C19.392395,20.2308655 19.3767548,19.7685242 19.345665,19.32621 L19.345665,19.32621 C19.3155289,18.8909531 19.2537308,18.4122085 19.1625595,17.9027558 C19.0725327,17.4009323 18.9575195,16.9298172 18.8207626,16.5025711 C18.6899185,16.0938263 18.5110092,15.6885147 18.2891846,15.2984619 C18.0776596,14.9261475 17.8342819,14.607048 17.5657272,14.3501282 C17.3145294,14.1098022 16.9979096,13.9127731 16.6250229,13.7651443 C16.2797928,13.6285782 15.8920288,13.5538101 15.4708862,13.5425567 Z M10.2710724,3.99680289e-14 C11.9253159,3.99680289e-14 13.3577347,0.593376172 14.5284653,1.76372529 C15.6991958,2.93464658 16.292572,4.36706543 16.292572,6.02111816 C16.292572,7.67574312 15.6990051,9.10797119 14.528656,10.278511 C13.3579254,11.4492417 11.9255066,12.0426178 10.2710724,12.0426178 C8.61701963,12.0426178 7.18460083,11.4490509 6.01367949,10.2787018 C4.84313965,9.10816191 4.24957275,7.67574312 4.24957275,6.02111816 C4.24957275,4.36687471 4.84313965,2.93445586 6.01367949,1.76391602 C7.18421934,0.593376172 8.61644746,3.99680289e-14 10.2710724,3.99680289e-14 Z M10.2710724,1.46503447 C9.00154111,1.46503447 7.94792178,1.90162656 7.04975127,2.79979707 C6.15139009,3.69815825 5.71460723,4.75196836 5.71460723,6.02111816 C5.71460723,7.29064941 6.15139009,8.34445952 7.04975127,9.24262998 C7.94830322,10.1408005 9.00192261,10.5775833 10.2710724,10.5775833 C11.5404129,10.5775833 12.594223,10.1409912 13.4925842,9.24262998 C14.3907547,8.3442688 14.8275375,7.29064941 14.8275375,6.02111816 C14.8275375,4.75196836 14.3907547,3.69815825 13.4925842,2.79979707 C12.594223,1.90162656 11.5404129,1.46503447 10.2710724,1.46503447 Z" id="Combined-Shape"></path>
            </g>
        </g>
    </g>
</svg>