<?xml version="1.0" encoding="UTF-8"?>
<svg width="22px" height="21px" viewBox="0 0 22 21" version="1.1" xmlns="http://www.w3.org/2000/svg" xmlns:xlink="http://www.w3.org/1999/xlink">
    <title>A442A462-A6B6-4242-8510-343A3BBDAF05@0,5x</title>
    <g id="Learning-Role-Admin" stroke="none" stroke-width="1" fill="none" fill-rule="evenodd">
        <g id="Dashboard" transform="translate(-135.000000, -222.000000)" fill="#0091FF" fill-rule="nonzero" stroke="#0091FF" stroke-width="0.5">
            <g id="video-conference" transform="translate(136.000000, 223.000000)">
                <path d="M9.16660156,2.109375 C9.16660156,2.339375 9.35328125,2.52605469 9.58328125,2.52605469 C9.81328125,2.52605469 9.99992187,2.339375 9.99992187,2.109375 C9.99992187,1.879375 9.81324219,1.69269531 9.58324219,1.69269531 C9.35324219,1.69269531 9.16660156,1.879375 9.16660156,2.109375 Z" id="Path"></path>
                <path d="M5.52167969,15.4426562 L5.52160156,15.4427344 C5.52160156,15.2127344 5.33492188,15.0260547 5.10492188,15.0260547 L2.08328125,15.0260547 C1.39414063,15.0260547 0.83328125,14.4652344 0.83328125,13.7760547 L0.83328125,13.359375 L8.10910156,13.359375 C8.33996094,13.359375 8.52578125,13.1726953 8.52746094,12.941875 C8.52746094,12.711875 8.34078125,12.5251953 8.11078125,12.5251953 L1.71664063,12.524375 C1.86832031,11.8776953 2.37,11.3535156 3.03828125,11.1860156 L4.82996094,10.7376953 C4.97910156,10.7001953 5.09660156,10.5835547 5.13332031,10.4343359 L5.34664063,9.58183594 C5.38328125,9.43515625 5.3375,9.28015625 5.2275,9.17683594 C4.82414063,8.79769531 4.55664063,8.24269531 4.5125,7.69101562 C4.495,7.47433594 4.31414063,7.30769531 4.09664063,7.30769531 L4.00832031,7.29183594 L3.96246094,6.40183594 C4.08246094,6.40183594 4.19582031,6.35097656 4.27496094,6.26097656 C4.35410156,6.17183594 4.39082031,6.05183594 4.37578125,5.93347656 C4.33660156,5.62847656 4.27578125,5.07765625 4.27578125,4.89847656 C4.27578125,4.36265625 4.27578125,3.80929687 5.81996094,3.79347656 C5.90496094,3.79265625 5.98914063,3.76597656 6.05832031,3.71597656 C6.55746094,3.359375 7.12246094,3.359375 7.39414063,3.359375 C7.94078125,3.359375 8.30582031,3.51105469 8.51078125,3.82355469 C8.60410156,3.966875 8.65242188,4.094375 8.64996094,4.19355469 C8.64496094,4.42355469 8.82746094,4.614375 9.05746094,4.619375 C9.32246094,4.61773437 9.47828125,4.44105469 9.48328125,4.211875 C9.48910156,3.939375 9.39660156,3.65523437 9.20742188,3.366875 C8.9565625,2.98351562 8.43828125,2.52601562 7.3940625,2.52601562 C7.08074219,2.52601562 6.36824219,2.52601562 5.68242188,2.96265625 C3.69910156,3.02347656 3.44078125,4.02515625 3.44078125,4.89847656 C3.44078125,5.07097656 3.47492188,5.41015625 3.50410156,5.67515625 C3.41996094,5.72183594 3.34328125,5.78347656 3.27746094,5.85765625 C3.11582031,6.04101562 3.03996094,6.28433594 3.07082031,6.52679687 L3.17914063,7.39597656 C3.21832031,7.70597656 3.42164063,7.96011719 3.72246094,8.07511719 C3.82996094,8.6359375 4.09914063,9.18011719 4.47996094,9.60511719 L4.38414063,9.99011719 L2.83496094,10.3776172 C1.79410156,10.6384766 1.03246094,11.4926172 0.868320313,12.5259375 L0.833320313,12.5259375 L0.833320313,2.10933594 C0.833320313,1.42015625 1.39414063,0.859335937 2.08332031,0.859335937 L17.0833203,0.859335937 C17.7724609,0.859335937 18.3333203,1.42015625 18.3333203,2.10933594 L18.3333203,13.7759766 C18.3333203,13.9543359 18.2924609,14.1309766 18.2116406,14.3034766 C18.1141406,14.5117969 18.2041406,14.7601172 18.4124609,14.8576562 C18.6224609,14.9551562 18.8699609,14.8651563 18.9666406,14.6567969 C19.0991406,14.3726562 19.1666406,14.0767969 19.1666406,13.7759766 L19.1666406,2.10929687 C19.1666406,0.960976562 18.2316406,0.0259765625 17.0833203,0.0259765625 L2.08332031,0.0259765625 C0.935,0.0259765625 2.91322522e-13,0.960976562 2.91322522e-13,2.10929687 L2.91322522e-13,13.7759766 C2.91322522e-13,14.9243359 0.935,15.8592969 2.08335938,15.8592969 L5.105,15.8592969 C5.33585938,15.8592969 5.52167969,15.6726562 5.52167969,15.4426562 Z" id="Path"></path>
                <path d="M16.2666016,13.359375 L16.2582422,13.359375 C16.0282422,13.359375 15.8457422,13.5460547 15.8457422,13.7760547 C15.8457422,14.0060547 16.0365625,14.1927344 16.2665625,14.1927344 C16.4965625,14.1927344 16.6832422,14.0060547 16.6832422,13.7760547 C16.6832422,13.5460547 16.4966016,13.359375 16.2666016,13.359375 Z" id="Path"></path>
                <path d="M17.2948828,15.3110156 L17.2949219,15.3110547 L14.9991016,14.7376953 L14.8291016,14.0568359 C15.4374219,13.4351953 15.8574219,12.6018359 15.9974219,11.7418359 C16.3549219,11.6134766 16.6257812,11.2926953 16.6757422,10.8968359 L16.8299219,9.66519531 C16.8665625,9.37355469 16.7765625,9.08019531 16.5840625,8.85933594 C16.4890625,8.75019531 16.3732031,8.66351562 16.2449219,8.60351562 L16.2966016,7.56183594 L16.4991016,7.35847656 C16.8732422,6.96097656 17.1841016,6.28179687 16.5441016,5.30515625 C16.0607422,4.56683594 15.2457422,4.19265625 14.1199219,4.19265625 C13.6857422,4.19265625 12.6899219,4.19265625 11.7515625,4.81097656 C9.0465625,4.87847656 8.69574219,6.21597656 8.69574219,7.38097656 C8.69574219,7.64597656 8.75410156,8.20097656 8.79824219,8.58347656 C8.65492187,8.64347656 8.52574219,8.73433594 8.42074219,8.85347656 C8.22410156,9.07511719 8.13324219,9.37097656 8.16988281,9.66511719 L8.3240625,10.8967969 C8.3765625,11.3201562 8.68238281,11.6576562 9.0765625,11.7651172 C9.21574219,12.5892969 9.6140625,13.3934766 10.1848828,14.0009766 L10.0007422,14.7376172 L7.70492187,15.3109375 C6.11160156,15.7084375 4.99992187,17.1334375 4.99992187,18.7759375 C4.99992187,18.8867578 5.04324219,18.9934375 5.12160156,19.0709375 C5.19992187,19.1484375 5.30660156,19.1926172 5.41660156,19.1926172 L19.5832812,19.1909375 C19.8132812,19.1909375 19.9999609,19.0042578 19.9999609,18.7742578 C19.9999609,17.1335156 18.8873828,15.7093359 17.2948828,15.3110156 Z M5.86496094,18.3577344 L5.86496094,18.3577344 C6.02914062,17.2810547 6.82246094,16.3902344 7.90746094,16.119375 L10.4458203,15.4852344 C10.5949609,15.4477344 10.7124609,15.3310547 10.7491797,15.181875 L11.0508203,13.9735156 C11.0883203,13.826875 11.0416797,13.671875 10.9316797,13.5685156 C10.3291797,13.0035156 9.93,12.174375 9.86417969,11.3518359 C9.84667969,11.1351953 9.66582031,10.9685156 9.44832031,10.9685156 L9.34832031,10.9685156 C9.24832031,10.9685156 9.16332031,10.8935156 9.15082031,10.794375 L8.99667969,9.56269531 C8.98667969,9.48519531 9.0225,9.43105469 9.045,9.40605469 C9.0675,9.38105469 9.11667969,9.33855469 9.25832031,9.33855469 C9.37832031,9.33855469 9.49167969,9.28769531 9.57082031,9.19769531 C9.65,9.10855469 9.68667969,8.98855469 9.67167969,8.87019531 C9.6325,8.55683594 9.52917969,7.67769531 9.52917969,7.38269531 C9.52917969,6.61769531 9.52917969,5.666875 11.8883203,5.64351562 C11.9733203,5.64269531 12.0575,5.61601562 12.1266797,5.56601562 C12.7900391,5.09183594 13.5066797,5.02765625 14.1208594,5.02765625 C14.9475,5.02765625 15.5283594,5.27515625 15.8475,5.76351562 C16.2125,6.32101562 16.075,6.59519531 15.9008594,6.78015625 L15.5933594,7.08847656 C15.52,7.16183594 15.4766797,7.25933594 15.4716797,7.36261719 L15.3966797,8.90429687 C15.3916797,9.01761719 15.4325,9.12761719 15.51,9.21011719 C15.5866406,9.29261719 15.695,9.34011719 15.8083594,9.3409375 C15.8866797,9.34179687 15.935,9.38425781 15.9566797,9.40929687 C15.9783594,9.43433594 16.0133594,9.48679687 16.0041797,9.56347656 L15.85,10.7951172 C15.8375,10.8942969 15.7525,10.9692578 15.6225,10.9692578 C15.405,10.9692578 15.2241406,11.1359375 15.2066406,11.3526172 C15.1391406,12.2009375 14.7216406,13.0459375 14.0882812,13.6134766 C13.9732812,13.7159766 13.9249609,13.8742969 13.9624609,14.0242969 L14.2516406,15.1817969 C14.2891406,15.3309375 14.4057812,15.4484375 14.555,15.4851562 L17.0933594,16.1192969 C18.1766797,16.3901172 18.97,17.2817969 19.135,18.3592969 L5.86496094,18.3577344 Z" id="Shape"></path>
            </g>
        </g>
    </g>
</svg>
