<?xml version="1.0" encoding="UTF-8"?>
<svg width="20px" height="20px" viewBox="0 0 20 20" version="1.1" xmlns="http://www.w3.org/2000/svg" xmlns:xlink="http://www.w3.org/1999/xlink">
    <title>54A15AD6-A9C7-43BE-9CE2-91596CFA4241@0,5x</title>
    <g id="Role-Admin" stroke="none" stroke-width="1" fill="none" fill-rule="evenodd">
        <g id="Learnign-adm_Tampilan-Murid" transform="translate(-729.000000, -134.000000)" fill="#BCBCBC" fill-rule="nonzero">
            <g id="Group-4" transform="translate(729.000000, 133.000000)">
                <g id="webinar" transform="translate(0.000000, 1.000000)">
                    <path d="M6.875,5.46875 L8.6328125,5.46875 L8.6328125,9.9609375 C8.6328125,10.2845313 8.89515625,10.546875 9.21875,10.546875 L17.03125,10.546875 C17.3548437,10.546875 17.6171875,10.2845313 17.6171875,9.9609375 L17.6171875,2.9296875 C17.6171875,2.60609375 17.3548437,2.34375 17.03125,2.34375 L9.21875,2.34375 C9.08167969,2.34375 8.94894531,2.39179687 8.84363281,2.47957031 L6.49988281,4.43269531 C6.31039062,4.590625 6.24007812,4.8503125 6.3240625,5.08230469 C6.40804687,5.31429688 6.62832031,5.46875 6.875,5.46875 Z M9.43089844,3.515625 L16.4453125,3.515625 L16.4453125,9.375 L9.8046875,9.375 L9.8046875,4.8828125 C9.8046875,4.55921875 9.54234375,4.296875 9.21875,4.296875 L8.49339844,4.296875 L9.43089844,3.515625 Z" id="Shape"></path>
                    <path d="M11.5625,5.859375 L14.6875,5.859375 C15.0110938,5.859375 15.2734375,5.59703125 15.2734375,5.2734375 C15.2734375,4.94984375 15.0110938,4.6875 14.6875,4.6875 L11.5625,4.6875 C11.2389062,4.6875 10.9765625,4.94984375 10.9765625,5.2734375 C10.9765625,5.59703125 11.2389062,5.859375 11.5625,5.859375 Z" id="Path"></path>
                    <path d="M11.5625,8.203125 L14.6875,8.203125 C15.0110938,8.203125 15.2734375,7.94078125 15.2734375,7.6171875 C15.2734375,7.29359375 15.0110938,7.03125 14.6875,7.03125 L11.5625,7.03125 C11.2389062,7.03125 10.9765625,7.29359375 10.9765625,7.6171875 C10.9765625,7.94078125 11.2389062,8.203125 11.5625,8.203125 Z" id="Path"></path>
                    <path d="M18.2421875,0 L1.7578125,0 C0.788554688,0 0,0.788554688 0,1.7578125 L0,14.3359375 C0,15.3051953 0.788554688,16.09375 1.7578125,16.09375 L7.03511719,16.09375 C6.92535156,17.0130078 6.55996094,17.8933594 5.97859375,18.6200391 L5.81210937,18.828125 L4.53125,18.828125 C4.20765625,18.828125 3.9453125,19.0904687 3.9453125,19.4140625 C3.9453125,19.7376563 4.20765625,20 4.53125,20 L15.46875,20 C15.7923438,20 16.0546875,19.7376563 16.0546875,19.4140625 C16.0546875,19.0904687 15.7923438,18.828125 15.46875,18.828125 L14.1878516,18.828125 L14.0213672,18.6200391 C13.4400391,17.8933594 13.0746094,17.0130078 12.9648438,16.09375 L18.2421875,16.09375 C19.2114453,16.09375 20,15.3051953 20,14.3359375 L20,1.7578125 C20,0.788554688 19.2114453,0 18.2421875,0 Z M1.7578125,1.171875 L18.2421875,1.171875 C18.5652734,1.171875 18.828125,1.43472656 18.828125,1.7578125 L18.828125,12.109375 L8.2421875,12.109375 L8.2421875,11.9140625 C8.2421875,10.8834766 7.70683594,9.97617188 6.90007813,9.45378906 C7.24832031,9.07179688 7.4609375,8.56417969 7.4609375,8.0078125 C7.4609375,6.82316406 6.49714844,5.859375 5.3125,5.859375 C4.12785156,5.859375 3.1640625,6.82316406 3.1640625,8.0078125 C3.1640625,8.56417969 3.37667969,9.07179688 3.72492188,9.45378906 C2.91816406,9.97617188 2.3828125,10.8834766 2.3828125,11.9140625 L2.3828125,12.109375 L1.171875,12.109375 L1.171875,1.7578125 C1.171875,1.43472656 1.43472656,1.171875 1.7578125,1.171875 Z M4.3359375,8.0078125 C4.3359375,7.46933594 4.77402344,7.03125 5.3125,7.03125 C5.85097656,7.03125 6.2890625,7.46933594 6.2890625,8.0078125 C6.2890625,8.54628906 5.85097656,8.984375 5.3125,8.984375 C4.77402344,8.984375 4.3359375,8.54628906 4.3359375,8.0078125 Z M5.3125,10.15625 C6.28175781,10.15625 7.0703125,10.9448047 7.0703125,11.9140625 L7.0703125,12.109375 L3.5546875,12.109375 L3.5546875,11.9140625 C3.5546875,10.9448047 4.34324219,10.15625 5.3125,10.15625 Z M12.7308203,18.828125 L7.26917969,18.828125 C7.79492188,18.0061328 8.12015625,17.0653125 8.21394531,16.09375 L11.7860938,16.09375 C11.8798828,17.0653125 12.2050781,18.0061328 12.7308203,18.828125 Z M18.2421875,14.921875 L1.7578125,14.921875 C1.43472656,14.921875 1.171875,14.6590234 1.171875,14.3359375 L1.171875,13.28125 L18.828125,13.28125 L18.828125,14.3359375 C18.828125,14.6590234 18.5652734,14.921875 18.2421875,14.921875 Z" id="Shape"></path>
                </g>
            </g>
        </g>
    </g>
</svg>