<?xml version="1.0" encoding="UTF-8"?>
<svg width="25px" height="20px" viewBox="0 0 25 20" version="1.1" xmlns="http://www.w3.org/2000/svg" xmlns:xlink="http://www.w3.org/1999/xlink">
    <title>DD26E9BB-BA7D-4B41-B03E-5F18301E9DE4@0,5x</title>
    <g id="Web-Admin" stroke="none" stroke-width="1" fill="none" fill-rule="evenodd">
        <g id="Webinar-1" transform="translate(-981.000000, -140.000000)" fill="#0091FF" fill-rule="nonzero">
            <g id="online-learning-2" transform="translate(981.000000, 140.000000)">
                <path d="M24.6153846,7.33293269 L24.6153846,0.0115384615 L13.6506731,0.0115384615 L13.6506731,1.45389423 L1.44240385,1.45389423 L1.44240385,15.2625481 L-1.36642834e-15,15.2625481 L-1.36642834e-15,19.9884135 L24.6153846,19.9884135 L24.6153846,15.2625481 L23.1729808,15.2625481 L23.1729808,7.33293269 L24.6153846,7.33293269 Z M15.0929808,1.45384615 L23.1730769,1.45384615 L23.1730769,5.890625 L16.6256731,5.890625 L15.0929808,6.61076923 L15.0929808,1.45384615 Z M23.1730769,18.5461538 L1.44230769,18.5461538 L1.44230769,16.7049038 L11.5870673,16.7049038 L11.5870673,17.3817788 L13.029375,17.3817788 L13.029375,16.7049038 L23.1730769,16.7049038 L23.1730769,18.5461538 Z M7.59567308,11.2479808 C7.20048077,11.2479808 6.87894231,10.9264423 6.87894231,10.5312019 C6.87894231,10.1360096 7.20048077,9.81447115 7.59567308,9.81447115 C7.99091346,9.81447115 8.31245192,10.1360096 8.31245192,10.5312019 C8.31245192,10.9264423 7.99091346,11.2479808 7.59567308,11.2479808 Z M7.18860577,12.6902885 L8.00418269,12.6902885 C8.94134615,12.6902885 9.70375,13.4526923 9.70375,14.3898558 L9.70375,15.2625962 L5.48899038,15.2625962 L5.48899038,14.3898558 C5.48903846,13.4526923 6.25144231,12.6902885 7.18860577,12.6902885 Z M21.7306731,15.2625962 L11.1460577,15.2625962 L11.1460577,14.3898077 C11.1460577,13.1845192 10.4635096,12.1362019 9.465,11.6094712 C9.64889423,11.2919231 9.75475962,10.9237981 9.75475962,10.5312019 C9.75475962,9.34067308 8.78620192,8.37216346 7.59567308,8.37216346 C6.40514423,8.37216346 5.43663462,9.34072115 5.43663462,10.5312019 C5.43663462,10.9240385 5.54259615,11.2923558 5.72668269,11.6100481 C4.72875,12.1370192 4.04668269,13.185 4.04668269,14.3898558 L4.04668269,15.2625962 L2.88466346,15.2625962 L2.88466346,2.89625 L13.650625,2.89625 L13.650625,8.88201923 L16.9475962,7.33293269 L21.7306731,7.33293269 L21.7306731,15.2625962 Z" id="Shape"></path>
                <polygon id="Path" points="4.76788462 4.85086538 10.4249519 4.85086538 10.4249519 6.29317308 4.76788462 6.29317308"></polygon>
                <polygon id="Path" points="14.8715865 12.3777885 20.5286538 12.3777885 20.5286538 13.8200962 14.8715865 13.8200962"></polygon>
                <polygon id="Path" points="14.8715865 9.49298077 20.5286538 9.49298077 20.5286538 10.9352885 14.8715865 10.9352885"></polygon>
            </g>
        </g>
    </g>
</svg>