<?xml version="1.0" encoding="UTF-8"?>
<svg width="39px" height="39px" viewBox="0 0 39 39" version="1.1" xmlns="http://www.w3.org/2000/svg" xmlns:xlink="http://www.w3.org/1999/xlink">
    <title>C9795AC8-A051-4ECF-925F-4BD0B98F0868@0,5x</title>
    <g id="Web-User--" stroke="none" stroke-width="1" fill="none" fill-rule="evenodd">
        <g id="Icon-Webinar" transform="translate(-336.000000, -68.000000)">
            <g id="Group-17" transform="translate(336.000000, 68.000000)">
                <circle id="Oval" fill="#D8D8D8" opacity="0.5" cx="19.5" cy="19.5" r="19.5"></circle>
                <g id="share-2" transform="translate(10.000000, 9.000000)" fill="#000000" fill-rule="nonzero">
                    <path d="M16.640625,13.28125 C15.6022266,13.28125 14.6723828,13.7548437 14.0557031,14.4973047 L11.4416797,13.1971875 C11.0553906,13.0051562 10.5864063,13.1624219 10.3942969,13.5487891 C10.2021484,13.9351172 10.3595703,14.4040625 10.7458984,14.5961719 L13.3639453,15.8982422 C13.3098047,16.1371875 13.28125,16.385625 13.28125,16.640625 C13.28125,18.4930078 14.7882813,20 16.640625,20 C18.4929688,20 20,18.4930078 20,16.640625 C20,14.7882422 18.4929688,13.28125 16.640625,13.28125 Z M16.640625,18.4375 C15.6498438,18.4375 14.84375,17.6314062 14.84375,16.640625 C14.84375,16.3949219 14.8933203,16.160625 14.9830078,15.9471094 C15.0021875,15.9186719 15.0197656,15.8886719 15.0354688,15.8571094 C15.0521484,15.8235937 15.0661719,15.7894141 15.0776953,15.7548437 C15.3869531,15.2112109 15.9716797,14.84375 16.640625,14.84375 C17.6314062,14.84375 18.4375,15.6498437 18.4375,16.640625 C18.4375,17.6314062 17.6314062,18.4375 16.640625,18.4375 Z" id="Shape"></path>
                    <path d="M16.640625,0 C14.7882812,0 13.28125,1.50699219 13.28125,3.359375 C13.28125,3.61824219 13.3107031,3.87035156 13.3663672,4.11253906 L5.93125,7.84105469 C5.31453125,7.10757812 4.39046875,6.640625 3.359375,6.640625 C1.50703125,6.640625 0,8.14761719 0,10 C0,11.8523828 1.50703125,13.359375 3.359375,13.359375 C4.38601562,13.359375 5.3065625,12.8964453 5.92324219,12.1684375 L7.1846875,12.8104297 C7.29820313,12.8682031 7.41917969,12.8955859 7.53839844,12.8955859 C7.82300781,12.8955859 8.09738281,12.7395313 8.2353125,12.4685156 C8.43101563,12.0839453 8.27796875,11.6135937 7.89339844,11.4178906 L6.62867188,10.7742578 C6.68757812,10.525625 6.71875,10.2663672 6.71875,10 C6.71875,9.73792969 6.68859375,9.48277344 6.63152344,9.23785156 L14.0628125,5.51125 C14.6795313,6.24882813 15.60625,6.71875 16.640625,6.71875 C18.4929687,6.71875 20,5.21175781 20,3.359375 C20,1.50699219 18.4929687,0 16.640625,0 Z M3.359375,11.796875 C2.36859375,11.796875 1.5625,10.9907812 1.5625,10 C1.5625,9.00921875 2.36859375,8.203125 3.359375,8.203125 C4.35015625,8.203125 5.15625,9.00921875 5.15625,10 C5.15625,10.9907813 4.35015625,11.796875 3.359375,11.796875 Z M16.640625,5.15625 C15.6498438,5.15625 14.84375,4.35015625 14.84375,3.359375 C14.84375,2.36859375 15.6498438,1.5625 16.640625,1.5625 C17.6314062,1.5625 18.4375,2.36859375 18.4375,3.359375 C18.4375,4.35015625 17.6314062,5.15625 16.640625,5.15625 Z" id="Shape"></path>
                </g>
            </g>
        </g>
    </g>
</svg>