<?xml version="1.0" encoding="UTF-8"?>
<svg width="39px" height="39px" viewBox="0 0 39 39" version="1.1" xmlns="http://www.w3.org/2000/svg" xmlns:xlink="http://www.w3.org/1999/xlink">
    <title>E9650185-E338-479C-BA16-75935D692228@0,5x</title>
    <g id="Web-User--" stroke="none" stroke-width="1" fill="none" fill-rule="evenodd">
        <g id="Icon-Webinar" transform="translate(-395.000000, -68.000000)">
            <g id="Group-18" transform="translate(395.000000, 68.000000)">
                <circle id="Oval" fill="#D8D8D8" opacity="0.5" cx="19.5" cy="19.5" r="19.5"></circle>
                <g id="online-learning-2" transform="translate(8.000000, 9.000000)" fill="#000000" fill-rule="nonzero">
                    <path d="M24,7.33293269 L24,0.0115384615 L13.3094062,0.0115384615 L13.3094062,1.45389423 L1.40634375,1.45389423 L1.40634375,15.2625481 L0,15.2625481 L0,19.9884135 L24,19.9884135 L24,15.2625481 L22.5936562,15.2625481 L22.5936562,7.33293269 L24,7.33293269 Z M14.7156563,1.45384615 L22.59375,1.45384615 L22.59375,5.890625 L16.2100313,5.890625 L14.7156563,6.61076923 L14.7156563,1.45384615 Z M22.59375,18.5461538 L1.40625,18.5461538 L1.40625,16.7049038 L11.2973906,16.7049038 L11.2973906,17.3817788 L12.7036406,17.3817788 L12.7036406,16.7049038 L22.59375,16.7049038 L22.59375,18.5461538 Z M7.40578125,11.2479808 C7.02046875,11.2479808 6.70696875,10.9264423 6.70696875,10.5312019 C6.70696875,10.1360096 7.02046875,9.81447115 7.40578125,9.81447115 C7.79114063,9.81447115 8.10464063,10.1360096 8.10464063,10.5312019 C8.10464063,10.9264423 7.79114063,11.2479808 7.40578125,11.2479808 Z M7.00889063,12.6902885 L7.80407813,12.6902885 C8.7178125,12.6902885 9.46115625,13.4526923 9.46115625,14.3898558 L9.46115625,15.2625962 L5.35176562,15.2625962 L5.35176562,14.3898558 C5.3518125,13.4526923 6.09515625,12.6902885 7.00889063,12.6902885 Z M21.1874063,15.2625962 L10.8674063,15.2625962 L10.8674063,14.3898077 C10.8674063,13.1845192 10.2019219,12.1362019 9.228375,11.6094712 C9.40767188,11.2919231 9.51089063,10.9237981 9.51089063,10.5312019 C9.51089063,9.34067308 8.56654688,8.37216346 7.40578125,8.37216346 C6.24501563,8.37216346 5.30071875,9.34072115 5.30071875,10.5312019 C5.30071875,10.9240385 5.40403125,11.2923558 5.58351563,11.6100481 C4.61053125,12.1370192 3.94551563,13.185 3.94551563,14.3898558 L3.94551563,15.2625962 L2.81254688,15.2625962 L2.81254688,2.89625 L13.3093594,2.89625 L13.3093594,8.88201923 L16.5239062,7.33293269 L21.1874063,7.33293269 L21.1874063,15.2625962 Z" id="Shape"></path>
                    <polygon id="Path" points="4.6486875 4.85086538 10.1643281 4.85086538 10.1643281 6.29317308 4.6486875 6.29317308"></polygon>
                    <polygon id="Path" points="14.4997969 12.3777885 20.0154375 12.3777885 20.0154375 13.8200962 14.4997969 13.8200962"></polygon>
                    <polygon id="Path" points="14.4997969 9.49298077 20.0154375 9.49298077 20.0154375 10.9352885 14.4997969 10.9352885"></polygon>
                </g>
            </g>
        </g>
    </g>
</svg>