<?xml version="1.0" encoding="UTF-8"?>
<svg width="18px" height="27px" viewBox="0 0 18 27" version="1.1" xmlns="http://www.w3.org/2000/svg" xmlns:xlink="http://www.w3.org/1999/xlink">
    <title>3D6C5607-55A9-4C29-B86E-22D411C03BBA@2x</title>
    <g id="FLOW-MEETING" stroke="none" stroke-width="1" fill="none" fill-rule="evenodd">
        <g id="Create-Webinar-6" transform="translate(-20.000000, -467.000000)" fill="#80C0F0" fill-rule="nonzero" stroke="#80C0F0" stroke-width="0.1">
            <g id="company" transform="translate(21.000000, 468.000000)">
                <path d="M14.8986816,8.46152344 L10.2539062,6.13916016 L10.2539062,0.732421875 C10.2539062,0.327929687 9.92597656,0 9.52148438,0 C7.54331055,0 6.07875977,1.20151367 4.66240234,2.36342773 C3.38920898,3.40795898 2.18662109,4.39453125 0.732421875,4.39453125 C0.327929687,4.39453125 0,4.72246094 0,5.12695312 L0,24.2675781 C0,24.6720703 0.327929687,25 0.732421875,25 L15.3808594,25 C15.7853516,25 16.1132812,24.6720703 16.1132812,24.2675781 L16.1132812,10.4268066 C16.1132812,9.58916016 15.6478516,8.83608398 14.8986816,8.46152344 Z M5.859375,23.5351562 L5.859375,22.8027344 C5.859375,22.3982422 5.53144531,22.0703125 5.12695313,22.0703125 C4.72246094,22.0703125 4.39453125,22.3982422 4.39453125,22.8027344 L4.39453125,23.5351562 L1.46484375,23.5351562 L1.46484375,5.803125 C3.0831543,5.55341797 4.35571289,4.5097168 5.59150391,3.49594727 C6.64482422,2.63183594 7.64995117,1.80795898 8.7890625,1.54892578 L8.7890625,23.5351562 L5.859375,23.5351562 Z M14.6484375,11.71875 L12.4511719,11.71875 C12.0466797,11.71875 11.71875,12.0466797 11.71875,12.4511719 C11.71875,12.8556641 12.0466797,13.1835938 12.4511719,13.1835938 L14.6484375,13.1835938 L14.6484375,14.6484375 L12.4511719,14.6484375 C12.0466797,14.6484375 11.71875,14.9763672 11.71875,15.3808594 C11.71875,15.7853516 12.0466797,16.1132812 12.4511719,16.1132812 L14.6484375,16.1132812 L14.6484375,17.578125 L12.4511719,17.578125 C12.0466797,17.578125 11.71875,17.9060547 11.71875,18.3105469 C11.71875,18.7150391 12.0466797,19.0429688 12.4511719,19.0429688 L14.6484375,19.0429688 L14.6484375,23.5351562 L13.1835938,23.5351562 L13.1835938,22.8027344 C13.1835938,22.3982422 12.8556641,22.0703125 12.4511719,22.0703125 C12.0466797,22.0703125 11.71875,22.3982422 11.71875,22.8027344 L11.71875,23.5351562 L10.2539062,23.5351562 L10.2539062,7.7769043 L14.2435547,9.77172852 C14.4932617,9.89658203 14.6484375,10.1476074 14.6484375,10.4268066 L14.6484375,11.71875 Z M3.66210938,7.32421875 C3.25761719,7.32421875 2.9296875,7.65214844 2.9296875,8.05664062 L2.9296875,9.52148438 C2.9296875,9.92597656 3.25761719,10.2539062 3.66210938,10.2539062 C4.06660156,10.2539062 4.39453125,9.92597656 4.39453125,9.52148438 L4.39453125,8.05664062 C4.39453125,7.65214844 4.06660156,7.32421875 3.66210938,7.32421875 Z M3.66210938,16.1132812 C3.25761719,16.1132812 2.9296875,16.4412109 2.9296875,16.8457031 L2.9296875,18.3105469 C2.9296875,18.7150391 3.25761719,19.0429688 3.66210938,19.0429688 C4.06660156,19.0429688 4.39453125,18.7150391 4.39453125,18.3105469 L4.39453125,16.8457031 C4.39453125,16.4412109 4.06660156,16.1132812 3.66210938,16.1132812 Z M3.66210938,11.71875 C3.25761719,11.71875 2.9296875,12.0466797 2.9296875,12.4511719 L2.9296875,13.9160156 C2.9296875,14.3205078 3.25761719,14.6484375 3.66210938,14.6484375 C4.06660156,14.6484375 4.39453125,14.3205078 4.39453125,13.9160156 L4.39453125,12.4511719 C4.39453125,12.0466797 4.06660156,11.71875 3.66210938,11.71875 Z M6.59179688,7.32421875 C6.18730469,7.32421875 5.859375,7.65214844 5.859375,8.05664062 L5.859375,9.52148438 C5.859375,9.92597656 6.18730469,10.2539062 6.59179688,10.2539062 C6.99628906,10.2539062 7.32421875,9.92597656 7.32421875,9.52148438 L7.32421875,8.05664062 C7.32421875,7.65214844 6.99628906,7.32421875 6.59179688,7.32421875 Z M6.59179688,16.1132812 C6.18730469,16.1132812 5.859375,16.4412109 5.859375,16.8457031 L5.859375,18.3105469 C5.859375,18.7150391 6.18730469,19.0429688 6.59179688,19.0429688 C6.99628906,19.0429688 7.32421875,18.7150391 7.32421875,18.3105469 L7.32421875,16.8457031 C7.32421875,16.4412109 6.99628906,16.1132812 6.59179688,16.1132812 Z M6.59179688,11.71875 C6.18730469,11.71875 5.859375,12.0466797 5.859375,12.4511719 L5.859375,13.9160156 C5.859375,14.3205078 6.18730469,14.6484375 6.59179688,14.6484375 C6.99628906,14.6484375 7.32421875,14.3205078 7.32421875,13.9160156 L7.32421875,12.4511719 C7.32421875,12.0466797 6.99628906,11.71875 6.59179688,11.71875 Z" id="Shape"></path>
            </g>
        </g>
    </g>
</svg>