<?xml version="1.0" encoding="UTF-8"?>
<svg width="32px" height="27px" viewBox="0 0 32 27" version="1.1" xmlns="http://www.w3.org/2000/svg" xmlns:xlink="http://www.w3.org/1999/xlink">
    <title>FCC480EF-A680-4C1E-959A-AC923D101B30@0,5x</title>
    <g id="FLOW-MEETING" stroke="none" stroke-width="1" fill="none" fill-rule="evenodd">
        <g id="Landing-Page-off" transform="translate(-14.000000, -181.000000)" fill="#80C0F0" stroke="#80C0F0" stroke-width="0.5">
            <g id="Group-3" transform="translate(14.999999, 182.000000)">
                <path d="M2.77279175,12.9640085 C2.77279175,11.5641822 2.76738212,10.2191285 2.77744065,8.87424378 C2.77938474,8.61458154 2.70601663,8.6200757 2.51558076,8.72666231 C1.67142491,9.19899062 1.22834242,10.2014627 1.41319961,11.2416331 C1.55393452,12.0334676 1.98898709,12.5944632 2.77279175,12.9640085 L2.77279175,12.9640085 Z M26.572374,10.7955076 L26.572374,13.0439696 C26.572374,13.7072409 26.572374,13.7072409 27.2178104,13.5480795 C28.5872075,13.2104848 29.4991528,11.9710878 29.4025402,10.5787843 C29.3071109,9.20152639 28.2085334,8.09086175 26.8139478,7.94776013 C26.6050008,7.92629066 26.5665417,7.99712301 26.5684858,8.18738983 C26.577361,9.05673426 26.572374,9.92616322 26.572374,10.7955076 L26.572374,10.7955076 Z M8.03881288,16.4645462 C7.44933227,16.4645462 6.85951356,16.4744357 6.27045558,16.4593056 C6.05314061,16.4537269 6.02414837,16.5195723 6.07655416,16.7100927 C6.57525442,18.5256997 7.06330447,20.3442651 7.56555479,22.1588579 C7.85919626,23.2200751 8.90663585,23.8418445 9.92449153,23.5791393 C10.9542653,23.3133067 11.5538044,22.2851389 11.2756311,21.1953521 C10.8888426,19.679895 10.4708641,18.1723833 10.0705515,16.6603072 C10.0316698,16.5134865 9.96869835,16.4568544 9.80717018,16.4599818 C9.21785862,16.4713928 8.62829349,16.4645462 8.03881288,16.4645462 L8.03881288,16.4645462 Z M12.0251184,10.8721722 C12.0251184,9.52246959 12.0218219,8.17276693 12.0290066,6.82314879 C12.0299364,6.63381175 12.0131158,6.54691957 11.7814315,6.54817378 C9.88197522,6.55917576 7.98234987,6.54877913 6.08280905,6.55663999 C4.98414702,6.56111984 4.11395734,7.40578284 4.10119399,8.50588179 C4.08242934,10.1153312 4.08403532,11.7252033 4.09992611,13.3346527 C4.11023822,14.3759219 4.90697527,15.1392714 5.94249677,15.1402012 C7.87204414,15.1419762 9.8015915,15.134538 11.7310543,15.1479238 C11.9949428,15.1497526 12.0328948,15.0675938 12.0307816,14.8311761 C12.0190326,13.511649 12.0251184,12.1918684 12.0251184,10.8721722 L12.0251184,10.8721722 Z M25.249973,1.67935149 C25.1704346,1.7042865 25.1332434,1.7132462 25.0980808,1.72727743 C21.2485374,3.26589451 17.3998393,4.80637115 13.5480138,6.33907144 C13.3688198,6.41041094 13.3452372,6.5131939 13.3454062,6.67734236 C13.3490408,9.52796374 13.3498016,12.3786696 13.3438825,15.229291 C13.3434622,15.4192198 13.4023764,15.4985892 13.5821621,15.5701822 C17.3596052,17.0749046 21.1334137,18.5887557 24.9078985,20.1009163 C25.2497195,20.2378476 25.249973,20.2378476 25.249973,19.8694856 C25.249973,13.918132 25.249973,7.96669384 25.249973,2.01534022 L25.249973,1.67935149 Z M30.7306888,11.4154174 C30.6235106,11.4635969 30.6609553,11.5728884 30.6421907,11.651159 C30.1943748,13.5146919 28.7813625,14.761189 26.8740454,14.9292256 C26.593928,14.9539071 26.5668798,15.0468851 26.5678941,15.2814432 C26.5761776,17.2114978 26.5734728,19.1416368 26.5717823,21.0717758 C26.5714442,21.5165489 26.3630889,21.7832267 25.9787516,21.8459446 C25.7795251,21.8784869 25.606755,21.7871994 25.4332242,21.7170433 C22.8657632,20.6775491 20.2994855,19.6347584 17.7327851,18.593151 C16.0524188,17.9112841 14.3714609,17.2308541 12.6916017,16.5476347 C12.2943321,16.386022 11.8815942,16.480437 11.4768863,16.4748583 C11.3123152,16.4726606 11.4161124,16.6295399 11.4364831,16.7058664 C11.673577,17.5921159 11.9193771,18.4759987 12.1582461,19.3617411 C12.313942,19.9393036 12.4972777,20.5123018 12.6069918,21.0987395 C12.9356268,22.8549251 11.8747476,24.5199078 10.2090043,24.9088094 C8.46051044,25.3169829 6.79941596,24.3236396 6.30130738,22.5548597 C5.73650821,20.5489858 5.18464143,18.5393928 4.63421159,16.5295463 C4.5861166,16.3539869 4.51198776,16.2391168 4.34843099,16.1441102 C3.75421695,15.7991617 3.30251285,15.3095902 3.01740845,14.6840172 C2.93406634,14.5011887 2.82435229,14.4029701 2.64279158,14.3410129 C1.69052767,14.0161815 0.933094959,13.4483394 0.445298488,12.550848 C-0.599774388,10.6278936 0.266019972,8.15848212 2.29657527,7.34348757 C2.78749918,7.14637418 3.17437225,6.90032054 3.50638828,6.46163337 C4.13779352,5.62753606 5.04094814,5.23854986 6.09100802,5.23533789 C8.1410887,5.22899848 10.1912539,5.23221045 12.2413346,5.23559147 C12.4147808,5.23592957 12.572928,5.20380989 12.733949,5.13957054 C16.954052,3.45633038 21.1755074,1.77621767 25.3967092,0.0956823342 C26.0840703,-0.177926603 26.5719513,0.150285786 26.5722894,0.88827764 C26.5731347,2.68841651 26.5764312,4.48855539 26.5678941,6.28860974 C26.5667108,6.52384411 26.593928,6.6160614 26.8747216,6.63888327 C28.8398541,6.79872093 30.3296155,8.17995159 30.6732115,10.1249671 C30.6803117,10.1652012 30.6831855,10.2029841 30.7306888,10.2150713 L30.7306888,11.4154174 Z" id="Fill-1"></path>
            </g>
        </g>
    </g>
</svg>