<svg width="21" height="20" viewBox="0 0 21 20" fill="none" xmlns="http://www.w3.org/2000/svg">
<path d="M10.4849 6.25C9.76406 6.25 9.17901 6.81 9.17901 7.5V10.75L8.25965 11.6294C7.93317 11.9419 7.8731 12.2362 7.8731 12.5C7.8731 13.19 8.45815 13.75 9.17901 13.75C9.55642 13.75 9.85809 13.5994 10.0879 13.38L11.4402 12.0862C11.6341 11.9006 11.7908 11.6112 11.7908 11.25V7.5C11.7908 6.81 11.2058 6.25 10.4849 6.25ZM10.4849 2.5C5.43626 2.5 1.34351 6.4175 1.34351 11.25C1.34351 13.2194 2.03173 15.0312 3.17898 16.4937L1.72288 17.8875C1.46953 18.1287 1.34351 18.4181 1.34351 18.75C1.34351 19.4925 2.00692 20 2.64943 20C2.98636 20 3.29325 19.8838 3.55051 19.6375L5.00661 18.2437C6.53453 19.3412 8.42746 20 10.4849 20C12.5424 20 14.4353 19.3412 15.9632 18.2431L17.4193 19.6369C17.6766 19.8838 17.9835 20 18.3204 20C18.9629 20 19.6263 19.4919 19.6263 18.75C19.6263 18.4181 19.5003 18.1287 19.2476 17.8875L17.7915 16.4937C18.9381 15.0312 19.6263 13.2194 19.6263 11.25C19.6263 6.4175 15.5336 2.5 10.4849 2.5ZM10.4849 17.5C6.87929 17.5 3.95535 14.7013 3.95535 11.25C3.95535 7.79875 6.87929 5 10.4849 5C14.0906 5 17.0145 7.79875 17.0145 11.25C17.0145 14.7013 14.0906 17.5 10.4849 17.5ZM17.0145 0C15.6237 0 14.4053 0.695625 13.7099 1.74125C16.278 2.53813 18.4105 4.25688 19.6773 6.495C20.4478 5.81063 20.9323 4.835 20.9323 3.75C20.9323 1.67938 19.1778 0 17.0145 0ZM7.25997 1.74125C6.56457 0.695625 5.34615 0 3.95535 0C1.7921 0 0.0375977 1.67938 0.0375977 3.75C0.0375977 4.835 0.522093 5.81062 1.29258 6.49562C2.55867 4.2575 4.69188 2.53875 7.25997 1.74125Z" fill="black"/>
</svg>
