<?xml version="1.0" encoding="UTF-8"?>
<svg width="30px" height="25px" viewBox="0 0 30 25" version="1.1" xmlns="http://www.w3.org/2000/svg" xmlns:xlink="http://www.w3.org/1999/xlink">
    <title>3F19FA85-2C82-41D0-802C-6DF08734C422@0,5x</title>
    <g id="FLOW-MEETING" stroke="none" stroke-width="1" fill="none" fill-rule="evenodd">
        <g id="Create-Webinar-6" transform="translate(-14.000000, -934.000000)" fill="#80BBED" fill-rule="nonzero" stroke="#80BBED" stroke-width="0.5">
            <g id="Group-15" transform="translate(13.500000, 796.000000)">
                <g id="logout-(1)" transform="translate(15.629634, 150.500000) rotate(-180.000000) translate(-15.629634, -150.500000) translate(1.500000, 139.000000)">
                    <path d="M27.9468858,10.6616742 L25.2456865,8.02095828 C24.7562628,7.54254987 24.0798166,8.02971007 24.0798166,8.85921568 L24.0798166,10.4743312 L11.1100368,10.4743312 C10.7015756,10.4743312 10.3703787,10.9335267 10.3703787,11.5 C10.3703787,12.0664733 10.7015756,12.5256004 11.1100368,12.5256004 L24.0797179,12.5256004 L24.0797179,14.1406476 C24.0797179,14.9756231 24.7597636,15.4536896 25.2455386,14.978905 L27.9467378,12.338189 C28.3592423,11.9351964 28.3675752,11.0738288 27.9468858,10.6616742 Z" id="Path"></path>
                    <path d="M21.1915793,16.2415722 C20.8386579,16.0374696 20.3868358,16.1579817 20.1825854,16.5110508 C18.4479587,19.5098736 15.205404,21.5230862 11.5,21.5230862 C5.97327731,21.5230862 1.47691382,17.0267227 1.47691382,11.5 C1.47691382,5.97327731 5.97327731,1.47691382 11.5,1.47691382 C15.2078655,1.47691382 18.4489433,3.49199711 20.1825362,6.48885074 C20.3867373,6.84191984 20.8386579,6.96238276 21.1915301,6.7583293 C21.5445499,6.55412816 21.6651606,6.10235528 21.4610086,5.74933541 C19.4659615,2.30046275 15.7398813,0 11.5,0 C5.14391938,0 3.63166287e-14,5.14337787 3.63166287e-14,11.5 C3.63166287e-14,17.8560806 5.14337787,23 11.5,23 C15.7417028,23 19.4668476,20.6979127 21.4610579,17.2505661 C21.6652098,16.8975463 21.5445992,16.4458226 21.1915793,16.2415722 Z" id="Path"></path>
                </g>
            </g>
        </g>
    </g>
</svg>