<?xml version="1.0" encoding="UTF-8"?>
<svg width="158px" height="150px" viewBox="0 0 158 150" version="1.1" xmlns="http://www.w3.org/2000/svg" xmlns:xlink="http://www.w3.org/1999/xlink">
    <title>0C26913D-A1AB-4DFA-B8B2-9D05BC78A1B1@0,5x</title>
    <g id="FLOW-MEETING" stroke="none" stroke-width="1" fill="none" fill-rule="evenodd" opacity="0.7">
        <g id="Landing-Page-off" transform="translate(-1113.000000, -729.000000)" fill-rule="nonzero">
            <g id="NC_Last-Activities" transform="translate(1113.000000, 729.000000)">
                <g id="Group" opacity="0.5" fill="#E6E6E6">
                    <path d="M1.76680197,64.8334471 C4.42273768,53.7108744 10.8447167,43.8496016 19.9432215,36.9226378 C26.363333,32.0589169 34.8401036,28.0637177 44.4841671,29.5506266 C66.0235022,32.864905 88.9107827,62.4919129 112.923667,57.86443 C136.936552,53.236947 156.25942,72.1359765 153.084105,101.978378 C149.90879,131.820779 97.1860563,155.090209 50.397062,142.173556 C10.2157799,131.070377 -5.64689819,95.5721627 1.76680197,64.8334471 Z" id="Path"></path>
                    <path d="M155.710514,42.9119626 C155.710514,42.9119626 153.514892,35.4079361 148.762342,35.9637899 C144.009791,36.5196438 143.266337,38.7083181 139.243345,37.0616012 C135.220353,35.4148843 133.754289,30.1134286 127.160473,31.3849442 C120.566657,32.6564598 119.837099,39.9867819 112.353917,39.4378762 C104.870735,38.8889706 102.292963,38.70137 99.5414868,42.9119626 L155.710514,42.9119626 Z" id="Path"></path>
                    <path d="M65.4815447,13.6393114 C65.4815447,13.6393114 62.4660378,6.98296203 54.2463496,8.96319122 C46.0266614,10.9434204 42.6220569,-0.715613216 35.382061,0.0347894246 C28.1420652,0.785192066 28.8021416,5.32234877 19.5680202,6.81620588 C10.3338988,8.31006299 9.60434067,6.81620588 5.71336401,13.6393114 L65.4815447,13.6393114 Z" id="Path"></path>
                    <path d="M154.369517,112.706775 C154.658005,112.704566 154.910358,112.511757 154.987904,112.233881 C157.447557,103.388857 158.19796,95.0510498 157.225216,87.4566971 C156.503253,81.5491176 154.588515,75.8498189 151.597196,70.704653 C146.573667,62.1514525 140.299467,58.4202838 140.035437,58.2604758 C139.731413,58.1086646 139.361753,58.2182715 139.189618,58.5112676 C139.017483,58.8042637 139.101697,59.1805212 139.382309,59.3721834 L139.382309,59.3721834 C139.444842,59.4138725 145.635664,63.1311448 150.499385,71.4203147 C154.974008,79.0633046 159.163756,92.2648325 153.716389,111.89342 C153.627232,112.236236 153.827591,112.587635 154.16802,112.685512 C154.23392,112.701621 154.301715,112.708634 154.369517,112.706775 Z" id="Path"></path>
                    <path d="M6.88065701,46.4207897 C7.08803272,46.4203392 7.28230372,46.3193182 7.40176995,46.149811 C17.2820714,32.4966518 27.9544645,28.2026812 35.1944604,27.0006473 C42.9764137,25.701339 48.46547,27.6190347 48.5210554,27.6398792 C48.8501094,27.7385439 49.1993506,27.5654418 49.3200953,27.2438333 C49.377915,27.0835443 49.3693445,26.9068042 49.2962871,26.7528617 C49.2232296,26.5989192 49.0917326,26.4805171 48.9309976,26.423949 C48.6947597,26.3336227 43.0667399,24.3394972 34.9582225,25.7291317 C30.085825,26.5666816 25.4269885,28.358905 21.2494779,31.0027947 C15.8368515,34.3796066 10.827219,39.2224829 6.35954406,45.3924602 C6.25890188,45.5315174 6.21772501,45.7049046 6.24509919,45.8743638 C6.27247336,46.043823 6.36614872,46.1954264 6.50545569,46.2957226 C6.61369887,46.376905 6.74535303,46.4207897 6.88065701,46.4207897 Z" id="Path"></path>
                    <path d="M29.5872851,140.49908 C29.8837968,140.499446 30.1425302,140.297993 30.2148314,140.010431 C30.2871327,139.722869 30.1544456,139.423002 29.8930047,139.283117 C20.2142002,134.17621 13.2173904,125.907884 9.11102041,119.869922 C6.48952531,116.094992 4.23721017,112.076657 2.38518933,107.870428 C2.30763073,107.643684 2.11095633,107.478483 1.87422683,107.441234 C1.63749734,107.403985 1.3995942,107.500806 1.25615158,107.692776 C1.11270896,107.884746 1.08728647,108.140336 1.19010365,108.3568 C3.0832087,112.643451 5.3794843,116.740453 8.04795001,120.592532 C12.2654908,126.755561 19.3804195,135.183695 29.2885136,140.422617 C29.3797011,140.473797 29.4827226,140.500151 29.5872851,140.49908 L29.5872851,140.49908 Z" id="Path"></path>
                </g>
                <path d="M95.8659035,19.1353159 C90.2726246,17.6761997 77.2309046,13.7713267 71.6306775,12.3191586 C66.3014291,10.9295241 60.3537934,9.67190482 54.9550632,8.77559056 C53.652026,8.39312162 52.2743452,8.34059307 50.9459676,8.62273076 C48.8128787,9.26196264 47.5830521,11.4019998 46.651997,13.4864516 C44.2618256,18.7045292 40.6279313,29.8980353 38.7519247,35.3592989 C31.9218711,55.1754872 19.7069836,96.0307421 15.9827631,111.184707 C14.9752781,115.304973 13.2034941,119.578099 15.4060648,123.177252 C17.3307086,126.276137 20.9646029,127.756098 24.390052,129.04151 C45.929387,137.163924 69.0529054,144.59152 91.6205701,149.2329 C96.0812969,150.150058 101.215996,150.775394 104.731772,147.884954 C106.760638,146.217393 107.830657,143.716051 108.76866,141.235553 C112.694378,131.007843 116.654836,117.549233 119.94827,107.106129 C127.51483,83.1140892 132.955249,64.3192823 139.000159,43.0856669 C139.478791,41.7729953 139.661482,40.3707854 139.535168,38.9792969 C139.041848,36.0332717 136.061082,34.2962285 133.337398,33.0177648 C119.190919,26.3336227 110.964283,23.0749298 95.8659035,19.1353159 Z" id="Path" fill="#808080"></path>
                <path d="M115.515336,108.474919 C121.525505,89.9441429 123.234755,84.1563151 127.473141,68.5298749 C128.862775,63.33959 134.365728,48.6164123 132.83713,45.6009053 C129.696556,39.34755 122.296752,36.9365341 116.606199,34.032198 C112.784704,32.0867096 114.883052,29.3143888 108.004361,26.6532387 C106.802327,26.1877111 107.17058,23.5613019 106.746742,22.2550454 C106.746742,22.1786155 102.577838,21.2475604 102.577838,21.1711305 C99.103752,20.3095571 100.771313,20.2470235 97.3111234,19.260383 C96.5520537,20.247402 95.5519124,21.0226311 94.4067873,21.5115909 C88.9663681,23.8183842 81.6429942,23.1027225 76.0288707,22.116082 C72.0753605,21.4212647 68.2330211,20.3026089 64.3211999,19.4410355 C61.0833515,18.7462182 57.4077682,18.1556236 54.420054,19.9899411 C50.9112268,22.1091338 47.7359119,31.4127369 46.4296555,35.0327348 C44.9566429,39.0557268 43.997795,43.2593712 42.9625173,47.3935339 C39.0993334,62.9296478 33.6797587,78.0975086 29.30241,93.4946591 C26.7107416,102.631506 20.4226454,116.87526 30.3237914,123.663625 C36.7022138,128.027077 49.632763,130.611797 60.0828146,134.259588 C71.1628255,138.151029 82.5298641,141.171089 94.0802232,143.292212 C98.8605659,144.167682 101.43139,142.764151 102.661216,141.339776 C108.511578,134.5931 112.166316,118.799904 115.515336,108.474919 Z" id="Path" fill="#353153"></path>
                <path d="M92.9615674,26.1460221 C88.2090173,24.9092473 77.1127857,21.594969 72.3532874,20.3581943 C67.8161307,19.1839531 62.7578611,18.1139345 58.1720672,17.3496355 C57.0629796,17.0248817 55.8904038,16.9818953 54.7605144,17.2245684 C52.9470414,17.7734741 51.8978673,19.621688 51.0988274,21.3448348 C49.0352202,25.8541988 46.1864694,35.1508538 44.4494263,39.750544 C36.9940371,59.5180951 27.5653668,96.6560776 25.0709729,107.474382 C24.2580367,110.997106 22.3333929,112.511808 24.230244,115.5829 C25.8630646,118.216257 28.9688977,119.473876 31.8732339,120.571688 C50.2025132,127.485119 69.560122,134.739012 88.7509748,138.678626 C92.544677,139.463769 96.9150776,139.99183 99.90974,137.525229 C101.632887,136.100853 102.543097,133.939972 103.349085,131.848572 C106.691156,123.128615 109.255032,114.130732 111.81196,105.146745 C116.967504,87.0398067 123.540475,67.3973228 128.696019,49.290385 C129.110851,47.1302367 129.267126,44.9283944 129.161547,42.7313101 C128.744656,40.2160716 125.68746,37.5062843 123.297289,36.5752291 C111.179676,31.8087827 105.80179,29.4950413 92.9615674,26.1460221 Z" id="Path" fill="#E6E6E6"></path>
                <path d="M58.1929117,54.0707277 C58.1929117,54.1402095 57.803814,54.0707277 57.1437376,53.9387125 C56.7366959,53.851903 56.3352836,53.7405284 55.9417037,53.6052002 C55.3759436,53.4224703 54.8615959,53.1081467 54.4408985,52.6880414 C54.1793394,52.4153723 53.9968126,52.0767371 53.9128374,51.7083491 C53.8596891,51.516063 53.8339585,51.3172354 53.8364075,51.1177544 C53.8260746,50.9349317 53.8260746,50.7516714 53.8364075,50.5688488 C53.9084781,49.7966868 54.0456126,49.0319881 54.2463496,48.2829 C54.6146028,46.7265093 55.2190938,45.0797924 55.788844,43.3219047 C55.9333363,42.8568918 56.1339984,42.4112352 56.3863868,41.9948038 C56.6776377,41.5259017 57.1181488,41.1685982 57.6370579,40.9803706 C58.5259321,40.7343866 59.4649191,40.7343866 60.3537934,40.9803706 C61.7410332,41.2863365 63.1078434,41.6785112 64.446267,42.1546117 C66.7252676,42.9675479 68.0315241,43.6971061 67.9759387,43.8221732 C67.9203533,43.9472403 66.5168224,43.4747645 64.2308737,42.8563772 C63.0844252,42.5506576 61.7017388,42.2032489 60.180089,41.925322 C59.4611193,41.7536043 58.7102477,41.7679521 57.9983628,41.9670111 C57.3660791,42.1754563 57.0603595,42.8355327 56.7615881,43.7248987 C56.2057343,45.4410974 55.5873469,47.0530734 55.1774048,48.5886196 C54.9663549,49.2706479 54.8061086,49.9673709 54.6979809,50.6730713 C54.5548422,51.2083422 54.6594017,51.7795943 54.9828559,52.229462 C55.3062722,52.5976471 55.7073133,52.8895291 56.1570971,53.0840872 C56.5670393,53.2925324 56.9422406,53.438444 57.2549084,53.5704593 C57.8871921,53.8066972 58.2207044,54.001246 58.1929117,54.0707277 Z" id="Path" fill="#B3B3B3"></path>
                <path d="M65.3425813,42.9675479 C65.3425813,42.9189107 65.7316789,42.7382582 66.4751334,42.9189107 C67.5420824,43.222403 68.3740012,44.0595871 68.670756,45.1284296 C68.812958,45.8592722 68.7699623,46.6140848 68.5456888,47.3240522 C68.3789327,48.0188694 68.1982802,48.7970647 68.0106796,49.5961046 C67.8142179,50.4503842 67.5683017,51.2925314 67.2741733,52.1182912 C67.0020048,53.05103 66.6120825,53.945283 66.1138284,54.7794414 C65.9547429,55.0225614 65.7549552,55.2364517 65.5232338,55.4117251 C65.3931946,55.51475 65.2478428,55.5968035 65.0924471,55.6549111 C64.9510811,55.7095249 64.8043621,55.7491158 64.6547122,55.77303 C64.156654,55.8395346 63.6519651,55.8395346 63.1539069,55.77303 C62.2790065,55.6561963 61.4131036,55.4797657 60.5622385,55.2449689 C58.9641588,54.7447005 57.5467316,54.2513802 56.393335,53.799749 C55.8434452,53.5771696 55.3304168,53.2726323 54.8716852,52.8964866 C54.5166092,52.591682 54.2481869,52.198635 54.0934898,51.7569863 C53.8642001,51.0065836 54.0934898,50.5896933 54.1699197,50.617486 C54.2463496,50.6452787 54.1699197,51.0343763 54.4686912,51.5971783 C54.9698541,52.3741248 55.7600429,52.919255 56.6643137,53.1118799 C57.845503,53.4731849 59.2559821,53.8761789 60.8332173,54.3139138 C61.6475752,54.5139486 62.4737286,54.6624706 63.3067667,54.7585968 C63.7127314,54.810645 64.1236804,54.810645 64.5296451,54.7585968 L64.7589348,54.6960633 C64.8232447,54.6689552 64.883929,54.633945 64.9395873,54.5918407 C65.0811274,54.4759681 65.2051626,54.3402314 65.3078404,54.1888467 C65.7457339,53.4289276 66.0976278,52.6226013 66.3570145,51.784779 C66.6530131,50.9924089 66.9081155,50.1853576 67.1213135,49.3668149 C67.3367068,48.5816714 67.5382038,47.8104242 67.7535972,47.1086588 C67.9747812,46.5313897 68.0557475,45.9098545 67.989835,45.2951858 C67.7969572,44.4151662 67.1991755,43.6782455 66.377859,43.3080084 C65.7386271,43.0370297 65.3425813,43.0578742 65.3425813,42.9675479 Z" id="Path" fill="#B3B3B3"></path>
                <path d="M52.7663889,72.9836536 C52.7663889,73.0531353 52.3425503,72.9836536 51.6199404,72.8238456 C51.1725359,72.7263217 50.7334581,72.5939014 50.3067358,72.4277998 C49.679963,72.2084303 49.1379585,71.7976736 48.7572933,71.2535586 C48.5460669,70.8977359 48.4311258,70.4930473 48.423781,70.0793174 C48.4166448,69.6956907 48.442214,69.3121535 48.5002109,68.9328689 C48.6294829,68.1047883 48.8104897,67.2856166 49.0421684,66.480164 C49.2506135,65.6394351 49.5632813,64.7709136 49.8481564,63.8607029 L50.3067358,62.4710684 C50.4508625,61.9650777 50.6537408,61.4777033 50.9112268,61.0189004 C51.2175127,60.4787128 51.7123127,60.0705028 52.3008613,59.8724519 C52.8263021,59.709122 53.379548,59.6547431 53.9267337,59.7126439 C54.8670496,59.8164455 55.7968269,60.0000766 56.7060027,60.2615495 C57.5536798,60.4769429 58.3596678,60.7201289 59.0961741,60.9563668 C59.4644273,61.0883821 59.7909914,61.2273455 60.1522963,61.3593608 L60.6386684,61.567806 C60.7324285,61.6016118 60.823092,61.6434565 60.9096472,61.6928731 C60.9928858,61.7365226 61.0719606,61.7876887 61.145885,61.8457329 C61.4307601,62.0402817 61.6808943,62.2417787 61.8962877,62.4085349 C62.1694125,62.5773638 62.4057205,62.7994933 62.5911049,63.0616631 C62.8682979,63.473243 63.0225417,63.9552548 63.035788,64.4512976 C63.035788,65.2642338 62.6883793,65.6116424 62.6466903,65.5769016 C62.6050013,65.5421607 62.7439647,65.1600112 62.6466903,64.4860385 C62.5762426,64.0917969 62.4037632,63.7228827 62.1464219,63.4160199 C61.9901905,63.2300899 61.7989731,63.0766438 61.5836199,62.9643887 L60.7984764,62.4641203 C60.7388432,62.4243977 60.6761067,62.3895441 60.6108757,62.3598977 L60.4093787,62.2834678 L59.9160585,62.1167116 L58.8738326,61.7762512 C58.1790153,61.5608578 57.3660791,61.3524126 56.5253502,61.164812 C55.6762757,60.9468417 54.8123988,60.791251 53.94063,60.6992844 C53.5287523,60.6616315 53.1134804,60.7041025 52.7177517,60.8243515 C52.3622053,60.9426271 52.0644225,61.1907794 51.883971,61.5191688 C51.6678438,61.9252161 51.4910195,62.3509905 51.3559098,62.7906844 L50.8973304,64.1386298 C50.6055072,65.0279959 50.2858913,65.8617767 50.0427052,66.6955574 C49.7995192,67.5293381 49.5771776,68.3005852 49.4382142,69.0231952 C49.3690528,69.3669525 49.3249318,69.7152761 49.3061989,70.0654211 C49.2968883,70.3420562 49.3565844,70.6166583 49.4799032,70.8644609 C49.7591008,71.3088514 50.1625441,71.6615623 50.6402481,71.8788941 C51.0779829,72.1081838 51.4948733,72.27494 51.8283856,72.4139034 C52.4259284,72.7126748 52.7941816,72.92112 52.7663889,72.9836536 Z" id="Path" fill="#B3B3B3"></path>
                <path d="M59.9091103,61.8874219 C59.9091103,61.8318365 60.3051561,61.6581322 61.0416624,61.8387847 C61.4894083,61.9535896 61.9036691,62.172624 62.2506445,62.4780166 C62.7350863,62.8829824 63.0801881,63.4297986 63.237285,64.0413554 C63.3830898,64.7742694 63.3400512,65.5322282 63.1122179,66.2439261 C62.9454617,66.9387434 62.7717574,67.7169387 62.5841568,68.5159786 C62.3876627,69.3679708 62.1417447,70.2078039 61.8476505,71.0312171 C61.5756074,71.9662012 61.1856942,72.8627679 60.6873056,73.6993153 C60.526044,73.9387204 60.326518,74.1499831 60.096711,74.3246509 C59.9660446,74.428536 59.8209206,74.5128016 59.6659243,74.5747851 C59.5231355,74.6232021 59.3767772,74.6603724 59.2281894,74.6859559 C58.7298952,74.7488089 58.2256783,74.7488089 57.7273841,74.6859559 C56.8495753,74.5695399 55.9811728,74.3907511 55.1287676,74.1509466 C53.537636,73.6506781 52.1132606,73.1643061 50.959864,72.7057267 C50.4076688,72.4878245 49.893944,72.1828737 49.4382142,71.8024642 C49.0816359,71.4990079 48.8129134,71.1055214 48.6600189,70.6629639 C48.423781,69.9125613 48.6600189,69.4956709 48.7364488,69.5304118 C48.8128787,69.5651527 48.7364488,69.940354 49.0352202,70.5101041 C49.542941,71.280662 50.3302156,71.8237818 51.2308427,72.0248058 C52.4120321,72.3791626 53.8225111,72.7821566 55.3997463,73.2198914 C56.2146682,73.4189269 57.0406184,73.5697324 57.8732957,73.6715227 C58.2794665,73.720236 58.6900034,73.720236 59.0961741,73.6715227 C59.174817,73.6598619 59.2517898,73.6388693 59.3254638,73.6089891 C59.3901277,73.5870171 59.449351,73.5514831 59.4991681,73.5047665 C59.6423197,73.3933058 59.7666523,73.2595897 59.8674213,73.1087207 C60.3077167,72.3491068 60.6619457,71.5427698 60.9235435,70.704653 C61.2362113,69.8639241 61.4724491,69.0787806 61.6878425,68.2866889 C61.9032358,67.4945972 62.0977847,66.7302982 62.313178,66.0215846 C62.5367179,65.4448841 62.6200678,64.8233314 62.5563641,64.2081116 C62.3625266,63.3302105 61.7646999,62.5958113 60.944388,62.2278824 C60.3121043,61.9846963 59.9160585,61.9846963 59.9091103,61.8874219 Z" id="Path" fill="#B3B3B3"></path>
                <path d="M47.2286953,92.6747747 C47.2286953,92.7442565 46.8048568,92.6747747 46.0822468,92.5149668 C45.6356968,92.4141733 45.1968603,92.2818258 44.7690422,92.1189209 C44.1436012,91.8970762 43.6022879,91.4868432 43.2195997,90.9446797 C43.0055248,90.5918508 42.8858828,90.1898536 42.8721911,89.7773867 C42.8632414,89.3844903 42.8888163,88.9915669 42.948621,88.6031456 C43.0771492,87.774925 43.2581663,86.9557067 43.4905784,86.1504407 C43.6990236,85.3027636 44.0116914,84.434242 44.2965665,83.5309796 L44.7481977,82.1413451 C44.8992441,81.6367267 45.1042411,81.1498588 45.3596369,80.689177 C45.6698925,80.1523363 46.1632542,79.7453129 46.7492714,79.5427285 C47.2760743,79.3862406 47.8279542,79.331996 48.3751438,79.3829205 C49.3151616,79.492188 50.2446781,79.6780913 51.1544128,79.9387743 C52.0020899,80.1541677 52.8080779,80.3973537 53.5445842,80.6335916 C53.9128374,80.7656069 54.2394015,80.8976222 54.6007064,81.0365856 L55.0870785,81.2380826 C55.1795795,81.2748883 55.2700362,81.3166375 55.3580573,81.3631497 L55.5942951,81.5160095 C55.8791702,81.7175065 56.1293044,81.9190035 56.3446978,82.0788115 C56.6181403,82.2501252 56.854413,82.4745843 57.039515,82.7388879 C57.3177633,83.1499557 57.4721084,83.6322839 57.4841981,84.1285224 C57.4841981,84.9414586 57.1367894,85.2888672 57.0951004,85.2541264 C57.0534114,85.2193855 57.1923748,84.8302879 57.0951004,84.1632633 C57.0236558,83.7672514 56.851359,83.3963347 56.594832,83.0862965 C56.4349141,82.9041784 56.2444602,82.751345 56.03203,82.6346653 L55.2468865,82.1343969 L55.0523377,82.0301743 L54.8577888,81.9606926 L54.3644686,81.7869883 L53.3222427,81.453476 C52.6274254,81.2311344 51.8144892,81.0296374 50.9737603,80.8420368 C50.1246858,80.6240665 49.2608089,80.4684758 48.3890401,80.3765092 C47.9776165,80.3398154 47.5629563,80.3798678 47.1661618,80.4946282 C46.8132396,80.6175792 46.5169582,80.8644804 46.332381,81.1894454 C46.1175186,81.5985005 45.9407529,82.0264593 45.8043199,82.4679092 L45.3457405,83.8158547 C45.0539173,84.6982726 44.7343013,85.5390015 44.4911153,86.3727822 C44.2479293,87.2065629 44.0255877,87.9708619 43.8866243,88.70042 C43.8174629,89.0441773 43.7733419,89.392501 43.754609,89.7426459 C43.7452822,90.0170552 43.8050099,90.2894138 43.9283133,90.5347376 C44.2074103,90.9809026 44.6106885,91.335884 45.0886581,91.5561189 C45.526393,91.7854086 45.9432834,91.9521648 46.2767957,92.0911282 C46.8882348,92.403796 47.256488,92.605293 47.2286953,92.6747747 Z" id="Path" fill="#B3B3B3"></path>
                <path d="M54.3714167,81.5715949 C54.3714167,81.5229577 54.7674626,81.3492534 55.5039689,81.5229577 C56.5737986,81.8215513 57.4077534,82.6607843 57.6995914,83.7324766 C57.8457333,84.4630471 57.8026812,85.2188495 57.5745243,85.9280991 L57.0464632,88.2001516 C56.8508958,89.0546641 56.6049643,89.8968632 56.3099569,90.7223382 C56.0390838,91.6555457 55.6490911,92.5499602 55.1496121,93.3834883 C54.9884586,93.624978 54.7889714,93.8385467 54.5590174,94.015772 C54.428029,94.1173773 54.2829014,94.1993042 54.1282307,94.2589581 C53.9865797,94.3126959 53.8399514,94.3522622 53.6904958,94.377077 C53.1924376,94.4435815 52.6877487,94.4435815 52.1896905,94.377077 C51.3120599,94.2628951 50.4436629,94.0864294 49.591074,93.8490159 C47.9999425,93.3487475 46.5755671,92.8623754 45.4221704,92.403796 C44.8715061,92.1827823 44.3582488,91.878109 43.9005206,91.5005336 C43.5454447,91.195729 43.2770223,90.802682 43.1223253,90.3610332 C42.8860874,89.6106306 43.1223253,89.1937403 43.1987552,89.2215329 C43.2751851,89.2493256 43.1987552,89.6384233 43.4975266,90.2012253 C43.9915783,90.9639539 44.7648248,91.5027322 45.6514601,91.7020306 C46.8326495,92.0633355 48.2431285,92.4663295 49.8203637,92.9040644 C50.6347216,93.1040993 51.460875,93.2526212 52.2939131,93.3487475 C52.6998778,93.4007956 53.1108268,93.4007956 53.5167915,93.3487475 C53.5947159,93.3338308 53.6713733,93.3129242 53.7460812,93.2862139 C53.8081016,93.2588513 53.866456,93.2238386 53.9197855,93.1819913 C54.0646482,93.0696739 54.1892004,92.9333715 54.2880387,92.7789973 C54.7283341,92.0193834 55.0825631,91.2130465 55.3441609,90.3749296 C55.6568287,89.5411489 55.8930665,88.7560054 56.1084599,87.9569655 C56.3238532,87.1579257 56.5184021,86.4005749 56.7337954,85.6988094 C56.9568198,85.1219765 57.0401531,84.5005481 56.9769815,83.8853364 C56.7841037,83.0053168 56.1863219,82.2683962 55.3650054,81.898159 C54.7744108,81.6410766 54.3783649,81.6619212 54.3714167,81.5715949 Z" id="Path" fill="#B3B3B3"></path>
                <path d="M41.5172974,113.213573 C41.5172974,113.283055 41.0934589,113.213573 40.3708489,113.053765 C39.9242989,112.952972 39.4854624,112.820624 39.0576443,112.657719 C38.4322034,112.435874 37.89089,112.025641 37.5082018,111.483478 C37.2957106,111.127817 37.1784539,110.723401 37.1677414,110.309237 C37.1646272,109.91624 37.1925063,109.523609 37.2511195,109.134996 C37.3796477,108.306775 37.5606648,107.487557 37.7930769,106.682291 C38.0015221,105.834614 38.3141899,104.966092 38.5990649,104.06283 L39.0506962,102.673195 C39.2017426,102.168577 39.4067396,101.681709 39.6621353,101.221027 C39.972391,100.684186 40.4657527,100.277163 41.0517699,100.074579 C41.5785728,99.9180907 42.1304526,99.8638461 42.6776423,99.9147706 C43.6176601,100.024038 44.5471766,100.209941 45.4569113,100.470624 C46.3045884,100.686018 47.1036282,100.929204 47.8470827,101.165442 C48.2153358,101.297457 48.5418999,101.43642 48.9032049,101.568436 L49.389577,101.769933 C49.482078,101.806738 49.5725346,101.848488 49.6605557,101.895 L49.8967936,102.04786 C50.1816687,102.249357 50.4248547,102.450854 50.6471962,102.610662 C50.9189665,102.784122 51.1548533,103.008214 51.3420135,103.270738 C51.6202618,103.681806 51.7746068,104.164134 51.7866965,104.660372 C51.7866965,105.473309 51.4392879,105.820717 51.3975989,105.785976 C51.3559098,105.751236 51.4948733,105.369086 51.3975989,104.695113 C51.3261543,104.299101 51.1538575,103.928185 50.8973304,103.618147 C50.7374126,103.436028 50.5469587,103.283195 50.3345285,103.166515 L49.5424368,102.666247 L49.3548361,102.562024 L49.1602873,102.492543 L48.666967,102.318838 L47.6247411,101.985326 C46.9299239,101.762984 46.1169877,101.561487 45.2762588,101.373887 C44.4270534,101.156517 43.5632205,101.000934 42.6915386,100.908359 C42.280115,100.871665 41.8654547,100.911718 41.4686602,101.026478 C41.1157381,101.149429 40.8194567,101.39633 40.6348795,101.721295 C40.420017,102.130351 40.2432514,102.558309 40.1068184,102.999759 L39.5648609,104.368549 C39.2730377,105.250967 38.9464736,106.091696 38.7102357,106.925477 C38.4739978,107.759257 38.2447081,108.523556 38.1057447,109.253115 C38.0365833,109.596872 37.9924623,109.945196 37.9737294,110.29534 C37.9644026,110.56975 38.0241303,110.842108 38.1474337,111.087432 C38.4265307,111.533597 38.8298089,111.888579 39.3077785,112.108813 C39.7455134,112.338103 40.1554556,112.504859 40.4959161,112.643823 C41.176837,112.942594 41.5450901,113.151039 41.5172974,113.213573 Z" id="Path" fill="#B3B3B3"></path>
                <path d="M48.6600189,102.110393 C48.6600189,102.061756 49.0560647,101.888052 49.792571,102.061756 C50.2389264,102.183754 50.6521203,102.404599 51.001553,102.707936 C51.4859948,103.112902 51.8310967,103.659718 51.9881935,104.271275 C52.1343354,105.001845 52.0912834,105.757648 51.8631264,106.466897 L51.3350653,108.73895 C51.1394979,109.593462 50.8935665,110.435661 50.598559,111.261136 C50.3276859,112.194344 49.9376932,113.088758 49.4382142,113.922287 C49.2770608,114.163776 49.0775736,114.377345 48.8476195,114.55457 C48.7204895,114.652578 48.5801359,114.732112 48.4307292,114.790808 C48.2890782,114.844546 48.1424499,114.884112 47.9929943,114.908927 C47.4947001,114.97178 46.9904832,114.97178 46.492189,114.908927 C45.6149513,114.789152 44.7467798,114.610411 43.8935725,114.373918 C42.3024409,113.873649 40.8780655,113.387277 39.7246689,112.928698 C39.1740046,112.707684 38.6607472,112.403011 38.2030191,112.025435 C37.8479432,111.720631 37.5795208,111.327584 37.4248238,110.885935 C37.1885859,110.135532 37.4248238,109.718642 37.5012537,109.746435 C37.5776836,109.774227 37.5012537,110.163325 37.8000251,110.726127 C38.301188,111.503074 39.0913768,112.048204 39.9956476,112.240829 C41.176837,112.602134 42.587316,113.005128 44.1645512,113.442863 C44.9794731,113.641898 45.8054233,113.792704 46.6381006,113.894494 C47.0442714,113.943207 47.4548083,113.943207 47.860979,113.894494 C47.9389034,113.879577 48.0155608,113.858671 48.0902687,113.83196 C48.1536204,113.807238 48.2123463,113.772002 48.263973,113.727738 C48.4088357,113.61542 48.5333879,113.479118 48.6322262,113.324744 C49.0709508,112.564334 49.4251017,111.758175 49.6883484,110.920676 C50.0010162,110.086895 50.237254,109.301752 50.4526474,108.502712 C50.6680407,107.703672 50.8625896,106.946321 51.0779829,106.244556 C51.3010073,105.667723 51.3843406,105.046294 51.321169,104.431083 C51.130429,103.551688 50.5315959,102.816053 49.7091929,102.450854 C49.0630129,102.179875 48.666967,102.200719 48.6600189,102.110393 Z" id="Path" fill="#B3B3B3"></path>
                <path d="M73.6456475,25.3469822 C73.6456475,25.3469822 69.1988171,27.6120865 75.7300993,30.4608372 C82.2613816,33.309588 106.691156,40.0562636 106.691156,40.0562636 C106.691156,40.0562636 111.422862,42.043441 112.353917,39.750544 L113.271076,37.4645952 L73.6456475,25.3469822 Z" id="Path" fill="#DEDEDE" opacity="0.6" style="mix-blend-mode: multiply;"></path>
                <path d="M108.720023,58.51061 C108.629697,58.8024333 101.132618,56.8430486 91.9888232,54.1332613 C82.8450281,51.423474 75.4938615,48.9985617 75.5772395,48.7067385 C75.6606176,48.4149153 83.1576958,50.3742999 92.301491,53.0840872 C101.445286,55.7938746 108.803401,58.225735 108.720023,58.51061 Z" id="Path" fill="#8EA6B0"></path>
                <path d="M105.906013,64.5277275 C105.857376,64.6736391 104.036954,64.2428524 101.139567,63.4299162 C98.2421785,62.61698 94.2608756,61.4218944 89.8904751,60.039208 C87.7018007,59.3443908 85.6381935,58.6495735 83.7413423,58.1006679 L78.6761245,56.6415516 C77.2309046,56.2107649 76.0705598,55.8216672 75.2784681,55.5020513 C74.4863764,55.1824354 74.0903306,54.9114566 74.1181233,54.8489231 C74.145916,54.7863895 74.5975472,54.9045085 75.4104834,55.0921091 L78.8845697,55.891149 C80.3506341,56.2246613 82.0946254,56.5859662 84.0262174,57.1209755 C85.9578094,57.6559848 88.0492093,58.309113 90.2378837,58.990034 C94.6082843,60.3796685 98.5756908,61.6859249 101.35496,62.6934099 C104.134229,63.700895 105.947702,64.3887641 105.906013,64.5277275 Z" id="Path" fill="#8EA6B0"></path>
                <path d="M100.736573,81.0991192 C100.660143,81.3909424 93.510473,79.7094846 84.7905164,77.347106 C76.0705598,74.9847273 69.0529054,72.8307938 69.1293353,72.5320224 C69.2057652,72.2332509 76.3484867,73.9216569 85.1101323,76.2840356 C93.871778,78.6464142 100.819951,80.8072959 100.736573,81.0991192 Z" id="Path" fill="#8EA6B0"></path>
                <path d="M98.5548463,87.2690964 C98.5131573,87.4150081 96.769166,87.1162366 93.9760006,86.4770048 C91.1828352,85.8377729 87.3404957,84.837236 83.1715922,83.5935131 C79.0026886,82.3497902 75.2437272,81.092171 72.5617326,80.1194268 C69.879738,79.1466827 68.2469174,78.4240727 68.2955546,78.2851093 C68.3441918,78.1461458 70.0603905,78.5838807 72.8049187,79.3829205 L83.4842599,82.5582354 L94.1705494,85.7404985 C96.9081294,86.5603828 98.5895872,87.1231848 98.5548463,87.2690964 Z" id="Path" fill="#8EA6B0"></path>
                <path d="M96.2133122,99.7480144 C96.2133122,99.8939261 94.3373055,99.65074 91.4190731,98.9559228 C88.5008406,98.2611055 84.5125895,97.1632942 80.1560853,95.8292451 C75.799581,94.4951959 71.8669154,93.2236804 69.0390091,92.2578844 C66.2111029,91.2920884 64.4810079,90.6250638 64.5226969,90.4791522 C64.5643859,90.3332406 66.377859,90.7362346 69.2682988,91.5144299 C72.1587386,92.2926252 76.1122488,93.4529701 80.4757012,94.780071 L91.5927774,98.2055201 C94.4693208,99.087938 96.248053,99.5951546 96.2133122,99.7480144 Z" id="Path" fill="#8EA6B0"></path>
                <path d="M93.7397627,105.709547 C93.7050218,105.855458 91.940186,105.570583 89.1261761,104.945248 C86.3121662,104.319912 82.4420341,103.333271 78.2244933,102.075652 C74.0069525,100.818033 70.2340948,99.5326211 67.5312556,98.5251361 C64.8284165,97.517651 63.1955959,96.7811447 63.2442332,96.6421813 C63.2928704,96.5032178 65.0229653,96.9617972 67.7813899,97.7886298 L78.5371611,101.026478 L89.3207249,104.187897 C92.0791495,105.007781 93.7814517,105.563635 93.7397627,105.709547 Z" id="Path" fill="#8EA6B0"></path>
                <path d="M90.6478259,117.660403 C90.6478259,117.806315 88.7926638,117.563129 85.8883277,116.965586 C82.9839915,116.368043 79.0096368,115.332766 74.6600807,114.109887 L63.5430046,110.955417 C60.701202,110.149429 58.9363661,109.642212 58.971107,109.482404 C59.0058479,109.322596 60.8262691,109.586627 63.7306052,110.177222 C66.6349414,110.767816 70.6092961,111.810042 74.951904,113.025972 L86.0689802,116.180443 C88.9177309,117.000327 90.6825668,117.507544 90.6478259,117.660403 Z" id="Path" fill="#8EA6B0"></path>
                <path d="M88.5772705,124.93514 C88.5425296,125.081052 86.7360047,124.775332 83.8942021,124.038826 C81.0523995,123.30232 77.1614229,122.169767 72.9021931,120.821822 C68.6429633,119.473876 64.807572,118.195413 62.0491475,117.21572 C59.2907229,116.236028 57.602317,115.555107 57.6509542,115.416144 C57.6995914,115.27718 59.4644273,115.687122 62.2853853,116.472266 C65.1063434,117.257409 68.9834237,118.424702 73.2357054,119.772648 C77.487987,121.120593 81.3372746,122.378213 84.1165437,123.295371 C86.8958127,124.21253 88.6120113,124.78228 88.5772705,124.93514 Z" id="Path" fill="#8EA6B0"></path>
                <path d="M71.9502934,134.523618 C71.3617459,134.43268 70.7826705,134.288493 70.2201984,134.092832 L65.3564776,132.647612 C61.1180923,131.369148 54.9342187,129.576519 47.4023996,127.200244 C43.6225937,126.005159 39.4953792,124.650265 35.1110823,123.07303 C32.9154597,122.267042 30.6642518,121.447157 28.336614,120.48831 C27.0948415,119.999772 25.9580507,119.278075 24.9875948,118.362169 C24.4747749,117.850918 24.0747671,117.237888 23.8133536,116.562592 C23.5957225,115.888167 23.4740947,115.186467 23.4520487,114.47814 C23.4520487,114.151576 23.4103596,113.83196 23.3756188,113.519293 C23.3756188,113.366433 23.3756188,113.220521 23.3130852,113.067661 C23.3130852,113.067661 23.2297071,112.810579 23.2783443,112.671615 L23.3478261,112.352 C23.4937377,111.705819 23.6465975,111.059639 23.7994573,110.406511 C24.0982287,109.100255 24.4108965,107.780102 24.7235642,106.446053 C25.3627961,103.777955 26.0136083,101.058903 26.6760008,98.2888982 C28.0656353,92.7303601 29.4552698,87.0398067 31.0950385,81.2102899 C31.8940784,78.3059538 32.7834445,75.415514 33.6936551,72.6362449 C34.6038657,69.8569759 35.4515427,67.0777069 36.2853235,64.3609714 C37.9598331,58.9205522 39.5509646,53.6677337 41.1490443,48.6719976 C43.8527435,39.7970504 47.0492329,31.0797739 50.7236261,22.560765 C51.5157178,20.7681365 52.3772912,18.8851817 54.0240081,17.7943186 C54.8129669,17.2905623 55.7163678,16.9942086 56.6504174,16.9327452 C57.4812772,16.8706666 58.3160026,16.8822923 59.1448113,16.9674861 C61.8406105,17.2450829 64.5071695,17.7565415 67.1143653,18.496084 C69.2544025,19.0727824 70.8941712,19.6147398 71.9780861,19.9899411 C72.5486768,20.1549977 73.1023668,20.373682 73.6317512,20.6430694 C73.0443319,20.5598346 72.465393,20.4249814 71.9016562,20.2400754 C70.7760523,19.9343558 69.1223872,19.4757764 66.9684537,18.9755079 C64.3761034,18.3334247 61.7367079,17.8989468 59.0753296,17.6761997 C57.5467316,17.5928216 55.8096885,17.5233399 54.4547948,18.4613432 C53.0999012,19.3993465 52.2800168,21.1155451 51.522666,22.9151218 C47.9692575,31.4549677 44.859282,40.1726395 42.2051665,49.0333026 C39.1479706,59.031723 35.7920032,70.023732 32.2692797,81.5646467 C30.6503555,87.3594227 29.2120838,93.0777687 27.8363456,98.5946178 L25.8769609,106.730928 L24.9320094,110.684438 L24.47343,112.622978 L24.4386892,112.789734 C24.4386892,112.789734 24.4386892,112.748045 24.4386892,112.873112 C24.4386892,112.99818 24.4873264,113.227469 24.5081709,113.401174 C24.5081709,113.748582 24.5637563,114.095991 24.5846008,114.408659 C24.5918021,115.004973 24.685418,115.597094 24.8625277,116.166546 C25.0655839,116.688226 25.3756425,117.161598 25.7727383,117.556181 C26.6316165,118.375338 27.6416498,119.019589 28.7465562,119.453032 C30.9977641,120.397983 33.2628684,121.259557 35.4306982,122.072493 C39.7872025,123.691417 43.8866243,125.088 47.6386375,126.338671 L65.4815447,132.16124 C67.5659965,132.856057 69.2057652,133.432755 70.3035765,133.835749 C70.8726866,134.01331 71.4239828,134.243598 71.9502934,134.523618 L71.9502934,134.523618 Z" id="Path" fill="#B3B3B3"></path>
                <path d="M109.400944,31.2876698 C109.963243,31.3424447 110.517804,31.4589491 111.054609,31.6350784 C112.124627,31.9269017 113.681018,32.4063256 115.654299,33.1358837 C117.62758,33.8654418 119.996907,34.8312378 122.776176,35.9707381 C123.521027,36.2441674 124.23581,36.5934101 124.909265,37.012964 C125.615911,37.4767407 126.274607,38.0097489 126.875598,38.6040955 C127.510331,39.2448541 128.084814,39.9426075 128.591796,40.6885473 C128.848879,41.0637486 129.099013,41.4597945 129.328303,41.8697367 C129.450106,42.0920681 129.552395,42.324545 129.634022,42.5645539 C129.68266,42.689621 129.731297,42.80774 129.772986,42.9328071 L129.842468,43.3080084 C130.017188,44.2999998 130.028922,45.3138494 129.877208,46.309619 C129.756318,47.3238101 129.568305,48.3288681 129.314406,49.3181777 C128.821086,51.3331477 128.147113,53.3620141 127.445348,55.4534141 C126.743583,57.544814 126.132143,59.7056957 125.444274,61.9499555 C124.756405,64.1942152 124.05464,66.5079567 123.359823,68.8981281 C120.545813,78.3823837 117.502513,88.8324353 114.097908,99.7341181 C112.423399,105.195382 110.589081,110.462097 109.102172,115.617641 C108.337873,118.188465 107.594419,120.738444 106.760638,123.205045 C105.926857,125.671646 105.009699,128.068766 104.01611,130.340818 C103.022521,132.612871 102.147052,134.884923 100.625402,136.872101 C100.22986,137.378302 99.7615743,137.823173 99.2357672,138.192253 C98.7264281,138.516704 98.1947167,138.804617 97.6446357,139.053827 C96.5708613,139.560588 95.4110317,139.859975 94.2261348,139.936245 C93.6536855,139.9657 93.0797985,139.950483 92.5099362,139.887608 L90.8979601,139.713903 C89.8348897,139.581888 88.8135083,139.429028 87.7851788,139.255324 C85.7563124,138.907915 83.8316686,138.484077 82.0042992,138.018549 C78.3634567,137.10139 75.1395046,135.934097 72.3393911,135.00999 L65.1063434,132.626767 C63.1122179,131.980587 61.5836199,131.417785 60.5622385,130.993947 C60.0275955,130.822118 59.5146469,130.588959 59.0336406,130.299129 C59.5839358,130.411555 60.1233233,130.571976 60.6456166,130.778553 C61.6947907,131.125962 63.2442332,131.605386 65.252255,132.168188 C67.2602769,132.73099 69.7268782,133.418859 72.5825771,134.25264 C75.4382761,135.08642 78.6205391,136.218972 82.2544334,137.066649 C84.0609583,137.497436 85.9717057,137.893482 87.9727794,138.20615 C88.9733163,138.365958 90.0016458,138.511869 91.0438717,138.62304 C92.0837336,138.771999 93.1343621,138.832434 94.1844458,138.803693 C95.2370092,138.729336 96.2654685,138.45335 97.213849,137.990756 C97.7070516,137.763928 98.1830997,137.501521 98.6382244,137.205613 C99.0621613,136.895267 99.4369345,136.522836 99.749932,136.100853 C101.090929,134.336018 101.952503,132.050069 102.946091,129.805809 C103.93968,127.561549 104.808202,125.185274 105.61419,122.746466 C106.420178,120.307657 107.156684,117.771574 107.914035,115.186854 C109.400944,109.996569 111.221365,104.722906 112.895875,99.2755387 C116.286583,88.3877522 119.364623,77.9585452 122.248115,68.4881859 C122.970725,66.1211751 123.665542,63.8051176 124.332567,61.5400133 C125.027384,59.3096499 125.659668,57.1070792 126.417018,55.0295756 C127.174369,52.952072 127.806653,50.9509983 128.327766,48.9985617 C128.582173,48.0504902 128.777102,47.0874505 128.911412,46.1150701 C129.053691,45.2150801 129.053691,44.2983246 128.911412,43.3983346 C128.712895,42.5829251 128.353861,41.8152553 127.85529,41.1401785 C127.383554,40.4355362 126.846145,39.7771526 126.250262,39.1738457 C125.700331,38.6055995 125.095169,38.0935394 124.443737,37.6452477 C123.815455,37.2379236 123.147294,36.8956948 122.449612,36.6238663 C119.725928,35.4218325 117.391342,34.3865548 115.452802,33.5944631 C113.514262,32.8023714 111.978716,32.2465176 110.957334,31.8852126 C110.422755,31.7298611 109.902137,31.5299806 109.400944,31.2876698 Z" id="Path" fill="#B3B3B3"></path>
                <path d="M74.3752057,23.0749298 C75.3271053,21.4490574 74.9588522,19.0033006 76.5569319,18.0097119 C77.0671419,17.7322002 77.6368335,17.5820305 78.2175451,17.5719771 C81.2469484,17.3496355 84.2277144,18.2667943 87.1251024,19.1561604 L99.4789533,22.9915517 C102.032737,23.6894709 104.507784,24.6487554 106.864861,25.8541988 C107.920983,26.4447935 108.99795,27.2438333 109.324514,28.3902818 C109.803938,30.1203768 108.46294,31.8643681 108.629697,33.670893" id="Path" fill="#B3B3B3"></path>
                <path d="M75.7300993,23.2555823 C72.9925193,22.4079052 72.0267233,22.2342009 71.4013878,22.3314753 C70.4146826,22.6210908 69.8119229,23.6156443 70.0117533,24.6243723 C70.2549393,25.8194579 71.5611958,26.4031044 72.6867997,26.868632 C77.7450694,28.9530838 87.2015323,31.8782645 98.1726968,34.9493567 C101.070085,35.7622929 106.3368,37.1102384 109.345358,37.214461 C110.206932,37.2492019 111.221365,37.1519275 111.693841,36.4293175 C112.074527,35.7077927 111.932956,34.8215578 111.346432,34.2545395 C110.811423,33.670893 108.733919,33.1984173 101.486975,30.8221422 C95.3485586,28.7153737 89.082606,27.0003592 82.7269091,25.6874427 L75.7300993,23.2555823 Z" id="Path" fill="#808080"></path>
                <path d="M81.9417656,18.0236083 L83.2619184,13.7643785 C83.9567357,11.492326 84.3805742,9.65800848 86.4997669,8.57409355 C88.6189595,7.49017863 91.2245242,8.15025502 93.5660584,8.79643508 C96.1577268,9.49125234 97.8391845,10.1096397 99.8194137,10.804457 C101.799643,11.4992742 104.071695,13.0070277 104.391311,15.1331685 C104.413348,16.2402216 104.253739,17.3433989 103.918836,18.3988096 C103.224018,20.8167737 102.841869,21.7408806 102.063673,24.1380002" id="Path" fill="#353153"></path>
                <path d="M69.6643446,41.9948038 C69.9978569,42.5228649 66.8016975,45.0797924 63.2581295,48.5747232 L61.3195893,50.5202115 C61.1265565,50.7131462 60.919894,50.8919442 60.701202,51.0552208 L60.3468452,51.2845105 C60.1768336,51.3780304 60.0003651,51.4592989 59.8187841,51.5276966 C59.1565138,51.798881 58.3963095,51.6484808 57.8871921,51.1455471 C57.7045067,50.9616583 57.5666135,50.7381763 57.4841981,50.4924189 C57.4389907,50.3752525 57.404117,50.2543569 57.3799755,50.1311139 C57.3554967,50.0330464 57.3392281,49.9331105 57.3313383,49.8323425 L57.2549084,49.0541471 C57.2549084,48.5608269 57.199323,48.1369883 57.199323,47.7756834 C57.199323,47.0808661 57.2965974,46.6431312 57.4841981,46.6083904 C57.6717987,46.5736495 57.9219329,46.91411 58.1790153,47.56029 C58.324927,47.8868541 58.4847349,48.2551073 58.6514911,48.7484275 L58.9016253,49.4849338 C58.9016253,49.5613637 58.9016253,49.5822082 58.9502625,49.5891564 L58.9502625,49.5891564 C58.9723629,49.6101477 58.9983166,49.6266637 59.0266924,49.6377936 C59.0884538,49.6585818 59.1565123,49.6358956 59.1934485,49.5822082 C59.1934485,49.5822082 59.1934485,49.5822082 59.1934485,49.5822082 L59.3532565,49.450193 C59.4730799,49.3430189 59.5845726,49.2268806 59.6867688,49.1027843 C60.2634671,48.4079671 60.9235435,47.7131498 61.6322571,47.0183326 C65.4607002,43.3288529 69.3655732,41.4875872 69.6643446,41.9948038 Z" id="Path" fill="#4490CD"></path>
                <path d="M89.8209934,62.8393216 L73.0550529,59.4972506 C72.5684415,59.4006445 72.0647969,59.5396746 71.6966557,59.8722335 C71.3285145,60.2047923 71.1391797,60.6917621 71.1859944,61.1856565 L72.8257632,78.2503684 C72.8257632,78.2503684 85.9091722,79.0216156 89.8209934,62.8393216 Z" id="Path" fill="#CCCCCC"></path>
                <path d="M71.3110615,60.4144093 C71.2053485,60.6569337 71.1623399,60.9221536 71.1859944,61.1856565 L72.8257632,78.2503684 C73.9359638,78.2701017 75.0443865,78.1534256 76.1261452,77.9029598 C74.0775569,72.2047409 72.4678336,66.35817 71.3110615,60.4144093 L71.3110615,60.4144093 Z" id="Path" fill="#002A58" opacity="0.2"></path>
                <path d="M135.491332,109.815917 C137.940149,112.335247 140.154198,115.072575 142.105992,117.993916 C145.350789,122.802051 141.188833,128.951184 138.847299,130.451989 C135.199509,132.793523 131.6212,134.224847 127.730223,132.279359 C123.839246,130.33387 120.900169,126.998747 118.037522,123.747003 C121.511609,123.851225 124.290878,120.967734 126.528189,118.250998 C129.175443,115.068735 134.643655,113.880598 135.470487,109.815917" id="Path" fill="#353153"></path>
                <g id="Group" opacity="0.39" style="mix-blend-mode: multiply;" transform="translate(118.058367, 122.941015)" fill="#D35700">
                    <path d="M19.4201424,8.52540778 C13.6948482,9.04652073 8.14325829,4.98878793 3.33512285,1.97478943e-14 C2.31542665,0.565462593 1.16589782,0.855239654 0,0.840728885 C2.86264711,4.09247366 5.82951681,7.42064834 9.69270078,9.37308484 C13.0556163,11.0267499 16.3907392,10.4431034 19.4201424,8.52540778 Z" id="Path"></path>
                </g>
                <path d="M89.8209934,62.8393216 C89.8209934,62.8393216 118.148693,93.0638724 136.985189,111.268085 C136.985189,111.268085 131.975557,124.469613 120.420745,126.366464 C120.420745,126.366464 84.290248,92.4802259 72.8257632,78.2503684 C72.8257632,78.2503684 85.5965044,77.0969718 89.8209934,62.8393216 Z" id="Path" fill="#808080"></path>
                <path d="M76.2998495,77.4026913 C72.9091412,79.1119418 72.7423851,78.2503684 72.7423851,78.2503684 C84.1860254,92.4732777 120.337367,126.359515 120.337367,126.359515 C122.470456,126.019055 123.116636,125.206119 124.818939,124.240323 C115.452802,116.590385 92.6419514,92.7928937 76.2998495,77.4026913 Z" id="Path" fill="#002A58" opacity="0.2"></path>
                <path d="M77.9813072,60.4769429 L73.0550529,59.4972506 C72.5684415,59.4006445 72.0647969,59.5396746 71.6966557,59.8722335 C71.3285145,60.2047923 71.1391797,60.6917621 71.1859944,61.1856565 L71.7140556,66.6469202 C74.5767027,65.3893009 76.9877186,63.3743309 77.9813072,60.4769429 Z" id="Path" fill="#002A58"></path>
                <path d="M72.8257632,78.2503684 C72.7910223,78.0419232 74.1320196,77.7431518 76.1469897,76.9719046 C77.3228479,76.5205622 78.4632259,75.9817278 79.5585424,75.3599286 C80.8767907,74.5844218 82.1190532,73.6864568 83.2688666,72.677934 C85.3327357,70.795408 87.0249571,68.5422552 88.2576545,66.035481 C89.2095542,64.0969408 89.647289,62.7906844 89.8209934,62.8393216 C89.9946977,62.8879588 89.8974233,64.2775933 89.1261761,66.4106823 C88.6663677,67.6575757 88.0673528,68.8486133 87.3404957,69.9611985 C86.4418137,71.3241936 85.37757,72.570479 84.172129,73.6715227 C82.948164,74.7568494 81.5973456,75.6900573 80.1491371,76.4507917 C78.9705777,77.0615441 77.7287293,77.541508 76.4457611,77.8821153 C74.2501386,78.4449172 72.8466077,78.4101764 72.8257632,78.2503684 Z" id="Path" fill="#E6E6E6"></path>
                <path d="M115.619558,121.238712 C115.619558,121.13449 115.869692,120.988578 116.314375,120.710651 C116.759059,120.432724 117.426083,120.015834 118.19733,119.418291 C120.205164,117.884441 122.097826,116.20543 123.860091,114.394762 C125.630705,112.591155 127.256944,110.651283 128.723812,108.593038 C129.821623,106.994958 130.40527,105.931888 130.599818,106.008318 C130.794367,106.084748 130.467803,107.29373 129.5298,109.086358 C128.25776,111.377793 126.674779,113.4822 124.825887,115.339714 C123.016124,117.223272 120.964775,118.858743 118.725391,120.203435 C118.037936,120.621618 117.300161,120.950815 116.529769,121.183127 C115.966967,121.342935 115.633455,121.315142 115.619558,121.238712 Z" id="Path" fill="#E6E6E6"></path>
                <path d="M118.058367,123.747003 C118.00973,123.559402 119.197867,123.114719 120.976599,122.135027 C122.010699,121.566289 123.014877,120.944765 123.985158,120.272916 C125.153784,119.433819 126.254957,118.504559 127.278592,117.493647 C129.139203,115.662889 130.702813,113.55307 131.913023,111.240292 C132.434136,110.364822 132.719011,109.593575 133.003886,109.086358 C133.288761,108.579142 133.462465,108.301215 133.552792,108.329008 C133.643118,108.3568 133.615325,108.683364 133.497206,109.260063 C133.346865,110.073687 133.114059,110.869886 132.802389,111.636338 C131.787678,114.212444 130.236291,116.543077 128.251336,118.47334 C127.168366,119.539802 125.978603,120.492077 124.70082,121.315142 C123.648534,121.971611 122.5393,122.532042 121.386541,122.989652 C119.420209,123.823432 118.093108,123.920707 118.058367,123.747003 Z" id="Path" fill="#E6E6E6"></path>
                <path d="M136.985189,111.268085 C137.138049,111.32367 136.874018,112.657719 135.949911,114.589311 C134.704422,117.119523 133.022715,119.410407 130.981968,121.356831 C128.963611,123.35085 126.539257,124.886511 123.873987,125.859247 C121.789535,126.554064 120.399901,126.519323 120.399901,126.366464 C120.399901,126.213604 121.636676,125.859247 123.498786,124.976829 C125.909729,123.80886 128.115423,122.257835 130.030068,120.384087 C131.968838,118.515525 133.670054,116.415259 135.095286,114.130732 C136.22089,112.372844 136.79064,111.198603 136.985189,111.268085 Z" id="Path" fill="#E6E6E6"></path>
                <path d="M112.013457,97.8233706 C108.872883,94.2798026 105.646614,90.8057163 102.334652,87.4011117 C101.417493,86.4631084 100.423905,85.4903643 99.1384928,85.2193855 C97.8530809,84.9484068 96.2688975,85.7266021 96.206364,87.0398067 C96.2762195,87.8723576 96.6437651,88.6518504 97.2416417,89.2354293 C100.159874,92.7882615 103.170749,96.2623478 106.274266,99.6576882 C110.78363,104.563098 115.167927,98.2680537 109.873419,96.1280165 L112.013457,97.8233706 Z" id="Path" fill="#E6E6E6"></path>
            </g>
        </g>
    </g>
</svg>