<?xml version="1.0" encoding="UTF-8"?>
<svg width="25px" height="25px" viewBox="0 0 25 25" version="1.1" xmlns="http://www.w3.org/2000/svg" xmlns:xlink="http://www.w3.org/1999/xlink">
    <title>52FA4D05-7ADB-4BB8-A904-2744705AB170@2x</title>
    <g id="FLOW-MEETING" stroke="none" stroke-width="1" fill="none" fill-rule="evenodd">
        <g id="Landing-Page" transform="translate(-17.000000, -111.000000)" fill="#80C0F0" fill-rule="nonzero">
            <g id="Project" transform="translate(17.000000, 111.000000)">
                <path d="M24.4594309,11.6264897 L20.4446337,9.61918645 L24.4594309,7.61169247 C25.1775511,7.25272772 25.1783141,6.22428044 24.4594309,5.86474352 L12.9359385,0.102997317 C12.6608975,-0.034332439 12.3374097,-0.034332439 12.0623687,0.102997317 L0.538876269,5.86474352 C-0.179243901,6.22389899 -0.180006844,7.25234627 0.538876269,7.61169247 L4.55367352,9.61918645 L0.538876269,11.6264897 C-0.179243901,11.9856452 -0.180006844,13.0139017 0.538876269,13.3734387 L4.55367352,15.3809327 L0.538876269,17.3882359 C-0.179243901,17.7473914 -0.180006844,18.7756479 0.538876269,19.1351849 L12.0623687,24.8969311 C12.3368375,25.0340701 12.6603253,25.0346423 12.9359385,24.8969311 L24.4594309,19.1351849 C25.1775511,18.7760294 25.1783141,17.7477728 24.4594309,17.3882359 L20.4446337,15.3809327 L24.4594309,13.3734387 C25.1775511,13.0144739 25.1783141,11.9860266 24.4594309,11.6264897 Z M12.4991536,2.06833871 L21.8389121,6.73831335 L12.4991536,11.4080973 L3.15939505,6.73831335 L12.4991536,2.06833871 Z M21.8389121,18.2618058 L12.4991536,22.9315897 L3.15939505,18.2618058 L6.73740741,16.4727042 L12.0623687,19.1351849 C12.3370282,19.2723239 12.6603253,19.2728961 12.9359385,19.1351849 L18.2608998,16.4727042 L21.8389121,18.2618058 Z M12.4991536,17.1698435 L3.15939505,12.5000596 L6.73740741,10.710958 L12.0623687,13.3734387 C12.3370282,13.5105777 12.6603253,13.5111499 12.9359385,13.3734387 L18.2608998,10.710958 L21.8389121,12.5000596 L12.4991536,17.1698435 Z" id="Shape"></path>
            </g>
        </g>
    </g>
</svg>