<svg xmlns="http://www.w3.org/2000/svg" width="25" height="20" viewBox="0 0 25 20"><path fill="#0081E1" fill-rule="evenodd" d="M5.15926537 7.86052844C5.54899372 7.58474609 5.87762059 7.34859714 6.20955024 7.11740236 6.83873032 6.67978366 7.59671893 6.78547271 8.00296118 7.36511105 8.40920344 7.94144661 8.27213797 8.67961852 7.65947179 9.11888861 6.56790215 9.90164808 5.47468111 10.677802 4.37320311 11.4456989 3.74567442 11.8816662 3.03392477 11.7627661 2.58970051 11.1451457 1.80198686 10.0469705 1.02253017 8.94218974.248027653 7.83410618-.169774345 7.23795392-.0459199977 6.48657088.515553043 6.08858558 1.09188861 5.67904054 1.82840912 5.81775741 2.27263338 6.42051523 2.43612112 6.64510445 2.59630608 6.87299644 2.77630773 7.12400792 2.90676764 6.77721575 3.0091539 6.45684584 3.14456799 6.14968706 4.68201329 2.67185698 7.34570745.607617863 11.0960171.100640734 14.5738472-.368354394 17.5166264.812390384 19.869859 3.42158863 20.5650948 4.19113698 20.2034401 5.32234002 19.2159081 5.50894723 18.700674 5.60803071 18.3043401 5.38674428 17.9691077 5.0036215 16.9815757 3.87572124 15.7578947 3.11938403 14.3129273 2.7263529 10.4437175 1.67937081 6.38129493 3.88728098 5.21376128 7.67226983 5.20220154 7.70860044 5.1922932 7.74327966 5.15926537 7.86052844M19.5557644 12.1447329C19.1478708 12.4304236 18.794473 12.6929948 18.4278642 12.9340979 17.6434533 13.449332 16.6443616 13.0084105 16.5056447 12.0836314 16.4362863 11.6162877 16.6014254 11.2133482 16.9828968 10.9392172 18.1174026 10.1201272 19.258514 9.31094542 20.4078823 8.51167203 20.9544929 8.13185203 21.6744995 8.23588968 22.0658792 8.77259185 22.9031346 9.91865741 23.7222247 11.0762827 24.5264522 12.2454678 24.9029694 12.7937297 24.7328761 13.5418099 24.196174 13.9150244 23.656169 14.2915416 22.9229513 14.1825497 22.5117548 13.6557559 22.3218448 13.4130014 22.1501001 13.1570357 21.946979 12.8746478 21.9023915 12.9885938 21.8677122 13.0728148 21.8363358 13.1570357 20.3748545 17.1434943 17.5179476 19.4570935 13.3250651 19.9326942 9.98430046 20.3092115 7.14721021 19.1069986 4.87984996 16.6084436 4.3414964 16.0155941 4.35801031 15.2592569 4.90131805 14.778702 5.44627718 14.2964957 6.19435744 14.3708084 6.72445404 14.9620064 8.3081383 16.7306465 10.2931106 17.5827644 12.6595544 17.5233143 15.7476561 17.4440476 18.5830949 15.2939361 19.4946629 12.3643679 19.5111769 12.3115234 19.524388 12.2570275 19.5557644 12.1447329"/></svg>