<?xml version="1.0" encoding="UTF-8"?>
<svg width="21px" height="27px" viewBox="0 0 21 27" version="1.1" xmlns="http://www.w3.org/2000/svg" xmlns:xlink="http://www.w3.org/1999/xlink">
    <title>70EE62B7-C48A-4185-B161-E1145173AF50@2x</title>
    <g id="FLOW-MEETING" stroke="none" stroke-width="1" fill="none" fill-rule="evenodd">
        <g id="Create-Webinar-6" transform="translate(-19.000000, -395.000000)" fill="#80C0F0" fill-rule="nonzero" stroke="#80C0F0" stroke-width="0.3">
            <g id="report" transform="translate(20.000000, 396.000000)">
                <path d="M17.6269531,1.36987305 L14.876709,1.36987305 C14.1509766,0.531689453 13.0814453,0 11.8896484,0 L7.93457031,0 C6.74277344,0 5.67324219,0.531689453 4.94750977,1.36987305 L2.19726562,1.36987305 C0.985693359,1.36987305 0,2.35751953 0,3.57143555 L0,22.7984375 C0,24.0123535 0.985693359,25 2.19726562,25 L17.6269531,25 C18.8385254,25 19.8242188,24.0123535 19.8242188,22.7984375 L19.8242188,3.57143555 C19.8242188,2.3574707 18.8385254,1.36987305 17.6269531,1.36987305 Z M7.93457031,1.46772461 L11.8896484,1.46772461 C13.0213379,1.46772461 13.9611816,2.22529297 14.2700195,3.22895508 L5.55419922,3.22895508 C5.8625,2.22705078 6.80112305,1.46772461 7.93457031,1.46772461 Z M18.359375,22.7984375 C18.359375,23.2030762 18.0308105,23.5322754 17.6269531,23.5322754 L2.19726562,23.5322754 C1.7934082,23.5322754 1.46484375,23.2030762 1.46484375,22.7984375 L1.46484375,3.57143555 C1.46484375,3.16679688 1.7934082,2.83759766 2.19726562,2.83759766 L4.14287109,2.83759766 C4.0371582,3.19453125 3.97949219,3.57197266 3.97949219,3.9628418 C3.97949219,4.36811523 4.30742188,4.69667969 4.71191406,4.69667969 L15.1123047,4.69667969 C15.5167969,4.69667969 15.8447266,4.36811523 15.8447266,3.9628418 C15.8447266,3.57197266 15.7870605,3.19453125 15.6813477,2.83759766 L17.6269531,2.83759766 C18.0308105,2.83759766 18.359375,3.16679688 18.359375,3.57143555 L18.359375,22.7984375 Z" id="Shape"></path>
                <path d="M6.30175781,14.5822266 L5.22460938,15.6614258 L4.96123047,15.3975586 C4.67524414,15.1109375 4.21147461,15.1109375 3.92543945,15.3975586 C3.6394043,15.6841309 3.6394043,16.1487793 3.92543945,16.4353516 L4.70668945,17.2181152 C4.99267578,17.5046875 5.45644531,17.5047363 5.74248047,17.2181152 L7.3375,15.6199707 C7.62353516,15.3333984 7.62353516,14.86875 7.3375,14.5821777 C7.05151367,14.2956055 6.58774414,14.2956055 6.30175781,14.5822266 Z" id="Path"></path>
                <path d="M15.3320312,15.1663574 L9.42382812,15.1663574 C9.01933594,15.1663574 8.69140625,15.4949219 8.69140625,15.9001953 C8.69140625,16.3054687 9.01933594,16.6340332 9.42382812,16.6340332 L15.3320312,16.6340332 C15.7365234,16.6340332 16.0644531,16.3054687 16.0644531,15.9001953 C16.0644531,15.4949219 15.7365234,15.1663574 15.3320312,15.1663574 Z" id="Path"></path>
                <path d="M6.30175781,18.7896484 L5.22460938,19.8688477 L4.96123047,19.6049805 C4.67524414,19.3183594 4.21147461,19.3183594 3.92543945,19.6049805 C3.6394043,19.8915527 3.6394043,20.3562012 3.92543945,20.6427734 L4.70668945,21.4255371 C4.99267578,21.7121094 5.45644531,21.7121582 5.74248047,21.4255371 L7.3375,19.8273926 C7.62353516,19.5408203 7.62353516,19.0761719 7.3375,18.7895996 C7.05151367,18.5030273 6.58774414,18.5030273 6.30175781,18.7896484 Z" id="Path"></path>
                <path d="M15.3320312,19.3737793 L9.42382812,19.3737793 C9.01933594,19.3737793 8.69140625,19.7023437 8.69140625,20.1076172 C8.69140625,20.5128906 9.01933594,20.8414551 9.42382812,20.8414551 L15.3320312,20.8414551 C15.7365234,20.8414551 16.0644531,20.5128906 16.0644531,20.1076172 C16.0644531,19.7023438 15.7365234,19.3737793 15.3320312,19.3737793 Z" id="Path"></path>
                <path d="M11.3088867,11.7713379 L13.5742188,9.50161133 L13.5742188,9.5890625 C13.5742188,9.99433594 13.9021484,10.3229004 14.3066406,10.3229004 C14.7111328,10.3229004 15.0390625,9.99433594 15.0390625,9.5890625 C15.0390625,7.51323242 15.0424805,7.70649414 15.0306641,7.62451172 C14.9788574,7.26547852 14.6716309,6.99599609 14.3063965,6.99609372 L12.4511719,6.99609372 C12.0466797,6.99609372 11.71875,7.3246582 11.71875,7.72993164 C11.71875,8.13520508 12.0466797,8.46376953 12.4511719,8.46376953 L12.5384277,8.46376953 L10.7910156,10.2145996 L8.57451172,7.99379883 C8.28852539,7.70717773 7.82475586,7.70717773 7.5387207,7.99379883 L4.90200195,10.6356934 C4.6159668,10.9222656 4.6159668,11.3869141 4.90200195,11.6734863 C5.18798828,11.9601074 5.65175781,11.9601074 5.93779297,11.6734863 L8.05664062,9.55053711 L10.2731445,11.7713379 C10.559082,12.0579102 11.0229004,12.057959 11.3088867,11.7713379 Z" id="Path"></path>
            </g>
        </g>
    </g>
</svg>