<?xml version="1.0" encoding="UTF-8"?>
<svg width="20px" height="20px" viewBox="0 0 20 20" version="1.1" xmlns="http://www.w3.org/2000/svg" xmlns:xlink="http://www.w3.org/1999/xlink">
    <title>2DEE0A97-0340-476F-8158-F1AAA8823CB0@2x</title>
    <g id="FLOW-MEETING" stroke="none" stroke-width="1" fill="none" fill-rule="evenodd">
        <g id="Landing-Page-3" transform="translate(-97.000000, -156.000000)" fill="#B9B9B9" fill-rule="nonzero">
            <g id="magnifier-(1)" transform="translate(106.999931, 166.000000) rotate(-90.000000) translate(-106.999931, -166.000000) translate(97.000000, 156.000000)">
                <path d="M17.6268163,13.8499361 C20.7909108,10.6857772 20.7908463,5.53727809 17.6268163,2.37311918 C14.4626574,-0.791039727 9.31422273,-0.791039727 6.15012825,2.37311918 C3.46577002,5.05747741 3.0592248,9.04980309 4.92939728,12.16738 C4.92939728,12.16738 5.06373116,12.3927517 4.88229988,12.5740541 C3.84725248,13.6090371 0.741916993,16.714437 0.741916993,16.714437 C-0.0821907751,17.5384804 -0.27837623,18.690788 0.45243875,19.4217319 L0.578268042,19.5474323 C1.30908302,20.2783761 2.46145512,20.0822551 3.28549846,19.2581473 C3.28549846,19.2581473 6.38426222,16.1593192 7.41718347,15.1264623 C7.60731263,14.9363332 7.83261987,15.0706671 7.83261987,15.0706671 C10.9501324,16.9407751 14.9424581,16.5342943 17.6268163,13.8499361 Z M7.64835372,12.3516462 C5.3103643,10.0136568 5.31042873,6.20952736 7.64841815,3.87153794 C9.98640757,1.53361295 13.790537,1.53354852 16.128462,3.87153794 C18.4664514,6.20946294 18.4664514,10.0136568 16.128462,12.3516462 C13.7904725,14.6895067 9.98640757,14.6895067 7.64835372,12.3516462 Z" id="Shape"></path>
                <path d="M8.16629621,7.62992294 C8.0574761,7.62992294 7.94685199,7.60853261 7.84022245,7.56349693 C7.41428418,7.38322537 7.21500615,6.89176309 7.39527771,6.46576039 C8.52832119,3.78816718 11.628438,2.53161384 14.3059667,3.66465732 C14.731905,3.84492888 14.931183,4.33639116 14.7509115,4.76239387 C14.5705755,5.18839657 14.0792421,5.38754574 13.6531105,5.20733861 C11.8262986,4.43432282 9.71097479,5.29167581 8.93802343,7.11848776 C8.80278754,7.43798979 8.49262768,7.62992294 8.16629621,7.62992294 Z" id="Path"></path>
            </g>
        </g>
    </g>
</svg>