<?xml version="1.0" encoding="UTF-8"?>
<svg width="25px" height="25px" viewBox="0 0 25 25" version="1.1" xmlns="http://www.w3.org/2000/svg" xmlns:xlink="http://www.w3.org/1999/xlink">
    <title>5C28EE2E-27D8-4882-BAEF-4C0C3D2BF3D0@0,5x</title>
    <g id="FLOW-MEETING" stroke="none" stroke-width="1" fill="none" fill-rule="evenodd">
        <g id="Create-Webinar-6" transform="translate(-17.000000, -863.000000)" fill="#80BBED" fill-rule="nonzero">
            <g id="Group-15" transform="translate(13.500000, 796.000000)">
                <g id="information" transform="translate(3.500000, 67.000000)">
                    <circle id="Oval" cx="12.5" cy="18.4814453" r="1.22070312"></circle>
                    <path d="M12.5,0 C5.59160156,0 0,5.59067383 0,12.5 C0,19.4083984 5.59067383,25 12.5,25 C19.4083984,25 25,19.4093262 25,12.5 C25,5.59160156 19.4093262,0 12.5,0 Z M12.5,23.046875 C6.67104492,23.046875 1.953125,18.3297363 1.953125,12.5 C1.953125,6.67104492 6.67026367,1.953125 12.5,1.953125 C18.3289551,1.953125 23.046875,6.67026367 23.046875,12.5 C23.046875,18.3289551 18.3297363,23.046875 12.5,23.046875 Z" id="Shape"></path>
                    <path d="M12.5,6.27441406 C10.3460937,6.27441406 8.59375,8.02675781 8.59375,10.1806641 C8.59375,10.7200195 9.03095703,11.1572266 9.5703125,11.1572266 C10.109668,11.1572266 10.546875,10.7200195 10.546875,10.1806641 C10.546875,9.10371094 11.4230469,8.22753906 12.5,8.22753906 C13.5769531,8.22753906 14.453125,9.10371094 14.453125,10.1806641 C14.453125,11.2576172 13.5769531,12.1337891 12.5,12.1337891 C11.9606445,12.1337891 11.5234375,12.5709961 11.5234375,13.1103516 L11.5234375,15.5517578 C11.5234375,16.0911133 11.9606445,16.5283203 12.5,16.5283203 C13.0393555,16.5283203 13.4765625,16.0911133 13.4765625,15.5517578 L13.4765625,13.9633301 C15.1594727,13.5286133 16.40625,11.9975098 16.40625,10.1806641 C16.40625,8.02675781 14.6539063,6.27441406 12.5,6.27441406 Z" id="Path"></path>
                </g>
            </g>
        </g>
    </g>
</svg>