<?xml version="1.0" encoding="UTF-8"?>
<svg width="27px" height="25px" viewBox="0 0 27 25" version="1.1" xmlns="http://www.w3.org/2000/svg" xmlns:xlink="http://www.w3.org/1999/xlink">
    <title>22B3D19D-877A-4D0B-88C7-FF333B7E9C9E@2x</title>
    <g id="FLOW-MEETING" stroke="none" stroke-width="1" fill="none" fill-rule="evenodd">
        <g id="Landing-Page-3" transform="translate(-100.000000, -1080.000000)" fill="#263866" fill-rule="nonzero">
            <g id="timeline-(1)" transform="translate(100.000000, 1080.000000)">
                <path d="M25.8854167,10.9375 L0.78125,10.9375 C0.349528021,10.9375 0,11.287028 0,11.71875 L0,13.28125 C0,13.712972 0.349528021,14.0625 0.78125,14.0625 L25.8854167,14.0625 C26.3171386,14.0625 26.6666667,13.712972 26.6666667,13.28125 L26.6666667,11.71875 C26.6666667,11.287028 26.3171386,10.9375 25.8854167,10.9375 Z" id="Path"></path>
                <path d="M13.542277,9.375 L16.2493896,9.375 L18.2810466,5.85713703 C18.6220296,5.26652021 18.8020833,4.59208172 18.8020833,3.90625 C18.8020833,1.75252281 17.0495605,0 14.8958333,0 C12.7421061,0 10.9895833,1.75252281 10.9895833,3.90625 C10.9895833,4.59208172 11.169637,5.26652021 11.5106201,5.85713703 L13.542277,9.375 Z M14.8944092,3.125 C15.3259277,3.125 15.6756592,3.47473146 15.6756592,3.90625 C15.6756592,4.33776854 15.3259277,4.6875 14.8944092,4.6875 C14.4628906,4.6875 14.1131592,4.33776854 14.1131592,3.90625 C14.1131592,3.47473146 14.4628906,3.125 14.8944092,3.125 Z" id="Shape"></path>
                <path d="M2.60477703,9.375 L5.31188964,9.375 L7.34354656,5.85713703 C7.68452964,5.26652021 7.86458333,4.59208172 7.86458333,3.90625 C7.86458333,1.75252281 6.11206052,0 3.95833333,0 C1.80460615,0 0,1.75252281 0,3.90625 C0,4.59208172 0.180053698,5.26652021 0.521036771,5.85713703 L2.60477703,9.375 Z M3.95690917,3.125 C4.38842771,3.125 4.73815917,3.47473146 4.73815917,3.90625 C4.73815917,4.33776854 4.38842771,4.6875 3.95690917,4.6875 C3.52539063,4.6875 3.17565917,4.33776854 3.17565917,3.90625 C3.17565917,3.47473146 3.52539063,3.125 3.95690917,3.125 Z" id="Shape"></path>
                <path d="M24.113973,15.625 L21.4068604,15.625 L19.3752034,19.142863 C19.0342204,19.7334798 18.8541667,20.4079183 18.8541667,21.09375 C18.8541667,23.2474772 20.6066895,25 22.7604167,25 C24.9141439,25 26.6666667,23.2474772 26.6666667,21.09375 C26.6666667,20.4079183 26.486613,19.7334798 26.1456299,19.142863 L24.113973,15.625 Z M22.7589925,21.875 C22.327474,21.875 21.9777425,21.5252685 21.9777425,21.09375 C21.9777425,20.6622315 22.327474,20.3125 22.7589925,20.3125 C23.190511,20.3125 23.5402425,20.6622315 23.5402425,21.09375 C23.5402425,21.5252685 23.190511,21.875 22.7589925,21.875 Z" id="Shape"></path>
                <path d="M15.6770833,21.09375 C15.6770833,20.4079183 15.4970296,19.7334798 15.1560466,19.142863 L13.1243896,15.625 L10.417277,15.625 L8.3856201,19.142863 C8.04463703,19.7334798 7.86458333,20.4079183 7.86458333,21.09375 C7.86458333,23.2474772 9.61710615,25 11.7708333,25 C13.9245605,25 15.6770833,23.2474772 15.6770833,21.09375 Z M10.9881592,21.09375 C10.9881592,20.6622315 11.3378906,20.3125 11.7694092,20.3125 C12.2009277,20.3125 12.5506592,20.6622315 12.5506592,21.09375 C12.5506592,21.5252685 12.2009277,21.875 11.7694092,21.875 C11.3378906,21.875 10.9881592,21.5252685 10.9881592,21.09375 Z" id="Shape"></path>
            </g>
        </g>
    </g>
</svg>