<svg width="15" height="20" viewBox="0 0 15 20" fill="none" xmlns="http://www.w3.org/2000/svg">
<path d="M12.1417 0H0.71422C0.524797 0 0.343132 0.0752479 0.20919 0.20919C0.0752481 0.343132 0 0.524797 0 0.71422V16.4271C0 16.6165 0.0752481 16.7981 0.20919 16.9321C0.343132 17.066 0.524797 17.1413 0.71422 17.1413H2.14266V19.2839C2.14318 19.3972 2.17066 19.5088 2.22282 19.6094C2.27498 19.71 2.35032 19.7967 2.44263 19.8625C2.53421 19.9288 2.64023 19.9725 2.75199 19.9899C2.86374 20.0073 2.97802 19.9979 3.08543 19.9624L4.99954 19.3196L6.91365 19.9624C7.02124 19.9988 7.13595 20.0089 7.24826 19.9921C7.36056 19.9752 7.46723 19.9318 7.55941 19.8655C7.65158 19.7991 7.72661 19.7118 7.77826 19.6106C7.82992 19.5095 7.85671 19.3975 7.85642 19.2839V17.1413H12.1417C12.71 17.1413 13.255 16.9155 13.6568 16.5137C14.0587 16.1119 14.2844 15.5669 14.2844 14.9986V2.14266C14.2844 1.57439 14.0587 1.0294 13.6568 0.627571C13.255 0.225744 12.71 0 12.1417 0ZM6.42798 18.2912L5.22809 17.8912C5.07984 17.8411 4.91924 17.8411 4.77099 17.8912L3.5711 18.2912V17.1413H6.42798V18.2912ZM12.856 14.9986C12.856 15.188 12.7807 15.3697 12.6468 15.5036C12.5128 15.6376 12.3312 15.7128 12.1417 15.7128H1.42844V1.42844H12.1417C12.3312 1.42844 12.5128 1.50369 12.6468 1.63763C12.7807 1.77157 12.856 1.95324 12.856 2.14266V14.9986Z" fill="white"/>
</svg>
