<?xml version="1.0" encoding="UTF-8"?>
<svg width="22px" height="22px" viewBox="0 0 22 22" version="1.1" xmlns="http://www.w3.org/2000/svg" xmlns:xlink="http://www.w3.org/1999/xlink">
    <title>277FF2D6-C638-4EF9-9861-37711C1E88EE@0,5x</title>
    <g id="Web-Superadmin" stroke="none" stroke-width="1" fill="none" fill-rule="evenodd">
        <g id="Icon5" transform="translate(-325.000000, -115.000000)" fill="#B9B9B9" fill-rule="nonzero" stroke="#B9B9B9" stroke-width="0.2">
            <g id="class" transform="translate(326.000000, 116.000000)">
                <path d="M17.9274609,3.93730469 C18.3162891,3.51878906 18.5546875,2.95871094 18.5546875,2.34375 C18.5546875,1.05140625 17.5032813,0 16.2109375,0 C14.9185938,0 13.8671875,1.05140625 13.8671875,2.34375 C13.8671875,2.95871094 14.1055859,3.51878906 14.4944141,3.93730469 C13.9205469,4.23800781 13.4344531,4.68433594 13.0859375,5.22710938 C12.7374219,4.68429688 12.2513281,4.23800781 11.6774609,3.93730469 C12.0662891,3.51878906 12.3046875,2.95871094 12.3046875,2.34375 C12.3046875,1.05140625 11.2532813,0 9.9609375,0 C8.66859375,0 7.6171875,1.05140625 7.6171875,2.34375 C7.6171875,2.95871094 7.85558594,3.51878906 8.24441406,3.93730469 C7.67054688,4.23800781 7.18445313,4.68429688 6.8359375,5.22710938 C6.48742188,4.68429688 6.00132813,4.23800781 5.42746094,3.93730469 C5.81628906,3.51878906 6.0546875,2.95871094 6.0546875,2.34375 C6.0546875,1.05140625 5.00328125,0 3.7109375,0 C2.41859375,0 1.3671875,1.05140625 1.3671875,2.34375 C1.3671875,2.95871094 1.60558594,3.51878906 1.99441406,3.93730469 C0.810039063,4.55789062 0,5.79933594 0,7.2265625 L0,11.1328125 C0,11.4564063 0.26234375,11.71875 0.5859375,11.71875 L1.3671875,11.71875 C1.3671875,12.3337109 1.60558594,12.8937891 1.99441406,13.3123047 C0.810039063,13.9328906 0,15.1743359 0,16.6015625 L0,19.4140625 C0,19.7376563 0.26234375,20 0.5859375,20 L19.3359375,20 C19.6595312,20 19.921875,19.7376563 19.921875,19.4140625 L19.921875,16.6015625 C19.921875,15.1743359 19.1118359,13.9328906 17.9274609,13.3123047 C18.3162891,12.8937891 18.5546875,12.3337109 18.5546875,11.71875 L19.3359375,11.71875 C19.6595312,11.71875 19.921875,11.4564063 19.921875,11.1328125 L19.921875,7.2265625 C19.921875,5.79933594 19.1118359,4.55789063 17.9274609,3.93730469 Z M15.0390625,2.34375 C15.0390625,1.69757812 15.5647656,1.171875 16.2109375,1.171875 C16.8571094,1.171875 17.3828125,1.69757812 17.3828125,2.34375 C17.3828125,2.98992188 16.8571094,3.515625 16.2109375,3.515625 C15.5647656,3.515625 15.0390625,2.98992188 15.0390625,2.34375 Z M16.2109375,4.6875 C17.5452734,4.6875 18.6425,5.72210937 18.7425781,7.03125 L13.6792969,7.03125 C13.779375,5.72210937 14.8766016,4.6875 16.2109375,4.6875 Z M8.7890625,2.34375 C8.7890625,1.69757812 9.31476563,1.171875 9.9609375,1.171875 C10.6071094,1.171875 11.1328125,1.69757812 11.1328125,2.34375 C11.1328125,2.98992188 10.6071094,3.515625 9.9609375,3.515625 C9.31476563,3.515625 8.7890625,2.98992188 8.7890625,2.34375 Z M9.9609375,4.6875 C11.2952734,4.6875 12.3925,5.72210937 12.4925781,7.03125 L7.42929687,7.03125 C7.529375,5.72210937 8.62660156,4.6875 9.9609375,4.6875 Z M2.5390625,2.34375 C2.5390625,1.69757812 3.06476563,1.171875 3.7109375,1.171875 C4.35710938,1.171875 4.8828125,1.69757812 4.8828125,2.34375 C4.8828125,2.98992188 4.35710938,3.515625 3.7109375,3.515625 C3.06476563,3.515625 2.5390625,2.98992188 2.5390625,2.34375 Z M3.7109375,4.6875 C5.04527344,4.6875 6.1425,5.72210937 6.24257813,7.03125 L1.17929688,7.03125 C1.279375,5.72210937 2.37660156,4.6875 3.7109375,4.6875 Z M2.5390625,11.71875 C2.5390625,11.0725781 3.06476563,10.546875 3.7109375,10.546875 C4.35710938,10.546875 4.8828125,11.0725781 4.8828125,11.71875 C4.8828125,12.3649219 4.35710938,12.890625 3.7109375,12.890625 C3.06476563,12.890625 2.5390625,12.3649219 2.5390625,11.71875 Z M6.0546875,11.71875 L7.6171875,11.71875 C7.6171875,12.3337109 7.85558594,12.8937891 8.24441406,13.3123047 C7.67054688,13.6130078 7.18445313,14.0592969 6.8359375,14.6021094 C6.48742188,14.0592969 6.00132813,13.6130078 5.42746094,13.3123047 C5.81628906,12.8937891 6.0546875,12.3337109 6.0546875,11.71875 L6.0546875,11.71875 Z M8.7890625,11.71875 C8.7890625,11.0725781 9.31476563,10.546875 9.9609375,10.546875 C10.6071094,10.546875 11.1328125,11.0725781 11.1328125,11.71875 C11.1328125,12.3649219 10.6071094,12.890625 9.9609375,12.890625 C9.31476563,12.890625 8.7890625,12.3649219 8.7890625,11.71875 Z M12.3046875,11.71875 L13.8671875,11.71875 C13.8671875,12.3337109 14.1055859,12.8937891 14.4944141,13.3123047 C13.9205469,13.6130078 13.4344531,14.0593359 13.0859375,14.6021094 C12.7374219,14.0592969 12.2513281,13.6130078 11.6774609,13.3123047 C12.0662891,12.8937891 12.3046875,12.3337109 12.3046875,11.71875 Z M9.9609375,14.0625 C11.2952734,14.0625 12.3925,15.0971094 12.4925781,16.40625 L7.42929687,16.40625 C7.529375,15.0971094 8.62660156,14.0625 9.9609375,14.0625 Z M3.7109375,14.0625 C5.04527344,14.0625 6.1425,15.0971094 6.24257813,16.40625 L1.17929688,16.40625 C1.279375,15.0971094 2.37660156,14.0625 3.7109375,14.0625 Z M18.75,18.828125 L1.171875,18.828125 L1.171875,17.578125 L18.75,17.578125 L18.75,18.828125 Z M18.7425781,16.40625 L13.6792969,16.40625 C13.779375,15.0971094 14.8765625,14.0625 16.2109375,14.0625 C17.5453125,14.0625 18.6425,15.0971094 18.7425781,16.40625 Z M15.0390625,11.71875 C15.0390625,11.0725781 15.5647656,10.546875 16.2109375,10.546875 C16.8571094,10.546875 17.3828125,11.0725781 17.3828125,11.71875 C17.3828125,12.3649219 16.8571094,12.890625 16.2109375,12.890625 C15.5647656,12.890625 15.0390625,12.3649219 15.0390625,11.71875 Z M18.75,10.546875 L18.239375,10.546875 C17.8334766,9.84703125 17.0765234,9.375 16.2109375,9.375 C15.3453516,9.375 14.5883984,9.84703125 14.1825,10.546875 L11.989375,10.546875 C11.5834766,9.84703125 10.8265234,9.375 9.9609375,9.375 C9.09535156,9.375 8.33839844,9.84703125 7.9325,10.546875 L5.739375,10.546875 C5.33347656,9.84703125 4.57652344,9.375 3.7109375,9.375 C2.84535156,9.375 2.08839844,9.84703125 1.6825,10.546875 L1.171875,10.546875 L1.171875,8.203125 L18.75,8.203125 L18.75,10.546875 Z" id="Shape"></path>
            </g>
        </g>
    </g>
</svg>