<?xml version="1.0" encoding="UTF-8"?>
<svg width="18px" height="20px" viewBox="0 0 18 20" version="1.1" xmlns="http://www.w3.org/2000/svg" xmlns:xlink="http://www.w3.org/1999/xlink">
    <title>5E5908F7-A73D-4BFF-A2FA-D26E5C256783@0,5x</title>
    <g id="Web-Superadmin" stroke="none" stroke-width="1" fill="none" fill-rule="evenodd">
        <g id="Icon5" transform="translate(-837.000000, -116.000000)" fill="#BCBCBC" fill-rule="nonzero">
            <g id="Report-off" transform="translate(837.000000, 116.000000)">
                <g id="Group-12" transform="translate(3.500000, 6.000000)">
                    <path d="M8.78914062,1.32554688 C8.46554687,1.32554688 8.20320312,1.58789063 8.20320312,1.91148438 L8.20320312,4.06257813 L7.03132812,4.06257813 L7.03132812,2.82117188 C7.03132812,2.49757813 6.76898437,2.23523438 6.44539062,2.23523438 C6.12179687,2.23523438 5.85945312,2.49757813 5.85945312,2.82117188 L5.85945312,4.06257813 L4.68753906,4.06257813 L4.68753906,0.5859375 C4.68753906,0.26234375 4.42519531,3.64153152e-14 4.10160156,3.64153152e-14 C3.77800781,3.64153152e-14 3.51566406,0.26234375 3.51566406,0.5859375 L3.51566406,4.06257813 L2.34382812,4.06257813 L2.34382812,3.4028125 C2.34382812,3.07921875 2.08148437,2.816875 1.75789062,2.816875 C1.43429687,2.816875 1.17195312,3.07921875 1.17195312,3.4028125 L1.17195312,4.06257813 L0.5859375,4.06257813 C0.26234375,4.06257813 -3.64153152e-13,4.32492188 -3.64153152e-13,4.64851563 C-3.64153152e-13,4.97210938 0.26234375,5.23445313 0.5859375,5.23445313 L9.96113281,5.23445313 C10.2847266,5.23445313 10.5470703,4.97210938 10.5470703,4.64851563 C10.5470703,4.32492188 10.2847266,4.06257813 9.96113281,4.06257813 L9.37507812,4.06257813 L9.37507812,1.91148438 C9.37507812,1.58789063 9.11273437,1.32554688 8.78914062,1.32554688 L8.78914062,1.32554688 Z" id="Path"></path>
                    <path d="M9.96089844,6.40632813 L0.585976562,6.40632813 C0.262382812,6.40632813 3.90625e-05,6.66867188 3.90625e-05,6.99226563 C3.90625e-05,7.31585938 0.262382812,7.57820313 0.585976562,7.57820313 L9.96089844,7.57820313 C10.2844922,7.57820313 10.5468359,7.31585938 10.5468359,6.99226563 C10.5468359,6.66867188 10.2844922,6.40632813 9.96089844,6.40632813 Z" id="Path"></path>
                </g>
                <path d="M8.18726563,15 L4.0859375,15 C3.76234375,15 3.5,15.2623437 3.5,15.5859375 C3.5,15.9095312 3.76234375,16.171875 4.0859375,16.171875 L8.18726563,16.171875 C8.51085938,16.171875 8.77320313,15.9095312 8.77320313,15.5859375 C8.77320313,15.2623437 8.51085938,15 8.18726563,15 Z" id="Path"></path>
                <path d="M14.6453067,2.43478261 L13.6833064,2.43478261 C13.4590357,1.06156522 12.1354648,-9.9475983e-14 10.5263101,-9.9475983e-14 L6.8649942,-9.9475983e-14 C5.25583956,-9.9475983e-14 3.93226868,1.06156522 3.7079979,2.43478261 L2.74599768,2.43478261 C1.23205193,2.43478261 -9.50350909e-13,3.52720109 -9.50350909e-13,4.86956522 L-9.50350909e-13,17.0434783 C-9.50350909e-13,18.3858424 1.23205193,19.4782609 2.74599768,19.4782609 L14.6453067,19.4782609 C16.1592524,19.4782609 17.3913043,18.3858424 17.3913043,17.0434783 L17.3913043,4.86956522 C17.3913043,3.52720109 16.1592524,2.43478261 14.6453067,2.43478261 Z M6.8649513,1.62320109 L10.5262672,1.62320109 C11.2832616,1.62320109 11.8992661,2.1693913 11.8992661,2.84059239 C11.8992661,3.51179348 11.2832616,4.0579837 10.5262672,4.0579837 L6.8649513,4.0579837 C6.10795697,4.0579837 5.49195246,3.51179348 5.49195246,2.84059239 C5.49195246,2.1693913 6.10799987,1.62320109 6.8649513,1.62320109 Z M15.5606249,17.0434783 C15.5606249,17.4914783 15.1496263,17.8550598 14.6453067,17.8550598 L2.74595478,17.8550598 C2.24163514,17.8550598 1.83063652,17.4914783 1.83063652,17.0434783 L1.83063652,4.86956522 C1.83063652,4.42156522 2.24163514,4.0579837 2.74595478,4.0579837 L3.98255476,4.0579837 C4.49880233,5.01405435 5.5917094,5.68118478 6.8649513,5.68118478 L10.5262672,5.68118478 C11.7995091,5.68118478 12.8924162,5.01405435 13.4086638,4.0579837 L14.6452638,4.0579837 C15.1496263,4.0579837 15.5606249,4.42156522 15.5606249,4.86956522 L15.5606249,17.0434783 L15.5606249,17.0434783 Z" id="Shape"></path>
            </g>
        </g>
    </g>
</svg>