<?xml version="1.0" encoding="UTF-8"?>
<svg width="63px" height="80px" viewBox="0 0 63 80" version="1.1" xmlns="http://www.w3.org/2000/svg" xmlns:xlink="http://www.w3.org/1999/xlink">
    <title>3EFE4D83-258B-4196-9F52-AF8554873F59@0,5x</title>
    <g id="Learning-Role-Guru" stroke="none" stroke-width="1" fill="none" fill-rule="evenodd">
        <g id="Icon-widget" transform="translate(-614.000000, -330.000000)" fill="#0091FF" fill-rule="nonzero">
            <g id="Laporan-on" transform="translate(614.000000, 330.000000)">
                <path d="M40.073125,22.6670313 L26.7398437,22.6670313 C26.0039062,22.6670313 25.4065625,23.264375 25.4065625,24.0003125 C25.4065625,24.73625 26.0039062,25.3335937 26.7398437,25.3335937 L40.073125,25.3335937 C40.8090625,25.3335937 41.4064063,24.73625 41.4064063,24.0003125 C41.4064063,23.264375 40.8090625,22.6670313 40.073125,22.6670313 Z" id="Path"></path>
                <path d="M48.073125,22.6670313 L45.4064063,22.6670313 C44.6704688,22.6670313 44.073125,23.264375 44.073125,24.0003125 C44.073125,24.73625 44.6704687,25.3335937 45.4064063,25.3335937 L48.073125,25.3335937 C48.8090625,25.3335937 49.4064063,24.73625 49.4064063,24.0003125 C49.4064063,23.264375 48.8090625,22.6670313 48.073125,22.6670313 Z" id="Path"></path>
                <path d="M30.7396875,28.0003125 L26.7396875,28.0003125 C26.00375,28.0003125 25.4064063,28.5976562 25.4064063,29.3335937 C25.4064063,30.0695312 26.00375,30.666875 26.7396875,30.666875 L30.7396875,30.666875 C31.475625,30.666875 32.0729688,30.0695312 32.0729688,29.3335937 C32.0729688,28.5976562 31.4757813,28.0003125 30.7396875,28.0003125 Z" id="Path"></path>
                <path d="M48.073125,28.0003125 L36.073125,28.0003125 C35.3371875,28.0003125 34.7398437,28.5976562 34.7398437,29.3335937 C34.7398437,30.0695312 35.3371875,30.666875 36.073125,30.666875 L48.073125,30.666875 C48.8090625,30.666875 49.4064062,30.0695312 49.4064062,29.3335937 C49.4064062,28.5976562 48.8090625,28.0003125 48.073125,28.0003125 Z" id="Path"></path>
                <path d="M40.073125,41.3335938 L26.7398437,41.3335938 C26.0039062,41.3335938 25.4065625,41.9309375 25.4065625,42.666875 C25.4065625,43.4028125 26.0039062,44.0001563 26.7398437,44.0001563 L40.073125,44.0001563 C40.8090625,44.0001563 41.4064063,43.4028125 41.4064063,42.666875 C41.4064063,41.9309375 40.8090625,41.3335938 40.073125,41.3335938 Z" id="Path"></path>
                <path d="M48.073125,41.3335938 L45.4064063,41.3335938 C44.6704688,41.3335938 44.073125,41.9309375 44.073125,42.666875 C44.073125,43.4028125 44.6704687,44.0001563 45.4064063,44.0001563 L48.073125,44.0001563 C48.8090625,44.0001563 49.4064063,43.4028125 49.4064063,42.666875 C49.4064063,41.9309375 48.8090625,41.3335938 48.073125,41.3335938 Z" id="Path"></path>
                <path d="M30.7396875,46.6670313 L26.7396875,46.6670313 C26.00375,46.6670313 25.4064063,47.264375 25.4064063,48.0003125 C25.4064063,48.73625 26.00375,49.3335938 26.7396875,49.3335938 L30.7396875,49.3335938 C31.475625,49.3335938 32.0729688,48.73625 32.0729688,48.0003125 C32.0729688,47.264375 31.4757813,46.6670313 30.7396875,46.6670313 Z" id="Path"></path>
                <path d="M48.073125,46.6670313 L36.073125,46.6670313 C35.3371875,46.6670313 34.7398437,47.264375 34.7398437,48.0003125 C34.7398437,48.73625 35.3371875,49.3335938 36.073125,49.3335938 L48.073125,49.3335938 C48.8090625,49.3335938 49.4064062,48.73625 49.4064062,48.0003125 C49.4064062,47.264375 48.8090625,46.6670313 48.073125,46.6670313 Z" id="Path"></path>
                <path d="M15.6823437,28.3909375 L11.6823437,24.3909375 C11.1623437,23.8695313 10.3170312,23.8695313 9.79703125,24.3909375 C9.275625,24.9123437 9.275625,25.755 9.79703125,26.27625 L13.7970312,30.27625 C14.0570312,30.53625 14.3984375,30.666875 14.7396875,30.666875 C15.0810937,30.666875 15.4223437,30.53625 15.6823437,30.27625 C16.20375,29.755 16.20375,28.9123437 15.6823437,28.3909375 Z" id="Path"></path>
                <path d="M22.1810938,18.915 C21.5810938,18.4882813 20.7490625,18.625625 20.3210938,19.225625 L13.654375,28.5589062 C13.2264063,29.1575 13.365,29.9909375 13.96375,30.4189062 C14.1996875,30.585625 14.4704688,30.666875 14.7384375,30.666875 C15.154375,30.666875 15.5651563,30.4721875 15.82375,30.1082813 L22.4904688,20.775 C22.9184375,20.17625 22.7796875,19.3429688 22.1810938,18.915 Z" id="Path"></path>
                <path d="M20.4078125,29.37625 C19.6945313,29.1935937 18.9678125,29.6203125 18.7825,30.3335938 C18.3398438,32.0429688 16.6010938,33.3335937 14.7398438,33.3335937 C12.8785938,33.3335937 11.1398438,32.0429688 10.6971875,30.3321875 C10.511875,29.6189063 9.7825,29.1907813 9.071875,29.3748438 C8.35984375,29.5601562 7.931875,30.288125 8.1159375,31.0001562 C8.8665625,33.8975 11.651875,36.0001562 14.74,36.0001562 C17.8279688,36.0001562 20.6132813,33.8975 21.3640625,31.0015625 C21.5490625,30.2896875 21.1210938,29.5617187 20.4078125,29.37625 Z" id="Path"></path>
                <path d="M16.4090625,18.8790625 C14.74375,18.4457813 12.8957813,18.695 11.3996875,19.5696875 C10.765,19.9417187 10.5503125,20.7576563 10.9223437,21.39375 C11.1703125,21.8178125 11.615625,22.05375 12.074375,22.05375 C12.3023437,22.05375 12.534375,21.9951562 12.7464062,21.8710937 C13.6384375,21.3484375 14.7478125,21.203125 15.7384375,21.4590625 C16.4504687,21.644375 17.1784375,21.2178125 17.36375,20.504375 C17.5490625,19.7923438 17.1223438,19.064375 16.4090625,18.8790625 Z" id="Path"></path>
                <path d="M14.7396875,40.0003125 C11.7982813,40.0003125 9.40640625,42.3923438 9.40640625,45.3335938 C9.40640625,48.275 11.7984375,50.666875 14.7396875,50.666875 C17.6810937,50.666875 20.0729688,48.2748437 20.0729688,45.3335938 C20.0729688,42.3923438 17.6810937,40.0003125 14.7396875,40.0003125 Z M14.7396875,48.0003125 C13.2690625,48.0003125 12.0729688,46.804375 12.0729688,45.3335938 C12.0729688,43.8629688 13.2689063,42.666875 14.7396875,42.666875 C16.2103125,42.666875 17.4064063,43.8628125 17.4064063,45.3335938 C17.4064063,46.804375 16.2104688,48.0003125 14.7396875,48.0003125 Z" id="Shape"></path>
                <path d="M40.073125,57.3335938 L26.7398437,57.3335938 C26.0039062,57.3335938 25.4065625,57.9309375 25.4065625,58.666875 C25.4065625,59.4028125 26.0039062,60.0001563 26.7398437,60.0001563 L40.073125,60.0001563 C40.8090625,60.0001563 41.4064063,59.4028125 41.4064063,58.666875 C41.4064063,57.9309375 40.8090625,57.3335938 40.073125,57.3335938 Z" id="Path"></path>
                <path d="M48.073125,57.3335938 L45.4064063,57.3335938 C44.6704688,57.3335938 44.073125,57.9309375 44.073125,58.666875 C44.073125,59.4028125 44.6704687,60.0001563 45.4064063,60.0001563 L48.073125,60.0001563 C48.8090625,60.0001563 49.4064063,59.4028125 49.4064063,58.666875 C49.4064063,57.9309375 48.8090625,57.3335938 48.073125,57.3335938 Z" id="Path"></path>
                <path d="M30.7396875,62.6670313 L26.7396875,62.6670313 C26.00375,62.6670313 25.4064063,63.264375 25.4064063,64.0003125 C25.4064063,64.73625 26.00375,65.3335938 26.7396875,65.3335938 L30.7396875,65.3335938 C31.475625,65.3335938 32.0729688,64.73625 32.0729688,64.0003125 C32.0729688,63.264375 31.4757813,62.6670313 30.7396875,62.6670313 Z" id="Path"></path>
                <path d="M48.073125,62.6670313 L36.073125,62.6670313 C35.3371875,62.6670313 34.7398437,63.264375 34.7398437,64.0003125 C34.7398437,64.73625 35.3371875,65.3335938 36.073125,65.3335938 L48.073125,65.3335938 C48.8090625,65.3335938 49.4064062,64.73625 49.4064062,64.0003125 C49.4064062,63.264375 48.8090625,62.6670313 48.073125,62.6670313 Z" id="Path"></path>
                <path d="M14.7396875,56.0003125 C11.7982813,56.0003125 9.40640625,58.3923438 9.40640625,61.3335937 C9.40640625,64.275 11.7984375,66.666875 14.7396875,66.666875 C17.6810937,66.666875 20.0729688,64.2748437 20.0729688,61.3335937 C20.073125,58.3923438 17.6810937,56.0003125 14.7396875,56.0003125 Z M14.7396875,64.0003125 C13.2690625,64.0003125 12.0729688,62.804375 12.0729688,61.3335937 C12.0729688,59.8629688 13.2689063,58.666875 14.7396875,58.666875 C16.2103125,58.666875 17.4064063,59.8628125 17.4064063,61.3335937 C17.4064063,62.804375 16.2104688,64.0003125 14.7396875,64.0003125 Z" id="Shape"></path>
                <path d="M56.965,12.3429688 L43.6317188,0.34296875 C43.3864063,0.1215625 43.0690625,0.0003125 42.7396875,0.0003125 L1.40640625,0.0003125 C0.67046875,0.0003125 0.073125,0.59765625 0.073125,1.33359375 L0.073125,73.3335938 C0.073125,74.0695313 0.67046875,74.666875 1.40640625,74.666875 L56.073125,74.666875 C56.8090625,74.666875 57.4064063,74.0695313 57.4064063,73.3335938 L57.4064063,13.3335938 C57.4064063,12.95625 57.2464063,12.59625 56.965,12.3429688 Z M54.7396875,72.0003125 L2.7396875,72.0003125 L2.7396875,2.66703125 L42.2276562,2.66703125 L54.7396875,13.9284375 L54.7396875,72.0003125 Z" id="Shape"></path>
                <path d="M56.965,12.3417187 L43.6317188,0.34171875 C43.2410938,-0.0103125 42.6784375,-0.09828125 42.1970313,0.115 C41.715625,0.3296875 41.4064063,0.80703125 41.4064063,1.33359375 L41.4064063,13.3335937 C41.4064063,14.0695312 42.00375,14.666875 42.7396875,14.666875 L56.0729688,14.666875 C56.625,14.666875 57.1196875,14.326875 57.3182813,13.8109375 C57.5157812,13.295 57.3757812,12.7109375 56.965,12.3417187 Z M44.073125,12.0003125 L44.073125,4.32703125 L52.5984375,12.0003125 L44.073125,12.0003125 Z" id="Shape"></path>
                <path d="M61.4064063,5.33359375 L48.6651563,5.33359375 C48.113125,5.33359375 47.6184375,5.67359375 47.4198437,6.18828125 C47.2225,6.70421875 47.3625,7.28828125 47.773125,7.65765625 L54.7398438,13.9270312 L54.7398438,72.0003125 L6.73984375,72.0003125 C6.00390625,72.0003125 5.4065625,72.5976562 5.4065625,73.3335938 L5.4065625,78.666875 C5.4065625,79.4028125 6.00390625,80.0001562 6.73984375,80.0001562 L61.4065625,80.0001562 C62.1425,80.0001562 62.7398438,79.4028125 62.7398438,78.666875 L62.7398438,6.666875 C62.7398438,5.9309375 62.1423438,5.33359375 61.4064063,5.33359375 Z M60.073125,77.3335938 L8.073125,77.3335938 L8.073125,74.666875 L56.073125,74.666875 C56.8090625,74.666875 57.4064063,74.0695313 57.4064063,73.3335938 L57.4064063,13.3335937 C57.4064063,12.955 57.2464062,12.595 56.965,12.3429687 L52.1396875,8.0003125 L60.073125,8.0003125 L60.073125,77.3335938 L60.073125,77.3335938 Z" id="Shape"></path>
            </g>
        </g>
    </g>
</svg>