<?xml version="1.0" encoding="UTF-8"?>
<svg width="73px" height="83px" viewBox="0 0 73 83" version="1.1" xmlns="http://www.w3.org/2000/svg" xmlns:xlink="http://www.w3.org/1999/xlink">
    <title>0E9DFAC2-58E5-461D-8580-7B6F53CAFA97@0,5x</title>
    <g id="Learning-Role-Guru" stroke="none" stroke-width="1" fill="none" fill-rule="evenodd">
        <g id="Icon-widget" transform="translate(-1023.000000, -89.000000)" fill-rule="nonzero" stroke="#424242" stroke-width="3">
            <g id="Materi-off" transform="translate(1025.000000, 91.000000)">
                <path d="M66.4615385,78.7692308 L9.02564103,78.7692308 C4.04676923,78.7692308 5.61328761e-13,74.7224615 5.61328761e-13,69.7435897 L5.61328761e-13,9.02564103 C5.61328761e-13,4.04676923 4.04676923,0 9.02564103,0 L59.8974359,0 C61.2562051,0 62.3589744,1.10276923 62.3589744,2.46153846 L62.3589744,13.1282051 L66.4615385,13.1282051 C67.8203077,13.1282051 68.9230769,14.2309744 68.9230769,15.5897436 L68.9230769,76.3076923 C68.9230769,77.6664615 67.8203077,78.7692308 66.4615385,78.7692308 Z M4.92307692,17.0633846 L4.92307692,69.7435897 C4.92307692,72.0049231 6.76430769,73.8461538 9.02564103,73.8461538 L64,73.8461538 L64,18.0512821 L9.02564103,18.0512821 C7.54871795,18.0512821 6.15384615,17.6968205 4.92307692,17.0633846 Z M18.0512821,18.5897436 L18.0512821,58.4929231 L24.9632821,54.2393846 C25.7575385,53.753641 26.752,53.753641 27.5462564,54.2393846 L34.4582564,58.4929231 L34.4582564,18.5897436 L39.3846154,18.5897436 L39.3846154,62.8974359 C39.3846154,63.7868718 38.9054359,64.6106667 38.1243077,65.0471795 C37.7501538,65.2539487 37.3366154,65.3589744 36.9230769,65.3589744 C36.4734359,65.3589744 36.030359,65.2375385 35.6299487,64.9946667 L26.2564103,59.2248205 L16.8828718,64.9946667 C16.1214359,65.464 15.1729231,65.4804103 14.3885128,65.0471795 C13.6073846,64.6106667 13.1282051,63.7868718 13.1282051,62.8974359 L13.1282051,18.5897436 L18.0512821,18.5897436 Z M57.4358974,4.92307692 L57.4358974,13.1282051 L9.02564103,13.1282051 C6.76430769,13.1282051 4.92307692,11.2869744 4.92307692,9.02564103 C4.92307692,6.76430769 6.76430769,4.92307692 9.02564103,4.92307692 L9.02564103,4.92307692 L57.4358974,4.92307692 Z" id="Shape"></path>
            </g>
        </g>
    </g>
</svg>