<?xml version="1.0" encoding="UTF-8"?>
<svg width="85px" height="80px" viewBox="0 0 85 80" version="1.1" xmlns="http://www.w3.org/2000/svg" xmlns:xlink="http://www.w3.org/1999/xlink">
    <title>71779DB9-3BB5-4B14-9FF0-B4A187743B46@0,5x</title>
    <g id="Learning-Role-Guru" stroke="none" stroke-width="1" fill="none" fill-rule="evenodd">
        <g id="Icon-widget" transform="translate(-816.000000, -330.000000)" fill="#0091FF" fill-rule="nonzero">
            <g id="Pengumuman-on" transform="translate(816.000000, 330.000000)">
                <path d="M22.5921392,50.8427835 C23.380799,50.3878865 23.6507731,49.3782217 23.1958763,48.5895619 C22.740335,47.8015464 21.7313145,47.5309278 20.9426547,47.9858247 C20.1539949,48.4413659 19.8833763,49.4510309 20.3389176,50.2390464 C20.7938144,51.0277062 21.8034794,51.2983248 22.5921392,50.8427835 L22.5921392,50.8427835 Z" id="Path"></path>
                <path d="M15.8324742,62.2274484 L24.1391753,76.6159794 C25.9317011,79.7242268 29.9639175,80.8750001 33.1527061,79.0315721 C36.3079898,77.2081186 37.3923969,73.1765463 35.5670103,70.0186855 L30.6185567,61.4465206 L34.9039949,58.9722938 C35.6926547,58.5161082 35.9632732,57.507732 35.507732,56.7190722 L33.3627578,53.0038661 C33.6185567,52.9542525 35.3002576,52.6243556 64.9568299,46.806701 C68.6230671,46.6076031 70.8195876,42.5979381 68.9677836,39.3923969 L63.4858247,29.8975515 L66.9890464,24.5914949 C67.3331185,24.0695876 67.3537371,23.3988402 67.0412371,22.8576031 L63.742268,17.1436856 C63.4297681,16.6024485 62.8363401,16.2854382 62.2145618,16.3221649 L55.8685567,16.702964 L49.7828609,6.16172685 C48.9014176,4.63466491 47.3221649,3.71005163 45.5592784,3.68750004 C45.5380155,3.68750004 45.5173969,3.68750004 45.4961339,3.68750004 C43.7925259,3.68750004 42.2461341,4.53543819 41.3298969,5.96907216 L19.7822166,33.4188144 L5.77384016,41.5064432 C0.264175175,44.6862113 -1.6443299,51.7545104 1.54768033,57.2789948 C4.46391753,62.3305412 10.6121135,64.3176546 15.8324742,62.2274484 L15.8324742,62.2274484 Z M32.7106959,71.6688145 C33.6217783,73.2448454 33.0824742,75.261598 31.501933,76.1746134 C29.9162372,77.0914949 27.8969072,76.5283505 26.9961339,74.9671391 L18.7487113,60.6804124 L24.4626289,57.3814433 C34.007732,73.9162372 32.5573453,71.4039949 32.7106959,71.6688145 Z M28.9690722,58.5889174 L27.3195876,55.7319588 L30.1765463,54.0824742 L31.8260308,56.9394329 L28.9690722,58.5889174 Z M61.3949742,19.675902 L63.6746134,23.6243556 L61.6417526,26.702964 L57.7126288,19.8969072 L61.3949742,19.675902 Z M44.0889174,7.77770623 C44.5315721,7.05347942 45.2338918,6.97873715 45.5186855,6.98646911 C45.8002576,6.98969072 46.501933,7.07731959 46.9252577,7.81056693 L66.1108247,41.0418814 C66.7358248,42.1237113 65.9761598,43.4838918 64.7229381,43.5148196 C64.498067,43.5199743 64.3943299,43.5605671 63.8182991,43.6681701 L43.5238402,8.51675249 C43.9497422,7.96907216 44.0045104,7.9162372 44.0889174,7.77770623 L44.0889174,7.77770623 Z M41.3286083,11.3131444 L60.3962629,44.3395619 L31.619201,49.9838918 L22.869201,34.8286083 L41.3286083,11.3131444 Z M4.40463918,55.6295103 C3.68041237,54.3762887 3.29768049,52.9536082 3.29768049,51.5141753 C3.29768049,48.5721649 4.87886598,45.8324742 7.4233247,44.3634021 L20.2796391,36.9407216 L28.5270618,51.2255155 L15.6707474,58.6488402 C11.7319588,60.9220361 6.67847934,59.5676546 4.40463918,55.6295103 Z" id="Shape"></path>
                <path d="M17.4819588,51.888531 C17.0264175,51.0998712 16.0173969,50.8292526 15.2287372,51.2847937 L12.3717783,52.9342783 C11.5844073,53.3891753 10.5734535,53.1179124 10.1185567,52.3305412 C9.66301542,51.5418814 8.65399489,51.2712628 7.86533509,51.7268041 C7.0766753,52.1823454 6.80605674,53.1913659 7.26159802,53.9800257 C8.61920099,56.3318299 11.6475515,57.1610824 14.0212628,55.7912371 L16.8782217,54.1417526 C17.6668815,53.6862113 17.9375,52.6778351 17.4819588,51.888531 L17.4819588,51.888531 Z" id="Path"></path>
                <path d="M82.001933,7.21585056 L72.8105669,12.3305412 C72.0148196,12.7738402 71.7280927,13.7783505 72.1713917,14.574098 C72.6134021,15.369201 73.6172681,15.6572165 74.4149485,15.2132732 L83.6056701,10.0985824 C84.4020619,9.65528346 84.6881443,8.65077311 84.2448454,7.85502581 C83.8021907,7.05863406 82.7976805,6.77255159 82.001933,7.21585056 L82.001933,7.21585056 Z" id="Path"></path>
                <path d="M81.0380155,24.2996134 L74.6649485,22.5921392 C73.7847937,22.3563144 72.8801547,22.8782217 72.6443299,23.7583762 C72.4085051,24.638531 72.9310567,25.5425257 73.8112114,25.7783505 L80.1849227,27.4858247 C81.0702319,27.7235825 81.9703607,27.193299 82.204897,26.3195876 C82.4407216,25.4394329 81.9181701,24.5347939 81.0380155,24.2996134 Z" id="Path"></path>
                <path d="M65.0225516,1.22293806 L63.3131444,7.59664957 C63.0773196,8.47680412 63.5992267,9.38079901 64.4793814,9.61726812 C65.3588917,9.85244849 66.2635309,9.33182994 66.5,8.45103093 L68.2087629,2.07731959 C68.4445875,1.19716487 67.9226804,0.292525856 67.0425257,0.0567010309 C66.1630154,-0.179123794 65.2583762,0.342783505 65.0225516,1.22293806 L65.0225516,1.22293806 Z" id="Path"></path>
            </g>
        </g>
    </g>
</svg>