<?xml version="1.0" encoding="UTF-8"?>
<svg width="80px" height="80px" viewBox="0 0 80 80" version="1.1" xmlns="http://www.w3.org/2000/svg" xmlns:xlink="http://www.w3.org/1999/xlink">
    <title>59E9520E-D5B8-49BE-B9D1-9E6F0A39776C@0,5x</title>
    <g id="Learning-Role-Guru" stroke="none" stroke-width="1" fill="none" fill-rule="evenodd">
        <g id="Icon-widget" transform="translate(-164.000000, -91.000000)" fill="#424242" fill-rule="nonzero">
            <g id="Tugas-off" transform="translate(164.000000, 91.000000)">
                <polygon id="Path" points="10.24 51.2 29.44 51.2 29.44 53.76 10.24 53.76"></polygon>
                <polygon id="Path" points="10.24 30.72 29.44 30.72 29.44 33.28 10.24 33.28"></polygon>
                <polygon id="Path" points="5.12 40.96 24.32 40.96 24.32 43.52 5.12 43.52"></polygon>
                <path d="M76.8,56.32 L75.52,56.32 L75.52,47.0512499 C75.52,44.2162499 73.618125,41.686875 70.894375,40.9025 L58.88,37.4375 L58.88,34.8187501 L60.01,34.064375 C61.720625,32.925625 62.9425,31.255 63.553125,29.355625 C65.98,28.955 67.84,26.858125 67.84,24.32 L67.84,14.08 C67.84,6.31687504 61.523125,0 53.76,0 C45.996875,0 39.68,6.31687504 39.68,14.08 L39.68,24.32 C39.68,26.858125 41.54,28.955 43.966875,29.355625 C44.5787501,31.255 45.8012499,32.925625 47.51,34.064375 L48.64,34.8187501 L48.64,37.4375 L36.625625,40.9037501 C34.285,41.578125 32.559375,43.544375 32.1175,45.881875 C30.5712499,45.385 29.44,43.95 29.44,42.24 C29.44,40.123125 31.163125,38.4 33.28,38.4 L34.56,38.4 L34.56,35.84 L33.246875,35.84 C34.059375,34.7675 34.56,33.4462499 34.56,32 C34.56,28.4712499 31.6887501,25.6 28.16,25.6 L0,25.6 L0,28.16 L1.28,28.16 C3.39687504,28.16 5.12,29.883125 5.12,32 C5.12,34.116875 3.39687504,35.84 1.28,35.84 L0,35.84 L0,38.4 L1.31312496,38.4 C0.50062496,39.4725 0,40.7937501 0,42.24 C0,43.6862499 0.50062496,45.0075 1.31312496,46.08 L0,46.08 L0,48.64 L1.28,48.64 C3.39687504,48.64 5.12,50.363125 5.12,52.48 C5.12,54.596875 3.39687504,56.32 1.28,56.32 L0,56.32 L0,61.44 C0,62.851875 1.14812496,64 2.56,64 L2.56,79.36 L76.8,79.36 L76.8,64 C78.211875,64 79.36,62.851875 79.36,61.44 L79.36,58.88 C79.36,57.468125 78.211875,56.32 76.8,56.32 Z M64,26.524375 L64,22.116875 C64.761875,22.5612499 65.28,23.378125 65.28,24.3212499 C65.28,25.264375 64.761875,26.08 64,26.524375 Z M42.24,24.32 C42.24,23.376875 42.758125,22.56 43.52,22.115625 L43.52,26.523125 C42.758125,26.08 42.24,25.263125 42.24,24.32 Z M45.305625,16.64 L43.52,16.64 L43.52,19.381875 C43.064375,19.500625 42.636875,19.68 42.24,19.911875 L42.24,14.08 C42.24,7.72875008 47.4075,2.56 53.76,2.56 C60.1125,2.56 65.28,7.72875008 65.28,14.08 L65.28,19.911875 C64.883125,19.68 64.455625,19.499375 64,19.381875 L64,16.64 L62.214375,16.64 C59.448125,16.64 56.770625,15.83 54.469375,14.295 L53.76,13.8212499 L53.049375,14.295 C50.748125,15.83 48.071875,16.64 45.305625,16.64 L45.305625,16.64 Z M46.08,26.61 L46.08,19.181875 C48.7975,19.055625 51.425,18.265625 53.76,16.873125 C56.095,18.265625 58.7225,19.055625 61.44,19.181875 L61.44,26.61 C61.44,28.7537501 60.375,30.744375 58.589375,31.935 L55.394375,34.064375 C54.421875,34.7125 53.096875,34.7125 52.124375,34.064375 L48.929375,31.935 C47.145,30.745625 46.08,28.7537501 46.08,26.61 L46.08,26.61 Z M51.2,36.475 C51.99,36.890625 52.86,37.12 53.76,37.12 C54.66,37.12 55.53,36.890625 56.32,36.475 L56.32,37.12 C56.32,38.531875 55.171875,39.68 53.76,39.68 C52.348125,39.68 51.2,38.531875 51.2,37.12 L51.2,36.475 Z M37.3362499,43.3625 L49.454375,39.866875 C50.364375,41.2887501 51.9487501,42.24 53.76,42.24 C55.5712499,42.24 57.155625,41.2887501 58.065625,39.866875 L70.1837501,43.3625 C71.818125,43.8337501 72.96,45.350625 72.96,47.0512499 L72.96,56.32 L60.395625,56.32 C60.925625,54.8337501 62.3337501,53.76 64,53.76 L70.4,53.76 L70.4,51.2 L67.84,51.2 L67.84,46.08 L65.28,46.08 L65.28,51.2 L64,51.2 C63.5625,51.2 63.1337501,51.245 62.72,51.329375 L62.72,43.52 L58.88,43.52 C56.7887501,43.52 54.9287501,44.5287501 53.76,46.0837501 C52.5912499,44.5287501 50.7312499,43.52 48.64,43.52 L44.8,43.52 L44.8,51.329375 C44.3862499,51.245 43.9575,51.2 43.52,51.2 L42.24,51.2 L42.24,46.08 L39.68,46.08 L39.68,51.2 L37.12,51.2 L37.12,53.76 L43.52,53.76 C45.1862499,53.76 46.594375,54.8337501 47.124375,56.32 L33.246875,56.32 C34.059375,55.2475 34.56,53.9262499 34.56,52.48 L34.56,47.0512499 C34.56,45.350625 35.701875,43.8337501 37.3362499,43.3625 L37.3362499,43.3625 Z M49.790625,56.32 C49.474375,54.7675 48.58,53.4362499 47.36,52.513125 L47.36,46.08 L48.64,46.08 C50.756875,46.08 52.48,47.803125 52.48,49.92 L52.48,56.32 L49.790625,56.32 Z M55.04,49.92 C55.04,47.803125 56.763125,46.08 58.88,46.08 L60.16,46.08 L60.16,52.513125 C58.94,53.4362499 58.045625,54.7687501 57.729375,56.32 L55.04,56.32 L55.04,49.92 Z M6.36687504,28.16 L28.16,28.16 C30.276875,28.16 32,29.883125 32,32 C32,34.116875 30.276875,35.84 28.16,35.84 L6.36687504,35.84 C7.17937504,34.7675 7.68,33.4462499 7.68,32 C7.68,30.5537501 7.17937504,29.2325 6.36687504,28.16 Z M2.56,42.24 C2.56,40.123125 4.28312496,38.4 6.4,38.4 L28.193125,38.4 C27.380625,39.4725 26.88,40.7937501 26.88,42.24 C26.88,43.6862499 27.380625,45.0075 28.193125,46.08 L6.4,46.08 C4.28312496,46.08 2.56,44.356875 2.56,42.24 Z M6.4,48.64 L28.16,48.64 C30.276875,48.64 32,50.363125 32,52.48 C32,54.596875 30.276875,56.32 28.16,56.32 L6.36687504,56.32 C7.17937504,55.2475 7.68,53.9262499 7.68,52.48 C7.68,51.0337501 7.17937504,49.7125 6.36687504,48.64 L6.4,48.64 Z M74.24,76.8 L5.12,76.8 L5.12,64 L10.24,64 L10.24,71.68 L33.28,71.68 L33.28,64 L46.08,64 L46.08,71.68 L69.12,71.68 L69.12,64 L74.24,64 L74.24,76.8 Z M12.8,64 L30.72,64 L30.72,69.12 L12.8,69.12 L12.8,64 Z M48.64,64 L66.56,64 L66.56,69.12 L48.64,69.12 L48.64,64 Z M2.56,61.44 L2.56,58.88 L76.8,58.88 L76.8012499,61.44 L2.56,61.44 Z" id="Shape"></path>
            </g>
        </g>
    </g>
</svg>