<?xml version="1.0" encoding="UTF-8"?>
<svg width="24px" height="20px" viewBox="0 0 24 20" version="1.1" xmlns="http://www.w3.org/2000/svg" xmlns:xlink="http://www.w3.org/1999/xlink">
    <title>066FF251-B4C7-45D6-9DF4-2B162F64473F@0,5x</title>
    <g id="Web-Superadmin" stroke="none" stroke-width="1" fill="none" fill-rule="evenodd">
        <g id="Icon5" transform="translate(-953.000000, -62.000000)" fill="#0091FF" fill-rule="nonzero">
            <g id="history-on" transform="translate(953.000000, 62.000000)">
                <polygon id="Path" points="12.2222396 5.55557292 12.2222396 11.1110937 16.9777604 13.9333333 17.7777604 12.5833333 13.8889062 10.2777604 13.8889062 5.55557292"></polygon>
                <path d="M13.3277604,0 C7.8,0 3.33333333,4.47776042 3.33333333,10 L0,10 L4.32776042,14.3277604 L4.40552083,14.4888542 L8.88890625,10 L5.55557292,10 C5.55557292,5.70557292 9.03890625,2.22223958 13.3333333,2.22223958 C17.6277604,2.22223958 21.1110937,5.70557292 21.1110937,10 C21.1110937,14.2944271 17.6277604,17.7777604 13.3333333,17.7777604 C11.1833333,17.7777604 9.24442708,16.9 7.83890625,15.4944271 L6.26666667,17.0666667 C8.07223958,18.8777604 10.5666667,20 13.3277604,20 C18.8555729,20 23.3333333,15.5222396 23.3333333,10 C23.3333333,4.47776042 18.8555729,0 13.3277604,0 Z" id="Path"></path>
            </g>
        </g>
    </g>
</svg>