<?xml version="1.0" encoding="UTF-8"?>
<svg width="26px" height="26px" viewBox="0 0 26 26" version="1.1" xmlns="http://www.w3.org/2000/svg" xmlns:xlink="http://www.w3.org/1999/xlink">
    <title>82AB8F2A-7D95-4248-AD52-BC5ECF165BAB@0,5x</title>
    <g id="Web-Superadmin" stroke="none" stroke-width="1" fill="none" fill-rule="evenodd">
        <g id="Icon5" transform="translate(-676.000000, -58.000000)" fill="#0091FF" fill-rule="nonzero" stroke="#0091FF" stroke-width="0.5">
            <g id="Personnel-on" transform="translate(677.000000, 59.000000)">
                <path d="M22.1958525,16.1290323 L22.6574501,16.1290323 C23.2926267,16.1290323 23.8095238,15.6121352 23.8095238,14.9769585 C23.8095238,14.3417819 23.2926267,13.8248848 22.6574501,13.8248848 L22.4731183,13.8248848 L22.6835637,13.3367896 C23.078341,12.422427 23.0076805,11.3663594 22.4953917,10.5122888 C22.1705069,9.97081413 21.6954685,9.54646697 21.1209677,9.28533026 L20.0491551,8.79723502 C18.7837942,8.22119816 17.2323349,8.38940092 16.1201997,9.2235023 L15.5145929,9.67741935 L15.515361,9.67857143 C14.9162826,9.83486943 14.3874808,10.2204301 14.062596,10.7619048 C13.9623656,10.9289555 13.8859447,11.1048387 13.8294931,11.2857143 L13.8248848,11.2834101 L13.8248848,10.2331029 C14.7580645,9.69124424 15.4454685,8.77073733 15.6674347,7.68049155 L16.1290323,7.68049155 C16.7642089,7.68049155 17.281106,7.16359447 17.281106,6.52841782 C17.281106,5.89324117 16.7642089,5.37634409 16.1290323,5.37634409 L15.9447005,5.37634409 L16.1551459,4.88824885 C16.5499232,3.97388633 16.4792627,2.91781874 15.9669739,2.06374808 C15.6420891,1.52227343 15.1670507,1.09792627 14.5925499,0.836789555 L13.5207373,0.348694316 C12.2553763,-0.22734255 10.7039171,-0.0587557604 9.59178187,0.774961598 L8.98617512,1.22887865 L8.98694316,1.23003072 C8.38786482,1.38632873 7.85906298,1.7718894 7.53417819,2.31336406 C7.11136713,3.01843318 7.07834101,3.87826421 7.44585253,4.61367127 L7.82718894,5.37634409 L7.68049155,5.37634409 C7.0453149,5.37634409 6.52841782,5.89324117 6.52841782,6.52841782 C6.52841782,7.16359447 7.0453149,7.68049155 7.68049155,7.68049155 L8.14208909,7.68049155 C8.3640553,8.77073733 9.05145929,9.69124424 9.98463902,10.2331029 L9.98463902,11.2834101 L9.78840246,11.3817204 C9.71582181,11.0791091 9.60215054,10.7849462 9.43855607,10.5122888 C9.11367127,9.97081413 8.63863287,9.54646697 8.0641321,9.28533026 L6.99231951,8.79723502 C5.72695853,8.22119816 4.17549923,8.38940092 3.06336406,9.2235023 L2.4577573,9.67741935 L2.45852535,9.67857143 C1.859447,9.83486943 1.33064516,10.2204301 1.00576037,10.7619048 C0.582949309,11.4669739 0.549923195,12.3268049 0.917434716,13.062212 L1.29877112,13.8248848 L1.15207373,13.8248848 C0.516897081,13.8248848 0,14.3417819 0,14.9769585 C0,15.6121352 0.516897081,16.1290323 1.15207373,16.1290323 L1.61367127,16.1290323 C1.83563748,17.219278 2.52304147,18.1397849 3.4562212,18.6816436 L3.4562212,19.6397849 L0.709677419,20.062212 C0.522273425,20.0913978 0.384024578,20.2523041 0.384024578,20.4420123 L0.384024578,23.4254992 C0.384024578,23.6374808 0.556067588,23.8095238 0.768049155,23.8095238 L4.99231951,23.8095238 L5.76036866,23.8095238 L10.7526882,23.8095238 L18.0491551,23.8095238 L18.8172043,23.8095238 L23.0414747,23.8095238 C23.2534562,23.8095238 23.4254992,23.6374808 23.4254992,23.4254992 L23.4254992,20.4420123 C23.4254992,20.2523041 23.2872504,20.0913978 23.0998464,20.062596 L20.3533026,19.6397849 L20.3533026,18.6816436 C21.2864823,18.1397849 21.9738863,17.219278 22.1958525,16.1290323 Z M21.5053763,15.3609831 C21.5053763,17.0549155 20.1271121,18.4331797 18.4331797,18.4331797 C16.7392473,18.4331797 15.3609831,17.0549155 15.3609831,15.3609831 L15.3609831,13.9155146 L15.8824885,12.8721198 L16.1290323,13.0568356 C16.7895545,13.5522273 17.6079109,13.8248848 18.4331797,13.8248848 C19.2584485,13.8248848 20.0768049,13.5522273 20.7373272,13.0568356 L20.983871,12.8721198 L21.5053763,13.9155146 L21.5053763,15.3609831 Z M16.5130568,19.6397849 L13.1102151,20.1632104 C12.6612903,20.2323349 12.249232,20.4105223 11.9013057,20.6728111 C11.5491551,20.4078341 11.140937,20.2311828 10.6993088,20.1632104 L7.29646697,19.6397849 L7.29646697,18.6816436 C7.43010753,18.6040707 7.55760369,18.5184332 7.68049155,18.4258833 L7.68049155,18.4331797 L16.1290323,18.4331797 L16.1290323,18.4258833 C16.2519201,18.5184332 16.3794163,18.6040707 16.5130568,18.6816436 L16.5130568,19.6397849 Z M11.6332565,13.328341 C11.7081413,13.4032258 11.8064516,13.4408602 11.9047619,13.4408602 C12.0030722,13.4408602 12.1013825,13.4032258 12.1762673,13.328341 L12.5049923,12.999616 L12.6332565,13.3840246 L12.0833333,14.2089094 L11.7261905,14.2089094 L11.1762673,13.3840246 L11.3045315,12.999616 L11.6332565,13.328341 Z M13.5165131,11.9880952 L13.7265745,12.093318 C13.7407834,12.4247312 13.8202765,12.7546083 13.9742704,13.062596 L14.3556068,13.8248848 L14.2089094,13.8248848 C13.5737327,13.8248848 13.0568356,14.3417819 13.0568356,14.9769585 C13.0568356,15.6121352 13.5737327,16.1290323 14.2089094,16.1290323 L14.6705069,16.1290323 C14.7864823,16.6973886 15.03149,17.2177419 15.3682796,17.6651306 L12.7419355,17.6651306 L13.0514593,15.8083717 C13.061828,15.7465438 13.0568356,15.6831797 13.0368664,15.6236559 L12.7123656,14.6497696 L13.3763441,13.6539939 C13.4420123,13.5552995 13.4585253,13.4320276 13.421275,13.3195084 L13.1121352,12.3924731 L13.5165131,11.9880952 Z M14.5929339,15.3609831 L14.2089094,15.3609831 C13.9973118,15.3609831 13.8248848,15.1885561 13.8248848,14.9769585 C13.8248848,14.765361 13.9973118,14.5929339 14.2089094,14.5929339 L14.5929339,14.5929339 L14.5929339,15.3609831 Z M11.531106,15.7761137 L11.797619,14.9769585 L12.0119048,14.9769585 L12.2784178,15.7761137 L11.9635177,17.6651306 L11.8460061,17.6651306 L11.531106,15.7761137 Z M23.0414747,14.9769585 C23.0414747,15.1885561 22.8690476,15.3609831 22.6574501,15.3609831 L22.2734255,15.3609831 L22.2734255,14.5929339 L22.6574501,14.5929339 C22.8690476,14.5929339 23.0414747,14.765361 23.0414747,14.9769585 Z M14.7211982,11.1570661 C15.0130568,10.6708909 15.546851,10.3686636 16.1136713,10.3686636 C16.7158218,10.3686636 17.2745776,10.6678187 17.609063,11.1685868 L17.7296467,11.3494624 L18.3686636,10.9235791 L18.2480799,10.7427035 C17.9016897,10.2235023 17.3851767,9.85867896 16.7995392,9.69662058 C17.6689708,9.15745008 18.7953149,9.06989247 19.7307988,9.49577573 L20.8026114,9.98387097 C21.234639,10.1804916 21.5921659,10.499616 21.8367896,10.9070661 C22.2223502,11.5495392 22.2753456,12.344086 21.9784946,13.0322581 L21.952765,13.0921659 L21.4650538,12.1167435 C21.4139785,12.014977 21.3206605,11.9408602 21.2096774,11.9147465 C21.0990783,11.8886329 20.9823349,11.9128264 20.890937,11.9811828 L20.2764977,12.4420123 C19.7480799,12.8387097 19.093318,13.0568356 18.4331797,13.0568356 C17.7730415,13.0568356 17.1182796,12.8387097 16.5898618,12.4423963 L15.9754224,11.9815668 C15.8840246,11.9128264 15.7668971,11.8882488 15.656682,11.9151306 C15.5456989,11.9412442 15.452381,12.015361 15.4013057,12.1171275 L14.8809524,13.1582181 L14.6612903,12.718894 C14.4116743,12.2196621 14.4339478,11.6355607 14.7211982,11.1570661 L14.7211982,11.1570661 Z M16.5130568,6.52841782 C16.5130568,6.74001536 16.3406298,6.9124424 16.1290323,6.9124424 L15.7450077,6.9124424 L15.7450077,6.14439324 L16.1290323,6.14439324 C16.3406298,6.14439324 16.5130568,6.31682028 16.5130568,6.52841782 Z M8.19278034,2.70852535 C8.48463902,2.22235023 9.01843318,1.92012289 9.58525346,1.92012289 C10.187404,1.92012289 10.7461598,2.21927803 11.0806452,2.72004608 L11.2012289,2.90092166 L11.8402458,2.4750384 L11.7196621,2.29416283 C11.3732719,1.7749616 10.8567588,1.41013825 10.2711214,1.24807988 C11.140169,0.70890937 12.2668971,0.621351767 13.202381,1.04723502 L14.2741935,1.53533026 C14.7062212,1.73195084 15.0637481,2.05107527 15.3083717,2.45852535 C15.6939324,3.10099846 15.7469278,3.89554531 15.4500768,4.58371736 L15.4243472,4.64362519 L14.9366359,3.66820276 C14.8855607,3.56643625 14.7922427,3.49231951 14.6812596,3.46620584 C14.5706605,3.43970814 14.4539171,3.46428571 14.3625192,3.53264209 L13.7480799,3.99347158 C13.2196621,4.39016897 12.5649002,4.60829493 11.9047619,4.60829493 C11.2446237,4.60829493 10.5898618,4.39016897 10.0614439,3.99385561 L9.44700461,3.53302611 C9.35599078,3.46428571 9.23886329,3.43970814 9.12826421,3.46658986 C9.01728111,3.49270353 8.92396313,3.56682028 8.87288786,3.66858679 L8.35253456,4.70967742 L8.1328725,4.2703533 C7.88325653,3.77112135 7.90552995,3.18701997 8.19278034,2.70852535 Z M7.68049155,6.9124424 C7.46889401,6.9124424 7.29646697,6.74001536 7.29646697,6.52841782 C7.29646697,6.31682028 7.46889401,6.14439324 7.68049155,6.14439324 L8.06451613,6.14439324 L8.06451613,6.9124424 L7.68049155,6.9124424 Z M8.83256528,6.9124424 L8.83256528,5.46697389 L9.35407066,4.42357911 L9.60061444,4.60829493 C10.2611367,5.10368664 11.0794931,5.37634409 11.9047619,5.37634409 C12.7300307,5.37634409 13.5483871,5.10368664 14.2089094,4.60829493 L14.4554531,4.42357911 L14.9769585,5.46697389 L14.9769585,6.9124424 C14.9769585,8.60637481 13.5986943,9.98463902 11.9047619,9.98463902 C10.2108295,9.98463902 8.83256528,8.60637481 8.83256528,6.9124424 Z M11.9047619,10.7526882 C12.3060676,10.7526882 12.6927803,10.6904762 13.0568356,10.5756528 L13.0568356,11.3617512 L11.9047619,12.5138249 L10.7526882,11.3617512 L10.7526882,10.5756528 C11.1167435,10.6904762 11.5034562,10.7526882 11.9047619,10.7526882 L11.9047619,10.7526882 Z M10.2930108,11.9880952 L10.6973886,12.3924731 L10.3882488,13.3195084 C10.3506144,13.4320276 10.3671275,13.5552995 10.4331797,13.6539939 L11.0971582,14.6497696 L10.7726575,15.6236559 C10.7526882,15.6831797 10.7480799,15.7465438 10.7580645,15.8083717 L11.0675883,17.6651306 L8.44124424,17.6651306 C8.77841782,17.2177419 9.0234255,16.6973886 9.1390169,16.1290323 L9.60061444,16.1290323 C10.2357911,16.1290323 10.7526882,15.6121352 10.7526882,14.9769585 C10.7526882,14.3417819 10.2357911,13.8248848 9.60061444,13.8248848 L9.41628264,13.8248848 L9.62672811,13.3367896 C9.78417819,12.9719662 9.86443932,12.5848694 9.87519201,12.1970046 L10.2930108,11.9880952 Z M9.21658986,14.5929339 L9.60061444,14.5929339 C9.81221198,14.5929339 9.98463902,14.765361 9.98463902,14.9769585 C9.98463902,15.1885561 9.81221198,15.3609831 9.60061444,15.3609831 L9.21658986,15.3609831 L9.21658986,14.5929339 Z M1.66436252,11.1570661 C1.9562212,10.6708909 2.49001536,10.3686636 3.05683564,10.3686636 C3.65898618,10.3686636 4.21774194,10.6678187 4.55222734,11.1685868 L4.67281106,11.3494624 L5.31182796,10.9235791 L5.19124424,10.7427035 C4.84485407,10.2235023 4.32834101,9.85867896 3.74270353,9.69662058 C4.61175115,9.15745008 5.73847926,9.06989247 6.67396313,9.49577573 L7.74577573,9.98387097 C8.17780338,10.1804916 8.53533026,10.499616 8.77995392,10.9070661 C9.16551459,11.5495392 9.21850998,12.344086 8.92165899,13.0322581 L8.89592934,13.0921659 L8.40821813,12.1167435 C8.35714286,12.014977 8.26382488,11.9408602 8.15284178,11.9147465 C8.04262673,11.8886329 7.92511521,11.9128264 7.83410138,11.9811828 L7.21966206,12.4420123 C6.69124424,12.8387097 6.03648233,13.0568356 5.37634409,13.0568356 C4.71620584,13.0568356 4.06144393,12.8387097 3.53302611,12.4423963 L2.91858679,11.9815668 C2.82718894,11.9128264 2.70967742,11.8882488 2.59984639,11.9151306 C2.48886329,11.9412442 2.39554531,12.015361 2.34447005,12.1171275 L1.82411674,13.1582181 L1.60445469,12.718894 C1.35483871,12.2196621 1.37711214,11.6355607 1.66436252,11.1570661 L1.66436252,11.1570661 Z M1.15207373,15.3609831 C0.94047619,15.3609831 0.768049155,15.1885561 0.768049155,14.9769585 C0.768049155,14.765361 0.94047619,14.5929339 1.15207373,14.5929339 L1.53609831,14.5929339 L1.53609831,15.3609831 L1.15207373,15.3609831 Z M2.30414747,15.3609831 L2.30414747,13.9155146 L2.82565284,12.8721198 L3.07219662,13.0568356 C3.73271889,13.5522273 4.55107527,13.8248848 5.37634409,13.8248848 C6.2016129,13.8248848 7.01996928,13.5522273 7.68049155,13.0568356 L7.92703533,12.8721198 L8.44854071,13.9155146 L8.44854071,15.3609831 C8.44854071,17.0549155 7.0702765,18.4331797 5.37634409,18.4331797 C3.68241167,18.4331797 2.30414747,17.0549155 2.30414747,15.3609831 Z M5.37634409,19.2012289 C5.77764977,19.2012289 6.16436252,19.1390169 6.52841782,19.0241935 L6.52841782,19.8102919 L5.37634409,20.9623656 L4.22427035,19.8102919 L4.22427035,19.0241935 C4.58832565,19.1390169 4.9750384,19.2012289 5.37634409,19.2012289 Z M1.15207373,20.7715054 L3.7062212,20.3782642 L4.16897081,20.8410138 L3.85983103,21.7680492 C3.82757296,21.8648233 3.83525346,21.9700461 3.88056836,22.0614439 L4.37096774,23.0414747 L1.15207373,23.0414747 L1.15207373,20.7715054 Z M5.2296467,23.0414747 L4.63863287,21.859831 L4.77572965,21.4481567 L5.10445469,21.7768817 C5.1797235,21.8517665 5.27803379,21.8894009 5.37634409,21.8894009 C5.47465438,21.8894009 5.57296467,21.8517665 5.64784946,21.7768817 L5.9765745,21.4481567 L6.11367127,21.859831 L5.52304147,23.0414747 L5.2296467,23.0414747 Z M10.499616,23.0414747 L6.38172043,23.0414747 L6.87173579,22.0610599 C6.91743472,21.9700461 6.92473118,21.8644393 6.89247312,21.7676651 L6.58333333,20.8406298 L7.04608295,20.3778802 L10.5821813,20.922043 C10.8629032,20.9654378 11.124424,21.0714286 11.3563748,21.2269585 C11.2361751,21.391321 11.1305684,21.5683564 11.0480031,21.7611367 L10.499616,23.0414747 Z M11.7538402,22.0641321 C12.0168971,21.4508449 12.5675883,21.0241935 13.2265745,20.922427 L16.7626728,20.3782642 L17.2254224,20.8410138 L16.9162826,21.7680492 C16.8840246,21.8648233 16.8917051,21.9700461 16.93702,22.0614439 L17.4278034,23.0414747 L11.3352535,23.0414747 L11.7538402,22.0641321 Z M18.2864823,23.0414747 L17.6954685,21.859831 L17.8325653,21.4481567 L18.1612903,21.7768817 C18.2365591,21.8517665 18.3348694,21.8894009 18.4331797,21.8894009 C18.53149,21.8894009 18.6298003,21.8517665 18.7046851,21.7768817 L19.0334101,21.4481567 L19.1705069,21.859831 L18.5798771,23.0414747 L18.2864823,23.0414747 Z M22.6574501,23.0414747 L19.4385561,23.0414747 L19.9285714,22.0610599 C19.9742704,21.9700461 19.9815668,21.8644393 19.9493088,21.7676651 L19.640169,20.8406298 L20.1029186,20.3778802 L22.6574501,20.7715054 L22.6574501,23.0414747 Z M19.5852535,19.8102919 L18.4331797,20.9623656 L17.281106,19.8102919 L17.281106,19.0241935 C17.6451613,19.1390169 18.031874,19.2012289 18.4331797,19.2012289 C18.8344854,19.2012289 19.2211982,19.1390169 19.5852535,19.0241935 L19.5852535,19.8102919 Z" id="Shape"></path>
            </g>
        </g>
    </g>
</svg>