<?xml version="1.0" encoding="UTF-8"?>
<svg width="21px" height="20px" viewBox="0 0 21 20" version="1.1" xmlns="http://www.w3.org/2000/svg" xmlns:xlink="http://www.w3.org/1999/xlink">
    <title>CA8A13B4-BDAD-4B15-AAA1-1535DB34DEB9@0,5x</title>
    <g id="Web-Superadmin" stroke="none" stroke-width="1" fill="none" fill-rule="evenodd">
        <g id="Icon5" transform="translate(-52.000000, -62.000000)" fill="#0091FF" fill-rule="nonzero">
            <g id="Lessons-on" transform="translate(52.000000, 62.000000)">
                <path d="M19.4901579,0 L12.3921326,0 C11.4310364,0 10.5762146,0.463450072 10.039196,1.17850749 C9.50217745,0.463450072 8.64735559,0 7.68625944,0 L0.588234141,0 C0.263372033,0 0,0.263372033 0,0.588234141 L0,17.0587901 C0,17.3836522 0.263372033,17.6470242 0.588234141,17.6470242 L7.15712322,17.6470242 C7.43045602,18.9878059 8.61884585,20 10.039196,20 C11.4595462,20 12.647936,18.9878059 12.9212688,17.6470242 L14.156835,17.6470242 L14.156835,19.4117266 C14.156835,19.6496477 14.3001288,19.8641179 14.5199715,19.9551766 C14.7397358,20.0462352 14.9927941,19.9959216 15.1610291,19.8276474 L15.9215374,19.0671391 L16.6820849,19.8276866 C16.7945945,19.9402354 16.9450648,20 17.0981233,20 C17.1739271,20 17.2503583,19.9853726 17.3231033,19.9552158 C17.5429068,19.8641571 17.6862398,19.649687 17.6862398,19.4117659 L17.6862398,17.6470634 L19.4901579,17.6470634 C19.81502,17.6470634 20.078392,17.3836914 20.078392,17.0588293 L20.078392,0.588273356 C20.078392,0.263372033 19.81502,0 19.4901579,0 Z M12.3921326,1.17646828 L18.9019237,1.17646828 L18.9019237,11.7646828 L12.3921326,11.7646828 C11.7306044,11.7646828 11.1193115,11.9842902 10.6274301,12.3542895 L10.6274301,2.9411707 C10.6274301,1.96811379 11.4190756,1.17646828 12.3921326,1.17646828 Z M12.3921326,14.1176194 C11.730526,14.1176194 11.1193507,14.3373444 10.6274301,14.7074614 L10.6274301,14.7058535 C10.6274301,13.7327966 11.4190756,12.9411511 12.3921326,12.9411511 L18.9019237,12.9411511 L18.9019237,14.1176194 L12.3921326,14.1176194 Z M1.17646828,12.9411511 L7.68625944,12.9411511 C8.65931635,12.9411511 9.45096186,13.7327966 9.45096186,14.7058535 L9.45096186,14.7074614 C8.95904126,14.3373444 8.34786598,14.1176194 7.68625944,14.1176194 L1.17646828,14.1176194 L1.17646828,12.9411511 Z M1.17646828,1.17646828 L7.68625944,1.17646828 C8.65931635,1.17646828 9.45096186,1.96811379 9.45096186,2.9411707 L9.45096186,12.3542895 C8.95908047,11.984251 8.34778755,11.7646828 7.68625944,11.7646828 L1.17646828,11.7646828 L1.17646828,1.17646828 Z M12.3921326,16.4705559 C12.0672705,16.4705559 11.8038984,16.733928 11.8038984,17.0587901 C11.8038984,18.031847 11.0122529,18.8234925 10.039196,18.8234925 C9.06613909,18.8234925 8.27449358,18.031847 8.27449358,17.0587901 C8.27449358,16.733928 8.01112155,16.4705559 7.68625944,16.4705559 L1.17646828,16.4705559 L1.17646828,15.2940877 L7.68625944,15.2940877 C8.65931635,15.2940877 9.45096186,16.0857332 9.45096186,17.0587901 C9.45096186,17.3836522 9.71433389,17.6470242 10.039196,17.6470242 C10.3640581,17.6470242 10.6274301,17.3836522 10.6274301,17.0587901 C10.6274301,16.0857332 11.4190756,15.2940877 12.3921326,15.2940877 L14.156835,15.2940877 L14.156835,16.4705559 L12.3921326,16.4705559 Z M16.3374582,17.8193376 C16.1077723,17.5896518 15.7353025,17.5896518 15.5055774,17.8193376 L15.3333033,17.991651 L15.3333033,15.2941269 L16.5097715,15.2941269 L16.5097715,17.991651 L16.3374582,17.8193376 Z M17.6862398,16.4705559 L17.6862398,15.2940877 L18.9019237,15.2940877 L18.9019237,16.4705559 L17.6862398,16.4705559 Z" id="Shape"></path>
                <path d="M2.9411707,3.52940484 L7.68625944,3.52940484 C8.01112155,3.52940484 8.27449358,3.26603281 8.27449358,2.9411707 C8.27449358,2.6163086 8.01112155,2.35293656 7.68625944,2.35293656 L2.9411707,2.35293656 C2.6163086,2.35293656 2.35293656,2.6163086 2.35293656,2.9411707 C2.35293656,3.26603281 2.6163086,3.52940484 2.9411707,3.52940484 Z" id="Path"></path>
                <path d="M2.9411707,5.88234141 L7.68625944,5.88234141 C8.01112155,5.88234141 8.27449358,5.61896937 8.27449358,5.29410727 C8.27449358,4.96924516 8.01112155,4.70587313 7.68625944,4.70587313 L2.9411707,4.70587313 C2.6163086,4.70587313 2.35293656,4.96924516 2.35293656,5.29410727 C2.35293656,5.61896937 2.6163086,5.88234141 2.9411707,5.88234141 Z" id="Path"></path>
                <path d="M2.9411707,8.23527797 L7.68625944,8.23527797 C8.01112155,8.23527797 8.27449358,7.97190594 8.27449358,7.64704383 C8.27449358,7.32218172 8.01112155,7.05880969 7.68625944,7.05880969 L2.9411707,7.05880969 C2.6163086,7.05880969 2.35293656,7.32218172 2.35293656,7.64704383 C2.35293656,7.97190594 2.6163086,8.23527797 2.9411707,8.23527797 Z" id="Path"></path>
                <path d="M8.27449358,9.99998039 C8.27449358,9.67511828 8.01112155,9.41174625 7.68625944,9.41174625 L2.9411707,9.41174625 C2.6163086,9.41174625 2.35293656,9.67511828 2.35293656,9.99998039 C2.35293656,10.3248425 2.6163086,10.5882145 2.9411707,10.5882145 L7.68625944,10.5882145 C8.01112155,10.5882145 8.27449358,10.3248817 8.27449358,9.99998039 L8.27449358,9.99998039 Z" id="Path"></path>
                <path d="M12.3921326,3.52940484 L17.1372213,3.52940484 C17.4620834,3.52940484 17.7254554,3.26603281 17.7254554,2.9411707 C17.7254554,2.6163086 17.4620834,2.35293656 17.1372213,2.35293656 L12.3921326,2.35293656 C12.0672705,2.35293656 11.8038984,2.6163086 11.8038984,2.9411707 C11.8038984,3.26603281 12.0672705,3.52940484 12.3921326,3.52940484 Z" id="Path"></path>
                <path d="M12.3921326,5.88234141 L17.1372213,5.88234141 C17.4620834,5.88234141 17.7254554,5.61896937 17.7254554,5.29410727 C17.7254554,4.96924516 17.4620834,4.70587313 17.1372213,4.70587313 L12.3921326,4.70587313 C12.0672705,4.70587313 11.8038984,4.96924516 11.8038984,5.29410727 C11.8038984,5.61896937 12.0672705,5.88234141 12.3921326,5.88234141 Z" id="Path"></path>
                <path d="M12.3921326,8.23527797 L17.1372213,8.23527797 C17.4620834,8.23527797 17.7254554,7.97190594 17.7254554,7.64704383 C17.7254554,7.32218172 17.4620834,7.05880969 17.1372213,7.05880969 L12.3921326,7.05880969 C12.0672705,7.05880969 11.8038984,7.32218172 11.8038984,7.64704383 C11.8038984,7.97190594 12.0672705,8.23527797 12.3921326,8.23527797 Z" id="Path"></path>
                <path d="M12.3921326,10.5882145 L17.1372213,10.5882145 C17.4620834,10.5882145 17.7254554,10.3248425 17.7254554,9.99998039 C17.7254554,9.67511828 17.4620834,9.41174625 17.1372213,9.41174625 L12.3921326,9.41174625 C12.0672705,9.41174625 11.8038984,9.67511828 11.8038984,9.99998039 C11.8038984,10.3248425 12.0672705,10.5882145 12.3921326,10.5882145 Z" id="Path"></path>
            </g>
        </g>
    </g>
</svg>